<?xml version="1.0" encoding="UTF-8"?>
<!DOCTYPE svg PUBLIC "-//W3C//DTD SVG 1.1//EN" "http://www.w3.org/Graphics/SVG/1.1/DTD/svg11.dtd">
<!-- Creator: CorelDRAW Home & Student 2019 -->
<svg xmlns="http://www.w3.org/2000/svg" xml:space="preserve" width="400px" height="400px" version="1.1" style="shape-rendering:geometricPrecision; text-rendering:geometricPrecision; image-rendering:optimizeQuality; fill-rule:evenodd; clip-rule:evenodd"
viewBox="0 0 75.47 75.47"
 xmlns:xlink="http://www.w3.org/1999/xlink">
 <defs>
  <style type="text/css">
   <![CDATA[
    .fil0 {fill:#B2B09C}
    .fil5 {fill:#0A0A0A}
    .fil2 {fill:#151413}
    .fil6 {fill:#44484E}
    .fil7 {fill:#4D4D4D}
    .fil3 {fill:#5D6265}
    .fil8 {fill:#838383}
    .fil1 {fill:#868686}
    .fil4 {fill:#AFAFAE}
   ]]>
  </style>
 </defs>
 <g id="Layer_x0020_1">
  <metadata id="CorelCorpID_0Corel-Layer"/>
  <rect class="fil0" width="75.47" height="75.47"/>
  <g id="_1005353024">
   <path class="fil1" d="M22.09 42.58c0,0 -1.78,1.65 -2.36,3.3 -0.58,1.65 -1.56,5.65 -1.96,6.01 -0.4,0.36 -1.74,0.98 -2.22,1.2 -0.49,0.22 -1.56,0.45 -1.56,1.2 0,0.76 0.98,0.76 2.67,0.49 1.69,-0.27 2.32,-0.36 2.63,-0.76 0.31,-0.4 2.05,-6.72 2.31,-7.12 0.27,-0.4 0.76,-1.52 2.28,-2.67 1.51,-1.16 3.24,-2.59 3.24,-2.59l-2.85 -1.77 -2.18 2.71z"/>
   <path class="fil2" d="M13.29 27.38c0,0 -0.51,-1.2 -1.96,-0.82 -1.27,0.33 -1.96,2.24 -1.6,3.14 0.36,0.89 1.36,1.29 1.36,1.29l2.2 -3.61z"/>
   <path class="fil3" d="M14.45 13.67c-0.36,0.04 -0.93,2.38 -2.63,2.05 -1.25,-0.25 -1.01,-2 0.58,-2.87 1.42,-0.78 2.34,-0.47 3.21,-0.16 1.28,0.46 2.56,1.87 3.18,3.52 0.62,1.64 1.36,3.71 1.67,6.14 0.31,2.47 0.13,2.56 0.13,2.56l-1.2 0.09c0,0 0.23,-0.62 -0.22,-3.32 -0.25,-1.52 -0.87,-3.43 -1.42,-4.85 -0.63,-1.58 -1.92,-3.31 -3.3,-3.16z"/>
   <path class="fil3" d="M24.58 15.32c-0.33,-0.06 -1.16,1.09 -2.33,0.42 -1.03,-0.6 -0.54,-2.14 0.99,-2.29 0.99,-0.1 2.22,0.61 2.83,1.22 0.94,0.96 1.63,2.54 1.94,4.14 0.32,1.66 0.28,3.21 -0.4,5.46 -0.74,2.4 -1.6,3.41 -1.6,3.41l-0.94 -0.96c0,0 0.65,-0.89 1.34,-2.81 0.5,-1.39 0.8,-2.93 0.47,-4.74 -0.32,-1.67 -1.37,-3.7 -2.3,-3.85l0 0z"/>
   <path class="fil3" d="M14.56 25.49c-2.43,1.14 -5.59,4.83 -5.03,9.08 0.45,3.34 2.89,6.81 7.61,7.88 4.72,1.07 7.62,-0.44 7.62,-0.44l2.36 -0.36 2.04 2.85 6.1 0.04 4.01 -1.64c0,0 2.8,3.97 3.72,5.37 0.92,1.41 3.97,3.88 3.97,3.88 0,0 0.83,0.61 1.68,1.09 0.8,0.44 4.65,2.31 8.15,2.48 6.13,0.29 7.98,-1.41 8.37,-1.9 0.19,-0.25 0.39,-1.2 0.47,-1.71 0.06,-0.39 0.72,-4.17 0.23,-7.12 -0.4,-2.41 -1.7,-6.68 -6.55,-10.95 -4.85,-4.28 -11.44,-5.34 -15.58,-2.94 -3.91,2.27 -5.25,5.56 -5.25,5.56 0,0 -1.25,-3.3 -4.63,-3.73 -2.76,-0.36 -3.96,1.06 -3.96,1.06 0,0 0.26,-6.01 -5.79,-8.72 -4.43,-1.98 -8.2,-0.4 -9.54,0.22l0 0z"/>
   <path class="fil4" d="M32.15 33.95c-1.34,0.36 -1.87,1.82 -1.38,2.71 0.49,0.9 1.41,1.26 2.45,0.98 1.33,-0.35 1.86,-1.55 1.55,-2.45 -0.31,-0.88 -1.46,-1.55 -2.62,-1.24z"/>
   <path class="fil4" d="M43.63 36.04c0.62,1.25 2.47,1.28 4.19,0.23 1.86,-1.16 1.95,-2.81 1.29,-3.61 -0.92,-1.1 -2.81,-0.93 -3.97,-0.18 -1.15,0.75 -2.32,1.94 -1.51,3.56l0 0z"/>
   <path class="fil5" d="M16.79 29.61c-0.71,1.19 -0.9,3.28 0.89,4.07 2.05,0.9 3.32,-0.57 3.79,-1.74 0.44,-1.11 0.51,-3 -1.07,-3.65 -1.66,-0.67 -2.91,0.13 -3.61,1.32l0 0z"/>
   <path class="fil6" d="M11.36 35.48c0.06,0.63 0,1.03 -0.36,1.27 -0.44,0.3 -0.79,0.15 -0.79,0.15 0,0 -0.6,-0.58 -0.75,-1.75 -0.08,-0.65 0.03,-1.61 0.03,-1.61 0,0 1.75,0.81 1.87,1.94l0 0z"/>
   <path class="fil7" d="M28.41 38.56c0.3,0.1 -0.2,3.1 0.07,3.57 0.26,0.47 2.24,1.73 4.94,1.4 2.7,-0.33 3.91,-2.02 4.34,-2.97 0.27,-0.59 0.54,-1.57 0.73,-1.6 0.2,-0.03 1.61,2.21 2.58,3.41 0.96,1.2 1.57,2.17 3.5,4.07 1.94,1.9 4.44,3.37 4.44,3.37 0,0 -0.52,0.66 -0.94,1.18l-1 1.23c0,0 -3.05,-2.31 -4.57,-4.26 -1.48,-1.9 -3.03,-3.79 -3.27,-3.35 -0.12,0.22 0.9,1.61 1.32,2.39 0.6,1.1 1.25,2.17 1.5,2.75 0.24,0.57 1.28,3.21 1.79,4.94 0.33,1.14 0.55,2.49 0.64,2.58 0.25,0.21 1.83,1.76 2.23,2.13 0.4,0.36 1.14,1.17 0.61,1.74 -0.54,0.56 -1.71,-0.29 -1.97,-0.49 -0.27,-0.2 -2.84,-1.89 -3.14,-2.25 -0.3,-0.37 -0.74,-2.45 -0.94,-3.24 -0.21,-0.89 -1.5,-3.94 -1.7,-4.54 -0.2,-0.6 -1.4,-2.69 -1.73,-3.15 -0.52,-0.72 -0.91,-1.67 -1.71,-1.44 -0.4,0.12 -0.75,0.18 -1.08,0.33 -0.07,0.44 -0.12,6.33 -0.22,6.86 -0.1,0.54 -0.4,4.88 -0.37,5.28 0.04,0.4 1.94,2.9 2.18,3.2 0.23,0.3 0.29,0.91 -0.1,1.24 -0.4,0.33 -1.51,0.13 -1.81,-0.1 -0.3,-0.23 -2.27,-2.21 -2.44,-2.77 -0.16,-0.57 -0.13,-5.85 -0.13,-6.71 0,-0.87 0.2,-6.68 0.07,-6.95 -0.2,-0.03 -0.55,0 -1.69,-0.23 -0.65,-0.13 -1.18,-0.45 -1.38,-0.47 -0.1,0.18 -1.84,4.34 -2.17,5.58 -0.34,1.23 -1.74,7.41 -1.91,7.71 -0.16,0.3 -1.5,1.52 -2.96,2 -0.77,0.25 -3.11,0.84 -3.58,0.24 -0.47,-0.61 1.31,-1.81 2.24,-2.31 0.94,-0.5 2.04,-1.17 2.17,-1.3 0.14,-0.14 1.17,-6.11 1.31,-6.82 0.14,-0.7 2.37,-6.01 2.34,-6.24 -1.04,-0.9 -1.9,-2.5 -1.9,-2.5 0,0 1.28,-0.51 2.22,-1.37 0.73,-0.72 1.49,-2.14 1.49,-2.14l0 0z"/>
   <path class="fil7" d="M50.52 50.77c0,0 -0.64,0.86 -1.04,1.37 -0.53,0.64 -1,1.03 -1,1.03 0,0 2.26,1.11 3.61,1.59 2.1,0.75 3.39,0.83 3.39,0.83 0,0 0.64,-0.76 1.04,-1.25 0.54,-0.65 0.98,-1.34 0.98,-1.34 0,0 -2.28,-0.27 -3.88,-0.82 -2.14,-0.74 -3.1,-1.41 -3.1,-1.41l0 0z"/>
   <path class="fil7" d="M59.48 53.28c0,0 -0.61,0.89 -1.03,1.49 -0.33,0.48 -0.82,0.96 -0.82,0.96 0,0 3.23,0.1 4.95,-0.45 0.95,-0.3 2.11,-0.81 2.54,-1.37 0.3,-0.4 0.55,-2.07 0.55,-2.07 0,0 -1.03,1.14 -3.12,1.36 -1.55,0.17 -3.07,0.08 -3.07,0.08z"/>
   <path class="fil8" d="M57.5 53c0,0 0.22,0.03 0.92,0.14 0.96,0.15 1.07,0.12 1.07,0.12 0,0 2.15,-3.62 3.18,-6.69 1.06,-3.18 1.16,-7.08 1.16,-7.08 0,0 -0.56,-0.93 -0.79,-1.27 -0.22,-0.33 -0.78,-1.04 -0.78,-1.04 0,0 -0.36,5.48 -1.47,8.92 -1.32,4.11 -3.29,6.9 -3.29,6.9z"/>
   <path class="fil8" d="M49.01 49.81c0,0 3.26,-4.68 4.37,-7.98 0.51,-1.48 1.22,-4.46 1.41,-5.73 0.37,-2.6 0.13,-4.89 0.13,-4.89 0,0 0.49,0.18 1.09,0.51 0.36,0.2 0.8,0.5 0.8,0.5 0,0 0.31,1.81 -0.19,4.54 -0.38,2.12 -0.93,4.23 -1.61,6.17 -1.06,2.97 -4.47,7.85 -4.47,7.85l-1.53 -0.97 0 0z"/>
  </g>
 </g>
</svg>
