<?xml version="1.0" encoding="UTF-8"?>
<!DOCTYPE svg PUBLIC "-//W3C//DTD SVG 1.1//EN" "http://www.w3.org/Graphics/SVG/1.1/DTD/svg11.dtd">
<!-- Creator: CorelDRAW Home & Student 2019 -->
<svg xmlns="http://www.w3.org/2000/svg" xml:space="preserve" width="360px" height="116px" version="1.1" style="shape-rendering:geometricPrecision; text-rendering:geometricPrecision; image-rendering:optimizeQuality; fill-rule:evenodd; clip-rule:evenodd"
viewBox="0 0 51.39 16.56"
 xmlns:xlink="http://www.w3.org/1999/xlink">
 <defs>
  <style type="text/css">
   <![CDATA[
    .fil0 {fill:#FFFBEC}
   ]]>
  </style>
 </defs>
 <g id="Layer_x0020_1">
  <metadata id="CorelCorpID_0Corel-Layer"/>
  <path class="fil0" d="M7.48 1.86l0.11 0 0.12 0.12 -0.06 0.06 -0.06 0 -0.11 -0.12 0 -0.06zm2.35 0.75l0.11 0c0.78,0.15 1.2,0.29 1.26,0.4l-0.17 0.06c-0.7,-0.15 -1.1,-0.3 -1.2,-0.46zm-3.55 0.11l0.05 0 0 0.12 -0.17 0.17 0 -0.17 0.12 -0.12zm-4.36 0.06l0.69 0 0.06 0.06 0.05 -0.06 0.41 0c0.61,0 0.91,0.06 0.91,0.17l-0.05 0.06 -0.69 0 -0.86 -0.06 -0.57 0.06 -0.06 -0.06 0 -0.05 0.11 -0.12zm2.35 0l0.06 0 0.17 0.17 -0.06 0.06 -0.23 0 -0.11 -0.11 0.17 -0.12zm0.75 0.06l0.11 0.11 -0.06 0.06 -0.34 0 -0.12 -0.11 0.06 -0.06 0.35 0zm2.63 0.11c1.18,0.32 1.78,0.53 1.78,0.63 0.25,1.3 0.44,1.95 0.57,1.95l0.06 0.23 0.28 -0.06c0.16,0.07 0.23,0.2 0.23,0.4l0 0.12 -0.05 0.23 0.05 0.17 -0.05 0 0.05 0.06 0 0.11c0.12,2.02 0.31,3.04 0.58,3.04l-0.06 0.23 0.74 2.63 0.12 0.52 -0.06 0.05 -2.52 0 -0.57 0.06 0.11 0.17 -0.23 0c-0.95,-0.16 -1.43,-0.33 -1.43,-0.51l0 -0.06 0.17 -0.06 0.63 0.12 0.35 -0.06 1.03 0.06 0.34 0c-0.09,-1.42 -0.2,-2.12 -0.34,-2.12l-0.86 0.05 -0.75 0c-0.42,0 -0.63,0.1 -0.63,0.29l-0.4 1.26 0.12 0.29 -0.06 0.05 0.11 0.12 0 0.06c-0.11,0 -0.17,0.04 -0.17,0.11l0 0.06 0.06 0.06 0 0.05 -0.8 0.4 0 0.06c-0.42,0 -0.63,-0.21 -0.63,-0.63l-0.52 -0.11 0 0.05 -0.29 0.23 -0.05 -0.05 -0.06 0 0.11 -0.35 -0.05 0 -0.35 -0.17 0.12 -0.57 -0.06 0c-0.1,0 -0.23,-0.08 -0.4,-0.23l-0.06 0 -0.57 0.06 0.34 0.63 0 0.05 -0.11 0.12 -0.06 0 -0.05 -0.29 -0.06 0.06 -0.12 0 0 -0.06 0.06 -0.06 0 -0.05c-0.38,-0.12 -0.57,-0.25 -0.57,-0.4l-0.12 0 -0.05 0.28 0 0.06c0.3,0 0.45,0.06 0.45,0.17l-0.05 0 0.05 0.06 0 0.11c-0.07,0 -0.11,-0.05 -0.11,-0.17l-0.29 0.06 0 0.11c0.31,0.03 0.46,0.08 0.46,0.17l0 0.06c-0.57,-0.09 -0.86,-0.2 -0.86,-0.34l0 -0.17 0.35 -0.98 2.17 0.52c0.54,-1.32 0.96,-2.6 1.26,-3.84 0.27,-0.41 0.54,-1.25 0.8,-2.52 0.11,-0.09 0.26,-0.59 0.46,-1.49 0.24,-0.72 0.39,-1.09 0.46,-1.09zm4.75 0.92l0.06 0 0.52 0.12 0 0.05 -0.12 0.12 -0.11 0 -0.35 -0.29zm-1.2 0.17l0.12 0.12 -0.06 0.05 -0.06 0 -0.11 -0.11 0.06 -0.06 0.05 0zm-2.98 1.03l0 0.12 0.23 0 -0.11 -0.12 -0.12 0zm3.1 0.35l2 0 0.12 0.11 0 1.6 0.05 0.35 -0.05 0.28 0.05 0.06 0 0.06 -0.05 0.06 0 0.05 0.05 0.46 -0.05 0.06 0.05 0.28 0 0.86 0.12 0 0 0.06 -0.12 0.12 -0.51 0c-0.73,0 -1.15,0.05 -1.26,0.17l-0.12 -0.12 0 -0.11 0.98 -0.12 -0.06 -0.05 0.06 -0.69 -0.18 -0.97 0.06 -0.06 0.06 0c0.18,0 0.3,0.17 0.34,0.51l-0.11 0.75c0.11,0.04 0.17,0.15 0.17,0.34l0 0.06 -0.06 0.06 0 0.05 0.4 0 0 -2.17 -0.11 -0.17 0.06 -0.06 0.05 0 -0.05 -0.4 0 -0.63 -0.06 -0.06 0 -0.06 -0.4 0.06 -0.06 0 -0.11 -0.11 0 -0.06c0,-0.08 0.05,-0.12 0.17,-0.12l0.05 -0.05 0 -0.06 -0.28 -0.06 -0.57 0 -0.12 0.12 -0.28 -0.06 -0.35 0 0 0.11 -0.11 0 0 -0.11c-0.31,-0.1 -0.46,-0.18 -0.46,-0.23l0 -0.06 0.69 -0.05zm1.54 0.34l0 0.06 0.35 0.11 0 -0.06 -0.12 -0.11 -0.23 0zm-10.14 0.46l0.06 0.05 0 0.06 -0.06 0.06 -0.05 0 -0.06 -0.06 0 -0.06 0.06 -0.05 0.05 0zm5.62 0.8l-0.46 1.6c0.44,0.19 0.74,0.29 0.92,0.29l0.05 -0.06 0 -0.06 -0.34 -1.77 -0.17 0zm-6.19 1.03l0.12 0.23 -0.06 0.06 -0.06 0 -0.11 -0.17 0.11 -0.12zm0.06 0.52l0.06 0.05 0 0.06 -0.06 0.06 -0.06 0 -0.06 -0.06 0 -0.06 0.06 -0.05 0.06 0zm5.79 0.57l0 0.23 0.11 0.11 0.17 0 0.06 -0.28 -0.06 -0.06 -0.28 0zm4.18 0.17l0.05 0.06 0 0.06 -0.05 0.05 -0.06 0 -0.06 -0.05 0 -0.06 0.06 -0.06 0.06 0zm-9.4 2.35l0 0.17 0.17 0.12 0.23 0 0 -0.12c-0.23,0 -0.34,-0.06 -0.34,-0.17l-0.06 0zm-0.74 1.83c0.99,0 1.49,0.08 1.49,0.23l-0.06 0.06 -0.46 0c-0.8,0 -1.2,-0.06 -1.2,-0.17l0.23 -0.12zm1.83 0.12l0.29 0 0 0.11 -0.29 0 0 -0.11zm8.93 0l0.12 0 0.12 0.11 -0.06 0.06 -0.18 0 0 -0.17zm-4.63 0.68l0.11 0 0.12 0.12 -0.23 0 0 -0.12zm0.91 0.29l0.17 0 0.12 0.12 -0.29 0 0 -0.12zm3.08 -12.08l0.17 0 0 0.11 -0.17 0 0 -0.11zm-1.83 0.11l0 0.18 -0.29 0 0 -0.12 0.29 -0.06zm0.74 0l0.17 0.18 -0.06 0.05 -0.05 0c-0.19,-0.04 -0.29,-0.1 -0.29,-0.17l0.06 -0.06 0.17 0zm1.83 0l0.06 0 0.11 0.12 0 0.06 -0.11 0 -0.06 -0.18zm-1.6 0.35l0.06 0 0 0.17 -0.18 0.23 0.12 0.46 -0.29 0.28c0,-0.11 -0.05,-0.17 -0.17,-0.17l-0.06 -0.05 0 -0.06 0.18 -0.29 0 -0.11 -0.06 0 -0.46 0.11c0.39,-0.38 0.67,-0.57 0.86,-0.57zm2 0.29c0.67,1.32 1.13,2.6 1.38,3.83 0,0.18 0.19,0.62 0.57,1.32 0.15,0.34 0.28,0.52 0.4,0.52l0 -1.27 -0.06 -0.34 0.06 -0.06 -0.06 -1.14 0 -1.72 -0.05 -0.23 0.05 -0.06 0 -0.05 -0.05 -0.52c0.03,-0.19 0.08,-0.28 0.17,-0.28l1.37 0 0.06 0.05 0.06 0 -0.06 2.07 0.12 2 -0.06 0 0.06 0.06 0 0.4c0.19,0.01 0.28,0.07 0.28,0.17l-0.05 0.69 0.05 0.17 -0.05 0.23 0 0.11 0.05 0.17 -0.05 0.29 0 0.69 0.05 2.86c-0.08,0.09 -0.34,0.19 -0.8,0.29l-0.11 -0.12 -0.29 0 -0.97 0.29 -0.18 0c-0.22,0 -0.6,-0.92 -1.14,-2.75l-0.63 -1.78 -0.17 0 -0.06 0.23 0.06 1.95 0 1.66 0.05 0.29 -0.17 0.11 -0.68 0 -0.58 0.06 -0.11 -0.11 0.11 -3.27 -0.11 -2.23 0 -0.92 -0.06 -0.23c0.04,-0.46 0.1,-0.69 0.17,-0.69 -0.03,-1.48 -0.11,-2.23 -0.23,-2.23l-0.17 0.06 -0.06 -0.06 0 -0.06c0.19,-0.07 0.29,-0.19 0.29,-0.34l0.34 0 0.46 -0.06 0.46 0.06 0.34 -0.11zm-2.23 3.72l0.06 0.06 0 0.05 -0.12 0.12 -0.05 -0.06 0 -0.06 0.11 -0.11zm4.35 3.03l0.23 0.81 0.12 0 0.06 -0.29 0 -0.4c0,-0.28 -0.06,-0.43 -0.18,-0.46l-0.06 0c-0.11,0.04 -0.17,0.15 -0.17,0.34zm2.01 4.13l0.06 0.06 0 0.05 -0.18 0.12 -0.11 0 0.23 -0.23zm0.9 -10.94l2.52 0.06 0.12 0.11 0 0.92 0.05 1.14c-0.3,0.08 -0.45,0.15 -0.45,0.23l0 1.55 0.28 3.61c0.08,0 0.12,0.09 0.12,0.28l0 0.17c0,0.06 -0.15,0.14 -0.46,0.23l-0.17 -0.05 -0.29 0.05 -0.4 -0.05c-0.57,0.04 -0.86,0.11 -0.86,0.22l0.06 0.06 0.92 0 1.14 -0.06 0.06 0.06 0 1.43 -0.06 0.06 0 0.05 -1.55 -0.05 -0.8 0c-0.09,0 -0.15,-0.08 -0.17,-0.23l-0.11 -1.26 0.05 -0.06 0.06 0 -0.06 -0.28 0 -0.52c0,-0.07 0.19,-0.13 0.57,-0.17l0 -0.28 -0.22 -3.67 0.05 -1.26 -0.4 0 -0.11 -0.11 0 -2.07 0.11 -0.11zm1.55 3.03l-0.06 0.06 0 0.06 0.06 0.17 -0.17 0.8 0.11 0 0 -0.11 0.17 0 0 0.05 -0.05 0.06 0 0.06 0.34 0.34 0.06 0 0.05 -0.68 0 -0.06 -0.11 -0.12 0.06 -0.28 0 -0.06c-0.18,0 -0.33,-0.09 -0.46,-0.29zm-3.47 -4.09l0.92 0 0.16 0.15 -0.08 0.08 -0.58 0 -0.42 -0.08 0 -0.15zm1.91 0l1.07 0 0.17 0.15 -0.09 0.08 -1.32 0 0 -0.08 0.17 -0.15zm2.23 0.38l0.17 0 0 0.15 -0.34 0 0.17 -0.15zm-0.33 0.15l0.16 0 0 0.3 -0.16 -0.14 0 -0.16zm3.62 2.71c0.1,0 0.18,0.15 0.23,0.45 -0.1,0 -0.17,-0.15 -0.23,-0.45zm-5.54 4.54l0.18 0 0 0.12 -0.29 0.06 0 -0.06 0.11 -0.12zm5.83 -4.03l0.11 0.11 0 0.06 -0.11 0 0 -0.17zm-1.51 7.1l0.18 0 0 0.12c-1.44,0.43 -2.17,0.68 -2.18,0.74l-0.06 0.06 0 0.06 -0.52 -0.06c0,-0.16 0.5,-0.33 1.49,-0.52 0.15,-0.1 0.52,-0.24 1.09,-0.4zm0.65 -6.36l-0.06 0.18 0.06 0.28 -0.06 0.06 0.06 0.06 0.06 0 0.05 -0.52 -0.05 -0.06 -0.06 0zm-0.86 0.41l0.12 0 0.17 -0.06 -0.12 -0.12 -0.17 0.18zm-0.17 0.34l0 0.06c0.38,-0.07 0.57,-0.14 0.57,-0.23l-0.06 -0.06 -0.05 0c-0.31,0.09 -0.46,0.17 -0.46,0.23zm-5.54 4.69l-0.34 0c0,0.12 -0.04,0.17 -0.12,0.17 0.09,0.31 0.24,0.46 0.46,0.46l0.34 0.06 0.23 -0.12 -0.05 -0.05 0 -0.06 0.05 -0.06 0 -0.06 -0.4 -0.45 -0.17 0.11zm5.15 -7.45l-0.17 -0.06 0 0.06c0.11,0.34 0.27,0.51 0.46,0.51l-0.12 -0.63 -0.17 0.12zm-0.13 -2.33l-0.17 0.57 0 0.4c0,0.33 0.13,0.58 0.4,0.74l0.05 0 0 -0.91 0.06 -0.06c0,-0.32 -0.11,-0.56 -0.34,-0.74zm7.07 -0.11l0.06 0.06 0 0.06 -0.06 0.06 -0.05 0 -0.06 -0.06 0 -0.06 0.06 -0.06 0.05 0zm-3.09 0.06c0.23,0.19 0.5,0.31 0.8,0.35 0,0.11 0.1,0.17 0.29,0.17l0 0.11 -0.4 0.06 -0.63 -0.17 -0.35 0.74 -0.11 0 0 -0.11c0.12,-0.77 0.25,-1.15 0.4,-1.15zm3.78 0.17l0 0.18 -0.29 0 0 -0.12 0.29 -0.06zm-1.2 0.12l0.11 0.11 0 0.23 -0.11 0.12 -0.06 -0.06 0 -0.06c-0.1,0 -0.25,0.1 -0.46,0.29l-0.4 -0.12 -0.17 0.06 -0.17 -0.34 0.05 0 0.29 0.05 0.92 -0.28zm-6.3 0.06l0.28 0 0 0.11 -0.28 0 0 -0.11zm0.34 0.57l1.72 0c0.17,0 0.36,1.1 0.57,3.32l0.06 0.06c0.03,0.26 0.08,0.4 0.17,0.4l0.06 -0.06 0.05 0c0,0.61 0.08,0.99 0.23,1.15l0 0.11 -0.11 0.17 0 0.06 0.06 0.06 0 0.05 0.34 -0.11c0.08,0.09 0.14,0.3 0.17,0.63l0.12 0 0.17 -0.12 0.06 0 -0.18 1.32 0.06 0.23 -0.06 0.69 0.29 1.89 -0.06 0.17 -0.11 0 -0.17 -0.17 -0.4 0.06 -0.06 0 -0.57 -0.18 -0.29 -0.28 -0.97 -4.41 -0.06 0 -0.12 0.11 0.12 2.29 -0.06 0.18c0.12,0.63 0.17,1.21 0.17,1.71l-0.05 0.06 -0.06 0 -0.8 -0.23 -0.06 0.06 0 0.06c0.04,0.07 0.48,0.24 1.32,0.51l0 0.12 -0.69 -0.06 -0.17 0.17 0.11 0.12 -0.23 0.11 -1.31 0.12 0 -0.23 0.05 -0.06 0 -0.06 0.4 0.06 0.4 0c0,-0.08 -0.19,-0.12 -0.57,-0.12l0 -0.05 -0.06 0.05 -0.05 0 -0.06 -0.05 -0.06 0c0.08,-0.93 0.12,-2.46 0.12,-4.59l0 -0.4 0.11 -0.4c-0.02,-0.3 -0.06,-0.46 -0.11,-0.46 0.11,-0.14 0.17,-0.63 0.17,-1.48l-0.06 -2.24 0.17 -0.06 0 -0.05 -0.11 0 0 -0.12c0.18,0 0.31,-0.04 0.4,-0.11zm5.56 0.46l0.4 0c0.11,0.03 0.17,0.15 0.17,0.34l0 1.32c0.42,0.4 0.63,0.65 0.63,0.74l-0.06 1.2 0.06 0.06 0 0.06 -0.06 0.06 0.17 2.57 0 3.15c0,0.09 -0.13,0.16 -0.4,0.23l-1.31 -0.11 -0.46 0 -0.12 -0.12 0 -1.26 0.06 -0.51 -0.06 -0.57 0 -1.38 0.06 -0.06 -0.06 -0.05 0.06 -1.55 0 -0.17 -0.06 -0.86 -0.28 0.06 0.05 0.23 -0.45 1.2 -0.06 0c-0.3,-0.55 -0.58,-0.84 -0.86,-0.86l-0.12 -0.29 0.06 -0.05 0.17 0 0.23 0.17 0.06 0 0.06 -0.29c0,-0.06 -0.19,-0.18 -0.58,-0.34l-0.11 0.11 0 -0.05c0.34,-1.09 0.87,-1.85 1.6,-2.3 0.22,0 0.39,-0.21 0.52,-0.63l0.69 -0.05zm-7.33 2.46l0.11 0.11 -0.06 0.06 -0.05 0 -0.12 -0.11 0.06 -0.06 0.06 0zm0.45 0.97l0.63 0.06 0 0.11 -0.17 0c-0.28,0 -0.43,0.06 -0.46,0.18l0.06 1.94 -0.06 1.66 -0.11 0 0 -2.34 -0.06 -0.4 0.06 0 -0.06 -0.18 0.06 -0.17 -0.06 -0.34 0 -0.35 0.17 -0.17zm2.07 0.69l0.05 0.17 0.12 0c0.07,0 0.11,-0.06 0.11,-0.17l-0.06 -0.17 -0.17 0.17 -0.05 0zm-2.07 4.75l0.06 0.06 0 0.8 0.06 0.29 -0.06 0.06 0.29 0.06 0.05 -0.06 0.58 0.06 1.03 0c0.49,0 0.74,0.05 0.74,0.17 -0.12,0.11 -0.45,0.17 -0.97,0.17l-0.12 0 -0.05 -0.06 -0.06 0.06 -1.66 -0.12 -0.06 -0.05 0 -0.06 0.06 -0.06 0 -0.05 -0.06 -0.06 0.06 -0.4 0 -0.69 0.11 -0.12zm2.98 0.52c1.41,0.31 2.12,0.51 2.12,0.63l-0.06 0.06 -0.05 0c-1.34,-0.31 -2.01,-0.52 -2.01,-0.63l0 -0.06zm1.03 0.75c0.46,0.04 0.69,0.12 0.69,0.22l0 0.06 -0.75 -0.11 0 -0.06 0.06 -0.06 0 -0.05zm7.15 -11.89l0.11 0 0.11 0.12 -0.05 0.06 -0.06 0 -0.11 -0.12 0 -0.06zm2.34 0.75l0.12 0c0.78,0.15 1.2,0.29 1.26,0.4l-0.17 0.06c-0.71,-0.15 -1.11,-0.3 -1.21,-0.46zm-3.55 0.11l0.06 0 0 0.12 -0.17 0.17 0 -0.17 0.11 -0.12zm-4.35 0.06l0.69 0 0.05 0.06 0.06 -0.06 0.4 0c0.61,0 0.92,0.06 0.92,0.17l-0.06 0.06 -0.69 0 -0.86 -0.06 -0.57 0.06 -0.06 -0.06 0 -0.05 0.12 -0.12zm2.35 0l0.06 0 0.17 0.17 -0.06 0.06 -0.23 0 -0.12 -0.11 0.18 -0.12zm0.74 0.06l0.12 0.11 -0.06 0.06 -0.34 0 -0.12 -0.11 0.06 -0.06 0.34 0zm2.64 0.11c1.18,0.32 1.77,0.53 1.77,0.63 0.26,1.3 0.45,1.95 0.58,1.95l0.05 0.23 0.29 -0.06c0.15,0.07 0.23,0.2 0.23,0.4l0 0.12 -0.06 0.23 0.06 0.17 -0.06 0 0.06 0.06 0 0.11c0.11,2.02 0.3,3.04 0.57,3.04l-0.06 0.23 0.75 2.63 0.11 0.52 -0.05 0.05 -2.52 0 -0.58 0.06 0.12 0.17 -0.23 0c-0.96,-0.16 -1.43,-0.33 -1.43,-0.51l0 -0.06 0.17 -0.06 0.63 0.12 0.34 -0.06 1.03 0.06 0.35 0c-0.09,-1.42 -0.21,-2.12 -0.35,-2.12l-0.86 0.05 -0.74 0c-0.42,0 -0.63,0.1 -0.63,0.29l-0.4 1.26 0.11 0.29 -0.05 0.05 0.11 0.12 0 0.06c-0.11,0 -0.17,0.04 -0.17,0.11l0 0.06 0.06 0.06 0 0.05 -0.81 0.4 0 0.06c-0.42,0 -0.63,-0.21 -0.63,-0.63l-0.51 -0.11 0 0.05 -0.29 0.23 -0.06 -0.05 -0.05 0 0.11 -0.35 -0.06 0 -0.34 -0.17 0.12 -0.57 -0.06 0c-0.1,0 -0.23,-0.08 -0.4,-0.23l-0.06 0 -0.57 0.06 0.34 0.63 0 0.05 -0.11 0.12 -0.06 0 -0.06 -0.29 -0.06 0.06 -0.11 0 0 -0.06 0.06 -0.06 0 -0.05c-0.38,-0.12 -0.58,-0.25 -0.58,-0.4l-0.11 0 -0.06 0.28 0 0.06c0.31,0 0.46,0.06 0.46,0.17l-0.06 0 0.06 0.06 0 0.11c-0.08,0 -0.11,-0.05 -0.11,-0.17l-0.29 0.06 0 0.11c0.31,0.03 0.46,0.08 0.46,0.17l0 0.06c-0.58,-0.09 -0.86,-0.2 -0.86,-0.34l0 -0.17 0.34 -0.98 2.18 0.52c0.53,-1.32 0.95,-2.6 1.26,-3.84 0.27,-0.41 0.54,-1.25 0.8,-2.52 0.1,-0.09 0.26,-0.59 0.46,-1.49 0.23,-0.72 0.38,-1.09 0.46,-1.09zm4.75 0.92l0.06 0 0.51 0.12 0 0.05 -0.11 0.12 -0.12 0 -0.34 -0.29zm-1.2 0.17l0.11 0.12 -0.05 0.05 -0.06 0 -0.12 -0.11 0.06 -0.06 0.06 0zm-2.98 1.03l0 0.12 0.23 0 -0.12 -0.12 -0.11 0zm3.09 0.35l2.01 0 0.11 0.11 0 1.6 0.06 0.35 -0.06 0.28 0.06 0.06 0 0.06 -0.06 0.06 0 0.05 0.06 0.46 -0.06 0.06 0.06 0.28 0 0.86 0.11 0 0 0.06 -0.11 0.12 -0.52 0c-0.72,0 -1.14,0.05 -1.26,0.17l-0.11 -0.12 0 -0.11 0.97 -0.12 -0.05 -0.05 0.05 -0.69 -0.17 -0.97 0.06 -0.06 0.06 0c0.18,0 0.29,0.17 0.34,0.51l-0.12 0.75c0.12,0.04 0.18,0.15 0.18,0.34l0 0.06 -0.06 0.06 0 0.05 0.4 0 0 -2.17 -0.11 -0.17 0.05 -0.06 0.06 0 -0.06 -0.4 0 -0.63 -0.05 -0.06 0 -0.06 -0.41 0.06 -0.05 0 -0.12 -0.11 0 -0.06c0,-0.08 0.06,-0.12 0.17,-0.12l0.06 -0.05 0 -0.06 -0.28 -0.06 -0.58 0 -0.11 0.12 -0.29 -0.06 -0.34 0 0 0.11 -0.12 0 0 -0.11c-0.3,-0.1 -0.46,-0.18 -0.46,-0.23l0 -0.06 0.69 -0.05zm1.55 0.34l0 0.06 0.34 0.11 0 -0.06 -0.11 -0.11 -0.23 0zm-10.14 0.46l0.06 0.05 0 0.06 -0.06 0.06 -0.06 0 -0.05 -0.06 0 -0.06 0.05 -0.05 0.06 0zm5.61 0.8l-0.45 1.6c0.43,0.19 0.74,0.29 0.91,0.29l0.06 -0.06 0 -0.06 -0.34 -1.77 -0.18 0zm-6.18 1.03l0.11 0.23 -0.05 0.06 -0.06 0 -0.12 -0.17 0.12 -0.12zm0.06 0.52l0.05 0.05 0 0.06 -0.05 0.06 -0.06 0 -0.06 -0.06 0 -0.06 0.06 -0.05 0.06 0zm5.78 0.57l0 0.23 0.11 0.11 0.18 0 0.05 -0.28 -0.05 -0.06 -0.29 0zm4.18 0.17l0.06 0.06 0 0.06 -0.06 0.05 -0.06 0 -0.05 -0.05 0 -0.06 0.05 -0.06 0.06 0zm-9.39 2.35l0 0.17 0.17 0.12 0.23 0 0 -0.12c-0.23,0 -0.34,-0.06 -0.34,-0.17l-0.06 0zm-0.75 1.83c1,0 1.49,0.08 1.49,0.23l-0.05 0.06 -0.46 0c-0.8,0 -1.21,-0.06 -1.21,-0.17l0.23 -0.12zm1.84 0.12l0.28 0 0 0.11 -0.28 0 0 -0.11zm8.93 0l0.12 0 0.11 0.11 -0.06 0.06 -0.17 0 0 -0.17zm-4.64 0.68l0.12 0 0.11 0.12 -0.23 0 0 -0.12zm0.92 0.29l0.17 0 0.12 0.12 -0.29 0 0 -0.12zm5.96 -10.76c-0.02,-0.01 -0.03,-0.02 -0.05,-0.03l-0.46 0.23 -0.17 -0.06c-0.11,0.27 -0.28,1.15 -0.52,2.64l-0.4 1.48 -0.05 0.06 -0.17 0.46 0.05 0c0.35,0 0.52,0.1 0.52,0.29l0.05 0.06 -0.05 0.28 0 0.69 -0.06 0.23 0.06 0.05 -0.12 1.32 0.29 0.06 0.23 -0.06 0.06 0.06 1.08 -0.11 0.35 0c0.26,0 0.4,0.17 0.4,0.51l0 0.68c0,0.42 -0.06,0.63 -0.17,0.63l-1.09 0 -0.06 -0.06 -0.06 0.06 -0.28 -0.06 -1.38 0.06 -1.14 0 -0.17 -0.11 0.11 -2.52 -0.06 -3.61c0.19,-1.41 0.29,-2.41 0.29,-2.98l-0.06 -0.34c0.05,-0.23 0.11,-0.34 0.17,-0.34l2.01 -0.06c0.04,0.23 0.24,0.34 0.57,0.34 0.07,-0.01 0.14,-0.02 0.21,-0.03l0.07 0.18zm0.04 1.44c0.5,-0.06 0.74,-0.12 0.74,-0.17l-0.04 -0.04 -0.43 0 -0.86 -0.03 0 -0.06 0.04 0 1.34 -0.04 0.08 0.1 -0.04 0.1 0.17 0 0.34 0.07 0.22 0 0.81 0.06 0.05 -0.04 0 -0.02 0.21 0.02 0.26 0 0 0.07 -0.38 0 0 0.17 -0.22 0.19 0.3 0.37c-0.05,0.08 -0.09,0.13 -0.13,0.13l0.05 0.03 0 0.03 -0.14 0.1 -0.47 0c-0.08,0 -0.19,-0.15 -0.34,-0.46l-0.17 0 0 -0.06c0.2,0 0.3,-0.06 0.3,-0.17l0.04 -0.03 0.04 0 0.17 0.1 0.31 -0.04 0 -0.03c-0.23,-0.03 -0.35,-0.09 -0.35,-0.19l-0.13 0.03c-0.2,0 -0.3,-0.07 -0.3,-0.2l-0.04 0.03 -0.13 0 -0.04 -0.03 -0.04 0.03 -0.14 0 -0.04 -0.03 -0.04 0c-0.08,0 -0.14,0.24 -0.17,0.72 0.13,0.22 0.48,0.4 1.03,0.56l0.22 0.03 0.12 -0.03 0.05 0.03c-0.05,0.31 -0.12,0.46 -0.22,0.46l-0.13 0.29 0.04 0 0.18 -0.03 0.04 0 0.09 0.07 -0.26 0.06 -0.09 -0.06 -0.04 0c0,0.13 -0.09,0.23 -0.26,0.32l-0.26 -0.02 -0.55 0.06 -0.52 -0.06 -0.22 0 -0.08 -0.08 0 -0.03c0.09,0 0.13,-0.03 0.13,-0.1l0.04 -0.03 0.13 0 0.09 0.07 0.25 -0.2 0.22 -0.07 0.04 0 0.39 0.3 0.04 -0.03 0.04 0 -0.04 -0.17 0.26 -0.16 0.04 0.04 0 -0.04 -0.17 -0.16 0.04 -0.04 0 -0.1 -0.13 0.07 -0.04 -0.03 0 -0.06 0.17 0 0 -0.04c0,-0.04 -0.04,-0.07 -0.13,-0.07l0 -0.1 0.13 0 0 -0.16c-0.11,0 -0.21,0.14 -0.3,0.43l-0.13 0.1c-0.11,0 -0.27,-0.15 -0.47,-0.43l0 -0.03 0.04 -0.04c-0.26,-0.23 -0.38,-0.37 -0.38,-0.42l0.21 -0.33c-0.1,-0.17 -0.24,-0.29 -0.39,-0.37l-0.05 -0.11zm-1.98 -2.16l0.23 0 0 0.12 -0.23 0 0 -0.12zm-1.15 0.06l0.58 0 0 0.11 -0.58 0 0 -0.11zm1.72 0l0.17 0 0 0.11 -0.17 0 0 -0.11zm4.07 1.43c0,0.12 -0.08,0.17 -0.23,0.17l0 0.12 0.52 0.4 0.17 -0.12c0,-0.38 -0.16,-0.57 -0.46,-0.57zm-0.63 1.22l0 0.4 0.06 0 0.05 -0.29 -0.11 -0.11zm1.26 0.62l0.11 0.11 -0.05 0.06 -0.06 0 -0.11 -0.12 0.05 -0.05 0.06 0zm-0.63 1.43l0 0.05 -0.17 0.17 -0.06 0 0 -0.17 0.23 -0.05zm-1.72 0.17l0.12 0c0,0.3 0.13,0.57 0.4,0.8 -0.16,0.27 -0.35,0.4 -0.58,0.4 -0.76,-0.13 -1.14,-0.25 -1.14,-0.34 0.16,-0.08 0.47,-0.12 0.92,-0.12 0.19,-0.29 0.28,-0.54 0.28,-0.74zm1.38 0c0.07,0 0.11,0.05 0.11,0.17l0.17 0.06 -0.06 0.05 0 0.12 0.12 0.17 -0.12 0.11 -0.4 -0.57 0 -0.06 0.06 -0.05 0.12 0zm0.17 1.89l0.11 0 0 1.2 -0.06 0 -0.22 -0.17 0.11 -0.12 0 -0.28c0,-0.08 -0.06,-0.12 -0.17,-0.12l-0.06 -0.05 0 -0.06 0.06 -0.06c0,-0.08 0.08,-0.11 0.23,-0.11l0 -0.23zm-0.06 3.72l0.06 0 0.05 0.28 -0.05 0.06 -0.06 0 0 -0.34zm5.61 -10.66l0 0.11 -0.11 0 0 0.11 0.11 0.12 -0.05 0.57 0 0.52 -0.06 0.06 0.06 0.05 0 0.98 0.28 -0.06 0.06 0.06 0 0.05c-0.12,0 -0.27,0.39 -0.46,1.15l-0.11 0.11 0.06 0.06 -0.12 0.63 0.06 0.17 -0.06 0.46 -0.11 0 -0.12 -0.63c0.09,0 0.15,-0.25 0.17,-0.74 -0.06,-0.08 -0.33,-0.14 -0.8,-0.17l0 -0.12 1.03 -0.12c0,-0.07 -0.05,-0.11 -0.17,-0.11l0 -0.06 0.12 -0.11c-0.05,-1.17 -0.11,-1.83 -0.18,-2.01l0.12 -0.11c-0.13,0 -0.23,-0.13 -0.29,-0.4 -0.11,0 -0.25,-0.1 -0.4,-0.29l-0.28 0 0 -0.06 0.11 -0.11 0.11 0c0.5,0 0.84,-0.04 1.03,-0.11zm-3.95 0.22l0.06 0.06 0.28 -0.06 0.52 0c0,0.23 0.08,0.35 0.23,0.35 1.07,0.71 1.61,1.57 1.61,2.58l0 0.05c-0.06,0.16 -0.23,0.23 -0.52,0.23l-1.2 0 -0.52 -0.68 -0.4 -0.12 -0.12 0c-0.53,0.13 -0.8,0.38 -0.8,0.74 0,0.4 0.33,0.67 0.98,0.81 0.98,0 1.69,0.36 2.12,1.09 0.26,0.21 0.53,0.88 0.8,2l0.06 0.06 0 0.23c0,1.12 -0.56,1.96 -1.67,2.52 -0.31,0.15 -0.71,0.23 -1.2,0.23l-0.4 0c-0.86,-0.2 -1.53,-0.62 -2.01,-1.26 -0.3,-0.67 -0.45,-1.11 -0.45,-1.32l0.11 -0.12 0.92 0 0.97 -0.05c0.21,0.34 0.48,0.51 0.8,0.51l0.23 0c0.35,0 0.58,-0.25 0.69,-0.74 0,-0.69 -0.57,-1.03 -1.72,-1.03 -0.53,-0.16 -1.1,-0.65 -1.72,-1.49l-0.05 0 -0.35 0.05 -0.11 -0.17 0 -0.23 -0.06 -1.03c0.04,-0.26 0.1,-0.4 0.17,-0.4l0.06 0.06c0.28,-1.16 0.74,-1.96 1.38,-2.41 0.46,-0.3 0.9,-0.46 1.31,-0.46zm-2.86 0.06l0.57 0 0.29 0.06 0 0.11c-0.58,0.06 -0.86,0.17 -0.86,0.35l-0.12 0 -0.05 -0.29 0 -0.06 0.17 -0.17zm5.38 0.69l0.06 0.06 0 0.11 -0.17 0 0 -0.06 0.11 -0.11zm-5.5 4.87c0.04,0.23 0.21,0.34 0.52,0.34l0 0.12 -0.34 0 -0.29 0.05 -0.23 -0.28c0.08,-0.16 0.19,-0.23 0.34,-0.23zm6.42 1.6l0.11 0.12 0 0.17 -0.11 0 0 -0.06 0.06 -0.06 -0.06 -0.05 0 -0.12zm-6.59 0.23l0.23 0 0 0.12 -0.23 0 0 -0.12zm6.7 2.23l0.12 0.18 -0.17 0.17 -0.75 0 0 -0.06c0.01,-0.05 0.27,-0.15 0.8,-0.29zm-6.76 0.29l0.06 0c0.37,0.12 0.7,0.17 0.97,0.17l0.06 0 0 0.12 -0.57 0.06 -0.4 0 -0.12 -0.12 0 -0.23zm-40.64 -13.17l51.39 0 0 16.56 -51.39 0 0 -16.56z"/>
 </g>
</svg>
