<?xml version="1.0" encoding="UTF-8"?>
<!DOCTYPE svg PUBLIC "-//W3C//DTD SVG 1.1//EN" "http://www.w3.org/Graphics/SVG/1.1/DTD/svg11.dtd">
<!-- Creator: CorelDRAW Home & Student 2019 -->
<svg xmlns="http://www.w3.org/2000/svg" xml:space="preserve" width="318px" height="94px" version="1.1" style="shape-rendering:geometricPrecision; text-rendering:geometricPrecision; image-rendering:optimizeQuality; fill-rule:evenodd; clip-rule:evenodd"
viewBox="0 0 295.16 87.25"
 xmlns:xlink="http://www.w3.org/1999/xlink">
 <defs>
  <style type="text/css">
   <![CDATA[
    .fil0 {fill:#FFFBEC}
   ]]>
  </style>
 </defs>
 <g id="Layer_x0020_1">
  <metadata id="CorelCorpID_0Corel-Layer"/>
  <path class="fil0" d="M28.19 1.91l0.75 0 0.74 0.75 -0.37 0.37 -0.37 0 -0.75 -0.74 0 -0.38zm266.97 -1.91l0 87.25 -295.16 0 0 -87.25 295.16 0zm-251.7 6.75l0.75 0c5.06,1.01 7.79,1.87 8.19,2.61l-1.12 0.38c-4.57,-0.97 -7.17,-1.97 -7.82,-2.99zm-23.09 0.75l0.37 0 0 0.75 -1.12 1.11 0 -1.11 0.75 -0.75zm-14.53 1.49l0 0zm1.49 -1.12l0.38 0 1.11 1.12 -0.37 0.37 -1.49 0 -0.75 -0.74 1.12 -0.75zm4.84 0.38l0.75 0.74 -0.38 0.37 -2.22 0 -0.75 -0.74 0.37 -0.37 2.23 0zm17.14 0.74c7.69,2.08 11.54,3.46 11.54,4.09 1.67,8.44 2.91,12.67 3.73,12.67l0.37 1.49 1.87 -0.38c0.99,0.44 1.48,1.3 1.48,2.61l0 0.75 -0.37 1.49 0.37 1.12 -0.37 0 0.37 0.36 0 0.75c0.75,13.16 1.99,19.75 3.73,19.75l-0.37 1.49 4.83 17.13 0.75 3.35 -0.37 0.38 -16.39 0 -3.72 0.37 0.74 1.12 -1.49 0c-6.2,-1.07 -9.31,-2.19 -9.31,-3.36l0 -0.37 1.12 -0.37 4.1 0.74 2.23 -0.37 6.7 0.37 2.24 0c-0.57,-9.19 -1.32,-13.78 -2.24,-13.78l-5.58 0.37 -4.84 0c-2.73,0 -4.11,0.62 -4.11,1.87l-2.6 8.18 0.75 1.87 -0.37 0.37 0.74 0.75 0 0.37c-0.74,0 -1.12,0.25 -1.12,0.75l0 0.37 0.38 0.37 0 0.38 -5.23 2.6 0 0.37c-2.72,0 -4.09,-1.36 -4.09,-4.09l-3.34 -0.75 0 0.37 -1.87 1.5 -0.37 -0.38 -0.38 0 0.75 -2.23 -0.37 0 -2.24 -1.12 0.75 -3.72 -0.38 0 2.61 -1.5c3.48,-8.56 6.21,-16.89 8.19,-24.95 1.77,-2.68 3.5,-8.14 5.22,-16.39 0.67,-0.59 1.66,-3.82 2.97,-9.68 1.53,-4.72 2.52,-7.08 2.99,-7.08zm30.9 5.96l0.39 0 3.34 0.75 0 0.37 -0.74 0.74 -0.75 0 -2.24 -1.86zm-7.81 1.12l0.75 0.74 -0.37 0.38 -0.38 0 -0.74 -0.75 0.37 -0.37 0.37 0zm-19.37 6.7l0 0.75 1.49 0 -0.75 -0.75 -0.74 0zm20.12 2.24l13.03 0 0.75 0.74 0 10.43 0.37 2.24 -0.37 1.86 0.37 0.36 0 0.39 -0.37 0.36 0 0.37 0.37 2.99 -0.37 0.37 0.37 1.86 0 5.59 0.75 0 0 0.37 -0.75 0.75 -3.36 0c-4.72,0 -7.45,0.37 -8.19,1.12l-0.75 -0.75 0 -0.75 6.33 -0.74 -0.37 -0.37 0.37 -4.47 -1.12 -6.34 0.39 -0.36 0.36 0c1.2,0 1.94,1.11 2.24,3.34l-0.75 4.84c0.75,0.26 1.12,0.99 1.12,2.24l0 0.37 -0.37 0.38 0 0.37 2.61 0 0 -14.15 -0.75 -1.12 0.38 -0.38 0.37 0 -0.37 -2.61 0 -4.09 -0.38 -0.37 0 -0.38 -2.61 0.38 -0.37 0 -0.75 -0.75 0 -0.37c0,-0.49 0.38,-0.75 1.12,-0.75l0.37 -0.37 0 -0.37 -1.86 -0.38 -3.72 0 -0.75 0.75 -1.86 -0.37 -2.23 0 0 0.74 -0.74 0 0 -0.74c-2,-0.64 -2.99,-1.14 -2.99,-1.49l0 -0.37 4.48 -0.37zm10.05 2.23l0 0.37 2.24 0.75 0 -0.38 -0.75 -0.74 -1.49 0zm-29.43 8.19l-2.97 10.44c2.83,1.23 4.82,1.86 5.96,1.86l0.37 -0.37 0 -0.38 -2.24 -11.55 -1.12 0zm-2.22 13.78l0 1.49 0.73 0.75 1.12 0 0.37 -1.87 -0.37 -0.37 -1.85 0zm27.18 1.12l0.38 0.37 0 0.38 -0.38 0.37 -0.37 0 -0.37 -0.37 0 -0.38 0.37 -0.37 0.37 0zm-54.01 27.93l1.87 0 0 0.75 -1.87 0 0 -0.75zm58.1 0l0.75 0 0.75 0.75 -0.38 0.37 -1.12 0 0 -1.12zm-30.17 4.48l0.75 0 0.75 0.75 -1.5 0 0 -0.75zm5.97 1.85l1.11 0 0.75 0.75 -1.86 0 0 -0.75zm20.01 -78.54l1.1 0 0 0.74 -1.1 0 0 -0.74zm-11.93 0.74l0 1.12 -1.87 0 0 -0.74 1.87 -0.38zm4.84 0l1.12 1.12 -0.38 0.37 -0.37 0c-1.23,-0.29 -1.85,-0.66 -1.85,-1.11l0.37 -0.38 1.11 0zm11.92 0l0.38 0 0.73 0.75 0 0.37 -0.73 0 -0.38 -1.12zm-10.43 2.24l0.37 0 0 1.12 -1.12 1.48 0.75 2.98 -1.85 1.87c0,-0.75 -0.39,-1.12 -1.12,-1.12l-0.39 -0.37 0 -0.38 1.12 -1.86 0 -0.75 -0.36 0 -2.98 0.75c2.5,-2.48 4.36,-3.72 5.58,-3.72zm13.03 1.87c4.32,8.6 7.31,16.93 8.95,24.94 0,1.17 1.24,4.03 3.73,8.57 0.94,2.23 1.8,3.35 2.6,3.35l0 -8.2 -0.38 -2.22 0.38 -0.38 -0.38 -7.45 0 -11.18 -0.37 -1.48 0.37 -0.37 0 -0.37 -0.37 -3.36c0.18,-1.24 0.55,-1.85 1.12,-1.85l8.94 0 0.37 0.37 0.38 0 -0.38 13.41 0.75 13.03 -0.37 0 0.37 0.37 0 2.6c1.24,0.08 1.85,0.45 1.85,1.12l-0.36 4.48 0.36 1.11 -0.36 1.49 0 0.74 0.36 1.12 -0.36 1.87 0 4.46 0.36 18.62c-0.52,0.6 -2.25,1.22 -5.21,1.87l-0.74 -0.75 -1.86 0 -6.34 1.87 -1.11 0c-1.47,0 -3.95,-5.96 -7.45,-17.89l-4.1 -11.54 -1.12 0 -0.37 1.49 0.37 12.66 0 10.81 0.37 1.87 -1.1 0.73 -4.48 0 -3.72 0.37 -0.75 -0.74 0.75 -21.23 -0.75 -14.53 0 -5.95 -0.37 -1.5c0.25,-2.97 0.62,-4.46 1.12,-4.46 -0.25,-9.69 -0.75,-14.53 -1.49,-14.53l-1.12 0.37 -0.37 -0.37 0 -0.37c1.23,-0.49 1.86,-1.25 1.86,-2.24l2.24 0 2.97 -0.36 2.99 0.36 2.22 -0.73zm-14.52 24.2l0.37 0.37 0 0.37 -0.73 0.75 -0.39 -0.37 0 -0.38 0.75 -0.74zm28.3 19.75l1.5 5.21 0.74 0 0.38 -1.87 0 -2.61c0,-1.8 -0.38,-2.81 -1.12,-2.97l-0.38 0c-0.74,0.24 -1.12,0.99 -1.12,2.24zm13.05 26.81l0.37 0.37 0 0.38 -1.12 0.73 -0.74 0 1.49 -1.48zm5.87 -71.15l16.39 0.39 0.75 0.73 0 5.97 0.37 7.45c-1.99,0.49 -2.98,0.99 -2.98,1.48l0 10.06 1.86 23.47c0.51,0 0.75,0.62 0.75,1.85l0 1.12c0,0.35 -0.99,0.85 -2.98,1.49l-1.12 -0.37 -1.87 0.37 -2.6 -0.37c-3.73,0.25 -5.58,0.75 -5.58,1.49l0.37 0.37 5.96 0 7.45 -0.37 0.37 0.37 0 9.28 -0.37 0.37 0 0.38 -10.06 -0.38 -5.21 0c-0.62,0 -0.99,-0.5 -1.12,-1.49l-0.75 -8.16 0.37 -0.37 0.38 0 -0.38 -1.86 0 -3.35c0,-0.5 1.25,-0.87 3.72,-1.12l0 -1.86 -1.48 -23.84 0.38 -8.2 -2.62 0 -0.74 -0.73 0 -13.41 0.74 -0.76zm10.06 19.75l-0.37 0.37 0 0.38 0.37 1.1 -1.11 5.23 0.74 0 0 -0.75 1.12 0 0 0.37 -0.37 0.38 0 0.37 2.23 2.24 0.37 0 0.37 -4.48 0 -0.37 -0.74 -0.75 0.37 -1.85 0 -0.39c-1.17,0 -2.16,-0.61 -2.98,-1.85zm-22.53 -26.6l5.92 0 1.08 0.97 -0.52 0.52 -3.76 0 -2.72 -0.52 0 -0.97zm12.37 0l6.99 0 1.08 0.97 -0.56 0.52 -8.59 0 0 -0.52 1.08 -0.97zm14.52 2.47l1.08 0 0 0.97 -2.16 0 1.08 -0.97zm-2.17 0.97l1.09 0 0 1.97 -1.09 -0.97 0 -1zm23.59 17.58c0.65,0 1.14,0.99 1.48,2.97 -0.64,0 -1.14,-0.99 -1.48,-2.97zm-36.02 29.57l1.12 0 0 0.73 -1.87 0.39 0 -0.39 0.75 -0.73zm37.87 -26.23l0.75 0.75 0 0.37 -0.75 0 0 -1.12zm-9.79 46.19l1.12 0 0 0.75c-9.34,2.82 -14.06,4.43 -14.16,4.84l-0.37 0.37 0 0.37 -3.35 -0.37c0,-1.04 3.22,-2.16 9.68,-3.36 0.97,-0.7 3.33,-1.56 7.08,-2.6zm4.21 -41.35l-0.37 1.12 0.37 1.86 -0.37 0.38 0.37 0.37 0.37 0 0.37 -3.36 -0.37 -0.37 -0.37 0zm-5.59 2.61l0.75 0 1.12 -0.37 -0.75 -0.75 -1.12 1.12zm-1.11 2.24l0 0.37c2.48,-0.42 3.72,-0.92 3.72,-1.49l-0.37 -0.37 -0.37 0c-1.99,0.6 -2.98,1.09 -2.98,1.49zm-36.03 30.5l-2.22 0c0,0.75 -0.26,1.11 -0.75,1.11 0.55,2 1.54,2.99 2.97,2.99l2.24 0.37 1.49 -0.75 -0.37 -0.37 0 -0.37 0.37 -0.38 0 -0.37 -2.61 -2.97 -1.12 0.74zm33.49 -48.45l-1.12 -0.38 0 0.38c0.75,2.23 1.74,3.34 2.99,3.34l-0.75 -4.09 -1.12 0.75zm-0.85 -15.17l-1.12 3.73 0 2.61c0,2.15 0.86,3.77 2.61,4.84l0.36 0 0 -5.95 0.39 -0.39c0,-2.06 -0.75,-3.67 -2.24,-4.84zm45.99 -0.66l0.39 0.37 0 0.37 -0.39 0.38 -0.36 0 -0.37 -0.38 0 -0.37 0.37 -0.37 0.36 0zm-20.11 0.37c1.5,1.24 3.23,1.98 5.23,2.24 0,0.73 0.61,1.11 1.85,1.11l0 0.74 -2.6 0.38 -4.1 -1.12 -2.23 4.85 -0.75 0 0 -0.75c0.8,-4.97 1.66,-7.45 2.6,-7.45zm24.59 1.12l0 1.12 -1.87 0 0 -0.75 1.87 -0.37zm-7.82 0.75l0.74 0.73 0 1.49 -0.74 0.75 -0.38 -0.37 0 -0.38c-0.66,0 -1.65,0.62 -2.98,1.87l-2.6 -0.75 -1.12 0.37 -1.12 -2.23 0.37 0 1.87 0.37 5.96 -1.85zm-40.97 0.37l1.87 0 0 0.73 -1.87 0 0 -0.73zm2.23 3.72l11.18 0c1.12,0 2.35,7.2 3.72,21.6l0.37 0.37c0.18,1.74 0.55,2.6 1.12,2.6l0.37 -0.36 0.37 0c0,3.97 0.51,6.45 1.5,7.45l0 0.75 -0.75 1.1 0 0.38 0.37 0.37 0 0.37 2.23 -0.74c0.5,0.58 0.88,1.94 1.12,4.1l0.75 0 1.12 -0.75 0.37 0 -1.12 8.57 0.37 1.48 -0.37 4.48 1.86 12.29 -0.37 1.12 -0.74 0 -1.12 -1.12 -2.6 0.37 -0.38 0 -3.73 -1.12 -1.85 -1.86 -6.34 -28.68 -0.38 0 -0.74 0.74 0.74 14.9 -0.37 1.12c0.75,4.14 1.12,7.87 1.12,11.17l-0.37 0.37 -0.38 0 -5.21 -1.48 -0.37 0.38 0 0.37c0.29,0.47 3.15,1.59 8.57,3.35l0 0.74 -4.47 -0.37 -1.12 1.12 0.75 0.74 -1.49 0.75 -8.57 0.75 0 -1.5 0.37 -0.37 0 -0.37 2.61 0.37 2.6 0c0,-0.5 -1.23,-0.75 -3.72,-0.75l0 -0.37 -0.37 0.37 -0.37 0 -0.37 -0.37 -0.38 0c0.5,-6.03 0.75,-15.97 0.75,-29.8l0 -2.61 0.74 -2.6c-0.17,-1.99 -0.42,-2.98 -0.74,-2.98 0.74,-0.91 1.12,-4.14 1.12,-9.68l-0.38 -14.52 1.12 -0.38 0 -0.37 -0.74 0 0 -0.75c1.17,0 2.03,-0.24 2.6,-0.74zm36.13 2.98l2.61 0c0.74,0.25 1.12,0.99 1.12,2.23l0 8.57c2.72,2.63 4.09,4.25 4.09,4.84l-0.37 7.82 0.37 0.37 0 0.37 -0.37 0.38 1.11 16.76 0 20.48c0,0.55 -0.86,1.04 -2.61,1.5l-8.55 -0.75 -2.99 0 -0.74 -0.75 0 -8.19 0.37 -3.36 -0.37 -3.72 0 -8.94 0.37 -0.37 -0.37 -0.36 0.37 -10.07 0 -1.11 -0.37 -5.59 -1.86 0.37 0.36 1.5 -2.97 7.81 -0.37 0c-1.92,-3.59 -3.78,-5.46 -5.59,-5.59l-0.74 -1.86 0.37 -0.36 1.12 0 1.48 1.11 0.37 0 0.38 -1.86c0,-0.42 -1.24,-1.17 -3.72,-2.24l-0.75 0.75 0 -0.37c2.18,-7.06 5.66,-12.03 10.42,-14.9 1.43,0 2.55,-1.37 3.36,-4.11l4.47 -0.36zm-47.67 16.01l0.74 0.75 -0.37 0.37 -0.37 0 -0.75 -0.75 0.37 -0.37 0.38 0zm2.98 6.33l4.09 0.37 0 0.75 -1.12 0c-1.8,0 -2.8,0.37 -2.97,1.12l0.36 12.66 -0.36 10.8 -0.75 0 0 -15.27 -0.37 -2.61 0.37 0 -0.37 -1.12 0.37 -1.11 -0.37 -2.23 0 -2.24 1.12 -1.12zm13.41 4.47l0.37 1.12 0.75 0c0.49,0 0.73,-0.37 0.73,-1.12l-0.37 -1.11 -1.11 1.11 -0.37 0zm-13.41 30.91l0.36 0.37 0 5.23 0.39 1.85 -0.39 0.37 1.87 0.39 0.37 -0.39 3.73 0.39 6.7 0c3.23,0 4.84,0.36 4.84,1.11 -0.81,0.74 -2.92,1.11 -6.33,1.12l-0.74 0 -0.38 -0.38 -0.37 0.38 -10.8 -0.75 -0.37 -0.37 0 -0.38 0.37 -0.37 0 -0.36 -0.37 -0.39 0.37 -2.6 0 -4.47 0.75 -0.75zm19.36 3.36c9.19,1.98 13.78,3.34 13.78,4.09l-0.37 0.37 -0.37 0c-8.69,-1.98 -13.04,-3.34 -13.04,-4.09l0 -0.37zm6.71 4.85c2.97,0.29 4.46,0.78 4.46,1.48l0 0.37 -4.84 -0.74 0 -0.38 0.38 -0.37 0 -0.36zm46.44 -77.26l0.75 0 0.74 0.75 -0.37 0.37 -0.37 0 -0.75 -0.74 0 -0.38zm15.27 4.84l0.75 0c5.06,1.01 7.79,1.87 8.19,2.61l-1.12 0.38c-4.57,-0.97 -7.17,-1.97 -7.82,-2.99zm-23.09 0.75l0.37 0 0 0.75 -1.12 1.11 0 -1.11 0.75 -0.75zm-28.31 0.37l4.48 0 0.36 0.38 0.37 -0.38 2.61 0c3.98,0 5.96,0.38 5.96,1.12l-0.37 0.37 -4.47 0 -5.58 -0.37 -3.73 0.37 -0.38 -0.37 0 -0.37 0.75 -0.75zm15.27 0l0.38 0 1.11 1.12 -0.37 0.37 -1.49 0 -0.75 -0.74 1.12 -0.75zm4.84 0.38l0.75 0.74 -0.38 0.37 -2.22 0 -0.75 -0.74 0.36 -0.37 2.24 0zm17.14 0.74c7.69,2.08 11.54,3.46 11.54,4.09 1.67,8.44 2.91,12.67 3.73,12.67l0.37 1.49 1.87 -0.38c0.99,0.44 1.48,1.3 1.48,2.61l0 0.75 -0.37 1.49 0.37 1.12 -0.37 0 0.37 0.36 0 0.75c0.75,13.16 1.98,19.75 3.73,19.75l-0.37 1.49 4.83 17.13 0.75 3.35 -0.37 0.38 -16.39 0 -3.72 0.37 0.74 1.12 -1.49 0c-6.2,-1.07 -9.31,-2.19 -9.31,-3.36l0 -0.37 1.12 -0.37 4.1 0.74 2.23 -0.37 6.7 0.37 2.24 0c-0.57,-9.19 -1.32,-13.78 -2.24,-13.78l-5.58 0.37 -4.84 0c-2.74,0 -4.11,0.62 -4.11,1.87l-2.6 8.18 0.75 1.87 -0.37 0.37 0.73 0.75 0 0.37c-0.73,0 -1.11,0.25 -1.11,0.75l0 0.37 0.38 0.37 0 0.38 -5.23 2.6 0 0.37c-2.72,0 -4.09,-1.36 -4.09,-4.09l-3.35 -0.75 0 0.37 -1.86 1.5 -0.37 -0.38 -0.38 0 0.75 -2.23 -0.37 0 -2.24 -1.12 0.75 -3.72 -0.38 0c-0.62,0 -1.49,-0.5 -2.61,-1.5l-0.37 0 -3.72 0.38 2.24 4.09 0 0.37 -0.75 0.75 -0.37 0 -0.37 -1.87 -0.38 0.38 -0.74 0 0 -0.38 0.37 -0.37 0 -0.37c-2.48,-0.75 -3.73,-1.61 -3.73,-2.6l-0.75 0 -0.36 1.85 0 0.39c1.98,0 2.97,0.36 2.97,1.1l-0.37 0 0.37 0.38 0 0.74c-0.5,0 -0.74,-0.37 -0.74,-1.12l-1.87 0.38 0 0.74c2,0.15 2.99,0.52 2.99,1.12l0 0.38c-3.72,-0.6 -5.59,-1.35 -5.59,-2.24l0 -1.12 2.24 -6.33 14.14 3.35c3.49,-8.56 6.22,-16.89 8.2,-24.95 1.77,-2.68 3.5,-8.14 5.22,-16.39 0.67,-0.59 1.66,-3.82 2.97,-9.68 1.53,-4.72 2.52,-7.08 2.99,-7.08zm30.9 5.96l0.39 0 3.34 0.75 0 0.37 -0.74 0.74 -0.75 0 -2.24 -1.86zm-7.81 1.12l0.75 0.74 -0.37 0.38 -0.38 0 -0.74 -0.75 0.37 -0.37 0.37 0zm-19.37 6.7l0 0.75 1.49 0 -0.75 -0.75 -0.74 0zm20.12 2.24l13.03 0 0.75 0.74 0 10.43 0.36 2.24 -0.36 1.86 0.36 0.36 0 0.39 -0.36 0.36 0 0.37 0.36 2.99 -0.36 0.37 0.36 1.86 0 5.59 0.75 0 0 0.37 -0.75 0.75 -3.35 0c-4.72,0 -7.45,0.37 -8.19,1.12l-0.75 -0.75 0 -0.75 6.33 -0.74 -0.37 -0.37 0.37 -4.47 -1.12 -6.34 0.39 -0.36 0.36 0c1.2,0 1.94,1.11 2.24,3.34l-0.75 4.84c0.75,0.26 1.12,0.99 1.12,2.24l0 0.37 -0.37 0.38 0 0.37 2.61 0 0 -14.15 -0.75 -1.12 0.38 -0.38 0.37 0 -0.37 -2.61 0 -4.09 -0.38 -0.37 0 -0.38 -2.61 0.38 -0.37 0 -0.75 -0.75 0 -0.37c0,-0.49 0.38,-0.75 1.12,-0.75l0.37 -0.37 0 -0.37 -1.86 -0.38 -3.72 0 -0.75 0.75 -1.86 -0.37 -2.23 0 0 0.74 -0.74 0 0 -0.74c-2,-0.64 -2.99,-1.14 -2.99,-1.49l0 -0.37 4.48 -0.37zm10.05 2.23l0 0.37 2.24 0.75 0 -0.38 -0.75 -0.74 -1.49 0zm-65.93 2.98l0.38 0.37 0 0.38 -0.38 0.37 -0.37 0 -0.36 -0.37 0 -0.38 0.36 -0.37 0.37 0zm36.5 5.21l-2.97 10.44c2.83,1.23 4.81,1.86 5.96,1.86l0.37 -0.37 0 -0.38 -2.24 -11.55 -1.12 0zm-40.22 6.71l0.75 1.49 -0.37 0.37 -0.38 0 -0.74 -1.12 0.74 -0.74zm0.38 3.35l0.37 0.38 0 0.37 -0.37 0.37 -0.38 0 -0.37 -0.37 0 -0.37 0.37 -0.38 0.38 0zm37.62 3.72l0 1.49 0.73 0.75 1.12 0 0.37 -1.87 -0.37 -0.37 -1.85 0zm27.18 1.12l0.38 0.37 0 0.38 -0.38 0.37 -0.37 0 -0.37 -0.37 0 -0.38 0.37 -0.37 0.37 0zm-61.08 15.27l0 1.12 1.11 0.75 1.5 0 0 -0.75c-1.5,0 -2.24,-0.37 -2.24,-1.12l-0.37 0zm-4.84 11.93c6.45,0 9.67,0.49 9.67,1.48l-0.36 0.37 -2.98 0c-5.21,0 -7.83,-0.37 -7.83,-1.12l1.5 -0.73zm11.91 0.73l1.87 0 0 0.75 -1.87 0 0 -0.75zm58.1 0l0.75 0 0.75 0.75 -0.38 0.37 -1.12 0 0 -1.12zm-30.17 4.48l0.75 0 0.75 0.75 -1.5 0 0 -0.75zm5.96 1.85l1.12 0 0.75 0.75 -1.87 0 0 -0.75zm38.78 -69.94c-0.13,-0.07 -0.23,-0.14 -0.33,-0.22l-2.99 1.49 -1.12 -0.37c-0.68,1.75 -1.8,7.47 -3.34,17.12l-2.61 9.69 -0.38 0.37 -1.11 2.99 0.37 0c2.24,0 3.35,0.62 3.35,1.85l0.38 0.38 -0.38 1.86 0 4.48 -0.37 1.48 0.37 0.37 -0.74 8.57 1.86 0.37 1.5 -0.37 0.37 0.37 7.08 -0.74 2.22 0c1.74,0 2.61,1.12 2.61,3.34l0 4.44c0,2.73 -0.37,4.09 -1.11,4.09l-7.08 0 -0.37 -0.36 -0.38 0.36 -1.86 -0.36 -8.93 0.36 -7.45 0 -1.12 -0.73 0.74 -16.36 -0.37 -23.46c1.24,-9.22 1.87,-15.67 1.87,-19.37l-0.39 -2.23c0.33,-1.5 0.7,-2.24 1.12,-2.24l13.05 -0.38c0.29,1.5 1.53,2.24 3.72,2.24 0.47,-0.08 0.93,-0.14 1.37,-0.22l0.45 1.19zm0.27 9.35c3.2,-0.42 4.8,-0.8 4.8,-1.12l-0.27 -0.22 -2.79 0 -5.58 -0.22 0 -0.41 0.25 0 8.68 -0.23 0.56 0.64 -0.29 0.64 1.11 0 2.23 0.44 1.43 0 5.27 0.41 0.31 -0.23 0 -0.18 1.37 0.18 1.68 0 0 0.44 -2.49 0 0 1.06 -1.41 1.3 1.97 2.35c-0.31,0.57 -0.59,0.85 -0.87,0.85l0.31 0.19 0 0.22 -0.87 0.63 -3.05 0c-0.54,0 -1.28,-0.99 -2.22,-2.97l-1.12 0 0 -0.42c1.28,0 1.93,-0.36 1.93,-1.07l0.29 -0.23 0.27 0 1.12 0.67 1.97 -0.22 0 -0.22c-1.49,-0.18 -2.24,-0.6 -2.24,-1.27l-0.85 0.19c-1.3,0 -1.93,-0.43 -1.93,-1.27l-0.31 0.21 -0.81 0 -0.31 -0.21 -0.25 0.21 -0.86 0 -0.26 -0.21 -0.3 0c-0.52,0 -0.89,1.56 -1.11,4.69 0.89,1.41 3.13,2.62 6.7,3.61l1.41 0.23 0.83 -0.23 0.29 0.23c-0.32,1.98 -0.79,2.97 -1.41,2.97l-0.83 1.91 0.27 0 1.12 -0.19 0.29 0 0.56 0.41 -1.68 0.44 -0.56 -0.44 -0.29 0c0,0.85 -0.56,1.55 -1.68,2.12l-1.68 -0.18 -3.61 0.41 -3.35 -0.41 -1.41 0 -0.56 -0.46 0 -0.21c0.57,0 0.85,-0.22 0.85,-0.64l0.27 -0.19 0.85 0 0.56 0.42 1.68 -1.27 1.38 -0.45 0.29 0 2.49 1.94 0.31 -0.22 0.25 0 -0.25 -1.08 1.68 -1.04 0.25 0.21 0 -0.21 -1.12 -1.08 0.31 -0.23 0 -0.64 -0.87 0.45 -0.25 -0.22 0 -0.41 1.12 0 0 -0.23c0,-0.29 -0.29,-0.44 -0.87,-0.44l0 -0.64 0.87 0 0 -1.04c-0.75,0 -1.41,0.92 -1.98,2.76l-0.82 0.64c-0.75,0 -1.78,-0.93 -3.09,-2.76l0 -0.23 0.3 -0.22c-1.7,-1.5 -2.53,-2.41 -2.53,-2.76l1.41 -2.12c-0.69,-1.12 -1.56,-1.92 -2.57,-2.43l-0.29 -0.7zm-12.9 -14.04l1.49 0 0 0.75 -1.49 0 0 -0.75zm-7.44 0.38l3.72 0 0 0.73 -3.72 0 0 -0.73zm11.17 0l1.12 0 0 0.73 -1.12 0 0 -0.73zm26.44 9.3c0,0.75 -0.49,1.12 -1.48,1.12l0 0.75 3.34 2.61 1.12 -0.75c0,-2.48 -0.99,-3.73 -2.98,-3.73zm-4.09 7.9l0 2.6 0.37 0 0.37 -1.85 -0.74 -0.75zm8.19 4.03l0.75 0.73 -0.37 0.37 -0.38 0 -0.74 -0.73 0.37 -0.37 0.37 0zm-4.1 9.3l0 0.37 -1.12 1.12 -0.36 0 0 -1.12 1.48 -0.37zm-11.17 1.12l0.75 0c0,1.99 0.86,3.73 2.6,5.21 -1.01,1.75 -2.26,2.61 -3.72,2.61 -4.97,-0.86 -7.45,-1.61 -7.45,-2.24 1.07,-0.49 3.05,-0.73 5.96,-0.73 1.24,-1.92 1.86,-3.54 1.86,-4.85zm8.93 0c0.5,0 0.76,0.37 0.76,1.12l1.11 0.37 -0.38 0.37 0 0.75 0.75 1.12 -0.75 0.73 -2.6 -3.72 0 -0.37 0.38 -0.37 0.73 0zm1.12 12.3l0.75 0 0 7.81 -0.38 0 -1.49 -1.11 0.76 -0.75 0 -1.86c0,-0.5 -0.37,-0.75 -1.12,-0.75l-0.37 -0.37 0 -0.37 0.37 -0.38c0,-0.5 0.49,-0.74 1.48,-0.74l0 -1.48zm-0.36 24.16l0.36 0 0.37 1.86 -0.37 0.38 -0.36 0 0 -2.24zm36.49 -69.31l0 0.74 -0.73 0 0 0.75 0.73 0.75 -0.37 3.72 0 3.35 -0.36 0.38 0.36 0.37 0 6.33 1.86 -0.37 0.38 0.37 0 0.37c-0.77,0 -1.76,2.49 -2.98,7.45l-0.74 0.75 0.37 0.37 -0.75 4.09 0.38 1.12 -0.38 2.99 -0.74 0 -0.75 -4.11c0.57,0 0.94,-1.62 1.12,-4.84 -0.42,-0.5 -2.16,-0.87 -5.21,-1.11l0 -0.75 6.7 -0.75c0,-0.5 -0.37,-0.74 -1.12,-0.74l0 -0.37 0.75 -0.75c-0.32,-7.57 -0.7,-11.92 -1.12,-13.04l0.75 -0.74c-0.85,0 -1.48,-0.86 -1.87,-2.6 -0.74,0 -1.62,-0.63 -2.61,-1.87l-1.85 0 0 -0.37 0.73 -0.75 0.75 0c3.23,0 5.46,-0.24 6.7,-0.74zm-25.69 1.49l0.37 0.37 1.86 -0.37 3.35 0c0,1.49 0.5,2.24 1.49,2.24 6.95,4.61 10.44,10.21 10.44,16.75l0 0.38c-0.33,1 -1.45,1.49 -3.36,1.49l-7.82 0 -3.35 -4.47 -2.61 -0.74 -0.75 0c-3.47,0.86 -5.21,2.48 -5.21,4.83 0,2.57 2.11,4.3 6.33,5.22 6.38,0 10.98,2.36 13.78,7.07 1.74,1.43 3.48,5.76 5.21,13.05l0.38 0.37 0 1.48c0,7.27 -3.61,12.74 -10.8,16.39 -2.04,0.99 -4.64,1.49 -7.82,1.49l-2.61 0c-5.59,-1.29 -9.93,-4.02 -13.04,-8.19 -1.98,-4.35 -2.98,-7.21 -2.98,-8.57l0.75 -0.75 5.95 0 6.34 -0.37c1.37,2.24 3.11,3.36 5.22,3.36l1.49 0c2.22,0 3.72,-1.62 4.46,-4.84 0,-4.48 -3.73,-6.7 -11.17,-6.7 -3.45,-1.01 -7.17,-4.23 -11.18,-9.69l-0.37 0 -2.24 0.37 -0.73 -1.12 0 -1.49 -0.38 -6.7c0.25,-1.74 0.62,-2.61 1.11,-2.61l0.39 0.37c1.83,-7.55 4.81,-12.76 8.93,-15.65 3.05,-1.98 5.91,-2.97 8.57,-2.97zm-18.62 0.37l3.72 0 1.86 0.38 0 0.74c-3.73,0.35 -5.58,1.09 -5.58,2.23l-0.75 0 -0.37 -1.85 0 -0.38 1.12 -1.12zm35.01 4.47l0.37 0.37 0 0.75 -1.12 0 0 -0.38 0.75 -0.74zm-35.76 31.66c0.25,1.49 1.37,2.24 3.35,2.24l0 0.75 -2.23 0 -1.86 0.36 -1.5 -1.86c0.5,-1 1.24,-1.49 2.24,-1.49zm41.71 10.42l0.75 0.75 0 1.12 -0.75 0 0 -0.37 0.38 -0.38 -0.38 -0.37 0 -0.75zm-42.83 1.5l1.49 0 0 0.74 -1.49 0 0 -0.74zm43.58 14.52l0.75 1.12 -1.12 1.12 -4.84 0 0 -0.37c0.02,-0.36 1.76,-0.97 5.21,-1.87zm-43.95 1.87l0.37 0c2.41,0.74 4.52,1.12 6.33,1.12l0.38 0 0 0.74 -3.72 0.38 -2.61 0 -0.75 -0.75 0 -1.49z"/>
 </g>
</svg>
