<?xml version="1.0" encoding="UTF-8"?>
<!DOCTYPE svg PUBLIC "-//W3C//DTD SVG 1.1//EN" "http://www.w3.org/Graphics/SVG/1.1/DTD/svg11.dtd">
<!-- Creator: CorelDRAW Home & Student 2019 -->
<svg xmlns="http://www.w3.org/2000/svg" xml:space="preserve" width="400px" height="400px" version="1.1" style="shape-rendering:geometricPrecision; text-rendering:geometricPrecision; image-rendering:optimizeQuality; fill-rule:evenodd; clip-rule:evenodd"
viewBox="0 0 42.11 42.11"
 xmlns:xlink="http://www.w3.org/1999/xlink">
 <defs>
  <style type="text/css">
   <![CDATA[
    .fil0 {fill:#A2D9F7}
    .fil5 {fill:#212121}
    .fil1 {fill:#694D42}
    .fil3 {fill:#825B4E}
    .fil4 {fill:#B38A6D}
    .fil6 {fill:#FFECB3}
    .fil2 {fill:#B3937C;fill-opacity:0.439216}
   ]]>
  </style>
 </defs>
 <g id="Layer_x0020_1">
  <metadata id="CorelCorpID_0Corel-Layer"/>
  <rect class="fil0" width="42.11" height="42.11"/>
  <g id="_1051095528">
   <g>
    <path class="fil1" d="M24.48 26.46c1.27,0.65 3.64,1.26 4.9,1.08 3.25,-0.48 5.6,-2.36 7.03,-4.97 0.6,-1.11 0.65,-3.34 -0.32,-3.59 -1.22,-0.3 -2.68,-0.06 -4.94,1.01 -2.29,1.08 -2.85,2.8 -5.55,1.48l-1.12 4.99zm0 0l0 0 0 0z"/>
   </g>
   <path class="fil2" d="M25.09 24.22c0.47,0.31 0.54,0.48 0.93,0.9 0.77,0.81 2.58,0.86 2.93,0.86 2.1,0.03 3.11,-0.48 4.46,-1.37 1.34,-0.89 2.61,-2.84 2.84,-3.81 0.16,-0.66 0.24,-1.17 0.21,-1.58 -0.1,-0.11 -0.22,-0.2 -0.36,-0.24 -1.23,-0.3 -2.68,-0.06 -4.94,1.01 -2.3,1.08 -2.85,2.8 -5.56,1.48l-0.59 2.62 0.08 0.13 0 0z"/>
   <path class="fil1" d="M36.36 20.31c0.04,-0.24 0.08,-0.46 0.09,-0.66l-1.39 -0.61 0.08 -0.18c-0.47,-0.01 -1,0.06 -1.6,0.22l0.67 0.29 -0.69 1.56 -1.55 -0.69 0.33 -0.75c-0.28,0.11 -1.32,0.55 -1.77,0.83l0.59 0.25 -0.69 1.56 -1.55 -0.7c-0.3,0.18 -0.58,0.33 -0.9,0.42l-1.56 3.54c0.19,0.09 0.39,0.17 0.6,0.23l0.64 -1.44 1.56 0.69c0,0 -0.33,0.72 -0.5,1.1 0.11,0.01 0.55,0.01 0.7,0.01l0.39 -0.85 1.38 0.6c0.41,-0.12 0.79,-0.28 1.16,-0.48l0.56 -1.32 0.89 0.39c0.17,-0.14 0.35,-0.3 0.52,-0.47l-1.15 -0.51 0.69 -1.56 1.57 0.7c0.13,-0.19 0.24,-0.38 0.34,-0.56l-1.65 -0.73 0.69 -1.56 1.55 0.68 0 0zm-6.89 3.97l-1.55 -0.69 0.68 -1.56 1.56 0.69 -0.69 1.56zm2.15 0.95l-1.55 -0.69 0.68 -1.56 1.56 0.69 -0.69 1.56zm0.95 -2.15l-1.56 -0.69 0.69 -1.56 1.56 0.69 -0.69 1.56z"/>
   <g>
    <path class="fil3" d="M8.93 6.93c-0.27,-0.04 -0.53,-0.07 -0.8,-0.08 -0.11,-0.01 -0.23,-0.01 -0.33,0.04 -0.08,0.05 -0.13,0.13 -0.17,0.22 -0.13,0.25 -0.2,0.53 -0.2,0.81 0,0.23 0.04,0.45 0.12,0.66 0.05,0.11 0.14,0.24 0.26,0.22 0.05,-0.01 0.09,-0.04 0.13,-0.07 0.38,-0.3 0.73,-0.63 1.05,-1 0.06,-0.06 0.11,-0.16 0.04,-0.21l-0.1 -0.59zm0 0l0 0 0 0z"/>
   </g>
   <g>
    <path class="fil1" d="M19.28 31.18c-2.23,1.09 -3.71,2.35 -5.27,3.9 -0.11,0.12 -0.6,0.65 -0.3,0.81 0.3,0.16 1.04,-0.38 1.26,-0.24 0.25,0.17 0.06,0.46 0.33,0.66 0.27,0.19 0.98,-0.37 1.34,-0.21 0.37,0.16 0.2,0.44 0.42,0.69 0.27,0.33 0.89,0.02 1.05,-0.11 0.98,-0.77 3.41,-3.08 3.83,-3.58 0.57,-0.66 0.94,-1.55 0.43,-2.14l-3.09 0.22zm0 0l0 0 0 0z"/>
   </g>
   <g>
    <path class="fil1" d="M11.75 30.45c-1.32,0.42 -2.61,0.98 -3.81,1.67 -0.25,0.14 -0.5,0.29 -0.71,0.49 -0.09,0.09 -0.18,0.24 -0.09,0.33 0.2,0.19 0.6,-0.12 0.9,0.11 0.1,0.09 0.04,0.44 0.12,0.55 0.08,0.11 0.24,0.16 0.38,0.15 0.14,-0.01 0.28,-0.07 0.42,-0.11 0.3,-0.09 0.61,-0.15 0.81,0.09 0.12,0.15 0.11,0.29 0.19,0.45 0.06,0.11 0.15,0.2 0.37,0.2 0.34,-0.01 0.66,-0.16 0.94,-0.35 1.27,-0.85 2.47,-1.8 3.66,-2.75l-3.18 -0.83zm0 0l0 0 0 0z"/>
   </g>
   <g>
    <path class="fil3" d="M16.67 8.01c0.89,0.25 1.12,-0.01 1.79,0.04 0.86,0.07 0.76,0.88 0.63,1.33 -0.16,0.58 -0.48,1.05 -0.94,1.43 -0.08,0.07 -0.17,0.13 -0.27,0.14 -0.12,0.01 -0.23,-0.06 -0.33,-0.14 -0.61,-0.5 -0.99,-1.26 -1.04,-2.05l0.16 -0.75zm0 0l0 0 0 0z"/>
   </g>
   <path class="fil4" d="M7.59 15.44c0,0 -1.59,0.18 -2.14,1.88 -0.82,2.49 1.35,3.93 1.35,3.93 0,0 -0.6,5.09 2.51,7.89 3.1,2.79 4.11,2.89 7.74,3.55 3.63,0.67 7.01,-1.67 7.89,-2.61 0.87,-0.94 2.23,-2.9 2.47,-5.34 0.25,-2.44 -1.91,-6.71 -3.87,-8.94 -1.95,-2.22 -5.97,-5.68 -5.97,-5.68l-5.79 5.4 -4.19 -0.08 0 0z"/>
   <path class="fil4" d="M16.92 8.23c-1.44,-2.03 -3.05,-2.43 -4.82,-2.43 -1.9,0 -3.71,1.4 -4.54,2.5 -0.67,0.9 -1.51,2.36 -1.63,4.04 -0.09,1.32 0.33,2.55 1.63,3.46 1.3,0.91 6.48,2 8.61,0.54 1.86,-1.28 2.49,-3 2.3,-4.44 -0.13,-1.04 -0.43,-2.1 -1.55,-3.67l0 0z"/>
   <ellipse class="fil5" transform="matrix(0.119723 -0.0383652 0.0383652 0.119723 13.8363 9.38224)" rx="5" ry="6.48"/>
   <path class="fil6" d="M8.48 13.27c-0.13,0.94 0.28,2.36 0.63,2.34 0.29,-0.02 0.36,-0.59 0.36,-0.59 0,0 0.25,0.73 0.7,0.68 0.44,-0.04 0.41,-1.6 0.53,-2.35l-1.48 -0.61 -0.74 0.53 0 0z"/>
   <path class="fil5" d="M7.5 8.92c0.09,-0.26 0.33,-0.61 0.72,-0.6 0.42,0.02 0.34,0.61 0.2,0.93 -0.14,0.31 -0.48,0.62 -0.79,0.42 -0.21,-0.13 -0.19,-0.56 -0.13,-0.75l0 0z"/>
   <path class="fil3" d="M15.18 22.23c-3.31,-1.12 -3.45,-4.42 -4.47,-5.19 -0.34,-0.27 -0.68,-0.33 -1.03,-0.52 -0.32,-0.16 -0.7,-0.33 -1.03,-0.2 0.23,0.16 0.44,0.35 0.61,0.58 -0.34,0.04 -0.84,0.08 -1,0.29 -0.03,0.03 0.01,0.09 0.05,0.11 0.04,0.02 0.59,0.12 0.81,0.35 -0.17,0.15 -0.38,0.27 -0.53,0.44 -0.09,0.1 -0.01,0.16 0.03,0.17 0.24,0.07 0.5,0.03 0.73,0.14 0.22,0.11 0.38,0.31 0.58,0.46 0.24,0.17 0.53,0.27 0.83,0.27 0.5,1.04 1.15,1.9 1.99,2.68 0.77,0.72 1.73,1.24 2.79,1.43 3.34,0.61 4.83,-2.79 4.83,-2.79 0,0 -2.38,2.72 -5.19,1.78z"/>
   <path class="fil5" d="M10.08 9.58c-0.13,-0.17 -0.38,-0.2 -0.53,-0.06 -0.4,0.36 -0.78,0.69 -0.95,0.96 -0.11,0.18 -0.2,0.54 0.01,0.79 0.21,0.26 0.87,0.79 0.87,0.79 0,0 0.83,-0.39 1.09,-0.57 0.31,-0.23 0.38,-0.7 0.12,-1.1 -0.11,-0.16 -0.41,-0.54 -0.61,-0.81l0 0z"/>
   <path class="fil5" d="M11.8 13.18c0.22,-0.34 -0.02,-0.5 -0.17,-0.33 -0.16,0.18 -0.58,0.47 -1.16,0.27 -0.32,-0.12 -0.54,-0.22 -0.67,-0.59 -0.08,-0.26 -0.05,-0.62 -0.05,-0.89 0,-0.12 -0.55,-0.14 -0.59,-0.03 -0.07,0.21 -0.07,0.43 -0.08,0.65 0,0.24 -0.04,0.54 -0.25,0.67 -0.68,0.43 -1.08,-0.22 -1.16,-0.29 -0.04,-0.03 -0.11,0.16 -0.05,0.38 0.32,1.04 1.47,0.85 1.8,0.35 0.06,0.41 1.52,1.16 2.38,-0.19l0 0z"/>
   <path class="fil3" d="M6.49 21c0.04,0.04 0.1,0.1 0.14,0.13 0.11,0.09 0.27,0.09 0.37,-0.02 0.12,-0.12 0.26,-0.33 0.34,-0.62 0.17,-0.54 0.11,-1.31 -0.22,-1.85l-0.31 0.31c0.24,0.76 0.15,1.4 -0.09,1.8 -0.1,0.16 -0.23,0.24 -0.23,0.25l0 0z"/>
   <path class="fil3" d="M14.55 15.91l-0.19 0.87c0.81,-0.1 1.67,-1.67 1.67,-1.67l0.01 1.05c1.03,-0.56 1.56,-2.97 1.56,-2.97 0.1,1.17 0.2,3.77 -3.29,4.22 -1.27,0.17 -2.6,-0.36 -2.6,-0.36 0,0 1.97,-0.13 2.84,-1.14l0 0z"/>
   <path class="fil3" d="M6.23 16.96c0.44,-0.69 1.22,-0.9 1.85,-0.81 0.03,0.01 0.11,0.04 0.13,0.06 0.04,0.04 0.02,0.11 -0.03,0.15 -0.04,0.03 -0.1,0.04 -0.16,0.06 -0.31,0.07 -0.6,0.31 -0.65,0.63 0.22,-0.09 0.49,-0.07 0.7,0.05 0.06,0.04 0.12,0.1 0.09,0.16 -0.02,0.04 -0.06,0.05 -0.1,0.06 -0.28,0.09 -0.46,0.38 -0.51,0.66 0.15,-0.03 0.3,-0.06 0.45,-0.04 0.15,0.03 0.35,0.16 0.34,0.27 -0.02,0.13 -0.36,0.04 -0.51,0.31 -0.11,0.19 -0.16,0.41 -0.33,0.55 -0.15,0.12 -0.37,0.14 -0.56,0.09 -0.19,-0.06 -0.35,-0.18 -0.48,-0.33 -0.44,-0.5 -0.54,-1.28 -0.23,-1.87z"/>
  </g>
 </g>
</svg>
