<?xml version="1.0" encoding="UTF-8"?>
<!DOCTYPE svg PUBLIC "-//W3C//DTD SVG 1.1//EN" "http://www.w3.org/Graphics/SVG/1.1/DTD/svg11.dtd">
<!-- Creator: CorelDRAW Home & Student 2019 -->
<svg xmlns="http://www.w3.org/2000/svg" xml:space="preserve" width="400px" height="400px" version="1.1" style="shape-rendering:geometricPrecision; text-rendering:geometricPrecision; image-rendering:optimizeQuality; fill-rule:evenodd; clip-rule:evenodd"
viewBox="0 0 125 125"
 xmlns:xlink="http://www.w3.org/1999/xlink">
 <defs>
  <style type="text/css">
   <![CDATA[
    .fil0 {fill:#BBC274}
    .fil7 {fill:black}
    .fil9 {fill:#212121}
    .fil12 {fill:#3B2622}
    .fil5 {fill:#6A463E}
    .fil4 {fill:#8C685C}
    .fil6 {fill:#AF7464}
    .fil10 {fill:#BF967C}
    .fil1 {fill:#F7CC93}
    .fil11 {fill:#FADCB2}
    .fil2 {fill:url(#id0)}
    .fil8 {fill:url(#id1)}
    .fil3 {fill:url(#id2)}
   ]]>
  </style>
  <linearGradient id="id0" gradientUnits="userSpaceOnUse" x1="82.23" y1="69.71" x2="77.65" y2="84.21">
   <stop offset="0" style="stop-opacity:1; stop-color:#6A463E"/>
   <stop offset="1" style="stop-opacity:1; stop-color:#8C685C"/>
  </linearGradient>
  <linearGradient id="id1" gradientUnits="userSpaceOnUse" x1="32.61" y1="75.3" x2="32.61" y2="62.99">
   <stop offset="0" style="stop-opacity:1; stop-color:#BF967C"/>
   <stop offset="0.141176" style="stop-opacity:1; stop-color:#BF967C"/>
   <stop offset="0.988235" style="stop-opacity:0.0117647; stop-color:#BF967C"/>
   <stop offset="1" style="stop-opacity:0; stop-color:#BF967C"/>
  </linearGradient>
  <linearGradient id="id2" gradientUnits="userSpaceOnUse" xlink:href="#id0" x1="68.87" y1="76.47" x2="69.64" y2="88.08">
  </linearGradient>
 </defs>
 <g id="Layer_x0020_1">
  <metadata id="CorelCorpID_0Corel-Layer"/>
  <rect class="fil0" width="125" height="125"/>
  <g id="_1042157248">
   <path class="fil1" d="M23.48 43.1c0.91,-0.08 0.98,-0.32 0.98,-4.03 0,-2.93 -0.32,-3.78 -0.32,-3.78 0,0 -2.61,-0.53 -3.09,-3.71 -0.41,-2.73 1.83,-6.46 1.44,-7.24 -0.41,-0.82 -1.08,-1.2 -3.74,1.52 -2.64,2.69 -3.97,6.77 -2.54,11.58 1.72,5.84 6.54,5.72 7.27,5.66l0 0z"/>
   <path class="fil2" d="M79.42 64.81c1.7,-0.59 3.7,-0.37 5.12,0.74 1.89,1.49 2.41,4.1 2.56,6.5 0.07,1.21 -0.37,5.16 -0.6,6 -0.58,2.14 -0.7,4.46 -1.16,6.63 -0.56,2.64 -2.51,7.46 -3.1,9.11 -0.14,0.4 -0.43,0.71 -0.81,0.88 -0.81,0.38 -2.3,0.91 -3.87,0.65 -0.89,-0.14 -1.54,-0.39 -1.99,-0.64 -0.62,-0.34 -0.91,-1.06 -0.72,-1.73 0.44,-1.61 1.37,-4.96 1.85,-7.02 0.61,-2.65 0.81,-5.35 0.48,-7.08 -0.56,-3.02 -2.52,-5.28 -2.02,-8.55 0.33,-2.1 1.55,-4.09 3.4,-5.11 0.27,-0.15 0.55,-0.28 0.86,-0.38l0 0z"/>
   <path class="fil3" d="M68.48 28.36c0,0 4.73,0.76 14.16,7.64 3.44,2.51 9.86,3.61 12,4.15 6,1.51 9.51,6.05 10.16,11.13 0.65,5.08 0.22,13.4 -0.98,17.83 -1.18,4.43 -1.93,8.43 -2.05,10.16 -0.22,3.25 0.2,7.3 -0.32,10.48 -0.54,3.28 -1.51,7.03 -1.95,8.63 -0.18,0.65 -0.61,1.22 -1.22,1.53 -0.75,0.38 -1.94,0.71 -3.7,0.49 -0.63,-0.08 -1.16,-0.19 -1.59,-0.33 -1.25,-0.37 -1.97,-1.65 -1.68,-2.92 0.72,-3.06 2.26,-10.06 1.93,-12.15 -0.44,-2.7 -4.65,-7.24 -5.23,-11.93 0,0 -3.22,0.98 -11.45,4.22 -2.34,0.92 -4.1,1.88 -5.37,5.98 -1.81,5.89 -2.48,17.86 -2.66,21.25 -0.04,0.85 -0.59,1.59 -1.38,1.87 -0.69,0.25 -1.72,0.45 -3.26,0.45 -1.66,0 -2.76,-0.24 -3.47,-0.51 -0.79,-0.3 -1.29,-1.07 -1.31,-1.91 -0.09,-4.56 -0.52,-23.12 -1.76,-26.34 -1.4,-3.67 -7.84,-1.26 -8.97,1.84 -0.54,1.48 -0.47,2.21 -0.32,3.6 0.21,1.96 1.4,9.73 0.97,13.73 -0.36,3.38 -0.87,6.35 -1.12,7.18 -0.05,0.17 -0.14,0.31 -0.27,0.42 -0.6,0.54 -2.59,2.02 -5.75,1.71 -1.74,-0.17 -2.76,-0.83 -3.28,-1.33 -0.3,-0.28 -0.38,-0.73 -0.18,-1.08 0.68,-1.24 2.27,-4.49 1.84,-7.05 -0.54,-3.25 -8.16,-24.57 -8.16,-24.57l13.03 -29.04 23.34 -15.13 0 0z"/>
   <path class="fil4" d="M68.48 28.36c0,0 4.73,0.76 14.16,7.64 3.44,2.51 9.86,3.61 12,4.15 6,1.51 9.51,6.05 10.16,11.13 0.65,5.08 0.22,13.4 -0.98,17.83 -1.18,4.43 -1.93,8.43 -2.05,10.16 -0.22,3.25 0.2,7.3 -0.32,10.48 -0.54,3.28 -1.51,7.03 -1.95,8.63 -0.18,0.65 -0.61,1.22 -1.22,1.53 -0.75,0.38 -1.94,0.71 -3.7,0.49 -0.63,-0.08 -1.16,-0.19 -1.59,-0.33 -1.25,-0.37 -1.97,-1.65 -1.68,-2.92 0.72,-3.06 2.26,-10.06 1.93,-12.15 -0.44,-2.7 -4.65,-7.24 -5.23,-11.93 0,0 -3.22,0.98 -11.45,4.22 -2.34,0.92 -4.1,1.88 -5.37,5.98 -1.81,5.89 -2.48,17.86 -2.66,21.25 -0.04,0.85 -0.59,1.59 -1.38,1.87 -0.69,0.25 -1.72,0.45 -3.26,0.45 -1.66,0 -2.76,-0.24 -3.47,-0.51 -0.79,-0.3 -1.29,-1.07 -1.31,-1.91 -0.09,-4.56 -0.52,-23.12 -1.76,-26.34 -1.4,-3.67 -8.61,-1.44 -8.97,1.84l-3.24 -36.43 23.34 -15.13 0 0z"/>
   <path class="fil5" d="M77.1 47.89c0.34,-2.71 1.78,-2.14 1.99,-4.81 0.22,-2.71 -1.62,-2.69 -1.67,-4.76 -0.04,-1.62 1.6,-3.08 0.68,-5.11 -1.06,-2.34 -2.6,-1.81 -3.77,-2.76 -1.66,-1.36 -0.27,-3.03 -1.94,-4.7 -1.66,-1.66 -3.22,-0.68 -4.54,-1.48 -1.19,-0.72 -0.55,-2.26 -2.71,-3.29 -2.19,-1.04 -2.87,0.67 -5.4,-0.72 -0.98,-0.53 -2.18,-2.24 -4.73,-1.94 -2.56,0.29 -2.71,1.85 -4.88,2.17 -2.16,0.33 -2.65,-1.12 -5.57,-0.54 -3.64,0.73 -5.43,4.77 -6.49,7.9 -2.34,6.87 -5.61,34.21 -5.55,35.77 0.12,3.14 3.42,7.2 5.27,9.67 1.58,2.12 4.44,3.68 6.17,5.63 1.74,1.95 5.24,2.13 7.32,0.76 0.56,-0.38 1.5,-2.03 4.04,-1.37 3.71,0.97 5.96,0.14 7.19,-3.16 0.18,-0.48 0.56,-2 4.32,-2.5 1.93,-0.25 3.55,-2.63 2.83,-5.31 -0.35,-1.3 1.15,-3.09 2.73,-3.55 2.12,-0.61 2.92,-2.6 2.63,-4.46 -0.15,-1.02 0.5,-2.84 1.79,-3.69 1.63,-1.08 2.14,-2.96 1.34,-4.76 -0.48,-1.06 -1.2,-1.82 -1.05,-2.99l0 0z"/>
   <path class="fil6" d="M77.33 38.32c-0.14,-1.27 0.58,-2.44 0.59,-3.49 0.02,-0.53 -0.11,-1.01 -0.38,-1.45 -0.27,-0.47 -0.61,-0.85 -0.99,-1.08 -0.39,-0.24 -0.83,-0.35 -1.46,-0.53 -0.31,-0.09 -0.67,-0.21 -1.02,-0.41 -0.35,-0.23 -0.64,-0.45 -0.91,-0.79 -0.58,-0.64 -0.74,-1.57 -0.81,-2.15 -0.08,-0.62 -0.15,-1.04 -0.35,-1.34 -0.17,-0.3 -0.51,-0.61 -0.85,-0.83 -0.34,-0.2 -0.65,-0.29 -1.14,-0.33 -0.47,-0.04 -1.14,0.03 -2.02,-0.2 -0.43,-0.14 -0.87,-0.33 -1.29,-0.7 -0.41,-0.37 -0.66,-0.84 -0.81,-1.16 -0.3,-0.68 -0.4,-0.95 -0.63,-1.17 -0.2,-0.22 -0.59,-0.45 -0.97,-0.58 -0.38,-0.11 -0.6,-0.14 -1.11,-0.06 -0.48,0.08 -1.35,0.27 -2.19,0.12 -0.42,-0.06 -0.81,-0.2 -1.16,-0.34 -0.19,-0.06 -0.35,-0.15 -0.52,-0.24l-0.24 -0.12 -0.29 -0.18c-0.65,-0.45 -1.01,-0.81 -1.42,-1.07 -0.78,-0.54 -1.52,-0.67 -2.45,-0.55 -0.46,0.06 -0.83,0.17 -1.22,0.4 -0.4,0.21 -0.84,0.61 -1.52,0.99 -0.66,0.39 -1.47,0.6 -2.21,0.64 -0.76,0.07 -1.6,-0.13 -2.2,-0.36 -0.61,-0.23 -1.02,-0.4 -1.49,-0.47 -0.47,-0.07 -0.97,-0.06 -1.5,0 -0.99,0.14 -1.95,0.57 -2.77,1.29 -0.85,0.69 -1.56,1.6 -2.18,2.59 -0.31,0.49 -0.6,1.01 -0.87,1.54 -0.29,0.52 -0.55,1.06 -0.81,1.6l-0.14 -0.04c0.38,-1.13 0.81,-2.26 1.36,-3.33 0.54,-1.07 1.2,-2.09 2.07,-2.93 1.67,-1.75 4.47,-2.4 6.71,-1.4 1.1,0.4 2.35,0.3 3.35,-0.29 0.5,-0.29 0.94,-0.7 1.47,-1.02 0.52,-0.32 1.12,-0.53 1.71,-0.63 1.2,-0.23 2.51,0.02 3.52,0.72 0.52,0.32 0.97,0.74 1.44,1.07 0.49,0.28 1.04,0.53 1.6,0.62 0.56,0.11 1.13,-0.01 1.73,-0.1 0.6,-0.11 1.26,-0.07 1.84,0.14 0.57,0.22 1.12,0.53 1.56,0.99 0.44,0.45 0.65,1.07 0.87,1.6 0.12,0.26 0.26,0.51 0.46,0.7 0.2,0.18 0.45,0.32 0.72,0.4 0.54,0.16 1.14,0.14 1.75,0.2 1.24,0.08 2.38,0.85 2.95,1.96 0.59,1.13 0.15,2.48 0.89,3.4 0.17,0.24 0.4,0.42 0.62,0.58 0.24,0.16 0.51,0.28 0.79,0.38 0.56,0.19 1.15,0.37 1.65,0.75 0.49,0.38 0.85,0.9 1.09,1.45 0.27,0.55 0.37,1.18 0.29,1.79 -0.15,1.22 -0.95,2.24 -0.95,3.42l-0.16 0z"/>
   <path class="fil4" d="M24.59 43.28c0,0 -1.01,2.72 -0.57,8.15 0.37,4.47 2.34,8.25 2.02,11.17 -0.33,2.92 -1.34,6.3 0.93,9.33 1.03,1.36 2.51,2.25 4.12,2.75 1.27,0.4 3.96,0.36 3.96,0.36 0,0 0.71,3.32 1.36,4.5 0.89,1.61 2.71,2.94 4.72,4.51 -0.73,-1.47 0.15,-4.12 1.15,-5.41 3.32,-4.3 1.41,-6.31 2.39,-6.99 9.22,-6.42 13,-19.6 13,-19.6 0,0 5.03,0.43 6.54,0 1.51,-0.44 3.03,-1.95 1.08,-4.11 -1.94,-2.16 -7.4,-5.19 -7.94,-6.92 -0.55,-1.72 -23.24,-3.24 -23.24,-3.24l-9.52 5.5 0 0z"/>
   <g>
    <path class="fil4" d="M104.85 52.02c0.73,6.33 1.48,12.78 4.1,18.58 0.34,0.74 0.71,1.73 0.1,2.28 -0.86,0.77 -2.31,-0.39 -2.65,-0.79 -3.39,-3.9 -5.2,-9.77 -5.76,-10.89l4.21 -9.18zm0 0l0 0 0 0z"/>
   </g>
   <ellipse class="fil7" cx="28.68" cy="52.61" rx="2.08" ry="2.56"/>
   <ellipse class="fil7" cx="43.88" cy="52.61" rx="2.08" ry="2.56"/>
   <path class="fil8" d="M29.63 64.53c-0.95,0.84 -1.98,3.12 -1.9,5.6 0.06,1.94 0.66,3.2 2.36,4.2 2.5,1.06 5.13,1.26 8.63,-0.08 4.1,-2.68 0.28,-8.25 -0.78,-9.42 -1.6,-1.74 -6.68,-1.78 -8.31,-0.3l0 0z"/>
   <path class="fil9" d="M36.56 66.95c-0.83,-0.81 -2.04,0.21 -3.92,0.21 -1.9,0 -2.65,-1 -3.41,0 -0.37,0.49 -0.19,1.15 0.12,1.59 0.31,0.43 0.95,0.79 1.69,1.35 0.33,0.26 -0.22,0.78 -0.49,1.04 -0.3,0.28 -0.89,1.11 -0.32,1.55 0.35,0.28 0.58,0.08 1.34,-0.28 0.52,-0.25 0.96,-0.29 1.57,-0.25 0.62,0.04 1.51,0.44 1.97,0.68 0.21,0.1 0.41,0.21 0.62,0.24 0.23,0.03 0.48,-0.03 0.62,-0.2 0.24,-0.29 0.06,-0.74 -0.17,-1.05 -0.33,-0.46 -0.9,-0.85 -1.45,-1.17 -0.25,-0.15 -0.41,-0.37 -0.18,-0.54 0.66,-0.48 1.36,-0.85 1.92,-1.51 0.42,-0.51 0.54,-1.21 0.08,-1.66l0.01 0z"/>
   <path class="fil10" d="M83.52 90.36c-3.76,0.7 -6.44,0.32 -7.88,-0.2 -0.02,0.09 -0.07,0.18 -0.11,0.28 -0.27,0.98 -0.51,1.88 -0.69,2.51 -0.19,0.67 0.1,1.39 0.72,1.73 0.46,0.25 1.1,0.51 1.99,0.64 1.57,0.26 3.07,-0.27 3.87,-0.65 0.38,-0.17 0.68,-0.48 0.82,-0.88 0.25,-0.7 0.75,-1.99 1.28,-3.43l0 0z"/>
   <path class="fil10" d="M91.8 94.98c-0.18,0.83 -0.35,1.58 -0.49,2.18 -0.3,1.26 0.43,2.55 1.67,2.92 0.43,0.13 0.96,0.24 1.6,0.33 1.75,0.22 2.94,-0.12 3.69,-0.49 0.61,-0.31 1.05,-0.88 1.22,-1.54 0.2,-0.7 0.49,-1.82 0.81,-3.12 0.02,-0.11 0.05,-0.23 0.08,-0.34 -4.57,1.08 -6.97,0.6 -8.58,0.06l0 0z"/>
   <path class="fil10" d="M68.76 100.58c-4.05,1.58 -7.76,0.94 -9.74,0.35l0 0.03c0.04,1.46 0.06,2.67 0.08,3.46 0.01,0.84 0.52,1.61 1.31,1.91 0.72,0.27 1.81,0.51 3.47,0.51 1.53,0 2.56,-0.2 3.25,-0.45 0.8,-0.28 1.34,-1.02 1.39,-1.87 0.04,-0.84 0.12,-2.24 0.24,-3.94l0 0z"/>
   <path class="fil10" d="M39.96 100.44c-0.42,1.23 -1.21,3.12 -1.55,3.72 -0.2,0.35 -0.11,0.8 0.18,1.08 0.53,0.5 1.54,1.15 3.29,1.32 3.15,0.31 5.13,-1.17 5.74,-1.7 0.14,-0.12 0.22,-0.25 0.28,-0.42 0.14,-0.51 0.39,-1.82 0.65,-3.53 0.02,-0.19 0.04,-0.39 0.07,-0.57 -3.45,1.51 -7.04,0.9 -8.66,0.1l0 0z"/>
   <path class="fil5" d="M47.51 24.4c0,0 -11.82,-4.47 -19.24,0.79 -7.42,5.26 -7.35,10.88 -7.57,13.4 -0.22,2.53 0.72,6.13 0,7.92 -0.72,1.81 -0.68,5.1 2.16,6.42 3.75,1.73 5.82,-1.66 5.82,-1.66 0,0 3.34,3.04 8.53,2.69 5.19,-0.35 6.12,-3.63 6.12,-3.63 0,0 3.19,3.83 7.14,2.38 5.47,-2.01 5.47,-9.51 5.47,-9.51l-8.21 -18.02 -0.22 -0.78z"/>
   <path class="fil6" d="M49.69 26.75c-0.88,-0.83 -1.88,-1.4 -2.93,-1.86 -1.04,-0.49 -2.13,-0.82 -3.23,-1.12 -1.1,-0.25 -2.2,-0.5 -3.32,-0.59 -1.11,-0.14 -2.22,-0.18 -3.33,-0.11 -2.21,0.07 -4.38,0.57 -6.42,1.46 -1.02,0.46 -2.02,1 -2.97,1.66 -0.96,0.65 -1.85,1.42 -2.79,2.22l-0.12 -0.09c0.7,-0.99 1.49,-1.91 2.36,-2.74 0.89,-0.82 1.88,-1.53 2.93,-2.12 2.11,-1.19 4.52,-1.83 6.93,-1.94 2.43,-0.1 4.85,0.28 7.13,1.1 1.14,0.41 2.24,0.92 3.25,1.58 1.01,0.66 1.97,1.45 2.63,2.48l-0.12 0.07z"/>
   <path class="fil11" d="M56.42 44.38c-0.79,-0.05 -3.02,-0.41 -3.35,-4.34 -0.22,-2.57 1.43,-3.89 1.43,-3.89 0,0 2.16,-1.73 1.44,-4.76 -0.72,-3.03 -2.31,-6.04 -2.02,-6.91 0.34,-1.05 1.57,-1.37 4.39,1.51 2.82,2.86 5.06,7.2 3.54,12.32 -1.73,5.81 -4.46,6.14 -5.43,6.07l0 0z"/>
   <path class="fil6" d="M22.2 32.15c-0.54,2.11 -0.61,4.08 -0.45,6.06 0.1,0.99 0.21,1.98 0.4,2.98l0.22 1.58c0.04,0.27 0.07,0.55 0.09,0.88 0.01,0.16 0.03,0.33 0.01,0.54 0,0.18 -0.07,0.52 -0.1,0.64 -0.16,0.62 -0.34,1.09 -0.49,1.59 -0.16,0.49 -0.3,0.96 -0.43,1.4 -0.23,0.79 -0.24,1.72 -0.09,2.48 0.18,0.78 0.62,1.5 1.36,2.03 0.73,0.55 1.7,0.92 2.75,0.99l0.03 0.16c-1.06,0.22 -2.17,0.04 -3.14,-0.43 -0.96,-0.46 -1.76,-1.31 -2.13,-2.34 -0.37,-1.02 -0.41,-2.13 -0.2,-3.18 0.21,-1.05 0.58,-2.05 0.84,-3.06 0.11,-0.47 0.04,-1 -0.02,-1.52l-0.18 -1.57c-0.12,-1.05 -0.2,-2.12 -0.18,-3.18 0.04,-2.11 0.49,-4.27 1.56,-6.11l0.15 0.06 0 0z"/>
   <path class="fil6" d="M27.8 44.11c0.06,1.32 0.24,2.46 0.57,3.45 0.19,0.49 0.37,0.95 0.65,1.37 0.25,0.43 0.53,0.86 0.87,1.23 0.14,0.2 0.33,0.37 0.49,0.56l0.57 0.5c0.38,0.36 0.83,0.64 1.28,0.96 0.94,0.59 2,1.12 3.2,1.69l0 0.15c-1.25,-0.01 -2.5,-0.25 -3.66,-0.72 -1.16,-0.47 -2.26,-1.18 -3.07,-2.15 -0.79,-0.99 -1.37,-2.16 -1.53,-3.42 -0.17,-1.25 0,-2.53 0.48,-3.7l0.15 0.08 0 0z"/>
   <path class="fil12" d="M56.26 49.2c0.22,2.48 1.43,2.99 1.43,2.99 -0.43,1.43 -1.51,4.26 -2.29,5.52 -3.07,5.02 -6.21,10.14 -10.7,13.95 -0.14,0.12 -0.28,0.25 -0.36,0.41 -0.06,0.15 -0.07,0.31 -0.07,0.47 -0.01,1.03 0.02,2.06 -0.29,3.04 -0.45,1.35 -1.45,2.43 -2.14,3.68 -0.76,1.36 -1.15,2.93 -1.09,4.49 0.65,-3.46 4.23,-4.89 5.5,-7.96 0.56,-1.38 0.68,-3.1 1.9,-3.96 0.64,-0.44 1.44,-0.55 2.19,-0.72 1.39,-0.32 2.75,-1.33 3.2,-2.72 0.4,-1.25 0.15,-2.73 0.96,-3.76 1.05,-1.36 3.4,-1.26 4.23,-2.75 0.65,-1.16 0,-2.58 0.05,-3.91 0.05,-1.31 0.86,-2.55 2.03,-3.14 0.91,-0.44 1.99,-0.43 2.97,-0.74 2.44,-0.77 2.7,-2.56 2.29,-3.5 -0.63,0.88 -1.76,1.36 -2.81,1.42 -4.11,0.21 -5.84,-1.51 -7,-2.81l0 0z"/>
  </g>
 </g>
</svg>
