<?xml version="1.0" encoding="UTF-8"?>
<!DOCTYPE svg PUBLIC "-//W3C//DTD SVG 1.1//EN" "http://www.w3.org/Graphics/SVG/1.1/DTD/svg11.dtd">
<!-- Creator: CorelDRAW Home & Student 2019 -->
<svg xmlns="http://www.w3.org/2000/svg" xml:space="preserve" width="400px" height="400px" version="1.1" style="shape-rendering:geometricPrecision; text-rendering:geometricPrecision; image-rendering:optimizeQuality; fill-rule:evenodd; clip-rule:evenodd"
viewBox="0 0 75.47 75.47"
 xmlns:xlink="http://www.w3.org/1999/xlink">
 <defs>
  <style type="text/css">
   <![CDATA[
    .fil0 {fill:#A2D9F7}
    .fil5 {fill:#333333}
    .fil2 {fill:#5D6265}
    .fil1 {fill:#858585}
    .fil7 {fill:#895A4E}
    .fil3 {fill:#ADADB7}
    .fil6 {fill:#B79277}
    .fil4 {fill:#DFDFDF}
   ]]>
  </style>
 </defs>
 <g id="Layer_x0020_1">
  <metadata id="CorelCorpID_0Corel-Layer"/>
  <rect class="fil0" width="75.47" height="75.47"/>
  <g id="_1053786872">
   <path class="fil1" d="M64.18 39.39c0,0 -1.04,-2.1 -1.26,-3.6 -0.26,-1.83 -0.61,-2.87 -0.77,-4.1 -0.2,-1.63 -0.73,-2.37 -1,-2.8l-0.19 2.47c0,0 -1.08,2.32 0.03,4.87 1.49,3.39 1.53,3.2 1.53,3.2l1.66 -0.04 0 0z"/>
   <path class="fil2" d="M61.92 45.19c-1.1,-1.49 -1.36,-2.64 -1.06,-4.24 0.29,-1.63 0.89,-2.92 2.5,-2.83 1.13,0.07 1.89,1 1.63,2.83 -0.17,1.16 -0.96,1.72 -0.67,2.9 0.4,1.64 1.49,1.81 1.71,2.2 0.21,0.39 -2.52,1.28 -4.11,-0.86l0 0z"/>
   <path class="fil1" d="M32.13 44.12l-5.1 2c0,0 1.54,1.96 1.6,2.63 0.07,0.67 0.07,3.9 -0.03,4.3 -0.1,0.4 -1.63,2.6 -1.13,3.17 0.5,0.57 2.03,0.76 3.33,0.63 1.3,-0.13 2.27,-1.16 2.33,-1.63 0.07,-0.47 0.14,-3.3 0.2,-4 0.07,-0.7 0.9,-5.67 0.9,-5.67l-2.1 -1.43 0 0z"/>
   <path class="fil1" d="M52.56 44.32l-3.4 1.9c0,0 0.3,1.6 0.1,2.5 -0.2,0.9 -1.13,1.83 -0.7,2.37 0.43,0.53 2.17,0.5 3.03,0.43 0.87,-0.07 1.73,-0.53 1.87,-1 0.13,-0.47 0.16,-6 0.16,-6l-1.06 -0.2 0 0z"/>
   <path class="fil1" d="M34.66 31.89l-14.26 6.3 -5.46 -2.67c0,0 -0.17,1.1 -0.1,1.77 0.13,1.23 0.8,4.8 5.93,5.57 5.13,0.76 8.93,-1.77 8.93,-1.77l9.69 -5.06 -4.73 -4.14z"/>
   <path class="fil3" d="M30 15.97c0,0 -5.64,-0.71 -9.14,2.54 -3.49,3.24 -3.31,8.08 -3.31,9.42 0,1.33 0.18,2.22 -0.31,3.06 -0.49,0.85 -2.31,2.44 -2.34,4.57 -0.03,1.69 13.75,1.48 13.75,1.48 0,0 2.42,-0.23 3.72,-1.43 1.29,-1.19 1.93,-2.68 1.93,-2.68 0,0 0.64,2.41 -1.27,4.1 -1.3,1.14 -3.03,1.21 -3.03,1.21 0,0 -0.22,1.82 -2.37,3.37 -1.82,1.32 -3.98,1.34 -3.98,1.34 0,0 1.06,3.01 6.03,4.39 4.97,1.38 6.58,1.29 6.58,1.29 0,0 0.72,4.53 0.77,5.38 0.04,0.84 -0.32,5.02 -0.09,5.42 0.22,0.39 1.65,1.55 3.04,1.42 1.39,-0.14 1.97,-1.65 1.97,-2.27 0,-0.62 -0.22,-3.78 -0.27,-4.4 -0.04,-0.62 0.4,-4.66 0.4,-4.66 0,0 2.28,0.22 5.1,-0.58 2.83,-0.8 4.39,-3.07 6.41,-3.15 2.01,-0.09 3.48,1.64 3.44,3.51 -0.04,1.86 -0.89,3.68 -0.53,4.22 0.36,0.53 1.2,0.89 2.46,0.84 1.25,-0.04 2.33,-0.67 2.46,-1.15 0.13,-0.49 0.27,-6 0.31,-6.89 0.04,-0.89 1.26,-6.09 1.44,-9.47 0.18,-3.37 -0.5,-7.37 -2.15,-9.37 -1.66,-2 -3.76,-2.84 -4.57,-3.07 -0.8,-0.22 -3.36,-0.42 -4.16,-0.8 -3.8,-1.77 -5.5,-6.79 -12.62,-8.66 -4.02,-1.05 -8.56,0.66 -9.67,1.02l0 0z"/>
   <path class="fil4" d="M20.69 32.5c-4.66,-0.26 -5.75,1.96 -5.87,3.65 -0.13,2 1.77,5.02 5.25,5.69 4.22,0.8 8.11,-0.32 8.57,-4.23 0.45,-3.73 -5.11,-4.94 -7.95,-5.11z"/>
   <path class="fil5" d="M30.46 29.21c0,1.06 -0.66,1.96 -1.35,1.92 -0.67,-0.05 -1.22,-0.86 -1.22,-1.92 0,-1.05 0.55,-1.8 1.22,-1.91 0.87,-0.13 1.35,0.86 1.35,1.91z"/>
   <ellipse class="fil5" cx="19.5" cy="27.77" rx="1.17" ry="1.8"/>
   <ellipse class="fil5" transform="matrix(0.115178 -0.0568871 0.056887 0.115178 24.0118 38.0466)" rx="11.76" ry="8.33"/>
   <ellipse class="fil5" transform="matrix(0.0951461 -0.0863096 0.0863095 0.0951462 17.9721 37.0668)" rx="8.11" ry="11.76"/>
   <path class="fil6" d="M26.33 16.1c0,0 -1.32,-1.61 -4.58,-0.97 -2.29,0.46 -3.4,2.52 -4.57,3.91 -0.98,1.16 -2.68,1.45 -3.56,0.54 -0.65,-0.68 -0.55,-1.37 -0.43,-1.88 0.27,-1.12 1.48,-1.74 1.54,-2.17 0.09,-0.62 -2.79,-0.8 -4.17,1.34 -1.37,2.13 -0.9,5.86 1.23,7.19 2.13,1.34 4.27,2.05 7.11,-0.44 2.85,-2.49 5.06,-5.65 5.66,-6.25 1.13,-1.14 1.77,-1.27 1.77,-1.27l0 0z"/>
   <path class="fil6" d="M30.02 16.51c0,0 1.36,-0.83 3.31,-0.51 2.2,0.36 4.33,3.35 5.04,4.15 0.71,0.8 2.8,3.26 5.96,2.28 1.41,-0.44 1.97,-1.42 2.18,-2.54 0.26,-1.37 -0.02,-2.46 -0.18,-2.98 -0.14,-0.44 -0.64,-1.25 -0.04,-1.68 0.42,-0.3 1.14,0.07 1.54,0.73 0.4,0.67 1.3,3.53 0.86,5.48 -0.45,1.96 -3.02,5.91 -6.89,5.87 -3.87,-0.05 -8.98,-1.65 -11.07,-4.14 -2.08,-2.49 -1.96,-5.73 -0.71,-6.66z"/>
   <path class="fil7" d="M17.58 26.33c0,0 -0.84,0.44 -2.08,0.51 -1.28,0.08 -2.82,-0.13 -4.43,-1.75 -0.8,-0.8 -1.43,-2.47 -1.58,-3.47 -0.32,-2.23 0.78,-4.23 0.78,-4.23 0,0 -0.34,6.32 4.87,6.58 3.5,0.18 6.08,-3.86 7.06,-4.75 0.97,-0.88 1.42,-0.62 1.42,-0.62 0,0 -1.11,2.51 -2.49,3.91 -1.4,1.42 -3.13,2.19 -3.33,2.42 -0.2,0.23 -0.22,1.4 -0.22,1.4z"/>
   <path class="fil7" d="M30.28 16.38c0.31,-0.32 -2.49,0.57 -2.17,3.46 0.31,2.89 4.24,6.07 6.93,7.24 3.24,1.42 8.08,2 11.15,0.09 3.07,-1.91 3.73,-5.9 3.2,-8.21 -0.53,-2.31 -1.95,-3.96 -2.71,-3.73 -0.45,0.13 0.38,0.97 0.91,2.37 0.37,0.97 0.42,2.42 0.33,3.22 -0.2,1.74 -0.84,2.97 -1.7,3.88 -1.1,1.16 -2.86,1.95 -5.6,1.76 -2.31,-0.16 -4.46,-1 -6.11,-2.01 -2.01,-1.22 -3.41,-2.72 -3.92,-3.41 -0.93,-1.25 -1.82,-3.11 -0.31,-4.66l0 0z"/>
  </g>
 </g>
</svg>
