<?xml version="1.0" encoding="UTF-8"?>
<!DOCTYPE svg PUBLIC "-//W3C//DTD SVG 1.1//EN" "http://www.w3.org/Graphics/SVG/1.1/DTD/svg11.dtd">
<!-- Creator: CorelDRAW Home & Student 2019 -->
<svg xmlns="http://www.w3.org/2000/svg" xml:space="preserve" width="400px" height="400px" version="1.1" style="shape-rendering:geometricPrecision; text-rendering:geometricPrecision; image-rendering:optimizeQuality; fill-rule:evenodd; clip-rule:evenodd"
viewBox="0 0 363.64 363.64"
 xmlns:xlink="http://www.w3.org/1999/xlink">
 <defs>
  <style type="text/css">
   <![CDATA[
    .fil0 {fill:#FFF383}
    .fil6 {fill:#34302F}
    .fil5 {fill:#B78958}
    .fil2 {fill:#D27856}
    .fil1 {fill:#DF9047}
    .fil3 {fill:#E09147}
    .fil4 {fill:#F6B03E}
   ]]>
  </style>
 </defs>
 <g id="Layer_x0020_1">
  <metadata id="CorelCorpID_0Corel-Layer"/>
  <rect class="fil0" width="363.64" height="363.64"/>
  <g id="_1056752192">
   <path class="fil1" d="M180.59 228.46l-22.78 2.33c0,0 2.56,31.72 2.13,34.08 -0.43,2.34 -6.17,22.15 -6.8,23.42 -0.64,1.27 -9.56,8.87 -7.88,13.63 1.34,3.79 7.24,4.9 13.41,5.11 5.97,0.2 12.35,-1.91 13.41,-4.04 1.07,-2.14 1.57,-8.06 1.57,-8.06 0,0 8.44,-19.83 9.07,-27.7 0.64,-7.9 -2.13,-38.77 -2.13,-38.77l0 0z"/>
   <path class="fil1" d="M237.02 234.85c0,0 4.67,25.98 4.04,29.18 -0.64,3.2 -5.74,20.65 -5.74,20.65 0,0 -6.77,6.46 -4.81,12.16 1.47,4.29 9.32,4.04 14.2,4.15 6.71,0.16 10.71,-2.09 12.39,-5.19 1.38,-2.55 0.59,-7.95 0.59,-7.95 0,0 5.74,-21.51 5.96,-25.97 0.21,-4.47 -6.39,-39.62 -6.39,-39.62l-20.24 12.59z"/>
   <path class="fil2" d="M134.83 108.39c0,0 20.62,5.71 22.12,7.85 1.5,2.13 2.56,19.8 -2.13,24.91 -4.68,5.1 -12.01,5.56 -12.01,5.56l-24.18 19.99 38.55 44.28 36.61 22.15c0,0 -4.69,23.96 -31.94,25.12 -20.01,0.86 -28.11,-9.17 -28.11,-9.17 0,0 -21.08,0.63 -30.88,-9.37 -11.19,-11.44 -10.87,-27.48 -10.87,-27.48 0,0 -13.36,-4.65 -16.61,-18.31 -6.4,-26.84 11.07,-40.02 11.28,-41.09 0.2,-1.06 -4.9,-7.23 -4.9,-16.81 0,-7.99 1.27,-15.77 1.27,-15.77l51.8 -11.86 0 0z"/>
   <path class="fil3" d="M78.06 118.69l-15.18 13.88c0,0 5.67,1.2 12.62,-0.41 1.97,-0.45 5.1,-2.15 5.1,-2.15 0,0 6.24,4.31 10.21,6.4 3.97,2.08 9.58,4.47 9.58,4.47 0,0 -1.12,14.38 -0.96,17.24 0.16,2.86 20.76,14.2 20.76,14.2l15.18 -3.99 11.41 -17.97c0,0 -0.09,-13.34 1.84,-16.86 1.91,-3.51 8.94,-12.61 11.03,-22.19 2.09,-9.57 1.11,-14.86 1.11,-14.86 0,0 9.19,-5.99 10.14,-12.05 0.96,-6.05 -0.79,-8.94 -0.79,-8.94l-34.58 17.5 -57.47 25.73z"/>
   <path class="fil4" d="M117.18 70.45c0,0 -26.03,7.83 -29.39,9.73 -3.35,1.91 -5.58,3.52 -9.73,3.68 -4.15,0.16 -21.87,1.75 -27.64,15.65 -5.76,13.91 -4.69,28.52 4.95,32.43 11.03,4.47 25.23,-5.58 25.23,-5.58 0,0 19.17,10.05 30.65,12.61 11.51,2.56 17.63,2.04 20.13,1.59 4.47,-0.8 15.84,-9.67 19.17,-19.49 3.68,-10.87 3.83,-28.75 3.83,-28.75 0,0 22.76,-9.03 13.89,-20.76 -6.81,-9.03 -34.65,9.58 -34.65,9.58l-16.44 -10.69z"/>
   <path class="fil4" d="M122.46 160.68c11.35,0.16 24.44,-13.72 24.44,-13.72 0,0 -0.16,15.18 3.99,20.28 5.42,6.67 16.77,2.56 16.77,2.56 0,0 -0.32,-10.39 4.94,-18.03 5.27,-7.67 9.42,-9.42 9.42,-9.42 0,0 -1.27,-24.12 0.63,-29.86 1.91,-5.74 29.86,-23.96 29.86,-23.96l26.5 11.67 22.19 -13.25c0,0 18.54,12.45 20.29,19.96 1.74,7.51 1.58,12.14 2.72,20.13 0.52,3.67 0.79,14.38 0.79,14.38 0,0 12.46,7.51 17.09,19.81 4.63,12.29 6.83,29.11 7.51,36.1 0.79,8.14 2.24,20.12 3.83,23.32 1.59,3.2 7.04,9.26 3.68,11.66 -3.36,2.41 -10.05,-4.15 -12.93,-9.57 -2.89,-5.42 -8.47,-23.17 -8.47,-23.17 0,0 0.96,11.51 -1.43,21.24 -1.02,4.17 -3.35,12.77 -3.35,12.77 0,0 6.87,24.12 6.71,29.07 -0.16,4.94 -6.71,28.9 -6.71,28.9 0,0 1.58,8.31 -2.25,12.62 -2.68,2.99 -6.24,3.83 -16.45,4.15 -6.56,0.2 -12.98,-1.27 -12.62,-7.03 0.41,-6.31 8.94,-14.55 9.42,-14.71 0.48,-0.16 5.42,-20.6 5.42,-23.48 0,-2.88 -10.21,-30.99 -10.21,-30.99 0,0 -9.41,6.06 -23.8,7.03 -14.38,0.95 -23.48,0.95 -23.48,0.95 0,0 1.43,21.56 0.95,27.64 -0.47,6.06 -3.99,14.86 -4.94,21.39 -0.96,6.56 -1.18,20.45 -7.9,21.56 -4.79,0.79 -22.35,2.15 -26.18,-2.25 -4.52,-5.17 7.19,-14.93 7.19,-14.93 0,0 3.27,-11.34 4.72,-16.29 1.32,-4.56 1.91,-9.03 2.25,-12.39 0.34,-3.35 -3.84,-28.58 -3.84,-28.58 0,0 -9.1,0.32 -25.86,0 -16.77,-0.32 -39.14,-6.4 -53.34,-30.84 -14.21,-24.43 -10.4,-50.77 -10.4,-50.77 0,0 7.83,5.85 22.85,6.05l0 0z"/>
   <path class="fil5" d="M55.37 120.5l0.21 -8.51c0,0 15.11,-1.49 12.88,-7.78 -1.84,-5.15 -14.7,0.95 -14.7,0.95 0,0 -1.07,-10.12 -4.47,-6.05 -3.4,4.03 0.95,9.16 0.95,9.16l-0.2 9.8c0,0 -2.02,-5.1 -3.95,-2.45 -1.93,2.66 0.75,7.35 5.02,10.44 3.67,2.68 7.66,4.27 13,3.52 5.67,-0.8 10.73,-6.17 7.23,-8.42 -3.49,-2.25 -4.58,2.97 -10.32,2.02 -6.06,-1.02 -5.65,-2.68 -5.65,-2.68l0 0z"/>
   <path class="fil6" d="M131.2 95.16c1.77,2.04 -4.5,10.12 -13.09,7.35 -7.7,-2.47 -10.76,-6.81 -9.81,-9.05 0.96,-2.25 10.87,0.2 13,0.43 2.11,0.2 8.51,-0.32 9.9,1.27z"/>
   <path class="fil6" d="M111.03 97.52c0,0 -1.52,1.36 -3.36,1.68 -1.84,0.31 -5.04,0.47 -4.79,2.56 0.25,2.09 3.27,3.04 7.74,0.89 3.15,-1.52 5.1,-3.75 5.1,-3.75l1.12 1.05c0,0 -2.52,3.22 -3.84,3.9 -2.16,1.11 -5.42,1.31 -4.47,3.99 1.11,3.11 5.74,0.48 7.99,-1.27 2.81,-2.2 3.9,-5.19 3.9,-5.19l1.91 0.24c0,0 -0.89,2.48 -1.75,3.68 -0.89,1.2 -4.95,3.74 -2.09,6.24 2.56,2.2 5.67,-2.4 6.94,-5.04 1.27,-2.63 1.75,-7.19 1.75,-7.19l-16.15 -1.79 0 0z"/>
   <path class="fil2" d="M153.91 70.77c-0.09,-0.25 -9.42,-20.33 -39.78,-18.54 -24.54,1.48 -34.25,13.43 -28.72,25.98 4.77,10.78 15.72,6.62 15.72,6.62 0,0 -1.88,9.9 10.55,12.71 14.55,3.27 25.71,-14.88 29.52,-16.43 7.13,-2.9 12.71,-10.34 12.71,-10.34l0 0z"/>
   <path class="fil1" d="M208.54 63.6c-23.8,0.79 -26.68,51.09 -26.36,52.36 0.18,0.71 2.67,-1.7 5.1,-4.47 1.98,-2.24 3.54,-5.03 6.56,-4.31 6.72,1.59 3.97,15.36 12.14,16.93 7.51,1.43 6.4,-14.2 12.14,-13.89 8.62,0.48 3.83,24.28 16.76,23.65 10.24,-0.5 3.36,-21.72 11.19,-23.65 7.65,-1.86 10.62,15.57 17.08,13.41 8.63,-2.88 0.64,-18.85 6.56,-21.23 5.9,-2.41 7.83,13.88 12.78,11.34 1.4,-0.73 -4.79,-50.16 -28.12,-49.51 -16.92,0.48 -22.03,27.46 -22.03,27.46 0,0 -5.58,-28.7 -23.8,-28.09l0 0z"/>
  </g>
 </g>
</svg>
