<?xml version="1.0" encoding="UTF-8"?>
<!DOCTYPE svg PUBLIC "-//W3C//DTD SVG 1.1//EN" "http://www.w3.org/Graphics/SVG/1.1/DTD/svg11.dtd">
<!-- Creator: CorelDRAW Home & Student 2019 -->
<svg xmlns="http://www.w3.org/2000/svg" xml:space="preserve" width="400px" height="400px" version="1.1" style="shape-rendering:geometricPrecision; text-rendering:geometricPrecision; image-rendering:optimizeQuality; fill-rule:evenodd; clip-rule:evenodd"
viewBox="0 0 400 400"
 xmlns:xlink="http://www.w3.org/1999/xlink">
 <defs>
  <style type="text/css">
   <![CDATA[
    .fil0 {fill:#DCCF73}
    .fil6 {fill:#010000}
    .fil5 {fill:#2F2F2F}
    .fil1 {fill:#4D4D4D}
    .fil3 {fill:#5D6265}
    .fil2 {fill:#B0B1B2}
    .fil7 {fill:#DEDEDE}
    .fil4 {fill:#FFAB93}
   ]]>
  </style>
 </defs>
 <g id="Layer_x0020_1">
  <metadata id="CorelCorpID_0Corel-Layer"/>
  <rect class="fil0" width="400" height="400"/>
  <g id="_1005136192">
   <path class="fil1" d="M132.86 244.65c0,0 -10.95,19.24 -14.38,33.4 -3.4,14.12 -1.53,19.65 2.18,31.18 4.26,13.16 9.43,23.86 19.37,17.55 8.05,-5.12 8.91,-17.42 7.69,-22.3 -1.22,-4.89 -2.32,-11.69 -1.82,-14.62 0.49,-2.94 5.97,-16.2 10.36,-22.54 4.39,-6.33 4.39,-15.6 3.66,-16.33 -0.75,-0.73 -27.06,-6.33 -27.06,-6.33l0 -0.01z"/>
   <path class="fil1" d="M158.34 339.58c0,0 -3.12,17.19 -1.46,17.19 1.64,0 13.16,-0.55 17.19,-3.3 4.02,-2.75 7.63,-12.07 10.96,-22.67 4.02,-12.8 9.63,-29.21 10.95,-33.26 2.44,-7.42 5.12,-14.98 5.12,-14.98 0,0 12.41,-1.11 20.09,-1.45 12.26,-0.55 20.78,-1.12 22.67,0.18 2.39,1.64 13.37,9.04 16.07,12.98 4.03,5.84 -9.86,33.26 -9.86,33.26 0,0 -9.87,8.78 -9.51,13.71 0.37,4.93 9.87,4.39 18.28,4.03 8.41,-0.37 12.91,-2.76 14.07,-4.03 4.39,-4.75 8.96,-17.73 11.9,-28.33 2.8,-10.15 6.56,-16.46 5.47,-23.03 -1.09,-6.56 -34.35,-34.71 -34.35,-34.71l-81.68 19.73 -15.91 64.68 0 0z"/>
   <path class="fil1" d="M112.3 110.6l42.89 -17.29c0,0 -4.15,-10.96 -9.5,-20.46 -5.35,-9.5 -17.29,-27.29 -22.9,-25.83 -5.61,1.45 -11.48,28.56 -12.8,35.83 -2.7,14.82 2.31,27.75 2.31,27.75l0 0z"/>
   <path class="fil2" d="M72.58 148.48c-0.08,0 -8.88,0 -14.88,-0.18 -6.03,-0.18 -11.63,-0.36 -11.63,-0.36 0,0 -2.78,-0.08 -2.78,-2.81 0,-2.75 2.88,-2.62 2.88,-2.62 0,0 5.63,0.18 11.68,0.36 5.92,0.19 14.65,0.19 14.73,0.19 1.5,0 2.72,1.22 2.72,2.72 0,1.51 -1.22,2.7 -2.72,2.7z"/>
   <path class="fil2" d="M46.22 164.97c0,0 -2.57,0.7 -3.14,-2.1 -0.57,-2.83 1.97,-3.22 1.97,-3.22 0,0 7.45,-2.21 12.6,-3.3 5.08,-1.09 15.68,-3.09 15.78,-3.12 1.48,-0.28 2.91,0.71 3.2,2.19 0.28,1.48 -0.71,2.9 -2.18,3.19 -0.11,0.03 -10.62,2.02 -15.66,3.09 -5.12,1.06 -12.57,3.27 -12.57,3.27l0 0z"/>
   <path class="fil2" d="M58.81 179.02c-0.88,0 -1.74,-0.44 -2.28,-1.22 -0.3,-0.45 -0.45,-0.98 -0.45,-1.52 0,-0.91 0.45,-1.76 1.2,-2.27l14.23 -11.14c0.45,-0.3 0.98,-0.46 1.51,-0.46 0.92,0 1.77,0.46 2.28,1.21 0.83,1.25 0.5,2.93 -0.75,3.79l-13.35 10.52c-0.46,0.31 -1.87,1.09 -2.39,1.09l0 0z"/>
   <path class="fil3" d="M118.84 209.81c0,2.18 1.54,18.38 3.3,29.96 1.82,12.08 7.32,21.22 18.28,28.51 13.16,8.78 24.85,10.23 24.85,10.23 0,0 -4.03,24.85 -9.51,41.31 -0.98,2.99 -6.93,15.16 -8.23,17.19 -1.29,2.02 -4.75,7.87 -4.2,12.07 0.59,4.57 4.02,9.87 18.64,6.93 11.84,-2.36 12.98,-14.3 16.46,-23.99 1.3,-3.63 9.37,-26.06 10.96,-31.31 3.5,-11.61 5.48,-19.42 7.32,-21.44 1.82,-2 21.21,-2.94 33.26,-3.67 12.07,-0.72 31.44,-1.09 31.44,-1.09 0,0 8.23,6.75 17.37,10.96 14.23,6.54 27.6,8.41 33.81,16.83 6,8.1 5.01,15.91 3.66,22.48 -2.18,10.59 -6.18,16.44 -5.48,20.28 0.91,5.11 5.84,5.66 16.07,5.84 9.9,0.18 11.82,-1.79 13.71,-6.57 7.51,-18.95 -4.57,-43.49 -5.48,-59.77 -0.44,-7.71 -12.62,-9.86 -15.34,-21.21 -2.75,-11.32 -3.58,-22.85 -6.88,-34.17 -3.58,-12.36 -8.05,-22.8 -8.05,-22.8 0,0 12.72,-7.73 20.59,-16.33 7.87,-8.59 19.08,-19.99 14.49,-42.53 -3.66,-17.91 -15.61,-29.86 -43.94,-38.81 -28.01,-8.86 -33.72,1.42 -34.53,8.15 -1.09,9.14 10.6,12.31 23.03,14.67 12.44,2.36 36.25,9.94 29.24,30.71 -4.39,12.99 -23.76,20.91 -23.76,20.91 0,0 -18.64,-2.81 -43.85,-0.06 -20.36,2.26 -30.02,7.59 -32.2,6.62 -3.3,-1.45 -1.09,-6.2 2.39,-11.68 5.51,-8.7 12.26,-20.1 12.26,-34.35 0,-14.25 -6.75,-21.94 -6.75,-21.94 0,0 -0.19,-27.96 -4.21,-43.85 -4.02,-15.89 -11.53,-34.38 -19.4,-34.74 -7.86,-0.37 -21.75,18.82 -25.39,24.85 -3.63,6.02 -9.68,18.45 -9.68,18.45 0,0 -21.29,-2.57 -39.11,6.03 -15.63,7.53 -25.21,31.08 -29.96,32.9 -4.75,1.81 -15.97,1.4 -20.35,8.72 -1.82,3.01 -2,23.08 -2,23.08 0,0 1.37,4.75 2.83,8.91 1.14,3.24 7.06,11.94 14.17,17.16 9.25,6.78 21.61,16.36 24.33,18.54 2.73,2.18 5.84,8.02 5.84,8.02l0 0z"/>
   <path class="fil4" d="M172.59 97.78c0.18,3.84 8.96,8.95 13.53,12.25 4.57,3.3 11.14,10.52 13.71,10.05 4.54,-0.81 4.2,-20.1 3.29,-28.69 -0.91,-8.6 -5.48,-22.85 -8.41,-23.94 -2.93,-1.09 -10.51,9.84 -12.44,12.8 -3.29,5.11 -9.86,14.07 -9.68,17.53z"/>
   <path class="fil5" d="M80.13 150.72c1.22,-1.46 19.66,-6.34 20.25,-9.64 0.6,-3.29 -3.76,-5.97 -11.45,-7.79 -6.9,-1.63 -13.21,-0.98 -14.77,0.13 -2.08,1.46 -4.39,8.91 -3.77,16.47 0.63,7.81 3.28,14.2 6.7,17.65 2.39,2.42 8.21,6.21 13.32,6.57 5.12,0.36 9.87,-1.82 12.44,-4.39 2.57,-2.57 0.73,-6.7 -3.17,-4.39 -3.89,2.31 -6.49,3.02 -9.86,2.08 -3.54,-0.99 -8.6,-4.44 -9.66,-10.1 -0.68,-3.37 -0.03,-6.59 -0.03,-6.59l0 0z"/>
   <path class="fil2" d="M156.7 174.16c-0.42,0 -0.83,-0.1 -1.22,-0.28 -0.08,-0.03 -7.3,-3.69 -13.55,-5.53 -6.44,-1.9 -12.47,-3.35 -12.54,-3.38 -1.46,-0.36 -2.37,-1.82 -2.03,-3.3 0.36,-1.45 1.82,-2.36 3.3,-2.02 0.05,0.02 6.23,1.5 12.8,3.45 6.75,2 14.15,5.76 14.46,5.92 0.91,0.46 1.49,1.4 1.49,2.43 0,1.49 -1.21,2.71 -2.71,2.71l0 0z"/>
   <path class="fil2" d="M153.9 192.93c-0.58,0 -1.15,-0.18 -1.61,-0.54 -0.08,-0.05 -8.44,-6.23 -13.82,-9.95 -5.22,-3.58 -12.43,-6.93 -12.51,-6.95 -0.93,-0.46 -1.52,-1.41 -1.52,-2.45 0,-1.5 1.22,-2.72 2.73,-2.72 0.36,0 0.72,0.07 1.05,0.21 0.31,0.15 7.71,3.55 13.32,7.42 5.45,3.77 13.89,9.97 13.96,10.05 1.23,0.88 1.46,2.6 0.58,3.82 -0.52,0.72 -1.35,1.11 -2.19,1.11l0.01 0z"/>
   <path class="fil2" d="M140.99 202.44c-0.65,0 -1.3,-0.24 -1.82,-0.7l-18.02 -16.08c-1.11,-1.01 -1.22,-2.72 -0.2,-3.84 1.01,-1.12 2.72,-1.22 3.84,-0.21l18.02 16.08c0.57,0.51 0.9,1.25 0.9,2.02 0,1.5 -1.22,2.72 -2.72,2.73l0 0z"/>
   <ellipse class="fil6" transform="matrix(0.0664681 -0.115126 0.115126 0.0664681 132.833 135.378)" rx="92.97" ry="73.24"/>
   <path class="fil7" d="M132.01 133.53c-1.43,2.67 -3.92,4.39 -5.97,3.11 -2.06,-1.27 -0.89,-5.34 0.26,-6.88 1.14,-1.53 3.19,-3.45 5.21,-2.18 2.08,1.3 1.46,4.18 0.5,5.95l0 0z"/>
  </g>
 </g>
</svg>
