<?xml version="1.0" encoding="UTF-8"?>
<!DOCTYPE svg PUBLIC "-//W3C//DTD SVG 1.1//EN" "http://www.w3.org/Graphics/SVG/1.1/DTD/svg11.dtd">
<!-- Creator: CorelDRAW Home & Student 2019 -->
<svg xmlns="http://www.w3.org/2000/svg" xml:space="preserve" width="400px" height="400px" version="1.1" style="shape-rendering:geometricPrecision; text-rendering:geometricPrecision; image-rendering:optimizeQuality; fill-rule:evenodd; clip-rule:evenodd"
viewBox="0 0 400 400"
 xmlns:xlink="http://www.w3.org/1999/xlink">
 <defs>
  <style type="text/css">
   <![CDATA[
    .fil0 {fill:#97A59A}
    .fil7 {fill:#29292A}
    .fil1 {fill:#A42E1A}
    .fil8 {fill:#D27856}
    .fil6 {fill:#FF6157}
    .fil5 {fill:#FF732D}
    .fil2 {fill:#FFB70C}
    .fil4 {fill:#FFB903}
    .fil3 {fill:url(#id0)}
   ]]>
  </style>
  <radialGradient id="id0" gradientUnits="userSpaceOnUse" gradientTransform="matrix(1.95553 -0 -0 1.85599 -77 -248)" cx="81.06" cy="289.61" r="938.98" fx="81.06" fy="289.61">
   <stop offset="0" style="stop-opacity:1; stop-color:#8D5E50"/>
   <stop offset="0.470588" style="stop-opacity:1; stop-color:#8D5E50"/>
   <stop offset="0.670588" style="stop-opacity:1; stop-color:#5A7439"/>
   <stop offset="0.819608" style="stop-opacity:1; stop-color:#34642E"/>
   <stop offset="1" style="stop-opacity:1; stop-color:#315427"/>
  </radialGradient>
 </defs>
 <g id="Layer_x0020_1">
  <metadata id="CorelCorpID_0Corel-Layer"/>
  <rect class="fil0" width="400" height="400"/>
  <g id="_1065580352">
   <path class="fil1" d="M163.89 111.42c0,0 17.88,-9.55 25.83,-23.77 7.95,-14.23 10.63,-29.36 -1.57,-35.64 -14.59,-7.51 -30.43,10.86 -30.43,10.86 0,0 1.44,-11.48 -9.19,-12.68 -23.69,-2.71 -27.3,24.98 -27.3,24.98 0,0 -6.02,-5.05 -13.53,-2.42 -8.93,3.14 -10.31,14.95 -9.9,20.76 0.59,8.34 5.68,19.06 5.68,19.06l60.41 -1.15 0 0z"/>
   <path class="fil2" d="M199.5 280.45l-61.75 -13.41c0,0 2.37,22.1 0.72,24.63 -3.19,4.96 -20.81,4.88 -30.97,7.25 -9.55,2.21 -22.46,15.98 -13.23,27.35 8.7,10.68 17.93,-8.88 22.82,-8.52 4.89,0.36 5.92,10.22 11.4,9.96 7.98,-0.36 3.27,-11.4 7.07,-15.39 3.81,-3.98 18.12,-3.26 21.02,-7.97 2.91,-4.71 1.81,-20.45 1.81,-20.45l18.47 6.51c0,0 10.5,12.5 9.77,22.82 -0.72,10.31 -6.14,16.9 -9.77,17.75 -12.69,2.9 -29.33,6.51 -28.25,14.12 1.11,7.75 15.54,3.99 36.76,3.99 20.64,0 31.34,2.55 32.96,-6.15 1.62,-8.7 -13.94,-8.88 -14.12,-11.96 -0.18,-3.09 4.88,-17.03 3.98,-23.36 -0.9,-6.36 -8.69,-27.17 -8.69,-27.17l0 0z"/>
   <path class="fil3" d="M170.04 166.22l-65.81 6.27c0,0 -15.39,12.33 -17.98,35.97 -1.52,13.84 3.91,34.97 21.73,52.15 14.93,14.36 35.02,40.32 74.85,36.23 39.82,-4.09 66.5,-37.75 75.33,-55.91 8.44,-17.39 11.83,-37.31 13.99,-37.54 2.17,-0.23 22.36,29.05 29.23,27.53 4.35,-0.98 4.22,-14.51 3.14,-22.46 -1.7,-12.32 -6.28,-20.04 -6.28,-20.04 0,0 20.04,14.74 22.95,10.5 2.19,-3.17 0.49,-18.71 -2.55,-30.44 -3.32,-12.86 -8.56,-20.89 -8.56,-20.89 0,0 21.25,21.12 23.05,15.1 0.85,-2.83 1.57,-43.81 -34.17,-54.69 -35.73,-10.89 -61.46,22.1 -67.61,37.66 -6.61,16.75 -11.96,43.82 -11.96,43.82l-49.35 -23.26 0 0z"/>
   <path class="fil4" d="M135.75 94.51c-17.6,0.83 -31.88,17.63 -31.88,17.63 0,0 -15.52,0.98 -20.53,2.65 -7.36,2.47 -12.56,8.23 -13.05,11.11 -1.2,7.13 26.55,10.14 26.55,10.14l2.17 41.06c0,0 17.13,14.97 19.06,15.21 1.93,0.23 14.97,-15.93 16.67,-16.19 1.7,-0.25 20.04,18.84 20.04,18.84l48.11 -15.57c0,0 -6.68,-12.32 -11.57,-20.81 -4.84,-8.44 -7.62,-35.51 -22.28,-50.89 -9.63,-10.17 -22.9,-13.66 -33.29,-13.18l0 0z"/>
   <path class="fil5" d="M109.91 128.55c0,0 -11.7,0.08 -18.34,-0.23 -5.07,-0.23 -21.25,-2.42 -21.25,-2.42 0,0 -0.59,1.7 0.98,2.42 1.57,0.72 15.92,4.35 20.89,4.71 4.94,0.36 19.81,0.98 19.81,0.98l1.21 -2.42 -3.3 -3.04 0 0z"/>
   <path class="fil6" d="M110.87 135.91c0,0 -12.33,0.49 -14.26,0.98 -1.93,0.49 -18.7,9.77 -24.98,19.68 -6.28,9.9 -7.48,25.47 1.21,31.39 7.46,5.07 22.82,2.42 30.8,-12.43 6.71,-12.5 11.7,-24.52 11.7,-24.52 0,0 27.76,-0.49 28.87,-23.77 1.08,-23.31 -20.53,-25.6 -28.38,-23.77 -6.22,1.44 -12.55,8.56 -12.55,8.56 0,0 5.68,8.21 6.27,12.07 0.6,3.86 1.32,11.81 1.32,11.81z"/>
   <path class="fil7" d="M130.11 127.45c-1.31,5.6 -5.84,9.54 -9.93,8.59 -4.09,-0.95 -6.38,-7.18 -5.07,-12.79 1.31,-5.61 5.4,-8.62 9.55,-7.84 4.96,0.92 6.76,6.43 5.45,12.04l0 0z"/>
   <path class="fil8" d="M181.39 165.26c0,0 -33.86,15.21 -41.3,36.95 -7.43,21.74 -1.03,45.67 17.58,57.22 20.09,12.5 46.59,9.8 63.57,2.73 14.3,-5.97 18.83,-13.95 17.93,-19.56 -1.08,-6.64 -4.35,-8.87 -4.35,-8.87 0,0 10.68,-7.08 10.5,-15.03 -0.18,-7.97 -9.78,-10.13 -9.78,-10.13 0,0 8.52,-5.25 7.8,-13.05 -0.72,-7.79 -12.76,-13.12 -24.8,-14.48 -14.51,-1.65 -37.15,-15.77 -37.15,-15.77l0 -0.01z"/>
  </g>
 </g>
</svg>
