<?xml version="1.0" encoding="UTF-8"?>
<!DOCTYPE svg PUBLIC "-//W3C//DTD SVG 1.1//EN" "http://www.w3.org/Graphics/SVG/1.1/DTD/svg11.dtd">
<!-- Creator: CorelDRAW Home & Student 2019 -->
<svg xmlns="http://www.w3.org/2000/svg" xml:space="preserve" width="400px" height="400px" version="1.1" style="shape-rendering:geometricPrecision; text-rendering:geometricPrecision; image-rendering:optimizeQuality; fill-rule:evenodd; clip-rule:evenodd"
viewBox="0 0 400 400"
 xmlns:xlink="http://www.w3.org/1999/xlink">
 <defs>
  <style type="text/css">
   <![CDATA[
    .fil0 {fill:#769897}
    .fil7 {fill:#1B1B1B}
    .fil3 {fill:#4D4D4D}
    .fil2 {fill:#ADADB8}
    .fil5 {fill:#DFDFDF}
    .fil8 {fill:#FCA4A7}
    .fil4 {fill:#FEA8A7}
    .fil1 {fill:#FFBD16}
    .fil6 {fill:#FFD1B3}
    .fil9 {fill:#FFD3AF}
   ]]>
  </style>
 </defs>
 <g id="Layer_x0020_1">
  <metadata id="CorelCorpID_0Corel-Layer"/>
  <rect class="fil0" width="400" height="400"/>
  <g id="_1052488448">
   <path class="fil1" d="M117.78 90.31c-0.7,-0.35 4.24,-6.52 5.99,-9.53 1.76,-3.01 3.18,-7.77 6.89,-7.42 3.72,0.35 4.07,6.9 3.89,9.7 -0.35,5.64 -3.53,12.01 -3.53,12.01l-13.24 -4.76z"/>
   <path class="fil2" d="M266.2 212.95l-105.07 19.36c0,0 1.12,6.77 3.05,14.36 1.93,7.6 9.18,29.28 8.83,38.29 -0.35,9 -7.25,27.17 -4.77,31.06 2.49,3.88 11.49,3.71 16.78,2.48 5.29,-1.23 10.83,-5.06 11.53,-7.35 0.7,-2.28 -0.95,-22.63 -0.78,-27.4 0.18,-4.76 1.23,-13.94 3.01,-21.01 1.76,-7.07 2.83,-19.93 2.83,-19.93l25.6 -13.06c0,0 17.83,13.59 22.76,20.83 4.94,7.25 8.65,22.77 8.48,29.11 -0.18,6.34 -4.36,24.54 -1.66,27.83 3.36,4.06 11.44,4.59 16.7,4.11 6.47,-0.58 12.11,-4.11 12.11,-4.11l0 -76.04 -19.4 -18.53 0 0z"/>
   <path class="fil3" d="M333.61 232.18c-4.24,-0.17 -8.1,15.04 -6.9,21.71 1.76,9.71 8.83,13.06 11.11,16.25 2.31,3.18 3.64,7.12 6.34,8.3 2.84,1.23 6.12,-12.34 5.82,-22.77 -0.32,-12.91 -10.65,-23.24 -16.37,-23.49l0 0z"/>
   <path class="fil4" d="M251.38 232.88l-13.59 12.72c0,0 6.24,7.01 11.28,10.57 5.99,4.24 11.66,4.94 11.66,4.94 0,0 -1.23,10.06 4.76,10.93 5.59,0.83 5.12,-10.22 6,-10.4 0.87,-0.18 2.65,8.12 7.42,7.95 4.76,-0.18 13.58,-18.71 13.58,-18.71l-10.95 -27.7 -30.16 9.7 0 0z"/>
   <path class="fil5" d="M150.85 100.54c0.35,-0.88 -3.54,-4.24 -7.25,-6.7 -3.71,-2.48 -10.93,-3.36 -10.93,-3.36l-32.29 15.7 -19.58 18.95c0,0 -8.22,5.77 -11.76,8.22 -3.53,2.49 -9.35,6.42 -12.36,8.35 -3.01,1.93 -5.46,3.01 -5.99,5.29 -0.53,2.28 10.88,20.76 10.88,20.76l5.99 4.41 14.29 -1.22c0,0 19.06,8.82 27.88,12 8.83,3.19 28.93,9.71 28.93,9.71 0,0 3.71,10.05 6.17,15.69 2.48,5.64 7.47,13.46 7.47,13.46l51.82 25c0,0 4.94,19.58 5.82,24.69 0.88,5.12 1.93,19.41 1.58,26.3 -0.35,6.9 -1.81,18.23 -1.58,21.19 0.22,3.28 3.21,7.39 7.59,8.12 7.25,1.18 15.9,-1.41 19.58,-6.52 3.69,-5.11 -0.87,-19.23 -1.4,-25.07 -0.53,-5.82 -3.03,-19.13 -1.23,-23.47 3.01,-7.24 5.99,-16.42 6.52,-19.58 0.53,-3.18 1.75,-8.29 1.75,-8.29 0,0 9.53,0.17 17.3,-0.88 7.77,-1.05 15.52,-2.66 15.52,-2.66 0,0 2.48,10.4 2.84,16.77 0.35,6.35 1.57,18.88 1.4,28.76 -0.18,9.88 -3.54,21.89 -2.48,24.34 1.05,2.48 3.18,6.82 13.06,5.47 10.45,-1.43 12.94,-6.9 13.99,-9.35 1.05,-2.46 2.4,-24.35 3.83,-30.01 1.41,-5.64 6,-27.88 8.48,-35.48 2.48,-7.59 11.65,-36 11.65,-36 0,0 0,11.83 0.71,16.6 0.7,4.76 2.1,14.99 4.94,14.64 2.83,-0.35 1.93,-8.83 2.1,-14.47 0.18,-5.64 -0.17,-13.59 1.93,-20.28 2.11,-6.69 4.09,-17.3 4.24,-18.53 1.3,-10 -0.18,-21.71 -0.35,-23.64 -0.18,-1.93 -14.29,-11.1 -14.29,-11.1 0,0 0.35,-7.35 -0.53,-8.43 -0.88,-1.05 -13.76,-10.83 -17.77,-11.66 -6.7,-1.37 -13.47,1.01 -13.47,1.01l-37.38 27.73 -68.11 -27.88c0,0 -6.7,-0.18 -8.83,-0.18 -2.1,0 -12.18,-4.23 -12.18,-4.23l-11.66 -10.76 -6.84 -13.41 0 0z"/>
   <path class="fil3" d="M308.71 180.14c-1.45,-13.17 4.07,-25.43 7.43,-30.71 3.35,-5.3 7.12,-10.18 8.04,-11.59 0.88,-1.3 18.13,13.99 17.65,21.19 -0.07,1.25 -2.35,16.24 -4.71,23.16 -1.91,5.64 -6.64,19.58 -8.22,20.11 -1.58,0.53 -18.41,-6.29 -20.19,-22.16z"/>
   <path class="fil3" d="M308.19 197.58c-4.71,-0.12 -8.3,4.59 -12.54,9.36 -4.23,4.76 -7.59,8.47 -6.89,13.23 0.7,4.77 5.99,12.54 15.69,11.49 9.7,-1.06 12.36,-10.94 12.54,-16.95 0.2,-5.99 -1.73,-16.95 -8.8,-17.13l0 0z"/>
   <path class="fil3" d="M245.26 128.29c-24.17,0.35 -52.65,0.23 -55.65,0.95 -1.76,0.4 4.41,21.59 14.81,32.54 10.41,10.96 42.8,49.99 66.71,39.72 16.43,-7.07 13.24,-30.19 15.9,-42.17 2.66,-12.01 14.72,-30.76 14.72,-30.76 0,0 -36.91,-0.55 -56.49,-0.28l0 0z"/>
   <path class="fil3" d="M191.36 91.36c2.11,2.89 -9.18,19.23 -12.89,23.47 -3.71,4.23 -11.1,9.17 -11.1,9.17 0,0 6.24,2.36 7.29,3.24 1.06,0.87 9.58,16.52 9.65,20.93 0.13,7.65 -16.24,27.18 -23.81,27 -7.6,-0.17 -25.95,-12.36 -28.41,-15.69 -2.48,-3.36 -5.64,-32.64 -1.93,-42.17 3.71,-9.53 10.93,-16.95 13.07,-17.3 2.13,-0.35 4.76,0.35 4.76,0.35 0,0 8.47,-6.17 21.18,-8.47 12.71,-2.31 20.79,-2.46 22.19,-0.53l0 0z"/>
   <path class="fil6" d="M152.9 119.94c-1.23,-1.4 1.78,-11.51 10.06,-17.47 8.82,-6.34 18.17,-6.17 19.75,-4.94 1.76,1.35 -3.63,11.33 -10.4,16.42 -8.48,6.34 -18.18,7.42 -19.41,5.99z"/>
   <path class="fil3" d="M81.25 139.9c0,0 10.58,-21.19 18.88,-27.18 8.3,-5.99 16.87,-8.22 24.17,-10.75 11.1,-3.89 15.34,-12.19 15.34,-12.19 0,0 -14.82,-3.36 -27.18,0.35 -9.1,2.74 -18.35,8.65 -22.23,13.42 -3.89,4.76 -6.42,13.33 -9.18,17.82 -3.36,5.47 -11.41,11.48 -11.41,11.48 0,0 2.76,0.58 6,2.71 1.37,0.88 5.61,4.34 5.61,4.34l0 0z"/>
   <path class="fil1" d="M134.2 93.84c0.4,1.43 1.53,4.57 4.06,6.35 2.98,2.13 7.62,2.73 10.58,1.58 5.47,-2.11 7.35,-14.29 7.77,-18 0.7,-6.35 -0.35,-11.66 -3.71,-11.11 -2.28,0.35 -9,8.75 -10.93,10.23 -3.01,2.3 -9.2,5.81 -7.77,10.95l0 0z"/>
   <path class="fil7" d="M106.55 122.77c1.3,-0.57 3.18,-4.71 6.94,-4.36 3.76,0.35 6.72,4.77 5.54,9.76 -1.18,4.93 -4.26,6.44 -7.64,5.76 -2.94,-0.58 -4.37,-3.88 -4.94,-4.36 -0.58,-0.48 -6.47,-1.05 -6.35,-3.54 0.1,-2.43 6.45,-3.25 6.45,-3.25l0 -0.01z"/>
   <path class="fil3" d="M58.44 167c-1.06,1.3 1.07,5.46 5.64,7.07 5.59,1.93 9.35,1.83 13.46,0.78 3.31,-0.86 6.42,-2.89 6.42,-2.89 0,0 6.62,-2.53 3.71,-5.94 -4.01,-4.71 -9,2.76 -9,2.76 0,0 -3.36,2.05 -9.48,1.23 -4.76,-0.65 -7.94,-4.89 -7.94,-4.89l-2.81 1.88 0 0z"/>
   <path class="fil8" d="M72.65 153.49c0.48,-2.43 1.23,-4.17 -5.29,-6.12 -6.69,-2.01 -13.06,-3.06 -15.77,-1.76 -1.38,0.66 -3.06,7.78 0.7,14.95 2.14,4.06 6.25,11.05 8.23,10.22 1.98,-0.82 5.59,-6.89 6.69,-8.34 1.58,-2.01 4.64,-4.84 5.44,-8.95z"/>
   <path class="fil9" d="M68.54 152.31c-0.1,3.41 -5.29,6.94 -11.41,5.16 -6.11,-1.78 -7.17,-6.24 -6.82,-8.82 0.35,-2.59 5.07,-0.13 8.13,0.47 3.06,0.61 10.23,-0.47 10.1,3.19z"/>
   <path class="fil3" d="M216.08 201.95c-5.52,1.25 -10.83,10.7 -10.23,18.57 0.53,6.95 6.29,15.5 15.52,16.48 8.82,0.95 15.29,-7.17 15.07,-14.47 -0.18,-5.41 -6.17,-8.32 -9.53,-12.36 -5.42,-6.47 -7.2,-9.05 -10.83,-8.22l0 0z"/>
   <path class="fil3" d="M154.43 200.54c-2.83,1.18 -3.76,6 -4.24,8.95 -0.47,2.96 0,8.6 1.41,11.54 1.4,2.93 9.3,15.64 11.53,17.42 2.23,1.75 12.36,6.12 23.77,7.77 11.41,1.66 17.42,1.05 17.42,1.05 0,0 -3.18,-6.46 -5.64,-12.46 -2.48,-5.99 -5.99,-16.24 -10.7,-21.76 -4.72,-5.51 -28.43,-14.64 -33.55,-12.51l0 0z"/>
  </g>
 </g>
</svg>
