<?xml version="1.0" encoding="UTF-8"?>
<!DOCTYPE svg PUBLIC "-//W3C//DTD SVG 1.1//EN" "http://www.w3.org/Graphics/SVG/1.1/DTD/svg11.dtd">
<!-- Creator: CorelDRAW Home & Student 2019 -->
<svg xmlns="http://www.w3.org/2000/svg" xml:space="preserve" width="400px" height="400px" version="1.1" style="shape-rendering:geometricPrecision; text-rendering:geometricPrecision; image-rendering:optimizeQuality; fill-rule:evenodd; clip-rule:evenodd"
viewBox="0 0 75.47 75.47"
 xmlns:xlink="http://www.w3.org/1999/xlink">
 <defs>
  <style type="text/css">
   <![CDATA[
    .fil0 {fill:#A2D9F7}
    .fil6 {fill:#2D2B33}
    .fil3 {fill:#5E6367}
    .fil7 {fill:#73DF86}
    .fil9 {fill:#84574E}
    .fil4 {fill:#B0B0B1}
    .fil10 {fill:#B79277}
    .fil2 {fill:#FF5D10}
    .fil5 {fill:#FFBF18}
    .fil8 {fill:white}
    .fil1 {fill:url(#id0)}
   ]]>
  </style>
  <linearGradient id="id0" gradientUnits="userSpaceOnUse" x1="30.93" y1="12.62" x2="32.75" y2="28.47">
   <stop offset="0" style="stop-opacity:1; stop-color:#01AB46"/>
   <stop offset="0.168627" style="stop-opacity:1; stop-color:#01AB46"/>
   <stop offset="0.34902" style="stop-opacity:1; stop-color:#089E42"/>
   <stop offset="0.670588" style="stop-opacity:1; stop-color:#1A7A37"/>
   <stop offset="1" style="stop-opacity:1; stop-color:#2F502A"/>
  </linearGradient>
 </defs>
 <g id="Layer_x0020_1">
  <metadata id="CorelCorpID_0Corel-Layer"/>
  <rect class="fil0" width="75.47" height="75.47"/>
  <g id="_1049106232">
   <path class="fil1" d="M25.81 30.17c0,0 2.72,-3.91 2.52,-5.41 -0.19,-1.51 -0.72,-1.84 -2.23,-2.37 -1.51,-0.52 -2.39,-1.34 -2.39,-1.34 0,0 -1.1,-5.14 -0.99,-5.78 0.13,-0.75 2.85,-5.84 9.32,-5.84 6.23,0 8.79,5.23 8.46,9.25 -0.29,3.64 -1.64,4.67 -2.59,7.68 -0.95,3.02 -1.41,4.82 -1.41,4.82l-5.61 1.15 -4.7 -1.02 -0.38 -1.14 0 0z"/>
   <path class="fil2" d="M33.92 52.47c0,0 0.35,3.56 -0.01,4 -0.36,0.43 -5.8,1.69 -6.41,2.15 -0.67,0.5 -0.38,1.62 1.03,2.91 1.42,1.29 2.61,1.51 3.42,1.18 0.96,-0.39 2.63,-1.67 3.37,-2.23 0.6,-0.46 1.5,-1.43 1.62,-2.21 0.12,-0.78 -0.26,-5.35 -0.26,-5.35l-2.76 -0.45 0 0z"/>
   <path class="fil2" d="M41 53.72c0,0 0.52,4.16 0.27,4.66 -0.66,1.32 -4.42,4.27 -4.66,5.25 -0.2,0.79 1.77,2.36 3.73,2.41 2.63,0.06 4.28,-0.98 4.46,-1.56 0.26,-0.81 -0.72,-5.58 -0.85,-5.84 -0.13,-0.26 0.07,-7.01 0.07,-7.01l-3.02 2.09 0 0z"/>
   <path class="fil3" d="M55.08 32.89c0,0 2.24,-0.44 2.25,-1.96 0.01,-1.52 -0.81,-0.85 -0.82,-1.96 -0.01,-1.1 1.98,-1.36 3.28,-0.44 1.03,0.73 3.38,3.12 3.25,8.06 -0.17,6.72 -3.69,11.63 -9.22,14.67 -4.51,2.47 -11.17,2.18 -11.17,2.18l12.43 -20.55 0 0z"/>
   <path class="fil4" d="M49.03 33.45c1.1,-0.13 5.9,-1.65 7.61,-1.21 2.07,0.52 4.13,1.98 3.71,6.59 -0.54,5.99 -4.8,9.64 -6.63,10.64 -3.28,1.79 -6.43,1.83 -6.43,1.83 0,0 0.65,-17.72 1.74,-17.85z"/>
   <path class="fil5" d="M12.42 19.18c0,0.56 3.48,2.2 6.76,2.59 3.28,0.39 5.31,-0.13 5.31,-0.13 0,0 -0.56,-1.41 -0.56,-2.46 0,-1.05 0.54,-3.68 -0.29,-4.3 -0.76,-0.56 -1.38,0.59 -1.84,0.92 -0.46,0.33 -1.77,1.24 -3.8,1.31 -2.04,0.07 -3.81,-0.26 -4.53,0.13 -0.72,0.4 -1.05,1.35 -1.05,1.94z"/>
   <path class="fil6" d="M32.5 17.18c-0.2,0.81 -0.75,1.45 -1.84,1.28 -1.01,-0.17 -1.51,-1.22 -1.21,-2.24 0.23,-0.8 0.84,-1.35 1.85,-1.17 1.17,0.19 1.39,1.34 1.2,2.13z"/>
   <path class="fil7" d="M32.84 19.41c1.15,-0.36 2,-0.37 1.88,-1.15 -0.14,-0.9 -1.64,-0.64 -2.59,-0.14 -1.01,0.54 -2.32,1.45 -1.74,2.19 0.62,0.79 1.78,-0.69 2.45,-0.9z"/>
   <path class="fil8" d="M24.56 31.54c0,0 1,4.4 6.03,3.66 3.6,-0.53 6.26,-2.32 6.26,-2.32l0.04 -2.93c0,0 -2.39,1.4 -5.25,1.36 -2.97,-0.05 -5.55,-1.58 -5.55,-1.58l-1.53 1.81 0 0z"/>
   <path class="fil9" d="M21.24 39.7c-0.35,9.53 6.83,14.06 18.24,14.26 12.64,0.22 17.52,-7.2 18.28,-11.85 0.79,-4.87 -2.36,-5.91 -2.36,-5.91 0,0 3.15,-1.31 1.73,-4.42 -0.65,-0.13 -3.89,0.73 -10.03,0.09 -6.11,-0.63 -10.29,0.44 -10.29,0.44 0,0 -1.53,1.67 -5.91,1.45 -5.24,-0.26 -6.25,-2.32 -6.25,-2.32 0,0 -3.2,2.34 -3.41,8.26l0 0z"/>
   <path class="fil10" d="M33.35 41.58c1.06,3.68 4.86,5.91 10.5,5.65 5.12,-0.24 8.83,-3.81 9.44,-6.96 0.67,-3.42 -0.72,-4.72 -0.72,-4.72 0,0 2.96,-1.08 2.96,-3.15 -1.67,-1.01 -6.96,-1.71 -12.82,-1.93 -3.8,-0.14 -5.95,1.27 -5.95,1.27 0,0 -5.38,3.02 -3.41,9.84z"/>
  </g>
 </g>
</svg>
