<?xml version="1.0" encoding="UTF-8"?>
<!DOCTYPE svg PUBLIC "-//W3C//DTD SVG 1.1//EN" "http://www.w3.org/Graphics/SVG/1.1/DTD/svg11.dtd">
<!-- Creator: CorelDRAW Home & Student 2019 -->
<svg xmlns="http://www.w3.org/2000/svg" xml:space="preserve" width="400px" height="400px" version="1.1" style="shape-rendering:geometricPrecision; text-rendering:geometricPrecision; image-rendering:optimizeQuality; fill-rule:evenodd; clip-rule:evenodd"
viewBox="0 0 125 125"
 xmlns:xlink="http://www.w3.org/1999/xlink">
 <defs>
  <style type="text/css">
   <![CDATA[
    .fil0 {fill:#B9C599}
    .fil6 {fill:#000504}
    .fil1 {fill:#845A54}
    .fil4 {fill:#B5885D}
    .fil2 {fill:#B5885E}
    .fil7 {fill:#FF6B19}
    .fil3 {fill:#FFCD88}
    .fil5 {fill:#FFCF8C}
   ]]>
  </style>
 </defs>
 <g id="Layer_x0020_1">
  <metadata id="CorelCorpID_0Corel-Layer"/>
  <rect class="fil0" width="125" height="125"/>
  <g id="_1047758232">
   <path class="fil1" d="M68.15 78.76l-7.42 -13.41 -18.29 7c0,0 -0.89,1.14 -0.7,3.15 0.07,0.89 0.48,3.41 0.48,3.41l-3.41 0.52c0,0 -4.89,4.07 -3.33,10.44 1.18,4.84 2.44,7.41 2.44,7.41l-0.66 4.75c0,0 10.89,4.73 21.49,4.44 13.56,-0.37 18.66,-7.55 18.66,-7.55l-3.7 -16.75 -5.56 -3.41z"/>
   <path class="fil2" d="M36.74 80.32c-1.57,1.48 -1.83,3.81 -1.71,4.63 0.3,1.93 3.26,7.22 6.52,7 3.26,-0.22 1.71,-6.74 0.67,-9.1 -1.04,-2.37 -2.96,-4.91 -5.48,-2.53l0 0z"/>
   <path class="fil2" d="M27.92 105.87c-0.11,1.62 1.71,1.55 5.12,1.55 3.41,0 11.62,-0.59 11.62,-0.59l-0.66 -4.52c0,0 -2.06,0.14 -4.88,-1.41 -1.15,-0.63 -1.52,-1.44 -1.52,-1.44 0,0 -9.46,3.16 -9.68,6.41l0 0z"/>
   <path class="fil3" d="M52.49 75.5c0,0 -3.63,-0.15 -6.34,3 -1.72,2 -5.26,11.6 -2.67,12.93 2.59,1.34 4.37,-3.37 5.34,-5.55 0.89,-2 2.51,-4.3 3.92,-5.04 1.4,-0.74 2.59,-1.55 2.59,-1.55l-2.84 -3.79 0 0z"/>
   <path class="fil3" d="M46.45 101.43c0,0 -1.26,0 -2.52,0.44 -1.26,0.44 -8.3,3.85 -8.22,5.7 0.07,1.86 4.37,1.86 9.7,1.78 5.33,-0.07 6.74,-1.11 7.18,-1.55 0.44,-0.45 2.15,-2.74 1.55,-3.04 -0.58,-0.3 -7.69,-3.33 -7.69,-3.33l0 0z"/>
   <path class="fil4" d="M66.22 67.42c0,0 4.15,-3.63 5.78,-7.11 1.62,-3.48 1.55,-6.81 1.55,-6.81 0,0 7.87,-2.08 5.89,-11.81 -1.67,-8.24 -8.33,-6.49 -8.33,-6.49 0,0 -4.53,-9.41 -16.67,-11.99 -12.15,-2.59 -22.79,3.4 -27.27,9.47 -5.18,7.05 -4.29,16.08 -4.29,16.08 0,0 -4,-0.37 -5.85,3.19 -1.92,3.69 -1.26,9.7 2.3,12.45 3.55,2.74 9.11,2 9.11,2 0,0 3.85,4.15 8.29,5.99 4.56,1.91 8.89,2.15 14.15,1.63 5.27,-0.52 9.48,-3.26 9.48,-3.26 0,0 -0.22,1.48 0.75,3.41 0.6,1.19 2.66,3.48 2.66,3.48 0,0 -3.37,-1.77 -6.07,-2.26 -2.94,-0.52 -4.82,-0.33 -5.93,0.34 -0.85,0.5 0.24,4.52 1.48,4.74 1.27,0.22 3.33,-0.37 6.96,1.03 3.63,1.41 8.3,4.75 9.48,5.49 1.19,0.74 3.6,2 3.78,3.63 0.15,1.26 -1.88,2.89 -5.44,-0.74 -3.41,-3.48 -6.7,-6.81 -10.41,-7.26 -3.7,-0.45 -6,0.52 -7.71,4.22 -2.18,4.76 -4,10.52 -4.37,12 -0.37,1.48 -1.4,2.29 -0.59,3.7 0.57,0.98 6.84,4.63 8.29,4.52 1.86,-0.15 3.33,-3.92 3.78,-4.59 0.45,-0.67 1.41,-2.08 1.41,-2.08 0,0 3.26,7.71 10.15,7.04 6.89,-0.66 7.85,-4.96 7.85,-4.96 0,0 5.36,0.27 11.04,-1.35 7.61,-2.17 12.81,-9.13 14.44,-20.28 1.19,-8.07 -0.3,-19.85 -4.07,-29.71 -1.39,-3.61 -3.02,-7.9 -4.07,-10.89 -2.69,-7.63 -3.63,-13.14 0.74,-14.75 2.23,-0.82 3.65,0.15 4.3,1.42 0.89,1.75 1.04,3.91 3.85,5.02 2,0.79 4.52,0.15 5.62,-1.7 1.39,-2.32 0.9,-5.71 -2.07,-9.56 -5.12,-6.59 -13.63,-5.97 -18.3,-2.45 -4.99,3.76 -7.11,8.77 -4.66,18.15 2.29,8.82 7.34,20.04 8.44,25.49 1.49,7.33 2.83,25.36 -6.3,29.04 -4.22,1.7 -7.33,1.03 -7.33,1.03 0,0 -0.74,-8.43 -3.41,-14.52 -3.04,-6.96 -8.43,-9.99 -8.43,-9.99l0 0z"/>
   <path class="fil5" d="M68.08 39.84c-0.13,0.15 0.71,2.47 1.03,4.88 0.35,2.68 0.47,5.27 0.69,5.35 0.45,0.15 7.01,-1.5 6.2,-7.57 -0.81,-6.08 -7.62,-3.04 -7.92,-2.66z"/>
   <path class="fil5" d="M23.26 52.46c-0.59,-0.44 -4.38,0.63 -3.92,4.97 0.59,5.63 6.14,5.63 6.67,5.26 0.26,-0.19 -0.79,-2.76 -1.49,-5.26 -0.67,-2.41 -0.97,-4.75 -1.26,-4.97z"/>
   <path class="fil5" d="M44.29 40.68c-3.55,1.18 -8.51,-4.52 -12.82,0 -5.26,5.53 1,10.51 1.49,14.37 0.3,2.37 -1.04,4.16 0.3,8.15 1.11,3.33 7.29,8.29 18.53,6.01 10.52,-2.14 12.99,-8.8 12.72,-13 -0.31,-4.67 -2.5,-4.94 -2.95,-7.31 -0.44,-2.36 2.05,-11.69 -5.18,-13.63 -7.49,-1.99 -8.26,4.14 -12.09,5.41l0 0z"/>
   <path class="fil6" d="M56.65 46.39c0.44,2.67 0.16,4.44 -1.72,4.88 -2.26,0.53 -3.73,-1 -4.17,-3.72 -0.55,-3.33 0.12,-4.89 1.85,-5.21 2.13,-0.4 3.48,0.69 4.04,4.05z"/>
   <path class="fil6" d="M41.65 49c0.5,2.54 0.59,4.81 -1.45,5.34 -1.94,0.49 -3.56,-0.75 -4.27,-3.5 -0.84,-3.22 -0.56,-5.08 1.28,-5.61 1.89,-0.56 3.66,-0.18 4.44,3.77l0 0z"/>
   <path class="fil6" d="M44.32 53.45c0.04,1.28 2.22,2.83 3.49,2.63 1.37,-0.22 2.66,-2.94 2.21,-3.74 -0.58,-1.04 -5.74,-0.06 -5.7,1.11l0 0z"/>
   <path class="fil7" d="M39.12 61.61c0.22,1.78 4.01,4.46 10.9,3.11 7.11,-1.39 8.17,-5.72 8.05,-6.78 -0.11,-1.05 -3.72,-1.61 -9.89,-0.55 -4.83,0.83 -9.24,2.8 -9.06,4.22l0 0z"/>
  </g>
 </g>
</svg>
