<?xml version="1.0" encoding="UTF-8"?>
<!DOCTYPE svg PUBLIC "-//W3C//DTD SVG 1.1//EN" "http://www.w3.org/Graphics/SVG/1.1/DTD/svg11.dtd">
<!-- Creator: CorelDRAW Home & Student 2019 -->
<svg xmlns="http://www.w3.org/2000/svg" xml:space="preserve" width="400px" height="400px" version="1.1" style="shape-rendering:geometricPrecision; text-rendering:geometricPrecision; image-rendering:optimizeQuality; fill-rule:evenodd; clip-rule:evenodd"
viewBox="0 0 54.05 54.05"
 xmlns:xlink="http://www.w3.org/1999/xlink">
 <defs>
  <style type="text/css">
   <![CDATA[
    .fil0 {fill:#EA556F}
    .fil6 {fill:#2D2B2E}
    .fil1 {fill:#6BA3AB}
    .fil3 {fill:#6DA3AF}
    .fil4 {fill:#B5C2C8}
    .fil2 {fill:#FDD3B1}
    .fil5 {fill:#FFD3B0}
   ]]>
  </style>
 </defs>
 <g id="Layer_x0020_1">
  <metadata id="CorelCorpID_0Corel-Layer"/>
  <rect class="fil0" width="54.05" height="54.05"/>
  <g id="_1061184176">
   <path class="fil1" d="M9.99 21.59c-0.06,0 -0.12,-0.01 -0.17,-0.05l-1.87 -1.31c-0.16,-0.1 -0.22,-0.31 -0.12,-0.47 0.09,-0.16 0.3,-0.22 0.47,-0.12l1.87 1.31c0.16,0.1 0.21,0.31 0.12,0.47 -0.07,0.11 -0.18,0.17 -0.3,0.17l0 0z"/>
   <path class="fil1" d="M7.1 21.86c-0.19,0 -0.34,-0.14 -0.34,-0.33 -0.01,-0.19 0.14,-0.35 0.33,-0.35l2.76 0.36c0.19,-0.01 0.35,0.14 0.35,0.33 0.01,0.19 -0.14,0.35 -0.33,0.35l-2.76 -0.36 -0.01 0z"/>
   <path class="fil1" d="M7.45 23.69c-0.13,-0.05 -0.21,-0.18 -0.21,-0.31 0,-0.16 0.1,-0.29 0.24,-0.33l2.46 -0.73c0.03,-0.01 0.06,-0.02 0.09,-0.02 0.2,0 0.35,0.16 0.35,0.35 0,0.15 -0.1,0.29 -0.25,0.33l-2.45 0.73c-0.08,0.02 -0.16,0.01 -0.23,-0.02l0 0z"/>
   <path class="fil2" d="M34.37 34.72c0,0 -1.86,-0.41 -3.31,0 -1.46,0.41 -2.08,1.45 -1.82,2.06 0.24,0.56 1.98,-0.05 3.77,-0.05 1.79,0 4.89,-0.07 5.43,-0.41 0.53,-0.34 0.09,-2.3 0.09,-2.3l-4.16 0.7z"/>
   <path class="fil2" d="M19.12 34.65c0,0 -0.41,0.19 -0.84,0.56 -0.46,0.38 -1.02,0.92 -0.66,1.38 0.37,0.46 1.09,0.19 1.09,0.19 0,0 -0.09,0.37 0.63,0.51 0.73,0.15 2.3,-0.77 2.3,-0.77l-2.52 -1.87z"/>
   <path class="fil2" d="M40.81 29.61c0,0 1.52,0.15 3.36,1.46 1.74,1.23 3.77,3.5 2.93,6.87 -0.84,3.41 -4.62,5.35 -9.27,5.08 -4.45,-0.25 -9.06,-3.01 -11.47,-2.83 -3.9,0.29 -5.06,2.52 -5.4,2.35 -0.34,-0.17 0.17,-2.86 3.41,-3.83 2.68,-0.8 4.94,-0.34 7.96,0.61 3.03,0.94 9.35,2.55 11.53,-0.9 2.37,-3.75 -1.55,-5.25 -2.76,-5.83 -1.21,-0.58 -0.29,-2.98 -0.29,-2.98l0 0z"/>
   <path class="fil3" d="M23.79 14.39c0,0 0.07,-0.78 -0.41,-1.65 -0.37,-0.69 -0.96,-1.57 -2.56,-1.71 -3.58,-0.33 -4.46,3.65 -4.5,4.69 -0.05,1.21 0.31,2.69 0.31,2.69l5.35 -0.58 1.81 -3.44 0 0z"/>
   <path class="fil3" d="M20.16 28.36c0,0 -0.11,2.96 -0.17,3.82 -0.09,1.65 -1.23,1.77 -1.28,2.52 -0.07,1.13 1.75,0.56 1.75,0.56l3.41 -4.31 -3.71 -2.59z"/>
   <path class="fil3" d="M24.76 32.81c0,0 -4.62,3 -4.21,3.34 0.34,0.28 0.83,0.54 1.62,0.46 0.92,-0.1 3.18,-0.97 4,-1.74 0.53,-0.51 1.04,-1.36 1.04,-1.36 0,0 1.47,0.44 2.49,0.49 1.02,0.04 2.52,-0.08 2.52,-0.08 0,0 2.4,2.86 5.98,2.06 3.58,-0.8 3.61,-4.12 3.61,-4.12l-3.44 -6.77 -7.14 -3.02 -6.47 6.65 0 4.09z"/>
   <path class="fil4" d="M25.85 21.05c0,0 1.4,-0.84 2.23,-2.19 0.7,-1.14 0.94,-2.67 0.09,-4.11 -0.89,-1.51 -2.49,-1.8 -3.72,-1.45 -2.32,0.65 -2.66,3.07 -2.66,3.07 0,0 -0.71,-0.58 -2.26,-0.55 -1.55,0.02 -3.51,0.68 -5.2,1.69 -1.7,1.02 -2.04,1.58 -3.22,2.16 -1.19,0.58 -1.84,0.6 -1.89,1.23 -0.05,0.63 0.19,1.52 1.14,2.47 0.94,0.94 2.83,1.55 3.51,1.77 0.67,0.21 1.55,0.6 2.49,0.67 0.95,0.08 1.62,0.08 1.62,0.08 0,0 0.32,0.99 1.36,2.27 1.04,1.29 2.85,2.84 2.85,2.84 0,0 -0.26,1.79 -0.6,2.27 -0.34,0.49 -2.06,1.65 -1.38,2.57 0.67,0.92 2.3,0.22 3.55,-0.36 1.26,-0.58 1.75,-0.71 2.33,-1.43 0.32,-0.4 0.77,-1.33 0.77,-1.33 0,0 0.85,0.29 2.23,0.51 1.38,0.21 2.47,0.12 2.47,0.12 0,0 -2.37,-2.81 -2.2,-5.25 0.17,-2.45 1.64,-4.34 3.02,-4.53 1.38,-0.19 -0.63,1.55 -1.01,2.3 -0.49,0.94 -1.31,3.24 0.17,5.59 1.47,2.35 4.08,4.25 6.65,3.83 2.47,-0.41 3.66,-2.01 3.75,-4.21 0.07,-1.51 -0.07,-6.06 -1.79,-8.48 -1.71,-2.42 -4.15,-3.96 -7.93,-3.52 -3.26,0.37 -6.37,1.97 -6.37,1.97l0 0z"/>
   <path class="fil5" d="M26.43 15.36c-1.15,-0.98 -2.84,-0.02 -3.24,1.53 -0.4,1.55 0.14,2.86 2.23,2.02 1.76,-0.71 1.98,-2.73 1.01,-3.55z"/>
   <path class="fil5" d="M9.6 22.48l1.33 -1.3c0,0 -0.26,-0.5 -0.96,-0.72 -0.69,-0.23 -0.87,0.26 -0.82,0.97 0.05,0.71 0.31,1 0.45,1.05l0 0z"/>
   <path class="fil6" d="M18.51 21.02c-0.33,0.58 -0.86,0.79 -1.32,0.62 -0.44,-0.15 -0.46,-0.88 -0.13,-1.46 0.34,-0.58 0.77,-0.84 1.34,-0.64 0.43,0.15 0.44,0.9 0.11,1.48l0 0z"/>
   <path class="fil1" d="M22.98 23.93c0.33,0.55 -0.96,1.4 -1.87,1.79 -1.7,0.73 -3.13,0.82 -5.65,0.31 -2.32,-0.48 -3.99,-1.34 -4.92,-2.12 -0.62,-0.51 -0.97,-1.03 -0.89,-1.24 0.21,-0.55 0.88,0.44 1.31,0.76 0.95,0.71 1.94,0.99 2.47,1.01 1.03,0.04 2.06,-0.69 2.39,-0.35 0.61,0.64 -1.23,0.97 -1.23,0.97 0,0 2.03,0.61 3.37,0.45 1.34,-0.16 2.76,-0.66 3.47,-1.13 0.71,-0.47 1.32,-0.82 1.55,-0.45l0 0z"/>
   <path class="fil6" d="M11.17 21.23c0.25,0.33 -0.42,0.87 -0.72,1.11 -0.29,0.25 -0.64,0.7 -0.8,0.33 -0.16,-0.37 -0.1,-0.49 0.45,-0.99 0.55,-0.5 0.78,-0.82 1.07,-0.45l0 0z"/>
  </g>
 </g>
</svg>
