<?xml version="1.0" encoding="UTF-8"?>
<!DOCTYPE svg PUBLIC "-//W3C//DTD SVG 1.1//EN" "http://www.w3.org/Graphics/SVG/1.1/DTD/svg11.dtd">
<!-- Creator: CorelDRAW Home & Student 2019 -->
<svg xmlns="http://www.w3.org/2000/svg" xml:space="preserve" width="400px" height="400px" version="1.1" style="shape-rendering:geometricPrecision; text-rendering:geometricPrecision; image-rendering:optimizeQuality; fill-rule:evenodd; clip-rule:evenodd"
viewBox="0 0 42.11 42.11"
 xmlns:xlink="http://www.w3.org/1999/xlink">
 <defs>
  <style type="text/css">
   <![CDATA[
    .fil0 {fill:#7688A1}
    .fil5 {fill:#2C2B2D}
    .fil4 {fill:#A52914}
    .fil1 {fill:#A92813}
    .fil6 {fill:#FCD4B0}
    .fil3 {fill:#FF615E}
    .fil2 {fill:#FFA8A8}
   ]]>
  </style>
 </defs>
 <g id="Layer_x0020_1">
  <metadata id="CorelCorpID_0Corel-Layer"/>
  <rect class="fil0" width="42.11" height="42.11"/>
  <g id="_722289704">
   <path class="fil1" d="M27.46 13.49c0,0 8.41,-1.46 8.9,-0.82 0.49,0.64 0.61,2.56 0.35,3.65 -0.27,1.09 -1.24,2.77 -4.1,3.56 -2.4,0.67 -3.21,0.67 -4.45,1.41 -1,0.59 -2.44,4.84 -2.66,5.44 -0.23,0.6 -1.88,2.97 -5.34,2.48 -3.38,-0.48 -5.46,-3.65 -4.74,-6.77 0.72,-3.12 12.04,-8.95 12.04,-8.95l0 0z"/>
   <path class="fil2" d="M21.32 21.27c0,0 -4.7,0.11 -6.16,-1.43 -1.47,-1.54 -3.01,-4.96 -3.43,-7.71 -0.41,-2.74 -1.76,-4.36 -2.4,-4.77 -0.64,-0.42 -1.3,-0.53 -1.38,-0.12 -0.07,0.42 1.09,1.8 1.3,2.45 0.53,1.61 0.24,5.38 0.68,7.11 0.45,1.77 0.81,2.37 1.8,3.53 0.75,0.86 1.92,1.7 1.92,1.7 0,0 -4.55,1.09 -5.83,-0.27 -1.28,-1.35 -1.12,-2.48 -1.01,-3.04 0.11,-0.57 1.01,-2.11 0.75,-2.26 -0.26,-0.15 -1.92,1.13 -2.14,2.82 -0.23,1.69 0.33,3.1 1.28,4.14 1.23,1.34 3.56,1.57 4.92,1.46 1.35,-0.12 2.71,-0.56 2.71,-0.56 0,0 -0.03,5.53 -2.67,5.49 -1.99,-0.03 -2.22,-0.68 -2.41,-1.01 -0.18,-0.34 -0.38,-0.62 -0.28,0.45 0.07,0.72 0.9,2.92 3.53,2.36 2.22,-0.48 3.6,-2.53 4.05,-3.15 0.5,-0.69 1.65,-2.26 1.65,-2.26 0,0 -0.44,3.05 -0.35,5.21 0.04,0.91 0.28,3.02 1.94,3.74 1.65,0.71 3.77,-0.18 4.14,-1.61 0.38,-1.43 -0.38,-2.23 -0.5,-2.34 -0.11,-0.11 -0.64,1.62 -0.64,1.62 0,0 -1.35,0.9 -1.88,0.26 -0.52,-0.64 0.12,-5.6 0.19,-6.66 0.08,-1.05 1.17,-0.03 1.54,0.49 0.38,0.53 0.99,1.83 1.92,2.75 1.53,1.51 3.2,2.16 5.56,1.98 2.47,-0.19 4,-1.16 4.83,-2.4 0.83,-1.24 1.01,-2.47 0.74,-2.69 -0.26,-0.23 -2.07,1.94 -2.44,2.24 -0.38,0.3 -4.14,0 -4.67,0 -0.52,0 -0.63,-0.94 -0.63,-0.94 0,0 2.14,-0.56 2.89,-1.13 0.75,-0.56 2.82,-1.75 2.97,-5.11 0.12,-2.6 0,-9.57 0.27,-10.7 0.26,-1.12 1.26,-2.08 1.04,-2.45 -0.23,-0.38 -1.23,0.25 -1.38,0.36 -0.15,0.11 -1.73,0.87 -1.77,2.22 -0.04,1.35 -0.49,11.02 -1.24,11.81 -0.76,0.79 -3.2,2.37 -4.55,2.18 -1.36,-0.18 -4.86,-3.76 -4.86,-3.76l0 0z"/>
   <path class="fil3" d="M35.58 26.5c-0.45,-0.04 -0.83,0.56 -1.28,0.9 -0.45,0.34 -1.35,1.21 -3.72,1.13 -2.37,-0.07 -3.95,-2.67 -3.95,-2.67 0,0 0.75,0.07 1.61,-0.15 0.87,-0.22 2.24,-0.96 3.11,-2.52 1.02,-1.85 0.79,-6.43 0.81,-8.46 0.01,-2.81 0.92,-4.3 1.28,-4.78 0.6,-0.81 1.55,-1.28 1.59,-1.54 0.03,-0.27 -1.19,-0.11 -1.9,0.3 -0.78,0.46 -1.16,0.98 -1.16,0.98 0,0 -1.81,-0.19 -2.79,-0.19 -0.97,0 -2.85,0.15 -4.49,0.53 -2.01,0.47 -3.51,1.61 -3.93,1.69 0,0 -1.33,-1.33 -3.53,0.19 -2.3,1.58 -0.64,4.92 -0.64,4.92 0,0 -0.11,0.49 -0.72,0.64 -0.86,0.23 -2.16,-0.62 -2.63,-2.12 -0.39,-1.27 -0.3,-3.03 -0.67,-5.06 -0.38,-2.03 -1.47,-2.93 -2.45,-3.38 -0.97,-0.45 -2.22,-0.04 -2.03,0.22 0.19,0.27 1.62,0.75 2.48,2.33 0.87,1.58 0.46,5.27 1.4,7.9 0.94,2.63 2.67,3.5 2.67,3.5 0,0 -0.98,0.45 -1.51,0.56 -0.52,0.11 -1.95,0.38 -3.27,0.11 -1.37,-0.29 -2.29,-1.29 -2.44,-2.4 -0.13,-0.94 0.49,-2.59 0.15,-2.67 -0.34,-0.08 -1.56,1.65 -1.59,3.08 -0.04,1.43 1.06,3.08 2.71,3.87 1.66,0.8 5.12,0.08 5.12,0.08 0,0 -0.28,0.43 -0.32,1.26 -0.04,0.83 -0.53,2.68 -1.41,3.22 -0.61,0.37 -1.15,0.49 -1.34,0 -0.18,-0.49 0.78,-0.68 0.74,-1.17 -0.04,-0.49 -0.83,-0.61 -1.58,-0.15 -0.51,0.31 -1.36,1.43 -0.83,2.63 0.53,1.21 1.83,1.63 3.27,1.25 2.15,-0.58 4.63,-4.55 5.42,-5.23 0.79,-0.68 1.32,-0.49 1.32,-0.49 0,0 -0.38,3.5 -0.31,5.87 0.08,2.37 1.59,3.91 3.28,3.65 1.88,-0.31 1.99,-1.85 1.69,-2.68 -0.26,-0.72 -1.26,-0.99 -1.54,-0.79 -0.37,0.27 -0.12,0.72 0.02,0.84 0.34,0.29 0.05,0.97 -0.47,0.82 -0.53,-0.15 -0.04,-1.92 0.18,-2.79 0.23,-0.86 0.76,-2.89 1.36,-3.04 0.6,-0.15 1.21,0.9 1.77,1.54 0.95,1.09 2.5,1.94 4.71,1.97 2.92,0.05 4.73,-1.75 5.14,-2.2 0.41,-0.45 1.12,-1.46 0.67,-1.5l0 0zm-6.77 -7.86c0.86,-0.6 1.6,-0.88 1.6,-0.88 0,0 0.03,3.09 -1.15,4.68 -0.98,1.32 -1.92,1.01 -1.92,1.01 0,0 0.97,-0.52 1.05,-1.54 0.12,-1.39 -1.35,-1.65 -1.35,-1.65 0,0 1.01,-1.1 1.77,-1.62l0 0z"/>
   <path class="fil3" d="M33.87 16.78c0,0 3.1,-0.92 2.8,-3.18 -0.3,-2.26 -2.59,-2.76 -2.59,-2.76 0,0 -0.32,1.18 -0.27,2.72 0.02,0.68 0.06,3.22 0.06,3.22l0 0z"/>
   <path class="fil4" d="M27.31 22.57c-0.34,0.55 -0.93,0.66 -1.36,0.4 -0.43,-0.27 -0.49,-0.81 -0.15,-1.36 0.35,-0.55 1.05,-0.8 1.48,-0.53 0.43,0.27 0.38,0.94 0.03,1.49l0 0z"/>
   <path class="fil4" d="M21.38 19.34c0.48,-0.03 0.32,-0.51 0.23,-1.15 -0.1,-0.64 -0.45,-2.32 0.54,-3.33 0.83,-0.85 1.86,-0.84 2.63,-0.34 0.58,0.38 0.85,0.53 1.07,0.25 0.15,-0.19 -0.07,-0.55 -0.45,-0.87 -0.48,-0.4 -2.12,-1.24 -3.67,0.04 -1.46,1.21 -1.22,3.55 -1.03,4.36 0.19,0.81 0.38,1.05 0.68,1.04l0 0z"/>
   <path class="fil4" d="M16.66 11.76c-0.98,1.01 -1.18,1.82 -1.07,3.19 0.09,1.23 0.53,2.17 1,1.98 0.39,-0.16 0.22,-0.89 0.09,-1.26 -0.13,-0.38 -0.36,-2.19 0.6,-3.16 0.96,-0.98 2.05,-0.85 2.54,-0.74 0.49,0.11 0.69,0.23 0.94,-0.05 0.24,-0.28 -0.27,-0.74 -0.75,-0.85 -0.49,-0.11 -2.06,-0.46 -3.35,0.89l0 0z"/>
   <path class="fil5" d="M25.84 17.78c0,0.78 -0.59,1.56 -1.36,1.52 -0.75,-0.04 -1.11,-0.77 -1.11,-1.54 0,-0.78 0.46,-1.41 1.25,-1.47 0.9,-0.06 1.22,0.7 1.22,1.49l0 0z"/>
   <ellipse class="fil6" transform="matrix(0.0205943 -0.128302 0.128302 0.0205943 32.9857 15.0536)" rx="4.54" ry="4.34"/>
   <ellipse class="fil6" transform="matrix(0.0457134 -0.121638 0.121638 0.0457135 33.4985 11.3196)" rx="4.44" ry="3.87"/>
   <ellipse class="fil6" cx="32.98" cy="19.24" rx="0.69" ry="0.71"/>
   <ellipse class="fil6" transform="matrix(0.0526914 -0.118782 0.118782 0.0526915 32.3305 23.4581)" rx="5.72" ry="5.39"/>
   <ellipse class="fil6" transform="matrix(0.119574 -0.0508672 0.0508672 0.119575 33.3167 30.0088)" rx="4.34" ry="3.89"/>
   <ellipse class="fil6" cx="30" cy="30.88" rx="0.64" ry="0.6"/>
   <ellipse class="fil6" cx="26.57" cy="30.22" rx="0.61" ry="0.64"/>
   <ellipse class="fil6" cx="20.2" cy="34.65" rx="0.67" ry="0.65"/>
   <ellipse class="fil6" transform="matrix(0.129645 -0.00880879 0.00880877 0.129645 18.2419 30.8945)" rx="3.58" ry="4.79"/>
   <ellipse class="fil6" transform="matrix(0.0954378 -0.088188 0.0881879 0.095438 14.7815 29.7723)" rx="5.3" ry="4.73"/>
   <ellipse class="fil6" cx="11.5" cy="31.29" rx="0.69" ry="0.63"/>
   <ellipse class="fil6" cx="10.79" cy="24.4" rx="0.61" ry="0.55"/>
   <ellipse class="fil6" transform="matrix(0.0649721 -0.112535 0.112535 0.0649722 7.64658 23.4895)" rx="4.44" ry="4.63"/>
   <ellipse class="fil6" transform="matrix(0.121306 -0.046587 0.0465869 0.121306 5.77118 21.1601)" rx="3.82" ry="4.44"/>
   <ellipse class="fil6" cx="10.66" cy="16.13" rx="0.59" ry="0.61"/>
   <ellipse class="fil6" cx="10.33" cy="12.61" rx="0.58" ry="0.6"/>
   <ellipse class="fil6" transform="matrix(0.121151 -0.046989 0.0469889 0.121151 9.85013 9.47723)" rx="3.95" ry="4.34"/>
  </g>
 </g>
</svg>
