<?xml version="1.0" encoding="UTF-8"?>
<!DOCTYPE svg PUBLIC "-//W3C//DTD SVG 1.1//EN" "http://www.w3.org/Graphics/SVG/1.1/DTD/svg11.dtd">
<!-- Creator: CorelDRAW Home & Student 2019 -->
<svg xmlns="http://www.w3.org/2000/svg" xml:space="preserve" width="400px" height="400px" version="1.1" style="shape-rendering:geometricPrecision; text-rendering:geometricPrecision; image-rendering:optimizeQuality; fill-rule:evenodd; clip-rule:evenodd"
viewBox="0 0 363.64 363.64"
 xmlns:xlink="http://www.w3.org/1999/xlink">
 <defs>
  <style type="text/css">
   <![CDATA[
    .fil0 {fill:#BBC274}
    .fil12 {fill:#010103}
    .fil10 {fill:#50362D}
    .fil14 {fill:#543527}
    .fil16 {fill:#6B4C42}
    .fil1 {fill:#6B4D42}
    .fil3 {fill:#8D5E50}
    .fil2 {fill:#8D5F55}
    .fil11 {fill:#BA957E}
    .fil15 {fill:#D27856}
    .fil6 {fill:#FB6113}
    .fil13 {fill:#FE5E12}
    .fil4 {fill:#FF5D15}
    .fil5 {fill:url(#id0)}
    .fil9 {fill:url(#id1)}
    .fil7 {fill:url(#id2)}
    .fil8 {fill:url(#id3)}
   ]]>
  </style>
  <linearGradient id="id0" gradientUnits="userSpaceOnUse" x1="75.08" y1="-5297.53" x2="165.54" y2="-5152.27">
   <stop offset="0" style="stop-opacity:1; stop-color:#D47755"/>
   <stop offset="0.439216" style="stop-opacity:1; stop-color:#E66D37"/>
   <stop offset="0.890196" style="stop-opacity:1; stop-color:#FB6113"/>
   <stop offset="1" style="stop-opacity:1; stop-color:#FB6113"/>
  </linearGradient>
  <linearGradient id="id1" gradientUnits="userSpaceOnUse" x1="256.73" y1="1215.54" x2="290.87" y2="1231.51">
   <stop offset="0" style="stop-opacity:1; stop-color:#FB6113"/>
   <stop offset="0.0117647" style="stop-opacity:0; stop-color:#FB6113"/>
   <stop offset="0.831373" style="stop-opacity:1; stop-color:#D47755"/>
   <stop offset="1" style="stop-opacity:1; stop-color:#D47755"/>
  </linearGradient>
  <radialGradient id="id2" gradientUnits="userSpaceOnUse" gradientTransform="matrix(0.136454 -0.714767 1.94247 0.296016 141 225)" cx="268.17" cy="46.67" r="495.32" fx="268.17" fy="46.67">
   <stop offset="0" style="stop-opacity:1; stop-color:#FB6113"/>
   <stop offset="0.611765" style="stop-opacity:0; stop-color:#FB6113"/>
   <stop offset="1" style="stop-opacity:1; stop-color:#D47755"/>
  </radialGradient>
  <radialGradient id="id3" gradientUnits="userSpaceOnUse" gradientTransform="matrix(0.136454 -0.714767 1.94247 0.296016 6 189)" xlink:href="#id2" cx="185.67" cy="79.66" r="495.32" fx="185.67" fy="79.66">
  </radialGradient>
 </defs>
 <g id="Layer_x0020_1">
  <metadata id="CorelCorpID_0Corel-Layer"/>
  <rect class="fil0" width="363.64" height="363.64"/>
  <g id="_1058679776">
   <path class="fil1" d="M80.49 250.12l-30.05 0.24c0,0 -7.98,17.37 -3.75,21.59 4.22,4.23 13.61,2.82 22.3,2.58 8.68,-0.23 14.32,0.47 16.19,-1.87 1.88,-2.35 0.24,-18.55 0.24,-18.55l-4.93 -3.99z"/>
   <path class="fil1" d="M186.12 60.23c0,0 -3.05,7.51 -5.87,9.62 -2.82,2.11 -14.55,10.8 -10.56,16.67 3.99,5.87 16.19,4.93 16.19,4.93l26.76 -22.3 -26.52 -8.92 0 0z"/>
   <path class="fil2" d="M190.34 45.67c-3.81,2.2 -6.17,6.28 -6.17,10.68 0,0.43 0.03,0.87 0.07,1.3 0.47,8.45 7.51,13.84 19.72,18.07 12.2,4.22 23.47,11.74 31.68,14.79 6.84,2.39 13.92,3.96 21.13,4.69 5.49,0.42 11.03,0.12 16.43,-0.94 0,0 -7.51,6.11 -14.55,12.68 -4.8,4.73 -9.08,10.03 -12.68,15.72l-1.88 11.03c0,0 28.64,-1.4 28.87,-2.58 0.24,-1.17 25.82,-50.47 25.82,-50.47l-108.44 -34.97z"/>
   <path class="fil3" d="M144.34 246.6c-0.24,-0.7 -5.87,-9.62 -3.29,-20.19 2.58,-10.56 10.56,-21.59 11.74,-23.94 1.17,-2.34 0.7,-33.33 0.7,-33.33l95.53 -20.89c0,0 4.46,24.18 10.1,37.09 5.63,12.91 19.72,33.8 22.3,44.36 1.48,7.58 1.55,15.38 0.23,23.01l-42.72 20.42 -24.18 34.5 -26.52 10.56c0,0 -10.33,-7.27 -13.14,-12.44 -1.88,-3.52 -0.47,-9.62 2.11,-10.56 2.58,-0.94 3.75,0.24 6.57,2.82 3.52,3.28 8.92,8.92 9.62,8.21 0.71,-0.7 8.22,-11.5 8.22,-11.5 -1.69,-1.62 -3.59,-3.05 -5.63,-4.22 -0.94,0 -5.87,2.58 -9.16,1.17 -3.28,-1.41 -3.52,-6.1 -3.52,-6.1l-26.05 -2.59 -12.91 -36.38z"/>
   <path class="fil4" d="M237.76 105.53c0,0 -7.04,-16.2 -15.73,-23.71 -6.52,-5.44 -14.74,-8.43 -23.24,-8.45 -9.15,0.24 -17.13,7.04 -21.12,10.8 -5.17,5.16 -14.55,21.36 -14.55,21.36l74.64 0z"/>
   <path class="fil5" d="M157.01 114.92c-6.43,2.26 -12.17,6.14 -16.67,11.27 -7.04,7.74 -13.14,26.29 -13.84,29.57 -1.18,5.4 -10.33,15.26 -28.88,35.68 -15.49,16.9 -25.58,26.76 -33.33,36.15 -5.63,6.81 -15.49,18.07 -13.85,22.77 1.65,4.69 10.1,7.98 18.55,8.45 8.45,0.47 14.55,0.23 17.13,-1.88 2.58,-2.11 12.44,-11.97 19.25,-15.96 14.32,-8.69 44.6,-27.47 51.64,-48.59 6.81,-19.95 15.49,-39.44 15.49,-39.44l-15.49 -38.02 0 0z"/>
   <path class="fil6" d="M219.68 50.37c0,0 -16.43,-16.67 -29.81,-4.93 -13.38,11.74 10.8,24.65 14.32,25.35 3.52,0.7 8.69,1.64 8.69,1.64 0,0 16.19,12.44 32.15,16.43 14.09,3.53 29.81,0.47 34.98,-0.94 5.16,-1.4 8.68,-3.05 9.15,-0.46 0.47,2.58 -2.81,3.52 -8.45,5.86 -5.63,2.35 -29.34,29.35 -29.34,29.35l-3.52 22.53c0,0 3.05,14.32 5.63,24.65 1.66,6.73 4.12,13.31 7.28,19.48 3.16,6.18 4.93,1.17 12.44,-4.46 12.44,-9.15 10.09,-34.74 10.09,-34.74 0,0 7.04,2.35 11.97,-2.35 4.93,-4.69 17.84,-44.6 19.48,-50.93 1.65,-6.34 5.64,-16.9 1.88,-20.19 -7.47,-6.77 -16.16,-12.13 -25.57,-15.73 -8.69,-3.05 -29.82,-7.28 -43.43,-9.15 -10.57,-0.94 -27.94,-1.41 -27.94,-1.41l0 0z"/>
   <path class="fil7" d="M316.63 76.89c-7.48,-6.77 -16.17,-12.12 -25.58,-15.73 -8.69,-3.05 -29.81,-7.27 -43.43,-9.15 -10.56,-1.17 -28.17,-1.64 -28.17,-1.64 0,0 -16.43,-16.67 -29.81,-4.93 -13.38,11.74 11.03,24.65 14.55,25.35 3.52,0.7 8.69,1.64 8.69,1.64 0,0 16.19,12.44 32.15,16.43 14.09,3.53 29.81,0.47 34.98,-0.94 5.16,-1.4 8.68,-3.05 9.15,-0.46l27.47 -10.57z"/>
   <path class="fil8" d="M316.63 76.89c-7.48,-6.77 -16.17,-12.12 -25.58,-15.73 -8.69,-3.05 -29.81,-7.27 -43.43,-9.15 -10.56,-1.17 -28.17,-1.64 -28.17,-1.64 0,0 -16.43,-16.67 -29.81,-4.93 -13.38,11.74 11.03,24.65 14.55,25.35 3.52,0.7 8.69,1.64 8.69,1.64 0,0 16.19,12.44 32.15,16.43 14.09,3.53 29.81,0.47 34.98,-0.94 5.16,-1.4 8.68,-3.05 9.15,-0.46l27.47 -10.57z"/>
   <path class="fil9" d="M289.4 87.46c0.23,2.58 -2.82,3.52 -8.45,5.86 -5.64,2.35 -29.34,29.35 -29.34,29.35l-3.76 22.53c0,0 3.05,14.32 5.63,24.65 1.66,6.73 4.12,13.31 7.28,19.48 3.16,6.18 4.93,1.17 12.44,-4.46 12.44,-9.15 10.09,-34.74 10.09,-34.74 0,0 7.04,2.35 11.97,-2.35 4.93,-4.69 17.84,-44.6 19.48,-50.93 1.65,-6.34 5.64,-16.9 1.88,-20.19l-27.23 10.8 0.01 0z"/>
   <path class="fil10" d="M160.06 151.77c0,0 -13.38,-9.39 -11.5,-25.11 1.88,-15.73 13.15,-23.24 19.01,-27 5.87,-3.75 17.14,-7.27 22.54,-9.62 5.4,-2.35 7.27,-6.57 9.86,-6.57 2.58,0 7.27,5.86 14.78,8.92 7.52,3.05 23.48,7.51 32.4,17.13 8.92,9.62 11.03,19.25 7.74,29.11 -3.28,9.86 -7.27,12.91 -7.27,12.91 0,0 2.11,23.47 -3.06,38.73 -5.86,16.66 -27.22,33.8 -52.81,25.35 -8.87,-2.55 -16.64,-8.02 -22.06,-15.5 -9.63,-12.67 -8.92,-28.16 -9.39,-35.44 -0.42,-4.3 -0.49,-8.62 -0.24,-12.91l0 0z"/>
   <path class="fil2" d="M200.2 88.4c-6.66,4.33 -13.67,8.19 -20.9,11.5 -7.98,3.29 -28.4,12.44 -25.82,32.39 2.35,17.14 28.64,32.16 35.21,33.81 6.57,1.64 31.22,-2.35 34.74,-4.7 3.52,-2.35 25.82,-12.2 27.46,-29.11 1.65,-16.89 -18.07,-29.1 -31.68,-33.56 -15.5,-5.63 -17.37,-10.56 -19.02,-10.33l0.01 0z"/>
   <path class="fil11" d="M178.61 115.39c1.64,1.41 3.52,-0.24 4.93,-1.88 1.4,-1.64 4.69,-6.1 7.51,-6.57 3.28,-0.24 5.63,3.52 9.62,3.52 3.99,0 4.46,-3.52 8.69,-3.52 4.22,0 7.27,5.87 7.98,7.04 0.7,1.17 2.11,3.29 3.99,1.88 1.87,-1.41 0.23,-3.29 -0.24,-3.99 -0.47,-0.71 -5.63,-9.39 -11.5,-9.63 -5.87,-0.23 -5.63,3.29 -8.92,3.29 -3.29,0 -2.82,-3.76 -8.92,-3.52 -6.1,0.23 -9.39,5.4 -10.56,7.04 -1.18,1.64 -4.46,4.7 -2.58,6.34l0 0z"/>
   <ellipse class="fil12" transform="matrix(0.00553822 -0.132083 0.132083 0.00553822 210.403 115.172)" rx="44.39" ry="30.18"/>
   <ellipse class="fil12" transform="matrix(0.131683 -0.0116644 0.0116644 0.131683 192.455 115.154)" rx="31.96" ry="44.39"/>
   <path class="fil13" d="M200.44 128.77c-3.76,0 -15.5,-0.47 -19.96,8.92 -4.46,9.39 -3.05,27.7 -2.11,30.28 1.64,4.22 11.03,11.27 25.35,10.56 14.32,-0.7 19.72,-6.81 20.89,-10.56 1.18,-3.29 -1.17,-29.34 -5.87,-34.04 -7.04,-7.27 -18.3,-5.16 -18.3,-5.16z"/>
   <path class="fil11" d="M199.73 124.54c-9.15,0 -15.73,7.51 -15.96,17.14 -0.23,12.44 0.94,15.96 6.57,18.78 4.7,2.58 17.84,2.11 22.77,-1.18 4.93,-3.28 5.4,-13.38 4.7,-19.48 -0.71,-6.1 -2.82,-15.26 -18.08,-15.26z"/>
   <path class="fil14" d="M200.67 141.91c5.4,0 6.57,3.29 10.8,3.52 4.22,0.24 5.87,-2.58 6.1,0.24 0.24,2.82 -3.29,3.99 -6.34,4.22 -3.05,0.24 -7.04,-3.05 -10.79,-3.28 -3.76,-0.24 -5.64,3.75 -10.33,3.52 -4.7,-0.24 -7.51,-3.05 -6.11,-4.93 1.41,-1.88 2.35,1.17 6.11,0.94 3.75,-0.24 4.69,-4.23 10.56,-4.23l0 0z"/>
   <path class="fil14" d="M193.39 132.76c0.99,1.43 2.82,2.02 4.46,1.41 1.18,-0.47 1.18,-2.59 -0.47,-4.46 -1.64,-1.88 -2.81,-2.35 -3.99,-1.41 -1.17,0.94 -2.11,2.35 0,4.46z"/>
   <path class="fil14" d="M202.08 129c-1.2,1.29 -1.39,3.19 -0.47,4.7 0.7,0.94 2.82,0.7 4.22,-1.41 1.18,-1.64 1.65,-3.29 0.47,-4.23 -1.17,-0.94 -2.34,-1.64 -4.22,0.94z"/>
   <path class="fil13" d="M167.1 251.06c-1.64,-6.34 -16.19,-18.78 -26.52,-20.42 -11.97,-1.88 -22.06,8.22 -24.18,12.21 -2.09,3.35 -3.45,7.11 -3.99,11.03 -0.47,4.69 19.95,9.62 19.95,9.62l34.74 -12.44z"/>
   <path class="fil13" d="M199.5 275.94c4.64,-4.69 9.57,-9.08 14.78,-13.14 5.17,-3.99 13.85,-10.57 20.19,-12.68 5.59,-1.41 11.39,-1.9 17.14,-1.41 10.56,1.18 21.83,3.52 24.17,1.65 4.23,-3.29 -2.11,10.33 -2.11,10.33l-44.36 5.16 -21.13 12.68 -8.68 -2.59 0 0z"/>
   <path class="fil13" d="M291.75 245.9c0,-0.24 -4.7,-7.28 -16.44,-7.51 -7.74,-0.24 -17.84,3.05 -16.66,6.1 4.46,1.17 11.03,2.58 11.03,2.58l22.07 -1.17z"/>
   <path class="fil15" d="M213.58 286.74c0,0 -4.46,8.92 10.33,7.28 14.79,-1.65 20.19,-2.35 30.98,-3.76 11.48,-2.04 22.56,-5.84 32.87,-11.27 5.63,-3.52 12.2,-9.15 11.26,-19.71 -0.28,-9.04 -7.2,-16.48 -16.19,-17.37 -11.98,-1.65 -20.89,3.28 -19.02,3.99 3.29,1.41 10.33,1.88 8.92,5.63 -1.41,3.76 -7.98,2.35 -14.79,1.88 -6.8,-0.47 -19.48,-0.47 -25.58,2.58 -6.1,3.05 -25.82,20.42 -25.82,20.42l7.04 10.33 0 0z"/>
   <path class="fil15" d="M111.71 257.87c-0.71,9.15 0.94,14.55 7.98,19.95 7.04,5.4 15.73,5.4 22.53,5.63 6.81,0.24 17.37,0.24 17.37,0.24 0,0 5.64,-31.22 5.4,-31.69 -0.23,-0.47 -17.84,-14.79 -26.76,-15.49 -8.92,-0.71 -25.11,2.58 -26.52,21.36z"/>
   <path class="fil16" d="M151.38 270.31c-0.24,9.86 5.4,18.78 14.55,19.95 9.16,1.17 15.02,0 16.67,-1.17 1.45,-1.2 2.79,-2.54 3.99,-3.99 -2.33,-1.67 -4.74,-3.15 -7.28,-4.46 -3.76,-1.88 -8.45,-1.88 -7.28,-3.99 1.18,-2.12 6.58,0.7 8.22,1.64 1.64,0.94 7.51,5.63 7.51,5.63l1.64 0.94 5.64 -6.8c0,0 -7.04,-4.46 -9.86,-6.11 -2.82,-1.64 -9.39,-4.22 -8.22,-5.86 1.18,-1.65 6.81,1.64 9.86,3.28 3.05,1.64 11.27,7.98 11.27,7.98l4.22 -4.22c0,0 -4.69,-5.17 -8.92,-8.92 -4.22,-3.76 -12.2,-4.23 -11.5,-6.34 1.18,-3.52 11.27,1.41 13.85,3.52 2.58,2.11 9.39,9.15 9.39,9.15 0,0 5.16,-3.99 5.16,-4.22 0,-0.23 -7.27,-13.15 -14.08,-15.96 -8.92,-3.03 -18.5,-3.59 -27.7,-1.65 -6.57,1.65 -16.9,11.98 -17.13,21.6l0 0z"/>
   <path class="fil16" d="M221.09 312.8c-4.22,4.45 -24.41,10.79 -28.87,9.38 -4.46,-1.4 -14.55,-11.5 -14.32,-12.91 0.24,-1.4 8.22,5.87 14.09,4.93 4.55,-0.82 8.82,-2.74 12.44,-5.63 0.7,-0.94 2.81,-4.22 -2.12,-1.88 -4.93,2.35 -11.26,5.64 -13.61,4.23 -2.35,-1.41 -9.62,-5.64 -10.56,-7.75 -0.94,-2.11 -1.41,-8.68 1.64,-8.21 3.05,0.47 7.75,5.16 7.75,5.16 0,0 10.09,-3.99 10.32,-6.57 0.24,-2.58 -0.7,-5.17 -3.05,-5.17 -2.35,0 -4.69,1.18 -6.1,0 -1.01,-0.86 -1.95,-1.8 -2.82,-2.81l10.33 -8.69c2.16,-1.71 4.84,-2.64 7.6,-2.64 1.66,0 3.31,0.34 4.84,1 6.34,2.58 13.62,9.62 15.02,15.96 1.88,5.87 1.41,17.37 -2.58,21.6l0 0z"/>
  </g>
 </g>
</svg>
