<?xml version="1.0" encoding="UTF-8"?>
<!DOCTYPE svg PUBLIC "-//W3C//DTD SVG 1.1//EN" "http://www.w3.org/Graphics/SVG/1.1/DTD/svg11.dtd">
<!-- Creator: CorelDRAW Home & Student 2019 -->
<svg xmlns="http://www.w3.org/2000/svg" xml:space="preserve" width="400px" height="400px" version="1.1" style="shape-rendering:geometricPrecision; text-rendering:geometricPrecision; image-rendering:optimizeQuality; fill-rule:evenodd; clip-rule:evenodd"
viewBox="0 0 54.05 54.05"
 xmlns:xlink="http://www.w3.org/1999/xlink">
 <defs>
  <style type="text/css">
   <![CDATA[
    .fil0 {fill:#A2D9F7}
    .fil10 {fill:#27282D}
    .fil2 {fill:#50362D}
    .fil4 {fill:#52322A}
    .fil9 {fill:#6A493B}
    .fil1 {fill:#6E4D44}
    .fil8 {fill:#875B4E}
    .fil6 {fill:#E0DFE2}
    .fil11 {fill:#E2E2E4}
    .fil7 {fill:#FEFCFE}
    .fil12 {fill:url(#id0)}
    .fil5 {fill:url(#id1)}
    .fil3 {fill:url(#id2)}
   ]]>
  </style>
  <linearGradient id="id0" gradientUnits="userSpaceOnUse" x1="35.08" y1="38.36" x2="42.79" y2="32.03">
   <stop offset="0" style="stop-opacity:1; stop-color:#875B4E"/>
   <stop offset="0.211765" style="stop-opacity:1; stop-color:#875B4E"/>
   <stop offset="0.580392" style="stop-opacity:1; stop-color:#765247"/>
   <stop offset="0.890196" style="stop-opacity:1; stop-color:#6E4D44"/>
   <stop offset="1" style="stop-opacity:1; stop-color:#6E4D44"/>
  </linearGradient>
  <radialGradient id="id1" gradientUnits="userSpaceOnUse" gradientTransform="matrix(-1.23246 0.607688 -0.458029 -0.846712 41 24)" cx="14.84" cy="17.97" r="41.62" fx="14.84" fy="17.97">
   <stop offset="0" style="stop-opacity:1; stop-color:#FBE5CB"/>
   <stop offset="0.270588" style="stop-opacity:1; stop-color:#FBE5CB"/>
   <stop offset="0.360784" style="stop-opacity:1; stop-color:#EFD7BE"/>
   <stop offset="0.541176" style="stop-opacity:1; stop-color:#CFB09B"/>
   <stop offset="0.780392" style="stop-opacity:1; stop-color:#9C7464"/>
   <stop offset="0.870588" style="stop-opacity:1; stop-color:#875B4E"/>
   <stop offset="1" style="stop-opacity:1; stop-color:#875B4E"/>
  </radialGradient>
  <radialGradient id="id2" gradientUnits="userSpaceOnUse" gradientTransform="matrix(-0.41498 1.069 -1.18967 -0.440245 76 12)" cx="28.73" cy="29.64" r="82.4" fx="28.73" fy="29.64">
   <stop offset="0" style="stop-opacity:1; stop-color:#B68D76"/>
   <stop offset="0.258824" style="stop-opacity:1; stop-color:#B68D76"/>
   <stop offset="0.411765" style="stop-opacity:1; stop-color:#A87F6A"/>
   <stop offset="0.678431" style="stop-opacity:1; stop-color:#875B4E"/>
   <stop offset="1" style="stop-opacity:1; stop-color:#875B4E"/>
  </radialGradient>
 </defs>
 <g id="Layer_x0020_1">
  <metadata id="CorelCorpID_0Corel-Layer"/>
  <rect class="fil0" width="54.05" height="54.05"/>
  <g id="_1049219712">
   <path class="fil1" d="M32.37 28.15c0,0 1.33,-1.08 1.4,-1.39 0.06,-0.31 -0.57,-1.33 -0.24,-3.38 0.34,-2.05 2.43,-4.15 3.38,-3.48 0.96,0.67 0.86,1.1 0.86,1.1l0.95 -0.1 0.72 0.53 0.19 1.04 1.14 0.53 1.14 1.38 -0.81 2.93 -3.61 1.49 -5.1 1.84 -0.02 -2.49 0 0z"/>
   <path class="fil2" d="M35.53 20.17c0,0 1.02,-0.39 1.52,0.21 0.36,0.43 0.09,1 -0.19,1.4 -0.28,0.41 -0.66,0.92 -0.93,1.38 -0.26,0.46 -0.55,1.1 -0.41,1.24 0.23,0.23 0.76,-0.43 1.08,-0.88 0.54,-0.79 1.01,-1.38 1.21,-1.62 0.28,-0.33 0.72,-0.57 1.21,-0.16 0.53,0.43 -0.04,1.23 -0.21,1.42 -0.16,0.19 -0.85,1.03 -1.09,1.36 -0.24,0.33 -0.53,0.83 -0.36,1 0.14,0.14 0.62,-0.28 0.88,-0.55 0.26,-0.26 0.9,-0.96 1.07,-1.14 0.39,-0.38 0.78,-0.8 1.38,-0.31 0.52,0.43 -1.45,3.38 -1.45,3.38l1.35 -0.83c0,0 1.69,-2.52 0.57,-3.46 -0.66,-0.55 -1.4,-0.02 -1.4,-0.02 0,0 0.53,-0.9 -0.26,-1.59 -0.71,-0.63 -1.5,-0.22 -1.5,-0.22 0,0 0.03,-0.66 -0.64,-1.02 -0.67,-0.35 -1.64,0.22 -1.83,0.41l0 0z"/>
   <path class="fil3" d="M21.13 19l-10.24 5.19c0,0 0.38,3.82 1.47,6.48 1.58,3.81 4.76,7.93 10.29,10 4.33,1.62 8.84,2.12 12.92,0.66 3.05,-1.09 4.31,-2.47 6.19,-4.26 1.85,-1.75 3.83,-5.45 3.83,-5.45 0,0 2.15,-3.6 1.62,-8.48 -0.51,-4.81 -3.87,-9.02 -7.54,-9.87 -3.19,-0.75 -3.22,0.09 -1.88,1.83 1.28,1.67 2.66,3.09 3.24,4.85 0.57,1.77 1.14,5.34 -2.15,6.81 -3.29,1.48 -7.05,1.29 -9.71,-0.47 -2.67,-1.77 -4.52,-3.86 -5.38,-5.15 -0.86,-1.28 -1.33,-2.81 -1.33,-2.81l-1.33 0.67 0 0z"/>
   <path class="fil4" d="M23.27 37.91c-0.14,0 -0.28,-0.07 -0.36,-0.2l-0.69 -1.24c-0.12,-0.2 -0.04,-0.44 0.15,-0.55 0.2,-0.11 0.44,-0.04 0.55,0.15l0.7 1.24c0.11,0.2 0.04,0.44 -0.16,0.55 -0.05,0.04 -0.12,0.05 -0.19,0.05z"/>
   <path class="fil4" d="M26.51 39.26c-0.16,0 -0.31,-0.09 -0.37,-0.25l-0.55 -1.26c-0.02,-0.05 -0.03,-0.1 -0.03,-0.16 0,-0.22 0.19,-0.4 0.41,-0.4 0.16,0 0.31,0.09 0.37,0.24l0.54 1.27c0.09,0.2 -0.01,0.44 -0.21,0.53 -0.06,0.02 -0.11,0.03 -0.16,0.03z"/>
   <path class="fil4" d="M28.52 37.04c-0.12,0 -0.24,-0.06 -0.32,-0.16l-0.7 -0.94c-0.14,-0.18 -0.1,-0.43 0.08,-0.57 0.18,-0.13 0.43,-0.1 0.57,0.08l0.7 0.94c0.05,0.07 0.08,0.16 0.08,0.24 0,0.23 -0.18,0.41 -0.41,0.41 0,0 0,0 0,0l0 0z"/>
   <path class="fil4" d="M31.81 39.7c-0.15,0 -0.28,-0.07 -0.36,-0.2l-0.57 -1.02c-0.11,-0.19 -0.04,-0.44 0.16,-0.55 0.19,-0.11 0.44,-0.04 0.55,0.16l0.57 1.01c0.03,0.06 0.05,0.13 0.05,0.2 0,0.22 -0.18,0.4 -0.4,0.4l0 0z"/>
   <path class="fil5" d="M9.25 23.81c0.97,1.2 3.41,3.18 9.49,-0.43 5.57,-3.31 4.16,-6.81 3.58,-7.93 -0.54,-1.05 -1.19,-1.46 -1.19,-1.46 0,0 0.58,-1.26 -0.5,-1.89 -1.23,-0.73 -1.87,0.43 -1.87,0.43 0,0 -2.6,-1.14 -5.99,0.37 -4.35,1.94 -4.54,5.31 -4.54,5.31 0,0 -1.3,-0.03 -1.46,1.46 -0.19,1.77 1.59,2.03 1.59,2.03 0,0 0.09,1.12 0.89,2.11l0 0z"/>
   <path class="fil6" d="M20.32 25.57c0.78,-0.5 0.83,-1.8 0.85,-2.64 0.03,-0.83 -0.31,-1.44 -0.93,-1.36 -0.73,0.1 -0.71,0.91 -0.71,0.91 0,0 -0.48,-0.98 -1.28,-0.62 -0.85,0.37 -0.36,1.5 -0.36,1.5 0,0 -1.01,-0.74 -1.38,0.31 -0.19,0.53 0.43,1.45 1.35,1.97 0.93,0.53 2.46,-0.07 2.46,-0.07l0 0z"/>
   <path class="fil7" d="M18.52 22.43c-0.18,0.08 -0.21,0.48 0.09,1.07 0.28,0.53 0.61,0.64 0.79,0.53 0.18,-0.12 0.01,-0.59 -0.17,-0.93 -0.12,-0.23 -0.39,-0.82 -0.71,-0.67l0 0z"/>
   <path class="fil7" d="M19.91 22.92c0.01,0.27 0.04,0.81 0.37,0.82 0.34,0.01 0.3,-0.67 0.3,-0.83 0,-0.17 -0.01,-0.66 -0.31,-0.68 -0.3,-0.03 -0.37,0.35 -0.36,0.69z"/>
   <path class="fil7" d="M17.24 24.22c0.3,0.32 0.59,0.69 0.85,0.5 0.26,-0.19 -0.18,-0.67 -0.31,-0.85 -0.13,-0.18 -0.45,-0.5 -0.66,-0.36 -0.2,0.14 -0.07,0.48 0.12,0.71l0 0z"/>
   <path class="fil8" d="M22.89 22.67c0,0 1.27,-2.37 4.09,-0.41 3,2.09 0.67,4.5 -0.9,4.48 -1.57,-0.03 -2.69,0.14 -3.57,-0.15 -0.88,-0.28 -1.69,-1.14 -1.69,-1.14l-0.83 0.57c0,0 0.16,1.62 -0.41,2.31 -0.57,0.69 0.59,3.91 -0.29,4.76 -0.88,0.86 -2.35,1.45 -3.28,1.03 -0.93,-0.43 -1.93,-1.98 -2.12,-3.36 -0.19,-1.38 0.48,-4.59 1.79,-4.69 1.31,-0.09 1.47,0.03 1.47,0.03 0,0 0.43,-1.53 1.58,-1.38 1.14,0.14 1.62,0.66 1.62,0.66l0.31 -0.26c0,0 -0.41,-0.64 0.43,-1.4 0.83,-0.76 1.78,-0.12 1.78,-0.12 0,0 0.02,-0.72 0.02,-0.93l0 0z"/>
   <path class="fil9" d="M14.24 30.13c0.14,0.3 0.46,-0.02 0.43,-0.96 -0.03,-0.93 0.17,-1.88 0.85,-2.44 0.69,-0.56 1.4,-0.1 1.4,-0.1 0,0 -0.14,0.43 0.02,0.97 0.16,0.54 0.47,0.73 0.39,0.14 -0.08,-0.59 0,-2.95 1.51,-2.71 1.51,0.24 1.19,2.18 0.57,3.03 -0.43,0.59 -1.14,0.49 -1.14,0.59 0,0.09 0.57,1.89 0.64,2.81 0.06,0.92 -0.02,2.14 -1.04,2.29 -1.01,0.14 -2.38,-0.32 -2.3,0 0.08,0.31 1.97,1.49 3.56,0.63 1.68,-0.91 1.21,-3.17 1.14,-3.6 -0.06,-0.43 -0.39,-1.54 -0.41,-1.76 0,-0.03 0.67,-0.61 0.82,-1.37 0.23,-1.05 0.03,-1.55 0.03,-1.55 0,0 0.62,0.77 1.51,1.03 0.89,0.25 1.95,-0.02 1.95,-0.02 0,0 1.83,0.59 3.13,-0.28 1.3,-0.88 1.33,-1.95 1.25,-2.21 -0.2,-0.7 -0.33,0.08 -0.52,0.41 -0.28,0.49 -0.97,1.15 -2.09,1.32 -1.13,0.18 -1.61,-0.24 -1.78,-0.22 -0.18,0.01 -1.11,0.52 -2.1,-0.16 -1.24,-0.86 -0.91,-1.99 -0.28,-2.16 0.52,-0.14 1.45,0.16 1.83,0.7 0.34,0.5 0.63,1.3 0.74,1.12 0.11,-0.17 0.02,-0.95 -0.36,-1.46 -0.38,-0.51 -0.81,-0.66 -0.83,-0.87 -0.03,-0.4 0.13,-0.75 0.4,-1.05 0.27,-0.3 0.94,-0.48 0.68,-0.67 -0.25,-0.18 -1.11,-0.06 -1.49,0.53 -0.38,0.59 -0.19,1.06 -0.19,1.06 0,0 -1.16,-0.49 -1.94,0.41 -0.61,0.72 -0.36,1.53 -0.36,1.53 0,0 -0.62,-0.97 -1.7,-0.77 -1.08,0.21 -1.46,1.35 -1.46,1.35 0,0 -1.02,-0.43 -1.94,0.19 -0.92,0.62 -1.22,1.95 -1.19,2.67 0.03,0.72 0.13,1.27 0.27,1.58l0 0z"/>
   <path class="fil10" d="M11.72 18.32c-0.83,0.15 -0.81,0.9 -0.8,1.17 0.02,0.26 0.28,0.72 0.92,0.68 0.69,-0.05 0.92,-0.71 0.87,-1.12 -0.05,-0.42 -0.51,-0.81 -0.99,-0.73l0 0z"/>
   <path class="fil10" d="M17.6 15.56c-0.41,0.34 -0.37,0.98 0.05,1.35 0.4,0.35 1.12,0.35 1.42,-0.18 0.28,-0.52 0.09,-0.94 -0.23,-1.2 -0.32,-0.26 -0.94,-0.22 -1.24,0.03l0 0z"/>
   <path class="fil10" d="M14.87 16.56c-0.79,0.38 -0.54,1.16 -0.61,1.76 -0.07,0.67 -0.51,0.81 -0.51,1.38 0,0.47 0.71,0.33 1.38,0.36 0.56,0.03 1.08,0.62 0.75,1.05 -0.21,0.28 -0.59,0.19 -0.8,-0.01 -0.21,-0.21 -0.39,-0.21 -0.49,-0.05 -0.09,0.16 0.16,0.98 1.13,0.9 0.87,-0.07 1.08,-1.05 1.08,-1.05 0,0 0.79,0.33 1.37,-0.06 0.65,-0.43 0.49,-1.27 0.23,-1.52 -0.26,-0.24 -0.47,-0.08 -0.48,0.02 -0.02,0.21 0.12,0.27 0.15,0.45 0.02,0.18 -0.05,0.44 -0.26,0.56 -0.19,0.1 -0.46,-0.04 -0.56,-0.21 -0.11,-0.16 -0.12,-0.49 -0.1,-0.66 0.07,-0.53 1.3,-1.25 1,-1.75 -0.27,-0.46 -0.58,0.08 -1.46,-0.5 -0.36,-0.24 -0.84,-1.14 -1.82,-0.67l0 0z"/>
   <path class="fil11" d="M12.2 25.26c-0.01,0 -0.03,0 -0.05,0 -0.12,-0.02 -0.21,-0.12 -0.21,-0.24 0,-0.02 0.01,-0.04 0.01,-0.05 0,-0.01 0.15,-0.86 0.3,-1.76 0.14,-0.92 0.33,-1.63 0.33,-1.66 0.03,-0.11 0.13,-0.18 0.25,-0.18 0.14,0 0.25,0.11 0.25,0.25 0,0.02 0,0.04 -0.01,0.07 0,0 -0.18,0.71 -0.32,1.6 -0.15,0.91 -0.3,1.76 -0.3,1.77 -0.02,0.12 -0.13,0.2 -0.25,0.2 0,0 0,0 0,0l0 0z"/>
   <path class="fil11" d="M13.74 25.49c0,0 -0.01,0.37 -0.29,0.34 -0.29,-0.02 -0.22,-0.37 -0.22,-0.37 0,0 0.08,-1.19 0.12,-1.84 0.04,-0.66 0.12,-1.72 0.12,-1.72 0,0 0.02,-0.29 0.27,-0.27 0.26,0.02 0.23,0.3 0.23,0.3 0,0 -0.08,1.06 -0.11,1.71 -0.04,0.66 -0.12,1.85 -0.12,1.85z"/>
   <path class="fil11" d="M14.63 25.09c-0.14,0 -0.25,-0.11 -0.26,-0.25 0,0 -0.03,-0.84 -0.05,-1.14 -0.03,-0.31 -0.03,-1.56 -0.03,-1.62 0,-0.14 0.12,-0.25 0.26,-0.25 0.13,0 0.25,0.11 0.25,0.25 0,0.45 0,1.35 0.02,1.58 0.03,0.3 0.06,1.13 0.06,1.16 0.01,0.14 -0.1,0.26 -0.24,0.26 -0.01,0.01 -0.01,0.01 -0.01,0.01l0 0z"/>
   <path class="fil11" d="M21.73 20.74c-0.04,0 -0.08,-0.01 -0.12,-0.03 -0.01,0 -0.81,-0.45 -1.35,-0.72 -0.53,-0.27 -1.32,-0.55 -1.33,-0.55 -0.1,-0.04 -0.17,-0.13 -0.17,-0.24 0,-0.03 0.01,-0.06 0.02,-0.08 0.04,-0.14 0.19,-0.2 0.32,-0.16 0.04,0.01 0.83,0.29 1.39,0.57 0.55,0.28 1.33,0.72 1.36,0.73 0.13,0.07 0.17,0.23 0.1,0.35 -0.04,0.09 -0.13,0.13 -0.22,0.13l0 0z"/>
   <path class="fil11" d="M22.23 19.71c-0.04,0 -0.08,-0.01 -0.12,-0.03 -0.01,-0.01 -0.79,-0.44 -1.41,-0.68 -0.61,-0.24 -1.52,-0.38 -1.53,-0.38 -0.12,-0.02 -0.21,-0.12 -0.21,-0.25 0,-0.01 0,-0.02 0,-0.04 0.02,-0.13 0.15,-0.23 0.29,-0.21 0.04,0.01 0.97,0.15 1.63,0.41 0.65,0.25 1.44,0.68 1.47,0.7 0.13,0.07 0.17,0.22 0.1,0.35 -0.04,0.08 -0.13,0.13 -0.22,0.13l0 0z"/>
   <path class="fil11" d="M22.1 18.09c-0.01,0 -0.02,0 -0.03,-0.01 -0.01,0 -0.87,-0.13 -1.4,-0.18 -0.51,-0.06 -1.41,-0.03 -1.42,-0.03 -0.14,0.01 -0.26,-0.1 -0.27,-0.24 0,-0.14 0.11,-0.26 0.25,-0.27 0.03,0 0.95,-0.03 1.5,0.03 0.53,0.06 1.38,0.18 1.41,0.19 0.14,0.02 0.23,0.15 0.21,0.29 -0.01,0.12 -0.12,0.22 -0.25,0.22z"/>
   <path class="fil12" d="M33.34 38.5c-0.05,-1.07 0.14,-2.12 0.28,-2.64 0.38,-1.4 0.72,-2.24 1.48,-2.69 2.01,-1.2 3.36,-1.05 4.09,-1.57 0.83,-0.6 2.49,-3.2 3.69,-2.73 0.85,0.34 0.81,1.8 0.81,1.8 0,0 1.31,0.02 1.52,0.8 0.22,0.79 -0.28,1.6 -0.28,1.6 0,0 1,0.49 1.08,1.17 0.08,0.69 -0.23,1.44 -1.84,1.96 -1.62,0.53 -3.72,0.56 -3.72,0.56 0,0 -0.47,2.82 -3.73,3.67 -2.12,0.54 -3.31,-0.31 -3.38,-1.93l0 0z"/>
   <path class="fil2" d="M33.44 37.33c-0.14,0.06 -0.79,-3.07 1.22,-4.46 1.63,-1.13 3.29,-0.87 4.21,-1.6 0.92,-0.73 3.12,-3.88 4.7,-2.54 0.85,0.73 0.41,1.62 0.41,1.62 0,0 1,-0.22 1.58,0.77 0.59,1.01 -0.25,1.91 -0.25,1.91 0,0 1,0.33 1.02,1.11 0.01,0.78 -0.31,1.57 -1.18,1.97 -1.01,0.46 -2.52,0.85 -3.38,0.9 -0.86,0.05 -1.84,-0.21 -1.11,-0.32 0.73,-0.11 3.43,-0.97 4.02,-1.14 1,-0.3 0.98,-1.05 0.71,-1.33 -0.39,-0.42 -0.76,-0.32 -1.94,0.03 -0.99,0.29 -2.22,0.87 -2.27,0.5 -0.05,-0.36 1.13,-0.76 1.92,-1.2 0.8,-0.45 2.11,-0.92 1.76,-1.73 -0.34,-0.81 -1.1,-0.65 -1.96,-0.13 -0.86,0.52 -2.31,1.62 -2.38,1.19 -0.04,-0.19 1.39,-1.35 1.8,-1.63 0.42,-0.29 1.27,-0.91 0.69,-1.59 -0.59,-0.68 -1.38,0.1 -1.97,0.64 -0.59,0.54 -1.3,1.57 -2.09,1.9 -1.2,0.5 -2.9,0.66 -3.7,1.27 -1.71,1.31 -1.53,3.74 -1.81,3.86l0 0z"/>
  </g>
 </g>
</svg>
