<?xml version="1.0" encoding="UTF-8"?>
<!DOCTYPE svg PUBLIC "-//W3C//DTD SVG 1.1//EN" "http://www.w3.org/Graphics/SVG/1.1/DTD/svg11.dtd">
<!-- Creator: CorelDRAW Home & Student 2019 -->
<svg xmlns="http://www.w3.org/2000/svg" xml:space="preserve" width="400px" height="400px" version="1.1" style="shape-rendering:geometricPrecision; text-rendering:geometricPrecision; image-rendering:optimizeQuality; fill-rule:evenodd; clip-rule:evenodd"
viewBox="0 0 400 400"
 xmlns:xlink="http://www.w3.org/1999/xlink">
 <defs>
  <style type="text/css">
   <![CDATA[
    .fil0 {fill:#BBC274}
    .fil6 {fill:#0C090C}
    .fil8 {fill:#2C2F33}
    .fil1 {fill:#51362F}
    .fil4 {fill:#865B52}
    .fil3 {fill:#B48958}
    .fil7 {fill:#BE9079}
    .fil2 {fill:#F6C519}
    .fil5 {fill:#F7C515}
   ]]>
  </style>
 </defs>
 <g id="Layer_x0020_1">
  <metadata id="CorelCorpID_0Corel-Layer"/>
  <rect class="fil0" width="400" height="400"/>
  <g id="_1059859496">
   <path class="fil1" d="M144.84 232.87l-14.26 5.77c0,0 8.96,39.12 7.7,51.5 -1.25,12.38 -2.83,22.1 -6,26.34 -3.16,4.24 -3.36,7.43 -2.83,8.66 0.52,1.23 5.29,5.12 17.67,4.6 12.38,-0.53 13.09,-6 14.14,-8.84 1.05,-2.84 -2.31,-20.31 -1.41,-31.11 0.88,-10.77 3.37,-17.15 3.54,-23.5 0.18,-6.36 0.88,-15.37 0.88,-15.37l-19.43 -18.05 0 0z"/>
   <path class="fil1" d="M206.88 241.35l-0.35 21.04c0,0 9.37,-1.93 19.26,-0.7 9.89,1.23 21.74,8.31 22.62,8.31 0.88,0 7.08,-5.65 7.08,-5.65 0,0 3.72,19.09 3.9,25.29 0.17,6.17 0,14.66 -1.59,19.08 -1.58,4.42 -4.54,10.02 -3.18,11.85 1.33,1.76 12.9,3.19 17.57,1.94 8.64,-2.29 10.7,-4.5 10.95,-8.57 0.22,-3.54 -0.8,-15.99 -1.16,-21.29 -0.35,-5.3 -2.31,-18.03 -2.11,-22.1 0.18,-4.06 3.9,-23.67 3.9,-23.67l-4.77 -27.92 -72.12 22.39 0 0z"/>
   <path class="fil1" d="M328.49 237.11c0,0 -2.31,9.54 0.35,20.31 2.11,8.54 8.84,13.96 11.67,18.73 2.84,4.77 6,13.61 7.96,13.44 2.29,-0.2 2.11,-21.75 -1.23,-32.52 -3.34,-10.77 -13.96,-21.74 -13.96,-21.74l-4.79 1.78z"/>
   <path class="fil2" d="M60.37 74.33l9.72 26.34 22.27 9.54 9.72 -10.78c0,0 -13.36,-6.35 -18.21,-10.77 -6,-5.47 -8.84,-10.94 -8.13,-13.78 0.7,-2.84 3.66,-2.46 3.54,-4.95 -0.18,-3.19 -6.53,-4.42 -6.53,-4.42l-12.38 8.82 0 0z"/>
   <path class="fil3" d="M81.04 119.92c0,0 -13.34,-11.29 -19.44,-19.08 -6.25,-7.98 -8.13,-15.37 -7.61,-21.74 0.53,-6.38 4.8,-13.59 13.96,-14.32 6.53,-0.52 10.6,2.84 10.35,3.54 -0.3,0.78 -9.29,1.06 -9.82,7.79 -0.5,6.2 2.11,12.38 9.37,18.73 7.25,6.35 22.09,12.73 22.09,12.73l-18.9 12.35 0 0z"/>
   <path class="fil4" d="M108.78 91.12c-10.14,1.18 -9.72,9.19 -15.19,12.03 -5.47,2.84 -9.37,3.89 -13.08,8.14 -3.72,4.24 -2.84,7.78 -6,10.77 -3.17,2.99 -14.49,13.78 -15.37,16.8 -0.88,3.01 13.78,35.53 16.62,38.72 2.84,3.18 15.02,3.89 15.02,3.89 0,0 6.9,10.07 13.43,12.38 6.53,2.31 11.68,1.93 11.68,1.93 0,0 -1.23,11.85 2.48,22.97 3.72,11.13 9.9,22.98 21.92,31.29 12.03,8.31 33.93,11.85 33.93,11.85 0,0 6.35,18.38 6.17,26.52 -0.17,8.13 -1.4,16.34 -1.93,20.86 -0.3,2.64 -5.48,17.86 -4.24,20.52 1.23,2.66 7.68,8.48 15.46,8.84 7.79,0.35 16.35,-6.99 16.7,-9.65 0.35,-2.66 -4.07,-24.3 -4.24,-31.01 -0.18,-6.7 4.57,-29.42 5.65,-33.74 1.05,-4.25 3.01,-10.07 3.01,-10.07 0,0 15.92,1.4 30.41,-2.31 14.48,-3.72 24.2,-9.89 24.2,-9.89 0,0 -2.31,-13.61 2.11,-13.79 4.42,-0.18 4.09,9.67 6.53,19.08 2.91,11.23 9.01,22.1 12.55,30.59 3.54,8.48 6.71,20.51 6.18,27.21 -0.53,6.71 -8.84,18.38 -7.26,22.1 1.59,3.72 7.79,4.24 12.91,4.07 5.12,-0.18 13.16,-1.58 14.66,-3.89 1.61,-2.46 0.53,-21.22 1.41,-25.64 0.88,-4.42 5.4,-20.31 5.22,-26.34 -0.17,-6.03 -12.8,-6.18 -11.75,-27.04 1.18,-23.15 9.02,-41.53 9.02,-41.53 0,0 2.05,11.75 4.41,19.43 1.94,6.35 7.97,17.5 11.68,15.72 3.72,-1.76 -0.98,-5.12 -3.71,-21.39 -1.99,-11.83 -5.48,-42.24 -6.18,-48.26 -0.71,-6.03 -2.34,-11.68 -3.72,-13.79 -4.22,-6.48 -10.24,-9.54 -15.01,-13.26 -4.77,-3.71 -11.2,-7.98 -15.37,-8.66 -9.69,-1.58 -27.39,0.88 -40.65,0.35 -13.28,-0.55 -30.61,-1.96 -38.02,-3.74 -7.4,-1.78 -9.89,-3.54 -9.89,-3.54 0,0 -30.06,-19.61 -36.94,-23.68 -6.9,-4.06 -16.79,-8.84 -24.02,-7.96 -7.24,0.88 -18.59,-8.28 -30.79,-6.88l0 0z"/>
   <path class="fil1" d="M172.41 256.19c0,0 -2.84,-8.84 -0.71,-17.32 1.91,-7.66 9.42,-13.81 3.55,-15.19 -4.5,-1.06 -9.5,4.21 -10.95,12.9 -1.96,11.5 8.11,19.61 8.11,19.61l0 0z"/>
   <path class="fil1" d="M132.11 175.97c1.91,2.33 18.03,-0.88 23.15,-7.26 5.12,-6.35 2.66,-24.2 1.93,-27.92 -0.7,-3.72 -1.93,-9.72 -1.93,-9.72 0,0 10.07,-4.42 10.24,-6.52 0.18,-2.11 -5.82,-18.74 -21.22,-19.09 -15.36,-0.35 -29.87,-5.82 -30.23,0.88 -0.35,6.7 4.6,13.43 14.67,13.08 10.07,-0.35 11.3,-7.43 16.8,-6.9 5.49,0.52 13.6,7.43 12.55,8.48 -1.06,1.06 -24.03,-1.4 -23.68,3.55 0.35,4.94 10.95,5.82 11.68,6.9 0.7,1.05 6.7,22.27 3.36,29.53 -3.36,7.2 -18.9,13.03 -17.32,14.99l0 0z"/>
   <path class="fil5" d="M86.86 72.22c0,0 21.74,3.19 27.39,10.95 5.65,7.75 9.9,23.57 18.03,23.14 10,-0.52 11.4,-0.97 11.05,-11.22 -0.35,-10.24 -8.39,-23.78 -19.01,-29.78 -10.62,-6 -24.35,-3.94 -30.4,-1.76 -6.33,2.29 -10.4,7.61 -7.06,8.67z"/>
   <path class="fil3" d="M85.45 70.99c-0.85,1.88 9.67,5.4 13.26,7.6 8.31,5.13 13.61,11.13 14.67,19.26 1.05,8.14 2.33,10.32 6.7,12.91 6,3.54 15.37,1.18 18.38,-1.33 5.82,-4.87 4.47,-7.18 4.87,-9.29 0.18,-0.98 -5.65,5.05 -10.34,3.71 -4.25,-1.2 -6.36,-4.06 -7.08,-6.27 -1.06,-3.27 -3.55,-13.89 -9.72,-19.71 -6.18,-5.83 -28.43,-12.03 -30.74,-6.88l0 0z"/>
   <path class="fil6" d="M110.21 125.77c1.86,4.32 0.88,9.9 -4.87,10.43 -3.59,0.32 -6.73,-2.49 -7.86,-6.94 -1.1,-4.44 0.83,-8.76 4.32,-9.64 3.52,-0.88 6.6,1.94 8.41,6.15l0 0z"/>
   <path class="fil7" d="M72.02 152.64c0,0 2.69,-20.51 -10.17,-16.8 -5.47,1.59 -11.92,12.46 -11.85,16 0.15,6.43 2.84,17.4 10.95,22.17 3.41,2.01 8.03,3.01 9.29,3.54 1.23,0.53 5.57,2.31 7.33,1.15 2.86,-1.85 3.54,-6.72 2.56,-14.06 -1.2,-9.36 -8.11,-12 -8.11,-12l0 0z"/>
   <path class="fil8" d="M53.82 152.89c1.85,-2.61 3.36,-7.5 6.98,-5.82 3.61,1.68 1.05,7.73 -1.23,10.17 -2.56,2.73 -7.06,4.39 -7.96,2.11 -0.81,-2.04 0.27,-3.72 2.21,-6.46l0 0z"/>
   <path class="fil8" d="M53.74 163.51c-1.4,1.46 1.33,5.13 6.46,6.98 5.12,1.86 13.73,0.78 13.15,-2.83 -0.45,-2.84 -4.59,-1.76 -9.01,-2.04 -5.83,-0.35 -8.14,-4.69 -10.6,-2.11l0 0z"/>
  </g>
 </g>
</svg>
