<?xml version="1.0" encoding="UTF-8"?>
<!DOCTYPE svg PUBLIC "-//W3C//DTD SVG 1.1//EN" "http://www.w3.org/Graphics/SVG/1.1/DTD/svg11.dtd">
<!-- Creator: CorelDRAW Home & Student 2019 -->
<svg xmlns="http://www.w3.org/2000/svg" xml:space="preserve" width="400px" height="400px" version="1.1" style="shape-rendering:geometricPrecision; text-rendering:geometricPrecision; image-rendering:optimizeQuality; fill-rule:evenodd; clip-rule:evenodd"
viewBox="0 0 54.05 54.05"
 xmlns:xlink="http://www.w3.org/1999/xlink">
 <defs>
  <style type="text/css">
   <![CDATA[
    .fil0 {fill:#96A7B1}
    .fil10 {fill:#01AB46}
    .fil9 {fill:#312F2A}
    .fil6 {fill:#A02A1B}
    .fil11 {fill:#B7D019}
    .fil7 {fill:#EC80AF}
    .fil8 {fill:#FBD3B3}
    .fil1 {fill:#FEBA02}
    .fil4 {fill:#FF2B23}
    .fil5 {fill:#FF600D}
    .fil3 {fill:#FFD51D}
    .fil2 {fill:url(#id0)}
   ]]>
  </style>
  <linearGradient id="id0" gradientUnits="userSpaceOnUse" x1="20.64" y1="37.9" x2="27.06" y2="16.46">
   <stop offset="0" style="stop-opacity:1; stop-color:#79DA88"/>
   <stop offset="0.141176" style="stop-opacity:1; stop-color:#79DA88"/>
   <stop offset="0.309804" style="stop-opacity:1; stop-color:#57CD75"/>
   <stop offset="0.639216" style="stop-opacity:1; stop-color:#19B553"/>
   <stop offset="0.788235" style="stop-opacity:1; stop-color:#01AB46"/>
   <stop offset="1" style="stop-opacity:1; stop-color:#01AB46"/>
  </linearGradient>
 </defs>
 <g id="Layer_x0020_1">
  <metadata id="CorelCorpID_0Corel-Layer"/>
  <rect class="fil0" width="54.05" height="54.05"/>
  <g id="_1059868400">
   <path class="fil1" d="M18.56 37.76c0,0 0.82,3.41 0.69,3.88 -0.13,0.48 -2.48,0.86 -3.85,1.56 -0.9,0.47 -2.35,1.49 -1.47,2.33 0.48,0.45 1.82,-0.69 5.83,-0.92 4.08,-0.24 4.8,0.09 4.59,-0.77 -0.21,-0.86 -1.29,-0.95 -2.2,-1.33 -0.3,-0.13 -0.65,-0.33 -0.8,-0.55 -0.14,-0.2 0.07,-3.72 0.07,-3.72l-2.86 -0.48z"/>
   <path class="fil1" d="M26.07 40.15c0,0 0.09,3.44 0.09,3.66 0,0.32 -0.78,0.71 -1.95,0.97 -1.17,0.26 -3.49,0.7 -3.52,2.18 -0.02,0.91 4.45,-0.32 7,-0.28 2.56,0.03 4.2,0.37 4.08,-0.7 -0.1,-0.86 -1.43,-1.25 -2.14,-1.41 -0.72,-0.15 -1.04,-0.5 -1.06,-0.93 -0.02,-0.28 0.04,-3.42 0.04,-3.42l-2.54 -0.07 0 0z"/>
   <path class="fil2" d="M19.19 8.08l3.08 -0.2c0,0 1.71,0.55 3.33,2.9 2.16,3.14 1.87,8.86 1.87,8.86l5.93 15.8 0.71 5.22c0,0 -5.3,0.83 -10.49,0.16 -6.11,-0.8 -12.41,-6.34 -12.32,-14.62 0.1,-8.28 6.66,-16.27 6.66,-16.27l1.23 -1.85 0 0z"/>
   <path class="fil3" d="M12.16 11.11c0,0 -2.36,0.73 -3.03,3.38 -0.67,2.64 0.45,5.1 0.94,5.26 0.19,0.07 0.78,-1.13 0.78,-1.13 0,0 0.83,0.96 1.24,1.18 0.42,0.23 0.62,0.39 0.99,0.37 0.71,-0.05 1.77,-2.14 1.74,-3.54l0.36 -6.86 -3.02 1.34z"/>
   <path class="fil4" d="M15.11 14.9c0,0 2.87,-0.48 4.02,-1.47 1.15,-0.99 2.48,-1.88 2.93,-3.66 0.27,-1.09 0.28,-1.85 0.28,-1.85 0,0 -4.01,-2.32 -7.64,-0.41 -3.63,1.91 -2.77,4.51 -2.77,4.51l3.18 2.88z"/>
   <path class="fil5" d="M14.99 15.28c0,0 -2.32,1.37 -2.58,1.56 -0.25,0.19 -1.08,0.6 -1.46,0.92 -0.61,0.51 -1.15,1.66 -0.93,1.95 0.23,0.28 0.55,-0.61 1.43,-1.15 0.89,-0.54 2.42,-1.4 2.84,-1.62 0.41,-0.23 0.54,-0.35 0.54,-0.35l0.16 -1.31 0 0z"/>
   <path class="fil6" d="M15.78 14.68c0.16,-0.33 0.23,-1.1 -0.85,-2.46 -1.27,-1.59 -3.06,-1.65 -3.06,-1.65l-0.19 0.63 1.98 1.98 1.09 2.36c0,0 0.7,-0.17 1.03,-0.86l0 0z"/>
   <path class="fil7" d="M10.37 12.29c0,0 1.47,0.09 2.49,0.98 0.6,0.53 1.51,1.67 1.74,2.18 0.22,0.51 0.98,-0.91 0.38,-1.86 -0.6,-0.96 -1.33,-1.92 -2.66,-2.39 -0.97,-0.33 -1.88,0.48 -1.95,1.09z"/>
   <path class="fil8" d="M21.77 14.17c0,0 -1.18,-3 -3.6,-2.87 -2.44,0.13 -2.82,1.94 -2.71,3.03 0.13,1.25 0.96,1.94 2.87,1.88 1.91,-0.07 3.44,-2.04 3.44,-2.04z"/>
   <path class="fil9" d="M19.99 13.78c0,0.78 -0.84,1.47 -1.61,1.47 -0.76,0 -1.38,-0.63 -1.38,-1.4 0,-0.78 0.44,-1.63 1.52,-1.69 1.15,-0.07 1.47,0.85 1.47,1.62z"/>
   <path class="fil10" d="M34.29 32.76c0,0 0.76,1.72 3.69,3.63 2.49,1.62 3.7,2.61 5.42,3.22 1.72,0.6 1.78,0.76 1.72,1.08 -0.07,0.32 -2.74,2.39 -5.67,2.13 -2.93,-0.25 -4.33,-1.4 -5.22,-2 -0.9,-0.6 -2.58,-4.87 -2.58,-4.87l2.64 -3.19 0 0z"/>
   <path class="fil11" d="M27.49 19.56c0,0 -4.06,1.2 -5.84,3.9 -1.5,2.27 -1.36,6.12 0.16,8.98 1.87,3.54 5.76,6.05 7.83,7.01 2.07,0.96 4.9,1.43 6.14,1.31 1.24,-0.13 -1.11,-8.7 -3.37,-13.28 -2.21,-4.48 -4.92,-7.92 -4.92,-7.92l0 0z"/>
  </g>
 </g>
</svg>
