<?xml version="1.0" encoding="UTF-8"?>
<!DOCTYPE svg PUBLIC "-//W3C//DTD SVG 1.1//EN" "http://www.w3.org/Graphics/SVG/1.1/DTD/svg11.dtd">
<!-- Creator: CorelDRAW Home & Student 2019 -->
<svg xmlns="http://www.w3.org/2000/svg" xml:space="preserve" width="400px" height="400px" version="1.1" style="shape-rendering:geometricPrecision; text-rendering:geometricPrecision; image-rendering:optimizeQuality; fill-rule:evenodd; clip-rule:evenodd"
viewBox="0 0 75.47 75.47"
 xmlns:xlink="http://www.w3.org/1999/xlink">
 <defs>
  <style type="text/css">
   <![CDATA[
    .fil0 {fill:#A2D9F7}
    .fil4 {fill:#000409}
    .fil2 {fill:#4D4D4D}
    .fil1 {fill:#ADADB7}
    .fil3 {fill:url(#id0)}
   ]]>
  </style>
  <linearGradient id="id0" gradientUnits="userSpaceOnUse" x1="33.59" y1="56.8" x2="40.28" y2="23.61">
   <stop offset="0" style="stop-opacity:1; stop-color:white"/>
   <stop offset="0.360784" style="stop-opacity:1; stop-color:white"/>
   <stop offset="0.411765" style="stop-opacity:1; stop-color:#FFFAEF"/>
   <stop offset="0.509804" style="stop-opacity:1; stop-color:#FFEDC7"/>
   <stop offset="0.65098" style="stop-opacity:1; stop-color:#FFD985"/>
   <stop offset="0.788235" style="stop-opacity:1; stop-color:#FFC139"/>
   <stop offset="0.819608" style="stop-opacity:1; stop-color:#FFB92E"/>
   <stop offset="0.94902" style="stop-opacity:1; stop-color:#FF9700"/>
   <stop offset="1" style="stop-opacity:1; stop-color:#FF9700"/>
  </linearGradient>
 </defs>
 <g id="Layer_x0020_1">
  <metadata id="CorelCorpID_0Corel-Layer"/>
  <rect class="fil0" width="75.47" height="75.47"/>
  <g id="_1055201552">
   <path class="fil1" d="M40.72 61.27c0,0 -3.24,2.24 -3.54,2.63 -0.31,0.39 -0.44,0.85 0.15,1.02 0.59,0.18 1.53,-0.06 1.53,-0.06 0,0 -0.47,0.69 0.64,0.95 0.74,0.17 2.18,-0.58 2.18,-0.58 0,0 -0.24,0.66 0.75,0.8 1.42,0.2 3.88,-2.86 4.38,-3.81 0.51,-0.96 0.27,-1.77 0.27,-1.77l-6.36 0.82z"/>
   <path class="fil1" d="M32.2 59.26c0,0 -3.97,2.38 -4.29,2.51 -0.32,0.14 -1.56,0.83 -1.09,1.59 0.36,0.59 1.77,0.14 1.77,0.14 0,0 -0.31,0.66 0.5,1.04 0.81,0.38 2.5,-0.54 2.5,-0.54 0,0 -0.19,0.82 0.91,0.95 1.41,0.16 4.54,-4.14 4.54,-4.14l-4.84 -1.55 0 0z"/>
   <path class="fil2" d="M48.08 25.26c0,0 0.55,-8.52 -3.61,-12.48 -4.16,-3.95 -9.27,-3.5 -10.84,-3.08 -1.57,0.4 -4.3,1.39 -6.23,4.17 -2.54,3.68 -1.5,7.14 -2.68,9.36 -0.93,1.76 -3.5,6.8 -3.91,10.41 -0.4,3.61 -0.68,10.45 -0.48,12.88 0.2,2.38 0.3,4.48 1.57,6.41 0.76,1.15 2.28,1.18 2.8,0.54 0.3,-0.37 0.2,-0.92 0.2,-0.92 0,0 2.07,3.09 2.91,4.13 1.37,1.68 4.2,4.39 8.82,5.18 6.09,1.05 16.08,-2.18 16.08,-2.18 0,0 0.86,0.58 2.22,0.65 0.69,0.03 1.5,-0.65 1.4,-1.33 -0.1,-0.68 -0.89,-1.64 -1.06,-2.01 -0.17,-0.37 0.36,-10.8 -1.28,-17.89 -1.64,-7.09 -4.68,-12.89 -5.91,-13.84l0 0z"/>
   <path class="fil3" d="M26.2 25.26c0,0 -2.95,3.07 -3.22,7.29 -0.23,3.55 -0.25,10.02 1.79,15.81 2.05,5.8 5.94,10.59 11.59,11.72 6.12,1.23 12.9,-0.93 13.11,-0.99 0.2,-0.07 -1.22,-1.59 -2.23,-3.09 -0.76,-1.15 -1.74,-3.68 -1.74,-3.68 0,0 0.06,1.95 -1.19,2.11 -0.96,0.12 -2.32,-0.82 -3.35,-3.07 -1.02,-2.25 -2.41,-8.36 -2.79,-13.39 -0.34,-4.5 0.12,-7.4 0.58,-8.66 0.28,-0.76 0.83,-1.28 0.83,-1.28 0,0 1.55,1.88 4.01,1.25 2.36,-0.62 2.95,-3.21 2.55,-5.32 -0.49,-2.52 -1.51,-5.25 -4.93,-4.5 -3.9,0.85 -2.54,5.88 -2.54,5.88 0,0 -2.78,2.27 -6.66,1.86 -3.9,-0.41 -5.81,-1.94 -5.81,-1.94l0 0z"/>
   <path class="fil1" d="M29.75 15.47c0,0 -0.47,-1.76 -1.66,-1.98 -2.3,-0.43 -5.48,1.07 -6.77,1.87 -1.05,0.64 -2.48,2.04 -2.05,2.72 0.44,0.68 2.8,0.03 4.82,0.36 1.4,0.24 3.34,0.82 4.16,0.8 0.65,-0.02 1.5,-1.14 1.61,-1.66 0.11,-0.53 0.11,-1.45 -0.11,-2.11l0 0z"/>
   <path class="fil2" d="M29.86 15.65c0,0 -1.93,0.84 -6,1.11 -1.72,0.12 -4.63,0.95 -4.63,0.95 0,0 -0.3,0.3 0.18,0.55 0.48,0.25 2.91,-0.44 4.41,-0.52 2.43,-0.14 6.88,-0.46 6.88,-0.46l-0.84 -1.63 0 0z"/>
   <path class="fil4" d="M37.81 17.33c0.05,1.04 -0.97,1.93 -1.88,1.78 -1.14,-0.19 -1.7,-1.29 -1.58,-2.37 0.12,-1.08 1.11,-1.66 2.02,-1.55 0.92,0.09 1.4,1.05 1.44,2.14z"/>
  </g>
 </g>
</svg>
