<?xml version="1.0" encoding="UTF-8"?>
<!DOCTYPE svg PUBLIC "-//W3C//DTD SVG 1.1//EN" "http://www.w3.org/Graphics/SVG/1.1/DTD/svg11.dtd">
<!-- Creator: CorelDRAW Home & Student 2019 -->
<svg xmlns="http://www.w3.org/2000/svg" xml:space="preserve" width="400px" height="400px" version="1.1" style="shape-rendering:geometricPrecision; text-rendering:geometricPrecision; image-rendering:optimizeQuality; fill-rule:evenodd; clip-rule:evenodd"
viewBox="0 0 42.11 42.11"
 xmlns:xlink="http://www.w3.org/1999/xlink">
 <defs>
  <style type="text/css">
   <![CDATA[
    .fil0 {fill:#BBC274}
    .fil7 {fill:#2F3030}
    .fil3 {fill:#8E9395}
    .fil2 {fill:#A8A8A8}
    .fil4 {fill:#DFDFDF}
    .fil1 {fill:#ECF0F2}
    .fil5 {fill:#FFB0B1}
    .fil6 {fill:white}
   ]]>
  </style>
 </defs>
 <g id="Layer_x0020_1">
  <metadata id="CorelCorpID_0Corel-Layer"/>
  <rect class="fil0" width="42.11" height="42.11"/>
  <g id="_998859672">
   <path class="fil1" d="M28.45 25.66c0,0 1.37,-1.37 2.81,-0.97 1.45,0.41 2.38,1.15 2.49,2.67 0.11,1.52 -0.26,2.66 -1.41,3.41 -1.48,0.96 -3.26,0.33 -3.26,0.33l-0.63 -5.44z"/>
   <path class="fil2" d="M19.59 15.51c0,0 1.08,-2.34 1,-5.49 -0.07,-3.15 -0.78,-4.82 -2.36,-4.76 -1.72,0.07 -2.26,2.86 -2.23,5.17 0.04,2.81 1.06,4.94 1.06,4.94l2.53 0.14 0 0z"/>
   <path class="fil2" d="M16.04 24.75l-2.65 0.22c0,0 0.09,0.28 0.07,0.52 -0.03,0.25 -0.09,0.87 -0.09,0.87l3.33 2.61 6.35 -3.53 -1.7 -1.16 -5.31 0.47 0 0z"/>
   <path class="fil3" d="M8.87 21.39c-0.14,0 -0.26,-0.12 -0.26,-0.27 0,-0.13 0.1,-0.24 0.23,-0.26 0.03,0 0.71,-0.1 1.46,-0.12 0.82,-0.03 1.04,-0.04 1.76,0.1 0.14,0.03 0.24,0.17 0.21,0.31 -0.03,0.14 -0.17,0.23 -0.31,0.21 -0.65,-0.13 -0.84,-0.13 -1.64,-0.1 -0.72,0.02 -1.4,0.12 -1.41,0.12 -0.01,0 -0.02,0.01 -0.04,0.01l0 0z"/>
   <path class="fil3" d="M8.6 23.21c-0.12,0 -0.22,-0.08 -0.25,-0.2 -0.04,-0.14 0.05,-0.28 0.19,-0.31 0.04,-0.02 0.93,-0.23 1.48,-0.33 0.54,-0.1 1.52,-0.22 1.57,-0.22 0.01,0 0.02,0 0.03,0 0.13,0 0.25,0.1 0.26,0.23 0,0.01 0,0.02 0,0.03 0,0.13 -0.1,0.24 -0.23,0.26 -0.01,0 -1.01,0.12 -1.54,0.22 -0.53,0.1 -1.43,0.32 -1.44,0.32 -0.03,0 -0.05,0 -0.07,0l0 0z"/>
   <path class="fil2" d="M25.05 27.12l-9.31 5.86c0,0 -1.93,2.17 -1.49,2.63 0.22,0.24 1.12,0.46 1.91,0.29 1.12,-0.25 2.1,-2.64 2.1,-2.64 0,0 -0.5,3.39 0.27,3.54 0.77,0.14 1.88,-0.04 2.37,-0.95 0.5,-0.92 0.67,-2.03 1.11,-2.5 0.45,-0.47 0.84,-0.81 0.84,-0.81 0,0 0.25,0.29 0.4,0.49 0.14,0.2 0.42,0.47 0.42,0.47 0,0 -1.16,0.71 -1.56,1.28 -0.41,0.59 -0.32,1.27 0.27,1.51 0.87,0.35 4.6,-1.16 4.6,-1.16l-0.74 -8.27 -1.19 0.26 0 0z"/>
   <path class="fil4" d="M23.62 21.54c0,0 0.12,-0.89 -0.05,-1.7 -0.17,-0.82 -0.67,-1.76 -0.67,-1.76 0,0 1.83,-0.69 3.14,-1.87 1.45,-1.32 3.61,-3.78 3.8,-5.81 0.2,-2.02 -1.01,-3.85 -4.2,-1.92 -3.18,1.92 -5.5,6.69 -5.5,6.69 0,0 -2.52,-1.06 -4.57,0.05 -2.05,1.11 -3.14,3.98 -3.24,4.18 -0.1,0.19 -1.37,0.77 -1.53,2.51 -0.16,1.73 0.81,2.71 2.25,3.09 1,0.27 1.92,0.05 1.92,0.05 0,0 0.77,0.86 2.75,0.84 1.97,-0.02 3.6,-1.06 3.6,-1.06 0,0 -0.37,1.41 -2.15,2.17 -1.33,0.57 -2.96,0.5 -4.15,-0.02 -1.19,-0.52 -1.6,-1.11 -1.6,-1.11 0,0 -0.43,1.92 0,3.08 0.42,1.16 1.23,2.77 1.18,3.98 -0.05,1.21 -0.83,2.1 -0.44,2.59 0.21,0.28 1.09,0.51 1.77,-0.22 1.17,-1.23 1.12,-2.63 1.54,-2.69 0.86,-0.12 0.44,2.39 0.42,2.91 -0.03,0.52 -0.1,1.18 0.47,1.26 1.21,0.19 1.4,-0.27 1.92,-1.48 0.52,-1.21 0.46,-1.84 0.99,-2.57 0.43,-0.59 1.16,-0.98 1.16,-0.98 0,0 -0.14,-1.65 0.41,-2.51 0.54,-0.87 1.62,-1.55 2.41,-1.25 0.79,0.3 -0.95,0.51 -1.52,1.74 -0.42,0.91 -0.34,1.84 0.26,2.48 0.59,0.65 1.31,1.19 1.31,1.19 0,0 -2.84,1.02 -3.09,2.06 -0.19,0.76 0.12,1.1 1.85,0.93 1.73,-0.17 3.93,-0.77 4.79,-1.85 0.87,-1.09 1.97,-4.65 1.05,-7.25 -0.74,-2.1 -1.27,-3.03 -3.17,-4.39 -1.9,-1.36 -3.11,-1.36 -3.11,-1.36l0 0z"/>
   <path class="fil5" d="M22.14 15.86c-0.47,-0.48 0.34,-2.17 2.17,-4.12 1.83,-1.95 3.09,-2.57 3.71,-2.12 0.62,0.44 -0.27,2.34 -2.03,4.2 -1.45,1.53 -3.09,2.83 -3.85,2.04l0 0z"/>
   <path class="fil6" d="M16.3 15.76c0.68,0.15 0.09,1.15 -0.49,2.11 -0.57,0.97 -1,1.47 -0.87,1.93 0.13,0.46 1.13,1.35 1.08,2.41 -0.06,1.05 -0.95,2.26 -2.61,2.13 -1.67,-0.13 -2.34,-1.41 -2.06,-2.8 0.22,-1.1 1.35,-1.61 1.65,-2.15 0.29,-0.54 0.78,-1.44 1.29,-2.19 0.73,-1.05 1.32,-1.58 2.01,-1.44l0 0z"/>
   <ellipse class="fil7" transform="matrix(0.0125073 -0.127399 0.127399 0.0125073 18.6947 19.7732)" rx="9.77" ry="7.15"/>
   <path class="fil7" d="M12.86 20.94c0,0 0.83,-0.68 1.15,-0.35 0.32,0.34 -0.98,1.14 -0.98,1.14 0,0 -0.12,0.6 0.25,0.67 0.37,0.06 0.42,-0.73 0.83,-0.52 0.41,0.21 0.03,1.26 -0.68,1.27 -0.43,0.01 -0.68,-0.31 -0.68,-0.31 0,0 -0.11,0.23 -0.49,0.2 -0.63,-0.06 -0.93,-1.34 -0.46,-1.32 0.37,0.01 0.14,0.6 0.49,0.6 0.4,0 0.24,-0.7 0.24,-0.7 0,0 -0.87,-0.9 -0.49,-1.22 0.39,-0.33 0.82,0.54 0.82,0.54l0 0z"/>
   <path class="fil3" d="M18.63 22.52c-0.03,0 -0.06,0 -0.09,-0.01 -0.01,-0.01 -0.96,-0.36 -1.56,-0.49l-1.43 -0.31c-0.14,-0.03 -0.23,-0.17 -0.2,-0.31 0.02,-0.14 0.17,-0.23 0.31,-0.2l1.43 0.31c0.64,0.14 1.59,0.49 1.63,0.5 0.14,0.05 0.2,0.2 0.15,0.34 -0.03,0.1 -0.13,0.17 -0.24,0.17 0,0 0,0 0,0l0 0z"/>
   <path class="fil3" d="M18.33 24.28c-0.05,0 -0.09,-0.02 -0.14,-0.04 -0.01,-0.01 -0.82,-0.51 -1.57,-0.92 -0.46,-0.25 -0.95,-0.49 -1.44,-0.69 -0.1,-0.04 -0.16,-0.14 -0.16,-0.24 0,-0.15 0.12,-0.27 0.26,-0.27 0.03,0 0.07,0.01 0.1,0.02 0.03,0.01 0.73,0.3 1.5,0.72 0.76,0.42 1.58,0.93 1.59,0.94 0.12,0.07 0.16,0.24 0.08,0.36 -0.04,0.07 -0.13,0.12 -0.22,0.12l0 0z"/>
  </g>
 </g>
</svg>
