<?xml version="1.0" encoding="UTF-8"?>
<!DOCTYPE svg PUBLIC "-//W3C//DTD SVG 1.1//EN" "http://www.w3.org/Graphics/SVG/1.1/DTD/svg11.dtd">
<!-- Creator: CorelDRAW Home & Student 2019 -->
<svg xmlns="http://www.w3.org/2000/svg" xml:space="preserve" width="400px" height="400px" version="1.1" style="shape-rendering:geometricPrecision; text-rendering:geometricPrecision; image-rendering:optimizeQuality; fill-rule:evenodd; clip-rule:evenodd"
viewBox="0 0 125 125"
 xmlns:xlink="http://www.w3.org/1999/xlink">
 <defs>
  <style type="text/css">
   <![CDATA[
    .fil0 {fill:#BBC274}
    .fil11 {fill:#2F2F2F}
    .fil7 {fill:#5D6164}
    .fil4 {fill:#5D6167}
    .fil6 {fill:#5D6268}
    .fil8 {fill:#5F6467}
    .fil3 {fill:#6F4B41}
    .fil1 {fill:#929394}
    .fil5 {fill:#979899}
    .fil9 {fill:#98999A}
    .fil12 {fill:#B68859}
    .fil2 {fill:#B88658}
    .fil10 {fill:#DEDEDE}
   ]]>
  </style>
 </defs>
 <g id="Layer_x0020_1">
  <metadata id="CorelCorpID_0Corel-Layer"/>
  <rect class="fil0" width="125" height="125"/>
  <g id="_1057295192">
   <path class="fil1" d="M97.48 47.2c1.02,-0.28 3.48,3.73 5.59,5.41 1.93,1.55 3.16,2.48 4.19,2.66 0.65,0.11 2.99,0.72 1.77,3.03 -1.22,2.32 -4.47,2.38 -6.07,2.33 -1.61,-0.06 -9.12,-7.79 -9.12,-7.79 0,0 0.11,-4.64 3.64,-5.64z"/>
   <path class="fil2" d="M42.19 21.84c0,0 -3.33,-1.91 -9.78,-1 -4.94,0.71 -10.5,3.43 -13.87,9.89 -3.87,7.4 -3.61,14.61 -0.83,19.67 3.28,5.99 9.23,9.56 9.23,9.56l15.25 -38.12z"/>
   <path class="fil3" d="M29.04 32.62c0,0 -2.1,0 -3.92,2.43 -1.47,1.95 -2.1,3.53 -2.1,3.53 0,0 -4.57,0.74 -4.69,3.42 -0.08,1.66 1.93,1.11 3.47,2.66 1.55,1.54 1.93,2.59 2.33,4.36 0.38,1.77 2.59,2.09 2.59,2.09 0,0 0.06,-4.47 -2.37,-6.9 -2.44,-2.43 -4.15,-1.82 -4.04,-2.43 0.11,-0.61 1.93,-1.86 3.93,-1.83 3.09,0.06 4.36,3.65 4.36,3.65l2.04 -9.05 -1.6 -1.93 0 0z"/>
   <path class="fil4" d="M72.29 93.68c0,0 -0.04,1.98 0.11,2.85 0.07,0.43 1.63,1.68 4.68,1.75 3.02,0.07 4.77,-1.56 4.75,-2.43 -0.02,-0.74 0.22,-3.9 0.22,-3.9l-0.92 -3.2 -7.35 2.09 -0.57 1.1 -0.92 1.74 0 0z"/>
   <path class="fil5" d="M75.11 93.83c0,0 1.23,0.3 3.52,0.07 2.21,-0.22 3.39,-1.18 3.39,-1.18l0.83 -5.58 -10.5 1.11 1.44 5.36 1.32 0.22 0 0z"/>
   <path class="fil6" d="M87.06 93.16c0,0 0.16,4.19 0.41,4.68 0.26,0.51 1.47,1.72 4.46,1.84 3.76,0.15 4.68,-1.26 4.79,-2.21 0.11,-0.96 0.66,-4.11 0.22,-5.27 -0.44,-1.16 -7.92,-0.41 -7.92,-0.41l-1.96 1.37 0 0z"/>
   <path class="fil5" d="M97.8 80.93l-10.75 1.29c0,0 -0.22,10.27 0,10.94 0.22,0.66 1.71,1.62 5.08,1.71 3.6,0.09 4.92,-0.94 4.92,-0.94l1.13 -12.78 -0.38 -0.22 0 0z"/>
   <path class="fil7" d="M52.98 99.05c0,0 0.15,4.42 0.59,4.98 0.43,0.55 1.34,2.28 5.04,2.17 3.71,-0.11 4.95,-2.27 5.06,-2.81 0.11,-0.55 0.13,-3.67 0.13,-3.67l-10.3 -2.08 -0.52 1.41 0 0z"/>
   <path class="fil5" d="M63.95 92.22l-11.38 0.95c0,0 0.24,5.37 0.41,6.37 0.14,0.86 1.64,2.13 5.56,2.02 3.93,-0.11 5.31,-1.87 5.31,-1.87l0.1 -7.47 0 0z"/>
   <path class="fil8" d="M36.35 97.22c0,0 2.13,-2.23 5.17,-2.34 3.04,-0.11 5.06,3.73 5.06,3.73 0,0 0.09,2.08 0.09,2.73 0,0.99 -2.31,2.57 -4.91,2.54 -3.99,-0.06 -4.53,-1.62 -4.72,-2.39 -0.1,-0.47 -0.69,-4.27 -0.69,-4.27l0 0z"/>
   <path class="fil9" d="M37.26 88.9l-2.26 0.76 1.38 7.81c0,0 1.65,2.32 5.36,2.32 3.7,0 4.86,-1.11 4.86,-1.11l-0.33 -6.57 -9.01 -3.21 0 0z"/>
   <path class="fil10" d="M59.15 24.66c0,0 -1.89,-5.58 -9.62,-5.86 -9.17,-0.33 -11.05,6.96 -11.05,6.96 0,0 -4.53,-2.43 -8.73,1.99 -4.2,4.42 -0.88,9.17 -0.88,9.17 0,0 -2.47,1.77 -2.1,4.97 0.33,2.88 1.99,3.76 1.99,3.76 0,0 -6.16,3.24 -6.96,10.61 -0.89,8.17 2.76,11.05 2.76,11.05 0,0 -3.2,5.19 0.33,12.48 3.37,6.96 8.18,7.29 8.18,7.29 0,0 2.54,5.75 7.18,6.86 4.64,1.1 8.5,-0.22 8.5,-0.22 0,0 4.2,3.76 8.73,3.2 4.53,-0.55 5.97,-2.76 5.97,-2.76 0,0 2.76,2.65 8.28,1.43 5.53,-1.21 6.53,-4.31 6.53,-4.31 0,0 5.08,2.88 10.27,0.11 5.2,-2.76 5.64,-7.62 5.64,-7.62 0,0 5.63,-0.88 8.61,-6.63 2.99,-5.74 0.22,-9.5 0.22,-9.5 0,0 1.44,-2.99 -0.11,-9.06 -1.54,-6.08 -6.18,-6.74 -6.18,-6.74 0,0 3.42,-6.19 -1.22,-10.83 -4.64,-4.64 -11.49,-3.76 -11.49,-3.76l-17.67 -6.19c0,0 2.26,-3.21 -1.55,-5.74 -2.98,-1.99 -5.63,-0.66 -5.63,-0.66l0 0z"/>
   <path class="fil5" d="M29.49 45.94c0,0 1.85,0.22 3.91,-1.39 2.06,-1.62 3.17,-3.76 3.17,-3.76 0,0 1.88,3.94 6.18,4.71 5.38,0.96 9.14,-4.05 9.14,-4.05 0,0 -0.59,2.88 2.43,5.23 3.02,2.36 6.63,1.4 6.63,1.4 0,0 -4.42,4.57 -5.81,8.4 -1.4,3.83 -2.14,10.31 -5.75,13.48 -5.1,4.47 -20.48,3.83 -21.58,-6.77 -0.47,-4.51 1.91,-4.57 2.21,-10.61 0.2,-4.35 -0.53,-6.64 -0.53,-6.64l0 0z"/>
   <path class="fil11" d="M37.34 60.68c0.23,0.03 1.77,-0.81 2.07,-0.96 0.3,-0.14 1.65,-1.02 2.24,-0.18 0.59,0.85 0.17,1.64 -1.1,2.25 -0.92,0.44 -1.96,0.94 -1.96,0.94 0,0 -0.52,3.23 1.69,3.45 1.38,0.15 1.69,-0.78 2.67,0.15 1,0.91 -0.32,2.45 -2.44,2.35 -1.2,-0.06 -1.92,-0.34 -2.58,-0.96 -0.33,-0.3 -0.8,-1.34 -0.8,-1.34 0,0 -0.52,1.67 -2.73,1.82 -2.04,0.14 -3.13,-1.66 -2.28,-2.46 0.84,-0.81 0.88,0.24 2.17,0.2 1.85,-0.05 1.6,-3.4 1.6,-3.4 0,0 -1.27,-1.44 -1.64,-1.81 -0.37,-0.37 -0.98,-1.11 -0.52,-1.77 0.61,-0.86 1.34,-0.32 1.71,-0.06 0.37,0.24 1.67,1.75 1.9,1.78l0 0z"/>
   <path class="fil3" d="M62.72 46.98l-0.96 -10.31 16.79 -3.32 4.72 9.51 -3.02 14.28 -0.96 4.27 -4.79 5.38c0,0 -3.39,1.97 -7.87,0.66 -4.79,-1.4 -6.86,-4.35 -7.88,-9.21 -1.56,-7.3 3.97,-11.26 3.97,-11.26l0 0z"/>
   <path class="fil12" d="M59.62 38.73c0,4.72 2.29,8.55 3.1,8.25 0.81,-0.3 3.8,-1.11 4.71,-4.94 0.44,-1.82 2.69,-3.68 5.15,-3.96 2.51,-0.29 5.26,1.05 6.56,5.74 1.18,4.23 -0.14,8.25 -2.43,9.94 -2.29,1.69 -5.41,1.32 -6.18,-0.96 -1.18,-3.46 3.68,-4.64 3.76,-5.81 0.07,-1.18 -5.97,-3.76 -10.1,0.3 -4.6,4.52 -5.01,11.19 -1.39,15.83 3.61,4.64 9.4,5.39 15.17,2.36 5.89,-3.09 10.83,-9.37 10.46,-21.44 -0.44,-14.14 -11.49,-21.48 -19.96,-19.59 -3.13,0.7 -5.25,2.23 -6.59,4.49 -1.34,2.24 -2.26,6.18 -2.26,9.79l0 0z"/>
   <ellipse class="fil11" cx="49.68" cy="49.21" rx="2.57" ry="3.11"/>
   <ellipse class="fil11" cx="34.65" cy="47.62" rx="2.36" ry="2.8"/>
  </g>
 </g>
</svg>
