<?xml version="1.0" encoding="UTF-8"?>
<!DOCTYPE svg PUBLIC "-//W3C//DTD SVG 1.1//EN" "http://www.w3.org/Graphics/SVG/1.1/DTD/svg11.dtd">
<!-- Creator: CorelDRAW Home & Student 2019 -->
<svg xmlns="http://www.w3.org/2000/svg" xml:space="preserve" width="400px" height="400px" version="1.1" style="shape-rendering:geometricPrecision; text-rendering:geometricPrecision; image-rendering:optimizeQuality; fill-rule:evenodd; clip-rule:evenodd"
viewBox="0 0 42.11 42.11"
 xmlns:xlink="http://www.w3.org/1999/xlink">
 <defs>
  <style type="text/css">
   <![CDATA[
    .fil0 {fill:#FFF383}
    .fil3 {fill:#352A2D}
    .fil1 {fill:#40727B}
    .fil4 {fill:#45494F}
    .fil2 {fill:#6DA3AF}
    .fil7 {fill:#A6CDD1}
    .fil6 {fill:url(#id0)}
    .fil5 {fill:url(#id1)}
   ]]>
  </style>
  <radialGradient id="id0" gradientUnits="userSpaceOnUse" gradientTransform="matrix(1.86775 -0 -0 1.96453 -4 -13)" cx="4.28" cy="13.01" r="37.36" fx="4.28" fy="13.01">
   <stop offset="0" style="stop-opacity:1; stop-color:#6DA3AF"/>
   <stop offset="0.560784" style="stop-opacity:1; stop-color:#6DA3AF"/>
   <stop offset="0.65098" style="stop-opacity:1; stop-color:#699EAA"/>
   <stop offset="0.768627" style="stop-opacity:1; stop-color:#5D919C"/>
   <stop offset="0.890196" style="stop-opacity:1; stop-color:#487B85"/>
   <stop offset="0.929412" style="stop-opacity:1; stop-color:#40727B"/>
   <stop offset="1" style="stop-opacity:1; stop-color:#40727B"/>
  </radialGradient>
  <radialGradient id="id1" gradientUnits="userSpaceOnUse" gradientTransform="matrix(1.82294 -0 -0 1.8114 -7 -12)" cx="8.68" cy="14.58" r="18.97" fx="8.68" fy="14.58">
   <stop offset="0" style="stop-opacity:1; stop-color:#6DA3AF"/>
   <stop offset="0.439216" style="stop-opacity:1; stop-color:#6DA3AF"/>
   <stop offset="0.6" style="stop-opacity:1; stop-color:#659AA6"/>
   <stop offset="0.85098" style="stop-opacity:1; stop-color:#50838D"/>
   <stop offset="1" style="stop-opacity:1; stop-color:#40727B"/>
  </radialGradient>
 </defs>
 <g id="Layer_x0020_1">
  <metadata id="CorelCorpID_0Corel-Layer"/>
  <rect class="fil0" width="42.11" height="42.11"/>
  <g id="_1047792728">
   <path class="fil1" d="M13.23 22.19l-1.54 4.01c0,0 0.07,0.3 0.74,0.22 0.68,-0.07 1.54,-0.71 1.54,-0.71 0,0 0.82,-0.03 1.22,-0.1 0.82,-0.16 1.43,-0.37 1.43,-0.37 0,0 -0.04,0.56 0.11,0.93 0.14,0.37 0.77,1.07 0.77,1.99 0,0.92 -0.91,2.52 -0.66,3.07 0.25,0.54 0.8,1.39 2.02,1.32 1.21,-0.08 2.8,-0.67 2.8,-0.67 0,0 0.25,-2.8 0.15,-3.6 -0.1,-0.79 -0.84,-1.76 -0.97,-2.11 -0.12,-0.34 -0.12,-1.91 -0.12,-1.91l0.87 0.35c0,0 5.03,0.72 5.55,0.72 0.52,0 1.22,0.05 1.22,0.05 0,0 0.22,0.64 0.22,1.24 0,0.59 -0.22,1.16 -0.55,1.44 -0.32,0.27 -0.61,1.07 -0.39,1.41 0.21,0.33 0.82,0.82 2.33,0.82 1.51,0 2.7,-0.52 2.7,-0.52l-0.44 -2.28c0,0 -0.5,-0.45 -0.58,-0.85 -0.07,-0.39 0.63,-2.55 0.63,-2.55l4.11 -5.73 -0.1 -1.31 -15.05 -1.91 -8.01 7.05 0 0z"/>
   <path class="fil2" d="M20.25 11.32c0,0 0.52,-2.16 -0.38,-2.38 -0.89,-0.22 -1.45,0.86 -1.66,1.61 -0.15,0.57 -0.1,1.27 -0.1,1.27 0,0 -0.54,-0.26 -1.11,-0.25 -0.52,0.02 -1.07,0.25 -1.07,0.25 0,0 -0.03,-1.14 -0.4,-1.81 -0.37,-0.67 -1.02,-1.24 -1.54,-1.09 -0.52,0.15 -0.69,1.25 -0.44,2.01 0.3,0.91 1.11,1.51 1.11,1.51 0,0 -0.99,1.07 -1.24,1.46 -0.25,0.4 -1.96,3.03 -1.96,3.03 0,0 -1.26,2.01 -1.78,2.43 -0.52,0.42 -2.43,2.51 -2.63,3.2 -0.2,0.7 -0.35,1.71 -0.15,2.41 0.14,0.49 0.45,1.09 0.94,1.34 0.5,0.24 0.72,0.05 1.02,0.17 0.3,0.12 0.82,0.47 1.52,0.5 0.69,0.02 1.34,-0.4 1.43,-0.54 0.08,-0.14 0.2,-0.5 0.38,-0.69 0.18,-0.18 1.05,-1 1.17,-1.12 0.12,-0.12 0.36,-0.21 0.48,-0.07 0.15,0.18 -0.28,0.55 -0.41,0.65 -0.13,0.1 -1.04,0.75 -0.91,0.77 0.13,0.01 1.1,-0.4 1.3,-0.68 0.08,-0.11 0.85,0 1.82,-0.23 0.97,-0.23 2.28,-0.98 2.58,-1.35 0.31,-0.36 1.08,-1.23 1.36,-1.73 0.28,-0.51 0.75,-1.31 0.9,-2.1 0.16,-0.79 0.22,-1.26 0.25,-1.37 0.03,-0.12 0.07,-0.3 0.27,-0.27 0.19,0.04 0.22,0.14 0.19,0.38 -0.02,0.25 -0.13,0.9 -0.21,1.31 -0.09,0.43 -0.17,0.8 -0.44,1.36 -0.27,0.55 -0.54,0.9 -0.54,0.9 0,0 0.62,0.03 1.36,-0.48 0.75,-0.5 1.1,-0.92 1.37,-1.35 0.27,-0.44 0.53,-1.13 0.57,-1.33 0.03,-0.19 0.1,-0.3 0.27,-0.28 0.16,0.01 0.19,0.28 0.14,0.46 -0.06,0.19 -0.32,0.97 -0.6,1.43 -0.28,0.45 -0.98,1.2 -1.52,1.52 -0.55,0.33 -0.93,0.43 -1.16,0.48 -0.23,0.05 -0.67,0.11 -0.67,0.11 0,0 -0.81,0.75 -0.74,1.14 0.06,0.39 0.49,0.56 1.05,0.6 0.56,0.03 1.24,0.08 1.54,0.24 0.31,0.16 0.57,0.37 0.58,0.86 0.01,0.48 0.04,0.82 -0.15,1.48 -0.18,0.65 -0.38,1.15 -0.47,1.55 -0.1,0.4 -0.1,0.64 -0.1,0.64 0,0 -0.46,0.34 -0.81,1.22 -0.36,0.88 -0.43,1.65 -0.33,1.8 0.1,0.15 0.68,0.82 2.33,0.88 1.64,0.05 2.4,-0.11 2.83,-0.25 0.4,-0.14 0.58,-0.5 0.63,-0.62 0.18,-0.38 -0.01,-1.2 -0.01,-1.58 0,-0.38 0.03,-0.94 0.06,-1.08 0.03,-0.14 0.64,-0.75 0.87,-1.33 0.43,-1.07 0.04,-3.17 0.11,-3.3 0.08,-0.13 1.52,0.21 2.52,-0.4 1.01,-0.6 2.01,-2.23 2.5,-3.16 0.48,-0.93 1.04,-1.91 1.5,-2.56 0.45,-0.64 1.23,-1.53 1.69,-1.53 0.45,0 0.91,0.27 0.79,0.51 -0.12,0.24 -0.62,-0.11 -0.99,0.09 -0.36,0.21 -1.01,0.93 -1.29,1.44 -0.28,0.5 -0.94,1.63 -1.09,1.94 -0.15,0.31 -0.67,1.47 -0.67,1.47 0,0 -0.12,0.89 0.09,1.75 0.06,0.24 0.17,0.69 0.12,1.32 -0.05,0.63 -0.42,1.64 -0.62,2.06 -0.21,0.43 -0.45,1.17 -0.39,1.81 0.05,0.64 0.3,1 0.89,1.27 0.59,0.26 2.45,0.3 3.09,0.22 0.58,-0.08 1.09,-0.27 1.32,-0.65 0.29,-0.5 0.26,-1.3 0.18,-1.6 -0.15,-0.61 -0.34,-0.61 -0.37,-1.01 -0.03,-0.39 0.17,-3.77 0.18,-4.75 0.01,-0.98 0.25,-2.95 0.24,-4.7 -0.01,-1.75 -0.5,-4.36 -1.73,-5.95 -0.68,-0.87 -1.74,-1.43 -2.54,-2.01 -0.74,-0.53 -1.15,-0.89 -1.77,-0.91 -0.61,-0.02 -1.99,0.36 -2.92,0.95 -0.93,0.6 -1.51,0.78 -1.86,0.8 -0.35,0.02 -1.8,-1 -2.83,-1.11 -1.02,-0.13 -2.94,1.02 -2.94,1.02l0 0z"/>
   <path class="fil1" d="M24.41 22.67c-1.58,-0.04 -2.36,0.71 -2.69,1.05 -0.32,0.35 -0.27,0.51 -0.14,0.64 0.12,0.12 0.28,-0.04 0.49,-0.2 0.21,-0.16 1.09,-0.96 2.33,-0.85 1.24,0.12 2.02,0.69 2.3,0.88 0.27,0.2 0.59,0.63 0.79,0.41 0.2,-0.21 0.01,-0.44 -0.3,-0.75 -0.31,-0.31 -1.54,-1.15 -2.78,-1.18l0 0z"/>
   <ellipse class="fil3" transform="matrix(0.0351185 -0.123645 0.123645 0.0351185 15.6844 19.9866)" rx="8.51" ry="6.78"/>
   <path class="fil4" d="M10.86 25.23c0.29,-0.02 0.46,-0.87 0.78,-1.03 0.32,-0.16 0.35,0.06 0.52,-0.14 0.08,-0.09 0.19,-1 -0.68,-1.02 -0.87,-0.01 -1.04,1.11 -1.02,1.37 0.03,0.34 0.09,0.83 0.4,0.82l0 0z"/>
   <path class="fil5" d="M9.84 14.44c-0.12,-0.04 -0.56,0.9 -0.52,2.2 0.04,1.44 0.5,2.59 0.87,2.66 0.37,0.06 0.95,-0.07 1.46,-0.46 0.51,-0.4 0.86,-1.03 0.86,-1.24 0,-0.22 -0.93,-0.56 -1.43,-1.23 -0.58,-0.78 -1.05,-1.87 -1.24,-1.93l0 0z"/>
   <path class="fil6" d="M6.19 13.01c-0.36,-0.04 -0.99,2.03 -0.92,3.71 0.07,1.73 0.49,3.15 0.74,3.9 0.16,0.49 0.83,1.94 1.08,1.98 0.42,0.06 1.25,-0.02 1.99,-0.74 0.87,-0.85 0.71,-2.14 0.44,-2.36 -0.48,-0.4 -1.25,-0.93 -1.73,-1.94 -0.49,-1 -0.96,-2.77 -1.09,-3.31 -0.13,-0.48 -0.28,-1.22 -0.51,-1.24z"/>
   <path class="fil7" d="M24.1 31.59c-0.9,-0.02 -1.06,0.85 -1.14,0.85 -0.07,0 -0.08,-0.85 -0.91,-0.97 -0.83,-0.11 -1.29,1.19 -1.29,1.19 0,0 0.32,0.42 2.02,0.53 1.59,0.1 2.42,-0.2 2.42,-0.2 0,0 0.07,-1.39 -1.1,-1.4l0 0z"/>
   <path class="fil7" d="M36.23 30.94c0,0 -0.2,-1.3 -1.09,-1.35 -0.89,-0.05 -1.07,0.67 -1.12,0.66 -0.05,-0.01 0.04,-1.02 -1.09,-1.04 -0.83,-0.02 -1.45,1.2 -1.45,1.2 0,0 0.31,0.52 0.85,0.71 0.64,0.23 1.21,0.23 2.07,0.24 1.19,0.01 1.83,-0.42 1.83,-0.42l0 0z"/>
  </g>
 </g>
</svg>
