<?xml version="1.0" encoding="UTF-8"?>
<!DOCTYPE svg PUBLIC "-//W3C//DTD SVG 1.1//EN" "http://www.w3.org/Graphics/SVG/1.1/DTD/svg11.dtd">
<!-- Creator: CorelDRAW Home & Student 2019 -->
<svg xmlns="http://www.w3.org/2000/svg" xml:space="preserve" width="400px" height="400px" version="1.1" style="shape-rendering:geometricPrecision; text-rendering:geometricPrecision; image-rendering:optimizeQuality; fill-rule:evenodd; clip-rule:evenodd"
viewBox="0 0 363.64 363.64"
 xmlns:xlink="http://www.w3.org/1999/xlink">
 <defs>
  <style type="text/css">
   <![CDATA[
    .fil0 {fill:#7688A1}
    .fil2 {fill:#212121}
    .fil6 {fill:#728E9C}
    .fil5 {fill:#78909C}
    .fil3 {fill:#A8BAC1}
    .fil1 {fill:#CAD8DD}
    .fil4 {fill:url(#id0)}
   ]]>
  </style>
  <radialGradient id="id0" gradientUnits="userSpaceOnUse" gradientTransform="matrix(2.60654 0.874211 -0.684929 1.85724 -77 -239)" cx="116.51" cy="160.55" r="876.65" fx="116.51" fy="160.55">
   <stop offset="0" style="stop-opacity:1; stop-color:#CFD8DC"/>
   <stop offset="0.0901961" style="stop-opacity:0; stop-color:#CFD8DC"/>
   <stop offset="0.960784" style="stop-opacity:1; stop-color:#6899AD"/>
   <stop offset="1" style="stop-opacity:1; stop-color:#6899AD"/>
  </radialGradient>
 </defs>
 <g id="Layer_x0020_1">
  <metadata id="CorelCorpID_0Corel-Layer"/>
  <rect class="fil0" width="363.64" height="363.64"/>
  <g id="_1065574808">
   <path class="fil1" d="M271.2 134.23c0.2,-4.09 -3.72,-23.06 -19.59,-30.69 -4.22,-2.04 -15.18,-3.13 -12.69,8.31 2.34,10.64 3.59,27.01 2.37,37.47 -1.23,10.33 -5.95,22.51 -18.18,27.67 -10.63,4.47 -22.75,2.74 -31.62,-4.84 -11.8,-10.1 -15.46,-26.03 -15.59,-40.97 -0.39,-40.28 -8.42,-61.16 -40.83,-68.36 -9.54,-2.11 -21.27,-1.81 -31.01,1.18 -11.94,3.52 -28.35,10.19 -43.44,36.36 -15.16,26.26 -17.79,61.53 -12.98,90.79 16.25,98.8 95.37,123.29 152.84,105.86 63.8,-19.34 81.61,-73.25 87.08,-105.52 3,-17.61 5.45,-34.27 16.28,-49.28 6.67,-9.23 20.38,-20.26 11.37,-26.17 -17.71,-11.57 -39.47,8.15 -44.01,18.19l0 0z"/>
   <circle class="fil2" cx="102.25" cy="87.47" r="7.47"/>
   <circle class="fil2" cx="150.54" cy="98.36" r="7.47"/>
   <path class="fil2" d="M132.21 107.96c-0.59,2.62 -6.81,4.79 -10.1,4.05 -3.29,-0.75 -7.99,-5.38 -7.4,-7.99 0.59,-2.61 4.88,-3.36 9.69,-2.27 4.83,1.09 8.4,3.58 7.81,6.22l0 -0.01z"/>
   <path class="fil2" d="M139.65 124.56c-0.7,0.31 -4.4,2.31 -9.15,0.61 -4.99,-1.79 -5.69,-4.56 -6.44,-6.54 -1.05,-2.74 0.86,-10.01 0.86,-10.01l-1.93 -0.52 -1.97 -0.36c0,0 -1.41,7.37 -3.52,9.42 -1.52,1.45 -3.34,3.65 -8.63,3.15 -5.01,-0.5 -7.51,-3.88 -8.01,-4.47 -0.5,-0.59 -2.2,-0.84 -1.61,1.18 0.61,2.13 2.75,5.81 9.24,7.29 5.6,1.27 10.23,-1.59 11.39,-2.41 0.7,1.23 3.66,5.79 9.26,7.06 6.49,1.47 10.01,-0.95 11.46,-2.61 1.39,-1.61 -0.25,-2.13 -0.95,-1.79l0 0z"/>
   <path class="fil2" d="M71.27 103.47c1.54,-2.11 3.9,-3.61 6.42,-4.47 2.52,-0.88 5.22,-1.18 7.85,-1.11 2.63,0.09 5.25,0.54 7.74,1.34 2.48,0.79 4.95,1.88 6.88,3.65 -2.41,-0.95 -4.86,-1.47 -7.31,-1.93 -2.45,-0.43 -4.93,-0.75 -7.4,-0.79 -4.9,-0.16 -9.8,0.5 -14.18,3.31l0 0z"/>
   <path class="fil2" d="M67.25 117.88c2.74,-5.28 7.72,-9.55 13.57,-11.5 2.93,-0.96 6.06,-1.34 9.1,-1 3.04,0.29 5.97,1.31 8.54,2.84 -5.79,-1.44 -11.58,-1.53 -16.94,0.29 -5.35,1.77 -10.07,5.17 -14.27,9.37l0 0z"/>
   <path class="fil2" d="M75.17 124.78c0.48,-2.18 1.54,-4.22 2.88,-6.06 1.36,-1.83 3.09,-3.38 5.06,-4.6 0.98,-0.62 2.07,-1.05 3.11,-1.5 1.12,-0.3 2.2,-0.68 3.36,-0.75 2.27,-0.34 4.56,-0.02 6.7,0.59 -2.23,0.32 -4.34,0.52 -6.33,1.13 -2.03,0.55 -3.91,1.37 -5.66,2.45 -3.56,2.14 -6.46,5.2 -9.12,8.74l0 0z"/>
   <path class="fil2" d="M171.67 126.1c-2.74,-4.43 -6.89,-7.1 -11.39,-9.1 -2.25,-1.02 -4.61,-1.77 -7.01,-2.45 -2.43,-0.64 -4.86,-1.21 -7.42,-1.39 2.49,-0.77 5.19,-0.7 7.78,-0.36 2.59,0.34 5.15,1.07 7.58,2.11 2.41,1.09 4.72,2.5 6.61,4.38 1.86,1.86 3.36,4.25 3.85,6.81z"/>
   <path class="fil2" d="M168.7 141.35c-1.66,-5.69 -4.15,-10.94 -8.03,-15.07 -3.82,-4.18 -8.95,-6.88 -14.71,-8.4 2.97,-0.11 6.04,0.41 8.85,1.62 2.84,1.15 5.4,2.99 7.51,5.24 4.2,4.54 6.52,10.64 6.38,16.61z"/>
   <path class="fil2" d="M157.9 143.19c-0.89,-4.33 -2.2,-8.35 -4.52,-11.78 -1.12,-1.74 -2.49,-3.31 -4.06,-4.65 -1.54,-1.43 -3.36,-2.52 -5.24,-3.75 2.18,0.34 4.4,1.05 6.28,2.34 1.02,0.55 1.84,1.39 2.73,2.13 0.77,0.87 1.56,1.71 2.18,2.71 1.24,1.92 2.15,4.08 2.58,6.33 0.46,2.18 0.55,4.47 0.05,6.67l0 0z"/>
   <path class="fil3" d="M110.08 75.42c-0.37,1.11 -0.3,2.4 0.36,3.36 0.82,1.2 2.43,1.7 3.86,1.5 3.27,-0.46 8.28,-4.77 4.97,-8.02 -3.04,-2.95 -8.04,-0.38 -9.19,3.16z"/>
   <path class="fil3" d="M148.64 84.11c-0.16,1.16 -0.77,2.29 -1.77,2.88 -1.25,0.73 -2.91,0.5 -4.13,-0.29 -2.77,-1.79 -5.45,-7.88 -1.05,-9.38 4.02,-1.36 7.42,3.09 6.95,6.79l0 0z"/>
   <path class="fil4" d="M260.83 204.31c-10.38,7.86 -45.53,27.87 -85.55,-13.82 -15.45,-16.11 -29.37,-26.19 -55.17,-20.36 -31.16,7.06 -37.84,25.56 -43.19,40.47 -6.2,17.32 -6.2,27.58 -3.57,39.76 25.92,49.3 84.89,59.47 127.13,46.67 63.8,-19.34 81.61,-73.24 87.08,-105.52 1.84,-10.85 3.5,-21.36 7.02,-31.32 0.29,-1.38 0.7,-2.72 1.22,-4.02 -1.06,1.16 -14.73,32.8 -34.97,48.14l0 0z"/>
   <path class="fil5" d="M289.15 116.68c-7.28,3.84 -13.27,9.92 -16.41,14.78 -10.78,-34.41 -28.05,-29.62 -30,-28.94 -2.2,0.79 -3.52,2.27 -4,4.38 2.27,-2.13 9.79,-4.59 18.5,4.9 4.54,5.49 7.45,15.05 7.95,21.93 1.38,18.31 -4.52,30.25 -7.84,35.4 -0.63,0.98 0.87,2.39 2.02,1.52 3.48,-2.58 7.38,-8.6 10.4,-17.7 3.27,-9.83 7.6,-25.06 24.53,-32.89 8.36,-3.86 15.32,-3.97 19.5,-2.58 3.18,1.06 4.38,3.42 4.38,3.42 0,-2.45 -1.38,-4.99 -3.74,-6.35 -1.48,-0.87 -10.38,-5.77 -25.29,2.13l0 0z"/>
   <g>
    <path class="fil1" d="M168.7 163.64c6.61,26.87 -2.68,34.75 -2.86,60.06 -0.16,20.1 6.31,40.46 21.59,35.83 11.41,-3.45 28.34,-47.75 20.04,-70.08l-38.77 -25.81zm0 0l0 0 0 0z"/>
   </g>
   <path class="fil6" d="M172.15 167.84c4.38,22.49 -4.81,41.08 -2.74,64.55 1.61,19.74 9.87,24.33 13.52,24.51 3.95,0.52 7.04,-2.72 9.4,-6.26 2.7,-4.04 6.01,-9.65 8.87,-16.57 6.65,-16.68 7.61,-36.32 6.56,-43.28 -0.5,-2.16 1.27,-2.36 1.91,-0.39 0.66,2.04 1.91,7.83 1.09,22.22 -0.57,7.88 -2.16,15.68 -4.61,23.22 -1.2,3.77 -4.86,13.91 -10.87,21.63 -1.38,1.66 -4.43,6.63 -12.57,6.01 -2.45,-0.07 -17.21,-2.2 -19.66,-30.46 -0.29,-4.01 -0.88,-13.55 1.32,-23.85 1.36,-7.85 3.83,-15.16 4.81,-22.63 0.95,-6.08 0.27,-12.28 0.07,-18.59 -0.09,-2.36 2.33,-2.99 2.9,-0.11l0 0z"/>
   <g>
    <path class="fil1" d="M78.44 184.18c6.56,24.76 53.81,32.34 65.27,72.92 3.5,12.4 -5.38,16.98 -13.37,16.98 -43.57,0 -65.72,-35.86 -65.72,-35.86l13.82 -54.04zm0 0l0 0 0 0z"/>
   </g>
   <path class="fil6" d="M80.39 188.29c4.04,5.56 9.06,10.28 14.64,14.18 6.88,4.82 14.23,9.1 21.22,14.14 7.06,4.95 13.73,10.74 19.32,17.68 11.82,17.23 12.75,27.99 11.8,31.8 -0.67,2.74 -2.19,5.21 -4.34,7.04 -3.77,2.99 -9.67,4.4 -14.18,4.11 -8.83,-0.3 -17.66,-2.07 -25.79,-5.41 -8.17,-3.26 -15.63,-8.05 -22.15,-13.75 -4.54,-4.06 -7.96,-7.72 -11.21,-12.82 -1.75,-2.77 -2.75,-6.02 -0.29,-3.25 15.11,17.21 27.73,22.24 35.49,24.88 7.79,2.54 15.89,4.06 24.06,3.95 1.07,0 7.08,-0.34 9.76,-2.71 2.25,-1.92 2.86,-4.99 2.13,-8.55 -2.22,-9.4 -8.83,-25.08 -29.48,-40.04 -8.49,-6.13 -29.1,-20.08 -32.93,-30.66 -0.89,-2.45 0.86,-2.11 1.95,-0.59l0 0z"/>
  </g>
 </g>
</svg>
