<?xml version="1.0" encoding="UTF-8"?>
<!DOCTYPE svg PUBLIC "-//W3C//DTD SVG 1.1//EN" "http://www.w3.org/Graphics/SVG/1.1/DTD/svg11.dtd">
<!-- Creator: CorelDRAW Home & Student 2019 -->
<svg xmlns="http://www.w3.org/2000/svg" xml:space="preserve" width="400px" height="400px" version="1.1" style="shape-rendering:geometricPrecision; text-rendering:geometricPrecision; image-rendering:optimizeQuality; fill-rule:evenodd; clip-rule:evenodd"
viewBox="0 0 125 125"
 xmlns:xlink="http://www.w3.org/1999/xlink">
 <defs>
  <style type="text/css">
   <![CDATA[
    .fil0 {fill:#FFF7B2}
    .fil4 {fill:#2B2B2B}
    .fil2 {fill:#868686}
    .fil1 {fill:#B1B1B1}
    .fil3 {fill:white}
   ]]>
  </style>
 </defs>
 <g id="Layer_x0020_1">
  <metadata id="CorelCorpID_0Corel-Layer"/>
  <rect class="fil0" width="125" height="125"/>
  <g id="_1052481800">
   <path class="fil1" d="M44.92 81.28l-9.19 0.41c0,0 1.37,15.09 1.57,16.6 0.21,1.5 0.76,4.45 4.87,4.39 4.11,-0.07 3.98,-4.19 3.91,-5.15 -0.07,-0.95 -0.41,-7.27 -0.41,-7.27l6.45 1.58c0,0 0.06,9.19 0.14,10.5 0.07,1.3 0.95,4.04 4.8,3.91 3.84,-0.14 4.18,-3.16 4.18,-3.91 0,-0.76 0.49,-10.56 0.49,-10.56l7.95 -0.69c0,0 -0.11,2.88 0,4.87 0.07,1.23 1.99,3.28 5.42,3.08 3.43,-0.2 4.66,-1.85 4.6,-2.81 -0.07,-0.96 0.27,-8.71 0.27,-8.71l3.71 0.4c0,0 -0.28,8.51 -0.21,9.2 0.07,0.68 1.58,3.15 5.35,3.08 3.77,-0.06 4.72,-1.79 4.8,-2.61 0.14,-1.44 0.69,-9.67 0.9,-11.73 0.2,-2.06 0.27,-10.01 0.27,-10.01l-49.87 5.43 0 0z"/>
   <path class="fil1" d="M93.89 46.78c0,0 0.93,-0.2 2.26,0.31 1.34,0.51 4.12,5.04 5.46,5.76 1.33,0.72 3.39,1.23 3.9,1.64 1.28,1.02 1.03,6.48 -1.64,8.23 -2.67,1.75 -5.97,2.27 -5.97,2.27l-6.89 -12.45 2.88 -5.76z"/>
   <path class="fil2" d="M50.68 19.11c-11.99,-2.42 -16.46,8.23 -16.46,8.23 0,0 -8.64,-3.29 -11.52,6.59 -2.34,8.02 6.58,12.55 6.58,12.55 0,0 -9.98,0.89 -9.67,11.48 0.2,6.69 4.74,8.37 4.74,8.37 0,0 -4.18,5.44 -0.62,12.86 3.71,7.72 12.14,7.31 12.14,7.31 0,0 1.04,6.93 10.6,9.67 8.64,2.47 12.96,-1.13 12.96,-1.13 0,0 3.6,3.18 9.87,1.43 5.18,-1.43 5.98,-5.86 5.98,-5.86 0,0 5.96,2.88 12.44,-0.2 6.07,-2.88 6.79,-9.06 6.79,-9.06 0,0 8.43,-2.67 8.64,-13.68 0.19,-10.07 -6.07,-13.89 -6.07,-13.89 0,0 3.19,-7.82 -4.01,-13.68 -5.91,-4.81 -11.11,-2.57 -11.11,-2.57 0,0 -0.72,-4.01 -5.25,-5.04 -4.52,-1.03 -6.89,1.44 -6.89,1.44 0,0 -0.43,-2.69 -2.98,-4.42 -2.88,-1.96 -5.55,-0.83 -5.55,-0.83 0,0 0.09,-7.41 -10.61,-9.57l0 0z"/>
   <path class="fil3" d="M51.3 21.37c-11.59,-2.16 -15.44,8.25 -16.25,8.33 -0.93,0.11 -6.76,-4.44 -10.19,4.32 -2.99,7.62 7.72,11.84 7.4,13.08 -0.27,1.07 -10.81,0.76 -10.53,10.45 0.18,6.12 5.01,7.64 5.15,8.58 0.1,0.72 -4.61,5.13 -1.24,11.86 3.22,6.45 10.96,5.86 12.14,6.65 1.19,0.8 -0.14,5.42 7.54,8.65 9.38,3.93 12.88,-0.92 13.92,-1.1 1.35,-0.22 1.92,3.71 8.92,2.47 5.74,-1.01 5.19,-5.87 6.24,-6.38 1.05,-0.5 4.46,3.66 11.79,0.69 5.76,-2.33 5.83,-7.48 6.45,-8.33 0.8,-1.11 7.76,-3.21 8.12,-13.27 0.38,-10.43 -5.72,-12.61 -5.86,-13.45 -0.14,-0.82 2.47,-6.99 -3.28,-11.79 -5.35,-4.46 -9.47,-1.38 -10.29,-1.93 -0.37,-0.24 -0.14,-4.45 -5.15,-5.55 -4.15,-0.91 -6.86,2.19 -7.31,1.95 -0.99,-0.53 -0.77,-2.99 -3.11,-4.57 -2.64,-1.79 -5.02,-0.37 -5.74,-0.78 -0.61,-0.36 1.27,-8.01 -8.72,-9.88l0 0z"/>
   <path class="fil1" d="M36.76 40.48c0,0 -3.61,2.36 -7.41,2.95 -4.05,0.61 -10.15,-1.17 -10.56,0.27 -0.41,1.45 2.06,5.22 6.03,6.52 3.69,1.21 5.21,0.07 5.21,0.07 0,0 0.79,1.4 0.31,3.46 -0.48,2.06 -1.99,5.24 -1.68,8.41 0.34,3.5 3.17,8.56 9.81,9.94 8.22,1.72 14.15,-2.56 15.84,-6.38 2.09,-4.73 0.72,-8.06 3.26,-10.32 2.53,-2.26 5.79,-2.5 8.61,-2.36 2.81,0.14 5.55,-1.41 6.38,-2.17 0.82,-0.75 1.23,-2.22 1.03,-2.5 -0.21,-0.28 -2.13,-0.14 -4.12,-1.1 -1.99,-0.96 -5.35,-2.88 -5.35,-2.88 0,0 -2.36,2.44 -5.86,1.95 -3.5,-0.48 -4.63,-4.21 -4.63,-4.21 0,0 -3.63,5.55 -10.01,4.11 -5.44,-1.23 -6.86,-5.76 -6.86,-5.76l0 0z"/>
   <path class="fil4" d="M54.89 51.37c-0.46,1.9 -2.36,2.56 -3.88,1.82 -1.39,-0.66 -2.06,-2.32 -1.42,-3.92 0.63,-1.59 2.31,-2.42 3.73,-1.85 1.41,0.57 1.97,2.29 1.57,3.95l0 0z"/>
   <path class="fil4" d="M37.63 48.26c-0.46,1.81 -2.12,2.86 -3.5,2.18 -1.24,-0.6 -1.82,-2.16 -1.21,-3.68 0.61,-1.52 2.07,-2.15 3.35,-1.64 1.28,0.51 1.76,1.55 1.36,3.14l0 0z"/>
   <path class="fil4" d="M39.23 60.61c0,0 4.63,-2.27 5.14,-0.89 0.51,1.37 -1.37,2.43 -2.13,2.91 -0.75,0.48 -2.47,0.89 -2.47,0.89 0,0 0.14,2.68 1.51,2.74 1.37,0.07 2.37,-1.82 3.26,-0.85 0.89,0.96 -0.34,2.95 -2.47,2.95 -2.13,0 -3.29,-1.5 -3.29,-1.5 0,0 -1.4,0.82 -2.61,0.51 -1.88,-0.48 -2.19,-2.61 -1.58,-3.09 0.62,-0.47 1.06,1.03 2.13,0.96 1.06,-0.06 1.37,-1.95 1.37,-1.95 0,0 -1.23,-0.58 -2.26,-1.82 -0.59,-0.71 -1.91,-2.45 -1.24,-3.16 1.11,-1.14 4.64,2.3 4.64,2.3l0 0z"/>
  </g>
 </g>
</svg>
