<?xml version="1.0" encoding="UTF-8"?>
<!DOCTYPE svg PUBLIC "-//W3C//DTD SVG 1.1//EN" "http://www.w3.org/Graphics/SVG/1.1/DTD/svg11.dtd">
<!-- Creator: CorelDRAW Home & Student 2019 -->
<svg xmlns="http://www.w3.org/2000/svg" xml:space="preserve" width="400px" height="400px" version="1.1" style="shape-rendering:geometricPrecision; text-rendering:geometricPrecision; image-rendering:optimizeQuality; fill-rule:evenodd; clip-rule:evenodd"
viewBox="0 0 54.05 54.05"
 xmlns:xlink="http://www.w3.org/1999/xlink">
 <defs>
  <style type="text/css">
   <![CDATA[
    .fil0 {fill:#B2B09C}
    .fil4 {fill:#141414}
    .fil1 {fill:#4D4D4D}
    .fil2 {fill:#DDDDDD}
    .fil3 {fill:#FFA7A6}
   ]]>
  </style>
 </defs>
 <g id="Layer_x0020_1">
  <metadata id="CorelCorpID_0Corel-Layer"/>
  <rect class="fil0" width="54.05" height="54.05"/>
  <g id="_1070336408">
   <path class="fil1" d="M24.18 22.78c0,0 -2.06,-2.67 -1.81,-6.25 0.3,-4.14 2.51,-7.79 6.96,-9.14 4.45,-1.35 8.63,-0.13 8.63,-0.13l-0.71 1.61c0,0 4.83,1.13 5.54,1.51 0.7,0.39 2.57,2.48 2.77,5.32 0.19,2.83 -0.95,5.13 -1.49,5.92 -0.68,1.01 -1.93,1.81 -2.44,1.81 -0.52,0 0.51,-1.1 0.64,-2.39 0.13,-1.28 -0.18,-1.58 -0.18,-1.58 0,0 -0.28,1.17 -0.49,1.79 -0.12,0.37 -0.6,1.45 -0.72,0.99 -0.12,-0.46 -0.19,-3.57 -1.52,-4.22 -0.57,-0.28 -1.69,-0.78 -4.23,1.28 -2.81,2.28 -3.28,6.81 -3.28,6.81 0,0 0.99,1.15 1.11,1.44 0.12,0.29 1.31,1.71 0.8,5.46 -0.34,2.46 -0.94,5.29 -1.18,5.97 -0.24,0.67 -0.46,1.85 -1.48,2.34 -0.62,0.3 -2.05,0.34 -2.22,-0.36 -0.17,-0.7 0.46,-1.31 0.34,-1.94 -0.12,-0.62 -0.87,-1.08 -2.1,-0.21 -1.23,0.87 -2.15,1.81 -2.68,2.99 -0.53,1.19 -1.06,2.95 -2.05,4.18 -0.99,1.23 -1.83,1.45 -3.23,1.26 -1.55,-0.22 -0.8,-1 -0.54,-1.52 0.27,-0.54 0.12,-1.36 0.03,-1.62 -0.24,-0.65 -0.87,-0.73 -0.87,-0.73 0,0 0.1,1.65 -0.65,2.18 -0.75,0.53 -1.79,1.06 -2.97,0.67 -1.19,-0.38 -0.44,-1.06 -0.1,-1.78 0.34,-0.73 0.12,-1.02 0.03,-1.28 -0.1,-0.27 -0.37,-1.07 -0.49,-1.45 -0.12,-0.39 -0.24,-1.04 -0.24,-1.04 0,0 -1.49,0.58 -3.6,-0.46 -1.3,-0.64 -1.35,-1.74 -1.25,-2.29 0.09,-0.53 0.55,-0.85 0.55,-0.85 0,0 -0.26,-2.61 0.15,-3.79 0.41,-1.18 0.97,-1.49 0.97,-1.49 0,0 -0.82,-2.22 0.72,-2.76 1.67,-0.57 2.34,1.19 2.34,1.19 0,0 0.75,-0.19 1.89,0.21 1.13,0.42 1.61,0.75 1.69,0.63 0.07,-0.12 1.86,-5.12 1.86,-5.12 0,0 1.95,-1.98 2.43,-2.27 0.47,-0.3 0.98,-0.64 3.07,-0.89l0 0z"/>
   <path class="fil2" d="M11.52 36.08c0.29,0.17 1.47,-1.26 3.02,-2.3 1.54,-1.04 2.6,-0.91 2.6,-0.91 0,0 1.17,-1 2.54,-0.32 1.4,0.7 0.89,2.7 0.89,2.7 0,0 2.8,-4.61 4.54,-6.15 1.74,-1.55 3.74,-2.1 5.16,-2.13 1.43,-0.02 2.68,0.58 2.68,0.58 0,0 -0.51,-1.12 -2.24,-2.58 -1.98,-1.67 -4,-1.21 -5.99,-0.22 -1.89,0.95 -4.35,3.36 -4.74,3.77 -0.38,0.41 -1.35,1.42 -1.35,1.42 0,0 0.12,-1.71 0.61,-2.97 0.43,-1.12 1.39,-2.27 2.09,-2.85 1.02,-0.82 1.74,-1.18 1.74,-1.18 0,0 -1.35,0.02 -3.26,1.33 -2.22,1.52 -2.97,3.62 -3.16,4.03 -0.19,0.41 -0.55,1.5 -0.58,2.18 -0.7,-0.49 -2.48,-0.32 -2.48,-0.32 0,0 -0.91,1.24 -1.43,2.44 -0.44,1.06 -0.92,3.31 -0.64,3.48l0 0z"/>
   <path class="fil2" d="M28.83 24c0,0 -1.09,-0.34 -1.76,-0.51 -0.68,-0.16 -1.28,-0.33 -1.28,-0.33 0,0 -1.67,-2.3 -1.72,-5.75 -0.05,-3.45 1.6,-6.21 1.6,-6.21l0.91 2.76c0,0 1.12,-3.15 3.41,-4.81 2.83,-2.05 5.79,-2.92 8.81,-1.68 3.2,1.3 4.11,2.6 4.25,2.77 0.15,0.17 0.82,1.18 0.82,1.18 0,0 -3.18,-1.41 -5.34,-1.08 -2.22,0.34 -3.62,0.96 -5.23,2.44 -1.62,1.47 -2.1,2.82 -2.1,2.82 0,0 1.44,-0.23 2.02,-0.21 0.9,0.02 1.57,0.26 1.57,0.26 0,0 -2.89,1.16 -4.22,3.35 -1.33,2.2 -1.86,4.77 -1.6,5.03 0.03,0.02 -0.14,-0.03 -0.14,-0.03z"/>
   <path class="fil3" d="M9.35 37.45c-0.19,0.13 0.29,2.1 0.5,2.15 0.27,0.07 1.65,-0.97 1.65,-1.21 0,-0.24 -0.87,-0.55 -1.16,-0.67 -0.29,-0.12 -0.83,-0.39 -0.99,-0.27l0 0z"/>
   <path class="fil4" d="M16.07 36.04c0,0.54 -0.45,1.07 -1.13,1 -0.54,-0.05 -0.84,-0.46 -0.84,-1 0,-0.55 0.46,-1.07 1,-1.07 0.67,0 0.97,0.52 0.97,1.07l0 0z"/>
   <path class="fil4" d="M11.19 33.97c0,0.54 -0.42,1.03 -0.95,0.95 -0.38,-0.06 -0.61,-0.39 -0.61,-0.94 0,-0.54 0.27,-0.92 0.67,-0.96 0.66,-0.06 0.89,0.4 0.89,0.95z"/>
   <path class="fil4" d="M10.85 31.3c0.04,0.04 0.49,-0.2 0.87,-0.34 0.39,-0.16 0.74,-0.25 0.77,-0.33 0.05,-0.14 -0.37,-1.2 -1.26,-0.83 -0.88,0.37 -0.48,1.4 -0.38,1.5z"/>
   <path class="fil4" d="M17.95 33.66c0,-0.2 1.22,-0.79 1.72,0.18 0.5,0.97 -0.55,1.69 -0.71,1.64 -0.08,-0.02 -0.27,-0.52 -0.53,-0.99 -0.2,-0.37 -0.48,-0.73 -0.48,-0.83z"/>
  </g>
 </g>
</svg>
