<?xml version="1.0" encoding="UTF-8"?>
<!DOCTYPE svg PUBLIC "-//W3C//DTD SVG 1.1//EN" "http://www.w3.org/Graphics/SVG/1.1/DTD/svg11.dtd">
<!-- Creator: CorelDRAW Home & Student 2019 -->
<svg xmlns="http://www.w3.org/2000/svg" xml:space="preserve" width="400px" height="400px" version="1.1" style="shape-rendering:geometricPrecision; text-rendering:geometricPrecision; image-rendering:optimizeQuality; fill-rule:evenodd; clip-rule:evenodd"
viewBox="0 0 75.47 75.47"
 xmlns:xlink="http://www.w3.org/1999/xlink">
 <defs>
  <style type="text/css">
   <![CDATA[
    .fil0 {fill:#B9C599}
    .fil9 {fill:#010605}
    .fil8 {fill:#5C6268}
    .fil2 {fill:#606468}
    .fil4 {fill:#727F39}
    .fil1 {fill:#855C54}
    .fil3 {fill:#865B52}
    .fil6 {fill:#AE9580}
    .fil10 {fill:#CDAC93}
    .fil5 {fill:#F8EAC0}
    .fil7 {fill:#FEEAC7}
   ]]>
  </style>
 </defs>
 <g id="Layer_x0020_1">
  <metadata id="CorelCorpID_0Corel-Layer"/>
  <rect class="fil0" width="75.47" height="75.47"/>
  <g id="_1057273200">
   <path class="fil1" d="M24.38 25.2c0,0 0.13,-7.27 -0.6,-9.74 -0.74,-2.46 -4.47,-2.79 -4.47,-2.79 0,0 1,-3.6 4.27,-3.21 3.26,0.4 5.16,3.7 6.36,6.71 2.67,6.66 3.17,15.69 3.17,15.69l-7.93 19.07 -8 -2.34 7.2 -23.39 0 0z"/>
   <path class="fil2" d="M36.77 40.73l1 -1.33c0,0 2.6,1.13 4.4,1 1.8,-0.14 6.4,-1 6.4,-1l0.2 7.53 -12.47 -2.2 0.47 -4 0 0z"/>
   <path class="fil3" d="M52.71 33c0,0 -0.33,-5.67 -0.33,-7.93 0,-2.27 -1.27,-10.07 3.79,-9.94 3.87,0.1 2.87,5.8 2.87,5.8l-1.4 1.67c0,0 2.1,10.99 2.93,13.87 1.67,5.75 -0.4,7.46 -0.4,7.46l-7.93 1 0.47 -11.93z"/>
   <path class="fil4" d="M12.51 10.73c-2.28,0.64 -1.93,2.73 -1.87,3.6 0.07,0.86 0.54,1 1.54,1.06 1,0.07 8.53,1.4 10.2,1.87 1.67,0.47 6,1.4 9.66,1.73 3.67,0.33 14.27,2 15.27,2.27 1,0.27 3,1.07 7.73,1.67 4.74,0.6 7.13,1.2 7.47,0.86 0.33,-0.33 0.2,-4.26 -0.2,-4.86 -0.4,-0.61 -7.06,-1.6 -9.33,-1.67 -2.27,-0.07 -3.6,0.13 -3.6,0.13 0,0 -5.33,-1.06 -8.06,-1.73 -2.74,-0.67 -7.54,-1.2 -10.81,-1.47 -3.26,-0.26 -9.86,-1.2 -9.86,-1.2 0,0 -3.01,-1.29 -4.01,-1.66 -0.56,-0.21 -1.99,-1.2 -4.13,-0.6l0 0z"/>
   <path class="fil3" d="M38.91 15.8l-4.27 25.93c0,0 3.2,0.47 3.94,-0.4 0.73,-0.87 1.91,-3.58 2.06,-8 0.08,-2.13 -0.06,-8.6 -0.06,-8.6 0,0 2.86,7.2 3.6,9.4 0.73,2.2 2.4,10.07 2.4,10.07l4.33 -4.2 -9 -22.74 -3 -1.46 0 0z"/>
   <path class="fil5" d="M20.51 10.46c0.93,0.29 -0.37,1.47 -0.6,1.87 -0.24,0.4 -0.44,1.03 -0.44,1.03 0,0 0.95,-1.1 1.6,-1.6 0.74,-0.57 1.8,-0.89 2.27,-0.36 0.63,0.7 -0.07,0.96 -0.83,1.53 -0.26,0.19 -0.62,0.5 -0.95,0.89 -0.45,0.54 -0.88,1.17 -1.09,1.48 -0.36,0.53 -0.93,1.03 -1.5,0.83 -0.37,-0.13 -0.2,-1.3 -0.2,-1.3 0,0 -0.03,0.63 -0.57,0.33 -0.53,-0.3 -0.5,-1.99 -0.03,-3.03 0.48,-1.05 1.47,-1.93 2.34,-1.67l0 0z"/>
   <path class="fil5" d="M22.61 15.36c1.34,-1.36 3.73,-1.96 2.83,-2.73 -0.9,-0.76 -2.63,0.07 -3.76,1.3 -1.13,1.24 -1.5,2.87 -0.9,3.04 0.59,0.16 1.04,-0.8 1.83,-1.61z"/>
   <path class="fil5" d="M55.02 16.62c-0.92,0.13 -0.22,1.28 -0.02,1.76 0.26,0.64 0.44,1.67 0.53,2.75 0.13,1.63 0.79,1.58 1.13,0.89 0.25,-0.49 0.29,-1.26 0.29,-1.82 0,-0.91 -0.22,-1.35 -0.1,-1.35 0.2,0 0.46,1.19 0.5,1.97 0.06,0.91 -0.09,1.83 0.4,1.89 0.67,0.09 1.05,-0.75 1.09,-1.82 0.03,-0.84 -0.07,-1.69 0,-1.69 0.07,0 0.36,0.84 0.38,1.96 0.01,0.64 -0.13,1.8 0.38,1.75 0.65,-0.05 1.04,-2.11 0.8,-3.51 -0.2,-1.14 -0.98,-2.4 -1.6,-2.51 -0.62,-0.1 -0.45,0.8 -0.45,0.8 0,0 -0.35,-1.06 -1.26,-1.13 -0.83,-0.06 -0.8,0.73 -0.8,0.73 0,0 -0.47,-0.78 -1.27,-0.67l0 0z"/>
   <path class="fil6" d="M61.93 38.95c-1.53,0.2 -3.37,3.07 -3.37,3.07 0,0 -2.45,-5.16 -4.45,-8.22 -2,-3.06 -6.71,-11.16 -7.29,-13.07 -0.58,-1.91 -0.5,-3.41 0.16,-3.49 0.6,-0.07 0.24,-0.36 0.24,-0.36 0,0 0.28,-2.13 -1.73,-2.95 -1.73,-0.71 -3.2,0.45 -3.2,0.45 0,0 -0.8,-1.03 -2.98,-1.03 -2.18,0 -4.37,0.96 -5.51,4.49 -0.95,2.97 -1.02,8.53 -1.07,10.49 -0.04,1.96 -0.8,6.36 -2.49,9.29 -1.69,2.93 -4.08,6.04 -4.35,7.6 -0.27,1.56 0.31,3.56 -0.98,3.47 -1.29,-0.09 -2.18,-1.47 -1.15,-3.6 1.02,-2.13 2.98,-4.53 2.98,-4.53l2.97 -9.69 1.74 0.8c0.48,-2.05 1.02,-5.29 -4.4,-7.87 -5.42,-2.57 -14.18,-0.58 -16.07,6.33 -0.62,2.27 -0.67,4.49 -0.67,6.26 0,3.01 0.87,6.97 1.73,9.87 1.29,4.36 3.41,7.57 4.11,8.78 1.47,2.54 4.15,5.41 4.58,5.24 0.47,-0.18 0.58,-1.24 0.58,-1.24 0,0 1.02,1.33 3.11,2.84 2.09,1.52 5.2,3.69 5.87,3.43 0.66,-0.27 -0.27,-1.6 -0.27,-1.6 0,0 2.38,1.29 4.76,1.91 1.86,0.49 5.95,0.62 5.91,0 -0.05,-0.62 -1.52,-1.24 -1.34,-1.69 0.18,-0.44 0.84,0.81 5.11,0.47 3.12,-0.24 8.67,-1.84 11.78,-6.55 3.11,-4.72 4.88,-8.27 6.04,-10.63 1.15,-2.35 2.57,-4.42 2.8,-5.46 0.23,-1.03 0.23,-3.25 -3.15,-2.81zm-15.42 2.09c-0.21,0.62 -2.18,1.29 -4.22,1.34 -2.05,0.04 -3.87,-0.58 -4.4,-1.52 -0.54,-0.93 0.71,-2.4 1.15,-5.28 0.45,-2.89 0.22,-8.27 0.27,-11.61 0.04,-3.33 1.02,-6.62 1.02,-6.62 0,0 0.09,3.11 0.31,4.49 0.2,1.23 0.62,2.58 1.25,4.31 0.46,1.28 2.53,5.07 3.51,8.27 0.98,3.2 1.42,5.69 1.11,6.62l0 0z"/>
   <path class="fil7" d="M22.87 27.66c-2.85,-0.18 -2.13,-1.29 -4.67,-1.42 -2.53,-0.13 -5.69,3.07 -5.73,6.67 -0.04,3.82 2.53,8.8 9.37,9.11 2.62,0.12 4,-0.29 4,-0.29 1.83,-2.58 3.45,-4.66 4.54,-6.76 0.68,-1.3 0.91,-2.37 1.13,-3.49 0.2,-0.99 0.09,-1.92 -1.31,-3.24 -2.89,-2.71 -4.98,-0.43 -7.33,-0.58z"/>
   <path class="fil8" d="M16.38 29.8l1.63 2.78c0,0 -1.25,0.53 -2.05,1.33 -0.8,0.8 -2.64,2.94 -2.64,2.94 0,0 -0.59,-1.32 -0.75,-2.34 -0.15,-1.02 -0.1,-1.87 -0.1,-1.87 0,0 0.76,-0.84 1.78,-1.55 1.02,-0.71 2.13,-1.29 2.13,-1.29l0 0z"/>
   <path class="fil8" d="M27.75 30.29l-1.73 2.4c0,0 1.18,0.95 1.98,1.84 0.8,0.88 1.58,1.84 1.58,1.84 0,0 0.48,-0.53 1,-1.62 0.44,-0.94 0.6,-1.8 0.6,-1.8 0,0 -1.13,-1.07 -1.76,-1.49 -0.63,-0.42 -1.67,-1.17 -1.67,-1.17l0 0z"/>
   <ellipse class="fil9" cx="17.24" cy="31.18" rx="1.63" ry="1.62"/>
   <ellipse class="fil9" cx="27.06" cy="31.55" rx="1.59" ry="1.56"/>
   <path class="fil9" d="M22.33 30.62c-1.68,-0.2 -2.62,0.97 -2.62,0.97 0,0 0.38,0.62 0.86,1.31 0.19,0.27 0.61,0.89 0.61,1.09 0,0.2 -0.89,0.39 -1.49,0.36 -1.16,-0.07 -1.64,-0.98 -2.16,-0.6 -0.51,0.38 0.11,1.29 0.71,1.57 0.61,0.29 1.32,0.46 2.03,0.38 0.82,-0.09 1.71,-0.57 1.71,-0.57 0,0 1.03,0.73 1.48,0.84 1.2,0.29 1.96,0.04 2.6,-0.45 0.41,-0.3 0.86,-1.13 0.54,-1.33 -0.71,-0.45 -1.05,0.67 -2.07,0.67 -1.02,0 -1.69,-0.8 -1.69,-0.8 0,0 0.52,-0.62 0.78,-0.83 0.38,-0.31 1.06,-1.11 1.06,-1.11 0,0 -0.44,-1.28 -2.35,-1.5l0 0z"/>
   <path class="fil10" d="M23.78 55.82c-0.48,0.59 -2.85,-1.67 -3.6,-2.62 -0.76,-0.96 -1.96,-2.45 -1.14,-3.12 0.83,-0.66 1.92,1.42 2.6,2.36 0.69,0.93 2.42,3.02 2.14,3.38l0 0z"/>
   <path class="fil10" d="M26.31 55.28c-1.03,1.1 0.97,2.85 2.69,4.09 1.71,1.24 4.4,1.89 4.66,1.51 0.27,-0.38 -1.86,-1.4 -3.66,-2.85 -1.8,-1.44 -3,-3.48 -3.69,-2.75z"/>
   <path class="fil10" d="M31.86 56.82c-0.36,0.84 1.54,2.44 4.29,2.89 2.76,0.44 5.66,-0.27 5.58,-0.96 -0.06,-0.58 -1.57,-0.04 -5.26,-0.84 -2.84,-0.62 -4.16,-2.12 -4.61,-1.09l0 0z"/>
   <path class="fil10" d="M36.02 54.26c-0.1,0.68 1.42,1.44 3.76,1.34 2.33,-0.11 3.91,-1.16 3.82,-1.63 -0.09,-0.47 -2.22,0.11 -3.89,0.13 -1.67,0.03 -3.47,-1.28 -3.69,0.16z"/>
   <path class="fil10" d="M38.2 61.82c-0.02,1.16 3.45,1 5.64,0.22 2.69,-0.96 4.11,-3.15 3.72,-3.56 -0.4,-0.39 -1.83,1.45 -4.6,2.14 -1.28,0.31 -4.74,0.04 -4.76,1.2l0 0z"/>
  </g>
 </g>
</svg>
