<?xml version="1.0" encoding="UTF-8"?>
<!DOCTYPE svg PUBLIC "-//W3C//DTD SVG 1.1//EN" "http://www.w3.org/Graphics/SVG/1.1/DTD/svg11.dtd">
<!-- Creator: CorelDRAW Home & Student 2019 -->
<svg xmlns="http://www.w3.org/2000/svg" xml:space="preserve" width="400px" height="400px" version="1.1" style="shape-rendering:geometricPrecision; text-rendering:geometricPrecision; image-rendering:optimizeQuality; fill-rule:evenodd; clip-rule:evenodd"
viewBox="0 0 363.64 363.64"
 xmlns:xlink="http://www.w3.org/1999/xlink">
 <defs>
  <style type="text/css">
   <![CDATA[
    .fil0 {fill:#FFF383}
    .fil4 {fill:#2E2C2F}
    .fil5 {fill:#4F352E}
    .fil1 {fill:#A05D43}
    .fil2 {fill:#D27856}
    .fil3 {fill:#E9BB91}
   ]]>
  </style>
 </defs>
 <g id="Layer_x0020_1">
  <metadata id="CorelCorpID_0Corel-Layer"/>
  <rect class="fil0" width="363.64" height="363.64"/>
  <g id="_1091094680">
   <path class="fil1" d="M100.54 159.39c0,0 3.78,-41.09 52.1,-63.4 56.45,-26.06 114.69,10.79 130.07,55.59 13.15,38.26 -1.52,77.74 -16.29,90.77 -14.77,13.03 -34.3,46.47 -95.54,43.87 -61.23,-2.62 -82.51,-93.82 -70.34,-126.83z"/>
   <path class="fil2" d="M149.18 270.56c8.94,9.28 36.04,16.07 60.36,8.26 24.32,-7.8 25.61,-15.2 25.61,-15.2 0,0 -36.47,11.72 -58.62,1.74 -22.15,-9.98 -34.75,-52.1 -34.75,-52.1 0,0 -15.63,33.41 7.4,57.3l0 0z"/>
   <path class="fil3" d="M87.5 153.21c-4.9,3.69 -9.11,11.06 -11.71,15.95 -2.61,4.89 -3.26,10.09 -11.72,15.32 -8.47,5.2 -15.64,2.94 -17.92,5.2 -2.29,2.26 0.97,10.75 11.4,12.06 10.43,1.31 14.98,-1.63 14.98,-1.63 0,0 0.97,24.1 0.97,37.13 0,13.03 7.17,63.8 48.21,71.33 33.13,6.09 51.79,-2.05 60.91,-6.94 15.65,-8.4 19.86,-13.89 30.95,-17.49 11.06,-3.58 18.05,0.04 29.86,-4.66 13.04,-5.21 15.64,-18.24 23.44,-24.1 7.81,-5.86 14.23,-4.23 21.72,-10.43 7.49,-6.2 5.86,-12.6 18.12,-23.35 4.69,-4.09 10.09,-7.48 11.41,-11.06 1.31,-3.57 -17.58,-4.57 -22.15,-4.57 -4.57,0 -10.91,0.16 -10.91,0.16 0,0 -2.44,9.93 -5.38,16.13 -2.94,6.2 -23.78,34.21 -30.3,37.13 -6.51,2.94 -10.86,2.94 -14.23,4.23 -3.37,1.31 -21.29,10.43 -28.78,11.4 -7.48,0.97 -31.51,6.56 -45.27,-7.71 -11.51,-11.95 -14.32,-27.79 -14.97,-36.59 -0.66,-8.8 -0.66,-31.92 -0.66,-31.92 0,0 3.91,4.66 16.72,4.66 7.83,0 13.89,-8.19 12.37,-11.06 -1.94,-3.69 -10.79,-2.56 -14.97,-5 -5.21,-3.03 -10.43,-11.07 -11.72,-14.78 -1.22,-3.44 -4.23,-12.06 -9.55,-16.94 -5.48,-5.03 -13.24,-9.12 -26.06,-8.89 -11.72,0.2 -18.24,1.53 -24.76,6.42l0 0z"/>
   <path class="fil3" d="M136.69 161.36c0,0 5.2,-51.14 5.86,-59.28 0.66,-8.15 3.91,-27.35 3.91,-32.9 0,-5.54 -1.62,-14.97 -11.4,-15.95 -9.77,-0.97 -13.03,11.07 -13.35,19.21 -0.31,8.15 -3.91,78.17 -3.91,78.17l-14.01 -0.32c0,0 0.32,-43.96 0.66,-53.08 0.32,-9.11 0.32,-24.75 0.32,-28 0,-3.26 0,-16.95 -12.38,-16.29 -12.37,0.65 -11.06,14.97 -11.4,19.54 -0.34,4.57 1.95,37.45 2.28,43.96 0.32,6.52 3.26,42.67 3.26,42.67l50.16 2.27 0 0z"/>
   <path class="fil2" d="M111.4 175.25c0,0 -4.12,8.89 -9.98,8.89 -5.86,0 -5.86,-5 -8.89,-3.03 -3.03,1.94 -1.31,10.86 6.51,12.37 7.81,1.52 12.38,-2.83 12.38,-2.83 0,0 4.68,3.26 9.12,3.26 5.65,0 11.94,-8.26 9.54,-11.94 -2.39,-3.69 -6.51,2.82 -10.43,2.6 -3.91,-0.21 -8.25,-9.32 -8.25,-9.32l0 0z"/>
   <path class="fil2" d="M170.15 97.69c-10.52,3.17 -14.75,7.58 -17.92,10.57 -3.16,2.98 -4.34,9.81 -0.61,13.77 3.74,3.96 10.34,2.67 13.85,0.18 3.51,-2.48 6.81,-4.99 12.15,-6.49 5.32,-1.49 13.32,-1.88 15.77,-3.23 2.44,-1.34 4.21,-5.23 3.37,-9.32 -0.84,-4.12 -3.08,-6.48 -9.05,-7.52 -4.44,-0.77 -10.59,-0.06 -17.56,2.04l0 0z"/>
   <path class="fil2" d="M204.11 103.59c0,3.04 0.86,5.43 6.52,6.09 6.31,0.72 8.69,-2.4 8.46,-5.66 -0.23,-3.3 -1.74,-5.2 -6.29,-6.08 -4.57,-0.86 -8.69,1.09 -8.69,5.65z"/>
   <path class="fil4" d="M141.78 75.79c-1.11,9.28 -3.96,16.15 -8.69,15.63 -6.83,-0.77 -6.74,-8.46 -6.74,-17.8 0,-8.76 2.58,-15.61 9.35,-14.87 6.47,0.7 7.12,8.35 6.08,17.04z"/>
   <path class="fil4" d="M100.79 74.93c-0.28,9.34 -3.08,15.5 -7.45,15.86 -5.18,0.43 -8.17,-8.03 -8.44,-17.15 -0.25,-8.76 1.61,-14.46 7.99,-14.86 7.49,-0.52 8.15,7.39 7.9,16.15z"/>
   <path class="fil5" d="M237.55 248.19c-13.44,-0.75 -33.44,-13.46 -34.09,-51.02 -0.66,-37.56 13.91,-53.98 29.95,-51.24 15.2,2.6 17.81,23 16.06,37.12 -1.74,14.12 -5.85,30.18 -15.2,25.61 -9.34,-4.57 -4.34,-21.92 -2.4,-26.06 1.95,-4.12 4.78,-8.89 1.95,-11.72 -2.83,-2.83 -9.12,0.66 -11.72,5.86 -2.6,5.2 -8.03,17.58 -2.83,34.1 5.2,16.49 26.7,18.46 35.18,1.74 8.46,-16.72 10.43,-47.99 3.03,-62.54 -7.37,-14.54 -31.49,-30.83 -54.7,-4.11 -22.45,25.81 -14.12,71.42 -8.69,84.88 5.43,13.46 16.94,29.75 39.73,32.58 22.78,2.83 42.13,-24.09 43.64,-26.49 1.52,-2.4 7.38,-10.2 2.17,-14.66 -5.2,-4.46 -11.06,5.74 -12.6,7.92 -1.47,2.19 -13.84,18.91 -29.48,18.03l0 0z"/>
  </g>
 </g>
</svg>
