<?xml version="1.0" encoding="UTF-8"?>
<!DOCTYPE svg PUBLIC "-//W3C//DTD SVG 1.1//EN" "http://www.w3.org/Graphics/SVG/1.1/DTD/svg11.dtd">
<!-- Creator: CorelDRAW Home & Student 2019 -->
<svg xmlns="http://www.w3.org/2000/svg" xml:space="preserve" width="400px" height="400px" version="1.1" style="shape-rendering:geometricPrecision; text-rendering:geometricPrecision; image-rendering:optimizeQuality; fill-rule:evenodd; clip-rule:evenodd"
viewBox="0 0 400 400"
 xmlns:xlink="http://www.w3.org/1999/xlink">
 <defs>
  <style type="text/css">
   <![CDATA[
    .fil0 {fill:#EF7F1A}
    .fil1 {fill:white;fill-rule:nonzero;fill-opacity:0.501961}
   ]]>
  </style>
 </defs>
 <g id="Layer_x0020_1">
  <metadata id="CorelCorpID_0Corel-Layer"/>
  <rect class="fil0" width="400" height="400"/>
  <path class="fil1" d="M49.83 93.31l10.17 0.8 0 0.82 -7.72 0 0 0.41 0.4 1.22 -0.4 0c-0.56,0 -0.82,-0.4 -0.82,-1.22l-0.41 -0.41 -0.82 0 0 2.03c0,0.56 0.41,0.82 1.23,0.82l0 1.22 -0.82 2.45 -0.41 0 0.41 0.4 -0.41 3.25 0.41 0.42 -0.41 2.03 0 3.66 -0.4 2.45 0.4 0.4 0 0.4 -0.4 3.67 0 2.03 -0.82 0.82 -0.4 0 0 -24.02c0,-1.4 0.4,-2.62 1.22,-3.65zm41.9 0.8l5.3 0 0.82 0.82 0.4 -0.4 0.4 0c1.36,0 2.04,0.26 2.04,0.81l-4.07 5.69 -2.44 -2.43 -0.82 0.81 -0.81 0 0 -0.41 1.23 -2.04 -4.89 -1.62 0 -0.81 2.84 -0.42zm-27.66 3.27l8.96 0.4 3.25 0c0.87,0.76 3.3,1.71 7.32,2.85 4.07,1.68 6.91,4.67 8.55,8.96l2.03 8.54 -4.88 0.82 -5.29 -0.42 -1.22 0.42c-0.85,-0.14 -1.93,-1.5 -3.26,-4.07 -1,-0.82 -1.95,-1.22 -2.85,-1.22l-1.63 0c-5.15,6.5 -7.73,11.52 -7.73,15.05l-0.81 11.39 1.63 0.82 1.62 -0.42 0.42 0.42 0.4 0 -0.4 2.85 0 3.25c0.62,4.33 2.25,6.51 4.87,6.51 1.8,-0.48 3.56,-1.98 5.3,-4.49l2.04 0 0.4 -2.02 0 -1.22c0,-1.91 -0.54,-2.85 -1.63,-2.85l-4.48 -1.22 0 -0.81 0.42 0c4.87,0 7.31,2.17 7.31,6.5 0,1.08 0.27,1.62 0.82,1.62l7.73 0 0.82 0.82 0 0.41c0,4.32 -2.71,9.33 -8.14,15.05 -5.89,3.53 -10.1,5.3 -12.61,5.3l-2.05 -0.41 -1.62 0.41 0 -0.81c0.82,0 1.22,-0.28 1.22,-0.82l0 -0.4c-6.43,0 -11.44,-5.98 -15.05,-17.91 -0.82,-3.15 -1.23,-6.4 -1.23,-9.76l0 -4.49c0,-13.94 3.13,-24.65 9.37,-32.13l0 -0.42 -0.41 -4.88 0.81 -1.62zm43.14 1.62l0.4 0.41 0 0.41c0,0.46 -0.95,0.86 -2.85,1.21l-0.4 -0.4 0 -0.4c1,-0.82 1.94,-1.23 2.85,-1.23zm-8.14 5.7l2.85 0 0.8 0.82 -4.07 32.54 -1.22 0.82 -0.81 -3.67 0.81 -21.97 0 -2.43 0.42 -0.42 -0.42 -0.4 0 -3.67 1.64 -1.62zm-17.5 2.04l-0.41 3.25 0.41 2.85c0.54,0 0.82,-0.82 0.82,-2.45l0.4 0c-0.33,-2.44 -0.74,-3.65 -1.22,-3.65zm1.62 18.71l0.41 0 0 1.22 -3.25 2.44c0,0.82 -0.28,1.23 -0.82,1.23l-0.81 -1.63 -4.07 0.81 0 -0.41c0,-0.54 2.57,-1.5 7.74,-2.84l0.8 -0.82zm21.57 8.96l0.4 0.4 0 0.4 -0.4 0.42 -0.4 0 -0.42 -0.42 0 -0.4 0.42 -0.4 0.4 0zm-44.76 5.29l1.62 0.8 1.64 -0.4 0 -0.82 -2.04 -0.4 -0.4 0 -0.82 0.82zm36.62 1.62l11.39 2.45 0 0.8 -8.94 -1.22 0 0.82c0,0.54 0.8,0.82 2.43,0.82l0 0.4 0.42 -0.4 0.4 0 2.44 1.21c-0.28,1.9 -0.68,2.84 -1.22,2.84l-1.22 0 -2.03 -1.62 -1.22 0.42 0 -0.42 0.4 -0.4c0,-0.82 -0.4,-1.22 -1.22,-1.22l0 -0.41 0.4 -0.4c0,-1.64 -0.94,-2.44 -2.85,-2.44l-0.4 -0.42 0 -0.4 1.22 -0.41zm-48.41 5.3c0.54,0 0.94,1.62 1.21,4.87l-0.41 0 0.41 0.42 0 0.4 -0.41 12.61 -0.4 0 -0.4 -0.4 -0.42 0 0.42 -1.63 -0.42 -9.36 0.42 -6.91zm46.79 19.93l0.8 0 0.42 2.44 8.94 0 0.82 0.82 -0.41 0.4 -8.95 0c-1.52,1.06 -2.87,1.6 -4.07,1.63l0 0.4c1.09,0 1.63,0.68 1.63,2.04l-7.32 0 -2.85 -0.4 0 -0.42c0,-0.54 0.4,-0.8 1.22,-0.8l0.41 -0.42 0 -0.4 -0.82 -1.22 0 -0.41 6.51 0c2.45,0 3.67,-1.22 3.67,-3.66zm26.53 -64.38c-0.14,-0.07 -0.25,-0.15 -0.36,-0.24l-3.27 1.63 -1.22 -0.4c-0.75,1.91 -1.97,8.16 -3.65,18.7l-2.85 10.59 -0.42 0.4 -1.21 3.26 0.41 0c2.44,0 3.65,0.69 3.65,2.03l0.42 0.42 -0.42 2.03 0 4.89 -0.4 1.62 0.4 0.4 -0.81 9.36 2.03 0.41 1.64 -0.41 0.4 0.41 7.74 -0.81 2.43 0c1.9,0 2.85,1.22 2.85,3.66l0 4.84c0,2.99 -0.4,4.47 -1.21,4.47l-7.74 0 -0.4 -0.4 -0.42 0.4 -2.02 -0.4 -9.77 0.4 -8.14 0 -1.22 -0.8 0.81 -17.88 -0.41 -25.62c1.36,-10.07 2.05,-17.13 2.05,-21.17l-0.42 -2.43c0.36,-1.64 0.76,-2.44 1.22,-2.44l14.25 -0.42c0.32,1.64 1.68,2.44 4.07,2.44 0.51,-0.08 1.01,-0.15 1.5,-0.23l0.49 1.29zm0.29 10.22c3.5,-0.46 5.25,-0.87 5.25,-1.22l-0.29 -0.25 -3.06 0 -6.1 -0.24 0 -0.44 0.28 0 9.49 -0.25 0.61 0.69 -0.32 0.7 1.21 0 2.44 0.48 1.56 0 5.76 0.45 0.34 -0.25 0 -0.2 1.5 0.2 1.83 0 0 0.49 -2.72 0 0 1.15 -1.55 1.41 2.16 2.57c-0.34,0.63 -0.64,0.93 -0.95,0.93l0.34 0.21 0 0.24 -0.95 0.69 -3.33 0c-0.6,0 -1.4,-1.08 -2.43,-3.25l-1.22 0 0 -0.46c1.4,0 2.11,-0.38 2.11,-1.16l0.32 -0.25 0.29 0 1.22 0.73 2.15 -0.25 0 -0.23c-1.62,-0.2 -2.44,-0.65 -2.44,-1.39l-0.93 0.21c-1.42,0 -2.11,-0.47 -2.11,-1.39l-0.34 0.24 -0.89 0 -0.33 -0.24 -0.28 0.24 -0.94 0 -0.28 -0.24 -0.33 0c-0.57,0 -0.97,1.71 -1.21,5.12 0.97,1.55 3.42,2.87 7.32,3.95l1.54 0.25 0.9 -0.25 0.32 0.25c-0.34,2.17 -0.86,3.25 -1.54,3.25l-0.9 2.08 0.29 0 1.22 -0.21 0.32 0 0.61 0.45 -1.83 0.48 -0.61 -0.48 -0.32 0c0,0.93 -0.61,1.69 -1.83,2.32l-1.84 -0.2 -3.94 0.45 -3.67 -0.45 -1.54 0 -0.61 -0.5 0 -0.23c0.62,0 0.93,-0.24 0.93,-0.7l0.29 -0.21 0.93 0 0.61 0.46 1.84 -1.39 1.51 -0.48 0.32 0 2.72 2.11 0.33 -0.24 0.28 0 -0.28 -1.18 1.84 -1.14 0.28 0.24 0 -0.24 -1.23 -1.18 0.34 -0.25 0 -0.69 -0.95 0.48 -0.28 -0.23 0 -0.45 1.23 0 0 -0.25c0,-0.32 -0.32,-0.48 -0.95,-0.48l0 -0.7 0.95 0 0 -1.14c-0.82,0 -1.54,1 -2.17,3.02l-0.89 0.69c-0.82,0 -1.94,-1.01 -3.37,-3.01l0 -0.25 0.32 -0.24c-1.85,-1.64 -2.77,-2.64 -2.77,-3.01l1.54 -2.32c-0.75,-1.22 -1.69,-2.1 -2.8,-2.65l-0.32 -0.77zm-14.09 -15.35l1.63 0 0 0.82 -1.63 0 0 -0.82zm-8.13 0.42l4.07 0 0 0.81 -4.07 0 0 -0.81zm12.2 0l1.23 0 0 0.81 -1.23 0 0 -0.81zm28.89 10.17c0,0.82 -0.54,1.22 -1.62,1.22l0 0.82 3.65 2.85 1.22 -0.82c0,-2.71 -1.08,-4.07 -3.25,-4.07zm-4.47 8.62l0 2.85 0.4 0 0.41 -2.03 -0.81 -0.82zm8.95 4.41l0.82 0.8 -0.41 0.4 -0.41 0 -0.81 -0.8 0.4 -0.4 0.41 0zm-4.48 10.16l0 0.41 -1.22 1.22 -0.4 0 0 -1.22 1.62 -0.41zm-12.2 1.23l0.81 0c0,2.16 0.95,4.06 2.85,5.69 -1.11,1.9 -2.47,2.85 -4.07,2.85 -5.43,-0.95 -8.14,-1.77 -8.14,-2.45 1.17,-0.54 3.34,-0.8 6.52,-0.8 1.34,-2.1 2.03,-3.86 2.03,-5.29zm9.76 0c0.54,0 0.82,0.4 0.82,1.22l1.22 0.4 -0.42 0.4 0 0.82 0.82 1.22 -0.82 0.81 -2.84 -4.07 0 -0.4 0.41 -0.4 0.81 0zm1.22 13.43l0.82 0 0 8.54 -0.42 0 -1.62 -1.23 0.82 -0.81 0 -2.03c0,-0.54 -0.4,-0.82 -1.22,-0.82l-0.41 -0.4 0 -0.41 0.41 -0.41c0,-0.54 0.54,-0.81 1.62,-0.81l0 -1.62zm-0.4 26.4l0.4 0 0.4 2.03 -0.4 0.41 -0.4 0 0 -2.44zm-3.71 -74.22l17.9 0.41 0.82 0.81 0 6.51 0.41 8.14c-2.17,0.54 -3.25,1.08 -3.25,1.63l0 10.98 2.02 25.64c0.56,0 0.82,0.68 0.82,2.03l0 1.22c0,0.38 -1.08,0.93 -3.25,1.63l-1.22 -0.41 -2.04 0.41 -2.85 -0.41c-4.07,0.28 -6.1,0.82 -6.1,1.63l0.41 0.4 6.51 0 8.14 -0.4 0.4 0.4 0 10.14 -0.4 0.4 0 0.42 -10.99 -0.42 -5.69 0c-0.68,0 -1.08,-0.54 -1.22,-1.62l-0.82 -8.92 0.4 -0.4 0.42 0 -0.42 -2.03 0 -3.67c0,-0.54 1.36,-0.94 4.07,-1.22l0 -2.03 -1.62 -26.04 0.41 -8.96 -2.86 0 -0.81 -0.8 0 -14.65 0.81 -0.82zm10.99 21.57l-0.41 0.4 0 0.42 0.41 1.2 -1.21 5.71 0.8 0 0 -0.82 1.23 0 0 0.4 -0.41 0.42 0 0.4 2.45 2.45 0.4 0 0.4 -4.89 0 -0.4 -0.8 -0.82 0.4 -2.03 0 -0.42c-1.28,0 -2.36,-0.66 -3.26,-2.02zm-24.61 -29.06l6.47 0 1.18 1.05 -0.57 0.57 -4.11 0 -2.97 -0.57 0 -1.05zm13.51 0l7.64 0 1.18 1.05 -0.61 0.57 -9.39 0 0 -0.57 1.18 -1.05zm15.86 2.69l1.18 0 0 1.06 -2.36 0 1.18 -1.06zm-2.36 1.06l1.18 0 0 2.15 -1.18 -1.05 0 -1.1zm25.76 19.21c0.71,0 1.25,1.08 1.63,3.25 -0.71,0 -1.25,-1.09 -1.63,-3.25zm-39.34 32.3l1.22 0 0 0.81 -2.04 0.42 0 -0.42 0.82 -0.81zm41.37 -28.65l0.82 0.82 0 0.4 -0.82 0 0 -1.22zm-10.69 50.46l1.22 0 0 0.82c-10.21,3.08 -15.36,4.85 -15.47,5.29l-0.41 0.4 0 0.41 -3.66 -0.41c0,-1.14 3.53,-2.36 10.58,-3.66 1.06,-0.77 3.64,-1.71 7.74,-2.85zm4.59 -45.17l-0.4 1.23 0.4 2.02 -0.4 0.42 0.4 0.4 0.41 0 0.4 -3.66 -0.4 -0.41 -0.41 0zm-6.11 2.85l0.82 0 1.23 -0.4 -0.82 -0.82 -1.23 1.22zm-1.21 2.44l0 0.41c2.71,-0.46 4.06,-1 4.06,-1.63l-0.4 -0.4 -0.4 0c-2.17,0.65 -3.26,1.19 -3.26,1.62zm-39.36 33.32l-2.43 0c0,0.82 -0.28,1.23 -0.82,1.23 0.6,2.18 1.68,3.26 3.25,3.26l2.45 0.4 1.62 -0.82 -0.4 -0.4 0 -0.4 0.4 -0.42 0 -0.4 -2.84 -3.25 -1.23 0.8zm36.59 -52.93l-1.23 -0.41 0 0.41c0.82,2.45 1.91,3.66 3.27,3.66l-0.82 -4.48 -1.22 0.82zm-0.93 -16.57l-1.23 4.07 0 2.86c0,2.35 0.95,4.12 2.85,5.28l0.4 0 0 -6.5 0.42 -0.42c0,-2.25 -0.82,-4.01 -2.44,-5.29zm-2.12 0.61l6.18 0.46 0 0.81 -4.15 0 -2.03 0.44 -0.4 -0.44 -0.41 0.44 -0.41 -0.44 0 -0.4c0,-0.57 0.41,-0.87 1.22,-0.87zm43.3 0.46l2.89 0 2.04 2.07 0.44 0 0.4 -2.07 0.82 0.81 0 2.12 -0.41 0.41 0 0.44 1.22 0.82 4.15 0 0 0.85 -2.07 0.44 -5.37 -0.44 -1.22 0.44 -2.89 -0.85 0 -0.44 0.82 0 0 -0.42 -2.89 -2.93 -0.42 0 0 0.82 -2.47 -0.82 -1.22 0 0 -0.84 6.18 -0.41zm-44.11 1.67c3.26,1.62 5.04,3.03 5.33,4.22 0,0.54 -0.4,0.82 -1.22,0.82l-1.27 -0.4 0 1.26c1.56,0 3.21,0.7 4.97,2.11l1.23 0 0 0.41 -3.31 2.93c-1.92,3.09 -3.29,4.64 -4.11,4.64l0 0.44c0,0.49 1.53,1.04 4.57,1.67l0 -0.41c0.69,-3.66 2.47,-5.48 5.32,-5.48l1.26 -1.27 -2.07 0.41 -0.41 0 -0.41 -0.41 -0.4 0c3.56,-5.04 8.08,-7.57 13.59,-7.57l2.08 0c2,0 3.1,0.42 3.29,1.27l-0.4 0.4 0 0.45 2.89 -0.45c8.51,3.56 12.77,10.99 12.77,22.29 0,0.57 -0.97,0.86 -2.89,0.86l0 0.41 -2.08 -0.41 -7.4 0c-0.46,0 -1.15,-2.23 -2.07,-6.7 -1.65,-1.7 -3.03,-2.53 -4.11,-2.53l-1.27 0c-4.66,0 -7,5.18 -7,15.54l-0.4 2.53c0,8.29 1.5,13.21 4.52,14.72 0.43,0 0.86,1.42 1.26,4.24l-0.86 2.93 2.89 0.84c4.97,0 7.44,-3.77 7.44,-11.34l1.22 -0.85 0.42 0.4 0.45 0 1.62 -0.4 -0.4 -0.42 0 -1.71c1.08,-0.88 1.62,-2.01 1.62,-3.37l0.45 -0.4 1.22 0 2.89 5.9c2.47,0.32 3.71,0.74 3.71,1.25l0 2.12c0,10.91 -3.86,18.48 -11.56,22.7l0.45 0.42 0 0.4 -0.45 1.3c1.06,0.84 2.31,1.27 3.74,1.27l0 1.25 -5.38 0 -2.07 -0.45 0 -0.8c1.39,0 2.07,-0.86 2.07,-2.57l-0.4 0 -5.78 0.86 -2.89 0c-8.57,0 -14.48,-4.62 -17.73,-13.88l-1.63 -8.83 0.81 -3.79 -0.81 -11.79 0.81 -0.82 2.88 0.4 2.05 0 0.84 -0.85c-2.76,-3.12 -4.15,-6.62 -4.15,-10.5l0 -6.3 -3.69 0c-0.57,0 -1.25,-1.13 -2.04,-3.38l-0.81 -0.86 0 -3.37c0,-0.52 1.08,-1.36 3.25,-2.53l0.4 -0.4 0 -2.11 -2.84 0 -0.81 -0.82 0 -4.64 0.81 -0.85zm20.18 7.57l0 0.85 0.41 0c1.29,0 3.64,-0.84 7.04,-2.52l0 -0.41 -0.45 0c-1.41,0 -3.74,0.69 -7,2.08zm-20.99 58.92c5.21,1.11 7.8,1.94 7.8,2.52 0,0.84 -2.73,1.55 -8.22,2.12l-0.44 -0.45 0 -3.35 0.86 -0.84zm45.32 5.9l1.22 0 0.86 0.8 -0.41 0.45 -0.85 0 -0.82 -0.85 0 -0.4zm-46.18 3.37l0.86 0 0 0.81 10.29 0.46 0 0.8 -2.07 0.45 -7.82 0 -1.26 -1.25 0 -1.27zm47.4 0.81l0.45 0 0.82 0.86 0 0.4 -0.82 0.86 -4.96 0 -0.82 -0.86 0.41 -0.4 0 -0.4 2.89 0.4 0.81 0 1.22 -0.86zm51.16 -75.85l1.22 0 -0.81 0.82 -0.41 -0.4 0 -0.42zm-46.8 3.27l11.39 0.8 3.27 -0.4 0.8 1.22 -0.8 15.88 0.4 1.2 0.4 0 10.58 -17.9 1.63 -0.4 7.74 0 0.82 0.82 0 0.4c-1.64,3.79 -6.52,12.21 -14.66,25.22l0 0.42c0,0.94 2.99,7.06 8.95,18.31l6.51 15.45 -0.4 6.48 0 3.66c0,1.41 -0.4,2.23 -1.22,2.45l-10.17 0c-0.93,0 -1.61,-2.59 -2.04,-7.74 -4.34,-15.28 -6.92,-23.53 -7.74,-24.78l-0.4 0c-1.63,0 -2.45,0.81 -2.45,2.45l2.05 26 -2.45 0.8 -7.73 0 -1.63 0.42c-1.08,-0.28 -1.63,-0.82 -1.63,-1.64l-1.22 -25.18 0 -9.76 0.41 -1.63 -0.41 -0.41 0.41 -4.88 -0.81 -26.86 0.4 -0.4zm48.42 6.51l0.82 0.81 -0.4 0.4 -1.23 0 0 -0.4 0.81 -0.81zm-55.33 0.81l0.82 1.62c-0.55,1.64 -1.09,2.44 -1.64,2.44l-0.41 0 0 -2.84 1.23 -1.22zm-1.63 4.88l0.4 0 0.82 0.81 0 0.42 -1.22 0 0 -1.23zm47.2 3.25l0.41 0c0.81,0 1.21,2.05 1.21,6.12l0.42 0.4 0.4 0c0.06,-1.08 0.33,-1.63 0.82,-1.63l-1.22 -2.84 1.22 -0.82 0.4 0c0,1.45 0.82,2.27 2.45,2.44l0 0.4 -0.42 0.41 -0.4 0 -0.41 -0.41 -0.4 0 -2.04 5.3 0.4 1.62 -0.8 0.82 1.22 2.03 2.03 -0.4 0.82 2.44 -2.45 0.81 -1.22 -0.41 -1.22 0.82 0.4 4.88 -0.4 4.89 0.4 3.25 -0.4 0.4 -2.03 0 -0.82 -0.81c0.4,0 0.95,-1.5 1.63,-4.48 0,-5.96 -0.81,-8.95 -2.43,-8.95l0 -0.82c0,-0.97 0.54,-2.05 1.62,-3.25l0 -2.03 -0.42 -1.63c0.53,-1.25 1.07,-1.92 1.64,-2.03l-0.82 -2.45c0,-0.54 0.41,-0.82 1.23,-0.82l-0.82 -1.2 0 -2.05zm-24 19.95l0 0.4 0.8 0.82 0.42 0 0 -1.22 -1.22 0zm29.29 44.71l0.4 0.41 0 0.41 -0.4 0.4 -0.41 0 -0.4 -0.4 0 -0.41 0.4 -0.41 0.41 0zm20.51 -79.42l7.53 0.81 4.31 -0.41 2.4 0 15.79 0.41 0.4 0.41 0 1.59 -1.18 7.23 0.42 0 3.53 -0.4 0.82 1.18c0,3.47 0.26,5.89 0.77,7.24l-0.41 0.41 -2.36 0 -8.7 0.41 0 1.18 1.99 14.44c-0.54,1.22 -0.82,2.97 -0.82,5.25l0 8.42c1.33,0 2,0.28 2,0.82l0 1.58 0.78 18.85c0,0.54 -5.54,0.94 -16.61,1.22l-0.37 -0.42 0 -4.02 -0.4 -13.63 0.77 -1.18 -1.19 -26.08 1.19 -4.43 0 -0.82 -1.19 -1.18 -9.06 0.77c-3.17,-1.11 -4.77,-1.91 -4.77,-2.4 1.34,0 2.25,-2.01 2.78,-6.03l-0.42 -1.18 1.18 -0.4 0 -2.04 -0.36 -6.79 1.18 -0.81zm17.38 8.01l0 0.41 0.8 0.82 0.42 0 0 -1.23 -1.22 0zm13.05 66.62l0 1.22 -5.52 0 0 -0.82 0.76 0 4.76 -0.4zm-26.08 0.8l0.37 0 0.41 0.42 1.98 -0.42 4.36 0 0.78 0.82 -0.41 0.4 -1.18 0 -5.94 0.41 -0.37 -0.41 0 -1.22zm76.54 -84.35l3.25 0.41 0 8.14 -0.8 0.82c-1.71,0 -2.81,-1.5 -3.27,-4.48l-0.4 0c0.26,-3.26 0.68,-4.89 1.22,-4.89zm0.81 5.7l0 0.4 0.41 0.42 0 0.4 -0.41 0.4 0.41 0 0.41 -0.4 0 -1.22 -0.82 0zm-46.79 2.04l5.69 0.4 0 0.82 -4.88 0.41 -0.81 0 -0.81 -0.82 0.81 -0.81zm21.56 1.63l1.23 0.8 0.4 -0.4 3.67 0c7.45,0 12.34,5.15 14.65,15.46l0.4 3.26 -0.82 5.29c2.17,0.27 3.27,0.68 3.27,1.22l0 0.41c0,0.54 -0.82,1.08 -2.45,1.62l-0.4 1.22 -0.42 8.14 0.82 1.63c0,16.85 -5.15,27.15 -15.47,30.93l-3.65 0.4c-7.85,0 -13.81,-6.23 -17.91,-18.72 -1.62,-4.58 -2.44,-10.14 -2.44,-16.68 0,-10.14 1.36,-18.42 4.07,-24.82 2.93,-4.58 7.68,-7.83 14.23,-9.76l0.82 0zm22.8 0.8c1.34,0.08 2.02,0.36 2.02,0.82l-0.82 2.85 0.42 0.4 0.4 0c-0.82,1.31 -1.22,2.53 -1.22,3.67l-0.8 0 0 -4.07c0,-1.11 -0.82,-2.2 -2.45,-3.25l0.41 -0.42 2.04 0zm-44.77 1.64l0.81 0 0 2.03 -0.4 0.4 0.81 1.64 -0.41 0.4 -0.81 0 0 -4.47zm24.82 11.39c0,0.65 -1.76,2 -5.29,4.07 -1.62,2.6 -2.44,4.5 -2.44,5.69l0.41 2.85 -0.82 7.74 0.41 1.22 -0.81 2.85c0,11.12 2.45,16.68 7.32,16.68 2.71,0 4.75,-2.85 6.11,-8.55l-0.42 -2.84 0 -4.07 0.42 -12.21c-2.99,-0.28 -4.49,-0.68 -4.49,-1.22 0,-0.54 1.37,-0.96 4.07,-1.23l0 -3.25c-0.48,-5.16 -1.97,-7.73 -4.47,-7.73zm9.77 6.91l0 1.63 0.82 0 1.62 -1.22 3.25 1.22 0.42 0 -0.42 -0.4 0 -0.41 0.42 -1.63 -1.64 -0.81 -0.81 0c-2.09,0 -3.3,0.54 -3.66,1.62zm-34.59 -1.62l0.41 0 1.22 1.22 -0.41 1.22 -1.22 0 -0.82 -1.63 0.82 -0.81zm32.96 4.88l0 0.81 1.22 0 0 -1.62 -0.4 0 -0.82 0.81zm12.21 36.62l0.8 0 0 1.22 -0.8 0 0 -1.22zm-45.17 4.07l0.41 0 0.81 0.82c0,0.54 -0.4,0.81 -1.22,0.81 1.34,1.05 2,2.27 2.03,3.66l-0.81 1.63 0.41 1.62 -0.41 0.42 1.63 0.8 4.47 -0.4 1.63 0.4 0.41 -0.4 6.92 0.4 10.99 0 0 0.82 -1.23 0 -24.41 1.23 -2.85 -1.64 0.4 -4.06 0 -5.29 0.82 -0.82zm45.97 0.82l0.82 0.81 1.23 -0.41 0 0.41c0,5.69 -0.95,8.54 -2.85,8.54l-0.82 0.82 -2.03 -0.41 -0.4 0.41 0.4 0.4 0 1.22 -4.07 0.42 -1.62 0c-0.54,0 -0.82,-0.54 -0.82,-1.64l-1.22 0 -4.48 -0.81 -2.04 0 0 -0.41c0,-0.73 5.71,-1.55 17.1,-2.43l-0.4 -1.63 0.4 -2.04 -0.4 -2.44 1.2 -0.81zm-303.83 24.81l26.19 1.15 0 1.12 -4.55 0 -2.28 0.59 -0.56 -0.59 -3.99 0.59 -13.1 0 -1.71 1.71 0 3.4 0.56 2.86 -0.56 0 0.56 0.57 0 0.58 -1.13 13.08 -1.14 0 0 -3.4 -0.57 -6.28c0.76,-1.48 1.13,-3.56 1.13,-6.26l0 -2.84 0.58 -0.58 -1.14 -4.55 1.71 -1.15zm63.74 0.58l2.86 0.57 3.4 0 0.58 0.56 0.57 0 -0.57 11.4 0 3.98 -1.15 0 -0.56 -2.84 0 -10.26 -2.86 -0.57 -24.48 -1.15 0 -1.12 18.78 0 3.43 -0.57zm-31.27 0.57l2.27 0 0 1.12 -2.27 0 0 -1.12zm23.92 2.84l2.86 0 1.12 1.14 0 0.57 -5.11 0 0 -0.57 1.13 -1.14zm-26.2 4.57l3.99 0c11.49,0 19.66,5.69 24.48,17.09l1.15 9.68 -1.15 1.13 -15.38 -1.13 -0.56 0.57c0,-4.94 -3.6,-7.98 -10.83,-9.12 -4.83,0 -7.66,3.03 -8.54,9.12l0 4.54 0.56 0c12,0 23.98,6.29 35.9,18.81l0.56 -1.71c0,-4.86 -2.84,-9.22 -8.53,-13.11 1.55,-1.09 3.63,-1.67 6.26,-1.69 2.66,0 3.98,1.32 3.98,3.99l0.57 4.55 -0.57 4.55c0.51,9.62 1.27,15.3 2.28,17.09l-1.13 3.98 0.57 1.71 -0.57 0 0.57 0.59 -0.57 3.98 0 6.83c0,0.95 -1.71,1.9 -5.13,2.86 -5.99,9.1 -14.92,13.67 -26.78,13.67 -14.19,0 -23.51,-6.85 -27.9,-20.52l-1.15 -6.26 0.57 -0.56 2.29 0c7.31,0 12.83,-0.39 16.51,-1.15 1.67,5.7 5.66,8.54 11.96,8.54l0.58 0c3.79,0 5.7,-4.36 5.7,-13.09l1.13 -6.28 -2.28 -1.71 -0.56 0 -9.69 1.71 -3.98 0c-7.99,-1.96 -11.98,-4.82 -11.98,-8.54l0 -5.69c-4.16,-3.43 -6.26,-9.32 -6.26,-17.66l0 -4.57c0,-7.47 4.55,-14.11 13.67,-19.93 4.41,-1.52 7.83,-2.27 10.26,-2.27zm35.32 9.68l0.56 0 0 2.27 -0.56 0 -1.15 -1.14 1.15 -1.13zm-0.57 9.68l1.13 0 0 2.28 -1.13 0 0 -2.28zm-47.29 10.25l0 1.71 1.71 0 0 -1.71 -1.71 0zm-19.36 9.12l1.14 0c0,2.27 0.76,3.42 2.28,3.42l0 1.13c-1.95,0 -3.07,-0.56 -3.42,-1.71l0 -2.84zm39.29 50.69l0 0.58 4.01 0 0 -0.58 -1.71 -0.56 -2.3 0.56zm25.65 0.58l1.13 0c0.91,0 1.5,1.89 1.71,5.7l-0.56 0.57 0 0.56 0.56 2.27c0,0.84 -2.08,1.6 -6.26,2.3 0,1.13 -0.56,1.69 -1.71,1.69l-6.26 -2.27c-1.91,0 -2.86,-0.37 -2.86,-1.13l0.58 -0.59 5.12 0 9.68 -0.56 0 -3.42 -0.56 -2.84 -2.84 0 -1.15 -1.15 3.42 -1.13zm-64.38 5.12c0.64,0 1.23,1.34 1.71,3.98l0.57 0 15.38 0.59 0 1.13 -0.57 0c-3.19,0 -6.41,0.58 -9.68,1.71 -6.07,-0.64 -9.12,-1.6 -9.12,-2.84 0.27,-3.05 0.84,-4.57 1.71,-4.57zm71.27 -95.86l10.53 1.12 6.03 -0.56 3.37 0 22.1 0.56 0.57 0.59 0 2.21 -1.65 10.14 0.58 0 4.94 -0.57 1.14 1.65c0,4.87 0.37,8.25 1.09,10.13l-0.58 0.59 -3.31 0 -12.17 0.56 0 1.66 2.78 20.22c-0.76,1.71 -1.14,4.16 -1.14,7.35l0 11.78c1.86,0 2.8,0.39 2.8,1.15l0 2.21 1.08 26.39c0,0.76 -7.75,1.32 -23.25,1.71l-0.51 -0.58 0 -5.64 -0.56 -19.08 1.07 -1.65 -1.65 -36.51 1.65 -6.21 0 -1.14 -1.65 -1.66 -12.7 1.09c-4.43,-1.55 -6.67,-2.68 -6.67,-3.36 1.87,0 3.15,-2.82 3.89,-8.44l-0.59 -1.65 1.66 -0.57 0 -2.86 -0.51 -9.51 1.66 -1.12zm24.32 11.22l0 0.56 1.13 1.15 0.58 0 0 -1.71 -1.71 0zm18.28 93.25l0 1.71 -7.74 0 0 -1.14 1.07 0 6.67 -0.57zm-36.52 1.13l0.53 0 0.56 0.58 2.78 -0.58 6.11 0 1.08 1.15 -0.58 0.56 -1.65 0 -8.3 0.57 -0.53 -0.57 0 -1.71zm70.59 -120.09l1.14 0 1.13 1.15 -0.56 0.56 -0.57 0 -1.14 -1.13 0 -0.58zm23.35 7.41l1.14 0c7.74,1.53 11.92,2.86 12.53,3.99l-1.71 0.58c-6.98,-1.48 -10.97,-3.02 -11.96,-4.57zm-35.31 1.15l0.56 0 0 1.14 -1.71 1.7 0 -1.7 1.15 -1.14zm-43.31 0.56l6.85 0 0.56 0.58 0.57 -0.58 3.98 0c6.09,0 9.12,0.58 9.12,1.71l-0.56 0.57 -6.85 0 -8.53 -0.57 -5.7 0.57 -0.58 -0.57 0 -0.56 1.14 -1.15zm23.36 0l0.58 0 1.69 1.71 -0.56 0.57 -2.28 0 -1.14 -1.13 1.71 -1.15zm7.41 0.58l1.14 1.13 -0.58 0.57 -3.4 0 -1.15 -1.13 0.56 -0.57 3.43 0zm26.21 1.13c11.76,3.19 17.65,5.29 17.65,6.26 2.55,12.91 4.45,19.37 5.7,19.37l0.56 2.29 2.86 -0.58c1.52,0.66 2.28,1.98 2.28,3.99l0 1.14 -0.57 2.28 0.57 1.71 -0.57 0 0.57 0.56 0 1.15c1.14,20.13 3.03,30.2 5.69,30.2l-0.56 2.27 7.39 26.22 1.15 5.11 -0.57 0.58 -25.06 0 -5.7 0.57 1.13 1.71 -2.28 0c-9.48,-1.64 -14.23,-3.35 -14.23,-5.14l0 -0.56 1.71 -0.56 6.26 1.12 3.42 -0.56 10.25 0.56 3.42 0c-0.87,-14.06 -2.02,-21.07 -3.42,-21.07l-8.53 0.56 -7.41 0c-4.18,0 -6.28,0.95 -6.28,2.86l-3.99 12.52 1.15 2.86 -0.57 0.56 1.13 1.15 0 0.56c-1.13,0 -1.71,0.39 -1.71,1.15l0 0.56 0.58 0.57 0 0.58 -7.99 3.99 0 0.56c-4.16,0 -6.26,-2.08 -6.26,-6.26l-5.11 -1.15 0 0.57 -2.86 2.29 -0.57 -0.58 -0.58 0 1.15 -3.4 -0.57 0 -3.42 -1.71 1.15 -5.7 -0.58 0c-0.96,0 -2.28,-0.76 -3.99,-2.3l-0.56 0 -5.7 0.59 3.42 6.26 0 0.56 -1.15 1.15 -0.56 0 -0.56 -2.86 -0.59 0.58 -1.12 0 0 -0.58 0.56 -0.56 0 -0.57c-3.79,-1.14 -5.7,-2.47 -5.7,-3.98l-1.15 0 -0.56 2.84 0 0.58c3.03,0 4.55,0.56 4.55,1.69l-0.56 0 0.56 0.58 0 1.13c-0.76,0 -1.13,-0.56 -1.13,-1.71l-2.86 0.58 0 1.13c3.06,0.23 4.57,0.8 4.57,1.71l0 0.59c-5.69,-0.92 -8.55,-2.07 -8.55,-3.43l0 -1.71 3.42 -9.68 21.64 5.11c5.33,-13.08 9.51,-25.82 12.54,-38.15 2.71,-4.1 5.35,-12.46 7.98,-25.08 1.03,-0.9 2.54,-5.83 4.55,-14.8 2.33,-7.21 3.85,-10.83 4.57,-10.83zm47.27 9.12l0.58 0 5.11 1.15 0 0.56 -1.12 1.13 -1.15 0 -3.42 -2.84zm-11.96 1.71l1.15 1.13 -0.57 0.58 -0.58 0 -1.13 -1.14 0.56 -0.57 0.57 0zm-29.62 10.25l0 1.15 2.28 0 -1.15 -1.15 -1.13 0zm30.77 3.42l19.93 0 1.14 1.13 0 15.96 0.57 3.43 -0.57 2.83 0.57 0.57 0 0.58 -0.57 0.57 0 0.56 0.57 4.57 -0.57 0.56 0.57 2.84 0 8.56 1.14 0 0 0.56 -1.14 1.15 -5.14 0c-7.21,0 -11.39,0.56 -12.52,1.71l-1.15 -1.15 0 -1.15 9.69 -1.12 -0.57 -0.57 0.57 -6.84 -1.71 -9.68 0.58 -0.57 0.56 0c1.83,0 2.96,1.71 3.43,5.12l-1.15 7.4c1.15,0.39 1.71,1.52 1.71,3.43l0 0.56 -0.56 0.58 0 0.57 3.98 0 0 -21.64 -1.15 -1.72 0.59 -0.58 0.56 0 -0.56 -3.98 0 -6.27 -0.59 -0.56 0 -0.58 -3.98 0.58 -0.57 0 -1.14 -1.15 0 -0.56c0,-0.76 0.58,-1.15 1.71,-1.15l0.56 -0.56 0 -0.57 -2.84 -0.58 -5.69 0 -1.15 1.15 -2.84 -0.57 -3.42 0 0 1.13 -1.13 0 0 -1.13c-3.05,-0.99 -4.57,-1.75 -4.57,-2.29l0 -0.56 6.85 -0.57zm15.38 3.42l0 0.57 3.42 1.15 0 -0.59 -1.15 -1.13 -2.27 0zm-100.84 4.55l0.58 0.57 0 0.58 -0.58 0.56 -0.57 0 -0.56 -0.56 0 -0.58 0.56 -0.57 0.57 0zm55.82 7.98l-4.55 15.96c4.34,1.89 7.37,2.84 9.12,2.84l0.56 -0.56 0 -0.59 -3.42 -17.65 -1.71 0zm-61.52 10.26l1.15 2.28 -0.57 0.56 -0.58 0 -1.13 -1.71 1.13 -1.13zm0.58 5.12l0.57 0.58 0 0.56 -0.57 0.57 -0.58 0 -0.56 -0.57 0 -0.56 0.56 -0.58 0.58 0zm57.54 5.69l0 2.28 1.13 1.15 1.71 0 0.56 -2.86 -0.56 -0.57 -2.84 0zm41.57 1.72l0.58 0.56 0 0.58 -0.58 0.57 -0.56 0 -0.57 -0.57 0 -0.58 0.57 -0.56 0.56 0zm-93.41 23.35l0 1.71 1.69 1.15 2.3 0 0 -1.15c-2.3,0 -3.43,-0.57 -3.43,-1.71l-0.56 0zm-7.41 18.24c9.86,0 14.8,0.75 14.8,2.27l-0.57 0.57 -4.55 0c-7.97,0 -11.97,-0.57 -11.97,-1.72l2.29 -1.12zm18.22 1.12l2.86 0 0 1.15 -2.86 0 0 -1.15zm88.86 0l1.15 0 1.15 1.15 -0.59 0.57 -1.71 0 0 -1.72zm-46.14 6.85l1.15 0 1.14 1.15 -2.29 0 0 -1.15zm9.12 2.84l1.71 0 1.15 1.15 -2.86 0 0 -1.15zm27.86 -38.91c0,-0.86 -0.04,-1.67 -0.11,-2.45l-0.45 -12.35 -1.15 -6.28 1.71 -1.13 -1.14 -14.25 0.58 -3.4 0 -11.98c0,-0.68 -1.71,-1.24 -5.13,-1.71l0 -0.56c0,-0.92 1.51,-1.68 4.55,-2.28l0 -2.27c0,-3.31 1.34,-9.01 3.98,-17.1l15.38 1.15 3.43 -0.58c7,1.14 12.6,1.55 16.8,1.26l0.58 0c6.9,0.29 11.74,5.19 14.52,14.7l1.13 12.52c0,11.63 -3.79,20.56 -11.39,26.78l0 1.15c3.69,7.41 6.73,20.12 9.12,38.17 0,2.27 1.51,4.92 4.57,7.97l-0.59 0.56 -0.56 0c-14.82,0.37 -22.23,-0.19 -22.23,-1.71 -1.51,-2.88 -2.27,-5.74 -2.27,-8.54l0.58 0 -2.86 -22.22 0.57 -2.84 -1.71 -2.29c-6.83,0.23 -10.25,0.99 -10.25,2.29l0 3.99 0.56 3.4 -0.56 1.71 0.56 0.58 -0.56 3.99 0 3.4 0.56 3.42 -0.56 2.28 0.56 1.71 -0.56 2.86 0.56 6.26 -1.71 1.15 -14.23 0 -1.71 1.13 -1.71 -5.7 0.58 -5.12 -0.58 -0.58 0 -0.56 1.14 -16.53zm60.38 -72.92l3.42 0 0.57 0.59 0.58 -0.59 0.56 0 1.15 1.15 0 3.42 -0.58 0.57 0.58 0.56 0 10.27 0.56 2.27 -1.14 5.7 -1.13 0c0,-2.14 -0.95,-6.13 -2.86,-11.96l1.71 -2.29 1.15 0 0 -7.98 -4.57 -0.56 0 -1.15zm-43.28 21.66l-2.86 -1.14 -1.71 0.56 0 1.15 0.58 2.27 -0.58 1.71 1.71 0c0.76,0 1.34,-1.14 1.71,-3.42l1.15 0 1.12 6.28 -0.56 6.26c1.83,1.89 3.91,2.84 6.26,2.84l2.86 0c4.9,0 7.74,-4.55 8.54,-13.67l0 -2.27c-0.57,-4.18 -1.52,-6.26 -2.84,-6.26 -9.88,0.56 -14.82,1.71 -14.82,3.4l-0.56 2.29zm26.19 -1.71l-0.57 0.57 0 0.56 0.57 0.58 0.58 0 0.56 -0.58 0 -0.56 -0.56 -0.57 -0.58 0zm20.51 8.54l1.71 0 1.15 1.15 0 11.95c0,2.67 -0.39,3.99 -1.15,3.99l1.15 6.26 -0.58 3.42 0 1.15 0.58 2.28c0,1.51 -1.34,2.27 -3.99,2.27 -0.39,1.52 -1.14,2.28 -2.29,2.28 -3.75,-1.56 -5.66,-2.69 -5.7,-3.41 1.15,0 1.71,-0.75 1.71,-2.29l0.59 0c1.51,1.15 3.79,1.71 6.82,1.71l0.57 -0.56 0 -0.57 -0.57 -0.58 -0.56 0.58 -1.71 0 -1.15 -1.14c0,-1.64 0.95,-3.54 2.86,-5.7l1.13 1.14 0.58 -6.28 -0.58 0 -0.57 0.59 -0.56 0 -0.57 -0.59 0 -0.56 0.57 -2.27 -0.57 -1.72 1.13 -1.12 -1.13 -6.28 0 -4.55 1.13 -1.15zm-50.69 3.42l-0.58 3.99 0 2.86 1.14 1.12 0.57 -1.71 -0.57 -6.26 -0.56 0zm21.64 6.85l0 0.56c2.35,4.18 4.82,6.26 7.41,6.26l2.27 -0.56c0,-2.67 -2.27,-4.94 -6.82,-6.85l-1.15 -1.13 -1.71 1.72zm-1.15 26.19l0 0.58 2.86 0.56 0.57 0 0 -0.56 -1.13 -1.15 -2.3 0.57zm26.21 0l1.15 0 0 3.42 -1.15 0 0 -3.42zm2.86 13.67l1.13 1.14 0 3.43 -1.13 1.12c-1.53,-0.56 -2.29,-1.12 -2.29,-1.71l0 -1.69 2.29 -2.29zm-0.58 20.51l1.15 1.15 -0.57 0.56 -1.14 0 -1.15 -1.15 0.58 -0.56 1.13 0zm-62.09 6.2l2.28 0 6.84 1.71 0.57 -0.56 1.14 0 0 0.56 11.38 -0.56 0.58 0c9.88,0 14.82,0.56 14.82,1.71l-2.86 1.15 -3.98 -0.58 -3.43 0 -18.8 -0.57 -7.97 0.57 -2.84 -1.13 0 -1.15 2.27 -1.15zm61.82 -105.48l10.54 1.12 6.02 -0.56 3.37 0 22.11 0.56 0.56 0.59 0 2.21 -1.65 10.14 0.58 0 4.94 -0.57 1.15 1.65c0,4.87 0.37,8.25 1.09,10.13l-0.59 0.59 -3.3 0 -12.18 0.56 0 1.66 2.79 20.22c-0.76,1.71 -1.15,4.16 -1.15,7.35l0 11.78c1.87,0 2.8,0.39 2.8,1.15l0 2.21 1.09 26.39c0,0.76 -7.76,1.32 -23.26,1.71l-0.5 -0.58 0 -5.64 -0.57 -19.08 1.07 -1.65 -1.65 -36.51 1.65 -6.21 0 -1.14 -1.65 -1.66 -12.7 1.09c-4.43,-1.55 -6.67,-2.68 -6.67,-3.36 1.87,0 3.15,-2.82 3.89,-8.44l-0.58 -1.65 1.65 -0.57 0 -2.86 -0.51 -9.51 1.66 -1.12zm24.32 11.22l0 0.56 1.13 1.15 0.58 0 0 -1.71 -1.71 0zm18.28 93.25l0 1.71 -7.74 0 0 -1.14 1.07 0 6.67 -0.57zm-36.52 1.13l0.53 0 0.56 0.58 2.78 -0.58 6.11 0 1.09 1.15 -0.59 0.56 -1.65 0 -8.3 0.57 -0.53 -0.57 0 -1.71z"/>
 </g>
</svg>
