<?xml version="1.0" encoding="UTF-8"?>
<!DOCTYPE svg PUBLIC "-//W3C//DTD SVG 1.1//EN" "http://www.w3.org/Graphics/SVG/1.1/DTD/svg11.dtd">
<!-- Creator: CorelDRAW Home & Student 2019 -->
<svg xmlns="http://www.w3.org/2000/svg" xml:space="preserve" width="400px" height="400px" version="1.1" style="shape-rendering:geometricPrecision; text-rendering:geometricPrecision; image-rendering:optimizeQuality; fill-rule:evenodd; clip-rule:evenodd"
viewBox="0 0 125 125"
 xmlns:xlink="http://www.w3.org/1999/xlink">
 <defs>
  <style type="text/css">
   <![CDATA[
    .fil0 {fill:#B9C599}
    .fil9 {fill:#313130}
    .fil2 {fill:#323130}
    .fil8 {fill:#323332}
    .fil10 {fill:#33312F}
    .fil3 {fill:#333132}
    .fil4 {fill:#BB5D42}
    .fil6 {fill:#FD6A1F}
    .fil11 {fill:#FDEDCC}
    .fil1 {fill:#FE6A1F}
    .fil5 {fill:#FF9613}
    .fil7 {fill:white}
   ]]>
  </style>
 </defs>
 <g id="Layer_x0020_1">
  <metadata id="CorelCorpID_0Corel-Layer"/>
  <rect class="fil0" width="125" height="125"/>
  <g id="_1065579056">
   <path class="fil1" d="M90.95 53.99c1.1,1.42 2.45,4.46 3.71,9.03 1.25,4.56 3.22,9.05 6.68,8.97 3.46,-0.08 3.15,-2.75 3.71,-3.8 0.35,-0.66 0.93,-2.25 4.24,-0.45 3.3,1.81 2.02,3.42 1.45,4.75 -0.62,1.44 -3.33,6.37 -9.75,6.18 -5.94,-0.17 -8.37,-3.11 -10.65,-7.51 -2.28,-4.4 0.61,-17.17 0.61,-17.17l0 0z"/>
   <path class="fil2" d="M92.87 75.11c0,0 1.51,-0.38 3.07,-1.83 1.34,-1.23 2.45,-2.57 2.45,-2.57 0,0 -0.79,-0.94 -1.41,-1.94 -0.92,-1.49 -1.33,-2.69 -1.33,-2.69l-5.9 4.13c0,0 0.95,1.54 1.45,2.53 0.66,1.37 1.67,2.37 1.67,2.37l0 0z"/>
   <path class="fil1" d="M28.6 34c0,0 -0.17,-5.9 4.16,-6.85 4.72,-1.02 6.29,4.17 6.29,4.17l-2.67 3.38 -7.78 -0.7z"/>
   <path class="fil1" d="M67.69 74.58c0,0 2.14,5.67 2.36,7.78 0.41,4.16 -3.22,4.9 -2.83,7.87 0.25,1.94 1.95,2.44 5.82,2.44 4.87,0 7.23,-2.28 7.23,-2.28l1.74 -20.92 -14.63 1.73 0.31 3.38 0 0z"/>
   <path class="fil1" d="M34.24 68.66c0,0 -2.23,5.62 -4.48,8.43 -2.24,2.8 -6.16,6.23 -5.87,11.06 0.18,2.96 1.93,4.27 3.94,4.67 2.07,0.41 4.47,-0.14 5.57,-2.74 1.1,-2.59 1.1,-4.56 1.1,-4.56 0,0 4.77,-5.17 6.26,-6.74 1.5,-1.58 4.28,-4.03 4.28,-4.03l-10.8 -6.09 0 0z"/>
   <path class="fil3" d="M32.53 81.48c0.89,-1.22 -0.24,-2.4 -1,-3.07 -1,-0.88 -1.86,-1.24 -1.86,-1.24l-1.71 2.04c0,0 1.04,0.67 1.8,1.38 0.64,0.6 2,1.96 2.77,0.89l0 0z"/>
   <path class="fil3" d="M30.94 75.41c0,0 1.29,0.88 1.59,1.17 0.29,0.3 1.56,1.18 2.09,0.59 0.78,-0.87 -0.14,-2.12 -0.74,-2.86 -0.52,-0.65 -1.5,-1.53 -1.5,-1.53l-1.44 2.63z"/>
   <path class="fil4" d="M29.81 88.35c-1.29,0.71 -1.88,2.04 -1.41,3.19 0.43,1.06 2.48,1.59 4.31,0.03 0.93,-0.79 1.18,-2.62 0.62,-3.21 -0.56,-0.59 -2.09,-0.78 -3.52,-0.01z"/>
   <path class="fil4" d="M26.72 90c-0.77,0 -1.86,0.55 -1.5,1.59 0.26,0.77 2.47,1.47 2.86,0.16 0.3,-1.01 -0.77,-1.75 -1.36,-1.75z"/>
   <path class="fil5" d="M33.08 65.46l-4.24 -2.36c0,0 -5.8,0.36 -9.36,-1.81 -3.33,-2.03 -5.58,-4.87 -6.06,-8.02 -0.48,-3.15 -0.41,-6.21 0.15,-7.24 0.55,-1.02 1.58,-1.25 3,-1.8 1.41,-0.55 3.54,-1.84 3.54,-1.84 0,0 0.31,-2.49 1.79,-4.59 2.2,-3.15 3.79,-3.4 4.58,-3.8 0.78,-0.38 8.57,-0.78 8.57,-0.78l1.88 -0.16 2.36 -4.09c0,0 3.07,-2.2 6.77,-0.39 3.7,1.82 3.86,6.29 3.62,7.87 -0.24,1.57 -0.79,2.83 -0.71,3.38 0.04,0.27 1.67,1.65 3.15,3.14 1.44,1.46 2.49,2.71 3.09,3.07 0.61,0.37 8.15,-0.9 17.05,-0.24 8.99,0.68 14.89,2.39 18.2,7.11 3.3,4.72 3.34,9.89 2.4,15.39 -0.94,5.5 -3.94,11.01 -4.25,11.88 -0.32,0.86 -0.32,6.99 -0.32,8.57 0,1.57 0.58,8.26 -4.56,8.35 -2.93,0.04 -5.75,0.52 -6.93,-1.92 -1.18,-2.44 -0.21,-5.37 -0.21,-5.37l2.34 -2.55 -0.32 -4.48 -4.71 -4.57 -0.87 -3.46 -9.04 0.39c0,0 -7.4,1.18 -7.87,1.74 -0.46,0.55 -1.65,8.1 -2.04,11.95 -0.39,3.85 -2.18,7.57 -3.44,8.12 -1.26,0.54 -3.69,1.44 -6.99,0.7 -3.01,-0.67 -3.6,-3.57 -1.8,-5.93 1.16,-1.52 2.28,-2.07 2.28,-2.07 0,0 -0.21,-4.36 -0.33,-8.31 -0.09,-2.9 -0.04,-5.62 -0.24,-5.99 -0.47,-0.87 -6.62,-8.87 -6.62,-8.87l-3.86 -1.02 0 0z"/>
   <path class="fil2" d="M99.86 71.72c0,0 -0.08,2.54 -0.35,3.62 -0.47,1.92 -1.21,3.04 -1.21,3.04 0,0 1.65,0.48 3.95,0.36 2.15,-0.12 3.62,-1.05 3.62,-1.05 0,0 -1.08,-2.46 -1.38,-3.23 -0.29,-0.76 -1.21,-2.98 -1.21,-2.98 0,0 -0.5,0.29 -1.53,0.44 -0.18,0.03 -0.36,0.04 -0.53,0.04 -0.46,0 -0.92,-0.08 -1.36,-0.24l0 0z"/>
   <path class="fil2" d="M104.44 70.16c0,0 1.65,0.47 3.06,1.12 1.42,0.65 3.07,1.65 3.07,1.65 0,0 1.59,-3.19 1.89,-5.42 0.2,-1.6 -0.34,-3.65 -1.95,-4.25 -2.07,-0.76 -4.13,0.71 -4.9,3.07 -0.77,2.37 -1.17,3.83 -1.17,3.83l0 0z"/>
   <path class="fil6" d="M46.39 37.77c0,0 1.95,-4.48 -0.88,-6.02 -2.83,-1.53 -4.48,2.72 -4.48,2.72 1.73,1.15 3.56,2.26 5.37,3.3l-0.01 0z"/>
   <path class="fil7" d="M20.44 44.03c0,0 -3.21,0.88 -4.87,1.98 -0.98,0.65 -1.19,1.94 -1.24,3.36 -0.15,4.84 2.78,9.79 7.29,11.3 5.28,1.77 8.26,0.47 8.26,0.47 0,0 -2.18,-3.36 -3.42,-4.83 -1.24,-1.47 -2.3,-2.48 -2.71,-3.25 -0.42,-0.76 -0.88,-4.21 -1.54,-5.75 -0.65,-1.55 -1.77,-3.28 -1.77,-3.28l0 0z"/>
   <path class="fil8" d="M19.73 48.69c0,0 -4.89,1.59 -4.89,1.77 0,0.18 -0.06,2.54 0.29,2.83 0.36,0.3 1.3,0.83 2.12,0.95 0.83,0.12 1.83,0.06 2.3,0.47 0.26,0.22 0.47,1.83 -1.88,2.36 -2.36,0.53 -4.31,-2 -4.84,-3.78 -0.53,-1.77 -0.53,-5.54 0.83,-7.37 0.95,-1.3 4.95,1 6.07,2.77l0 0z"/>
   <path class="fil1" d="M46.24 92.9c-0.9,-0.1 -1.41,0.44 -1.49,2.45 -0.07,1.77 0.56,2.52 1.31,2.62 1.18,0.18 0.55,-1.53 0.59,-2.24 0.08,-1.19 0.98,-2.69 -0.41,-2.83l0 0z"/>
   <path class="fil1" d="M42.35 92.45c-0.55,-0.32 -1.59,0.09 -1.6,2.34 -0.01,1.82 1.21,2.74 2.01,2.53 0.44,-0.12 -0.2,-1.73 -0.38,-2.33 -0.31,-1.01 1.09,-1.88 -0.03,-2.54l0 0z"/>
   <path class="fil4" d="M48.81 97.32c-0.15,0.62 3.58,-0.09 4.83,-3.04 1.26,-2.95 1.89,-9.52 2.17,-12.03 0.28,-2.52 0.98,-4.68 1.25,-4.83 0.28,-0.16 3.08,-0.79 7.52,-1.3 3.92,-0.45 7.35,-0.71 7.35,-0.71 0,0 0.2,2.33 2.16,4.33 1.97,2 3.86,3.46 4.01,3.74 0.16,0.27 0.22,3.49 -0.04,4.16 -0.05,0.16 -3.1,2.4 -3,5.44 0.08,2.67 2.4,3.84 3.77,4 1.38,0.16 1.96,0.11 1.09,-0.4 -0.86,-0.51 -3.15,-0.86 -3.12,-3.72 0.04,-3.74 2.84,-4.65 2.96,-5.36 0.11,-0.7 -0.12,-4.83 -0.24,-5.11 -0.12,-0.28 -2.98,-2.82 -3.94,-4.01 -1.68,-2.09 -1.22,-4.32 -1.57,-4.64 -0.36,-0.32 -6.48,-0.05 -9.64,0.32 -2.23,0.25 -8.02,0.96 -9.24,2.36 -0.39,0.44 -1.35,9.44 -1.49,10.57 -0.24,1.86 -0.31,4.9 -1.54,6.96 -1.03,1.75 -3.09,2.44 -3.29,3.27l0 0z"/>
   <path class="fil1" d="M79.01 94.81c0.04,1.62 0.58,2.54 1.76,2.46 1.17,-0.08 0.14,-1.77 0.07,-2.32 -0.11,-1.03 0.86,-2.43 0.12,-2.59 -1.17,-0.28 -1.98,1.04 -1.95,2.45l0 0z"/>
   <path class="fil9" d="M29.66 44.95c0.14,1.5 -0.43,2.87 -1.63,3.11 -1.2,0.25 -2.41,-0.31 -2.73,-2.29 -0.3,-1.87 0.57,-2.88 1.77,-3.12 1.2,-0.24 2.43,0.54 2.59,2.3z"/>
   <path class="fil10" d="M29.88 39.55c1.53,-0.21 1.24,-1.81 1,-2.91 -0.24,-1.11 -0.63,-1.85 -0.63,-1.85 0,0 1.31,-0.22 1.96,0.06 0.26,0.11 0.5,0.36 0.75,0.65 1.42,1.61 0.88,4.45 2.25,4.61 1.38,0.16 1.41,-1.98 1.33,-3.31 -0.08,-1.34 -0.28,-2.01 -0.08,-2.37 0.2,-0.35 1.21,-0.1 1.3,-0.35 0.25,-0.76 0.82,-2.75 1.73,-3.78 0.91,-1.03 2.35,-2.05 4.07,-2.03 1.2,0.02 2.57,0.38 2.3,0.18 -0.82,-0.64 -4.83,-2.07 -7.55,-0.08 -2.29,1.68 -2.68,3.96 -2.68,3.96 0,0 -1.63,-0.11 -4.4,0.09 -2.06,0.15 -3.89,0.81 -4.88,1.3 -1.97,0.95 -2.9,2.12 -2.9,2.12 0,0 1.54,-0.68 2.03,-0.83 1.21,-0.35 1.94,0.22 2.57,1.71 0.37,0.92 0.65,2.99 1.83,2.83l0 0z"/>
   <path class="fil10" d="M35.12 43.64c-0.71,-0.05 -0.73,1.04 -0.82,2.16 -0.16,1.88 -0.22,3.8 -0.36,4.04 -0.24,0.39 -1.5,2.1 -2.21,2.88 -0.36,0.39 -1.56,1.49 -1.22,2.04 0.75,1.22 5.51,-1.84 5.94,-4.52 0.4,-2.45 0.24,-6.48 -1.33,-6.6z"/>
   <path class="fil10" d="M38.08 52.46c-0.12,0.36 -1.58,1.84 -3.25,2.98 -1.73,1.18 -3.46,1.72 -2.92,2.51 0.66,0.98 3.49,0.04 5.03,-0.67 1.23,-0.58 3.42,-2.31 3.89,-3.54 0.39,-1.03 0.2,-4.49 -0.38,-6.41 -0.59,-1.92 -1.51,-4.09 -2.25,-3.36 -0.42,0.41 -0.02,1.88 0.09,3.89 0.11,2.13 -0.13,4.33 -0.21,4.6l0 0z"/>
   <path class="fil3" d="M43.94 84.99c0,0 2.05,-0.58 3.3,-0.5 1.26,0.08 4.01,0.35 4.49,0.12 0.77,-0.39 -1.98,-2.56 -4.41,-2.8 -2.44,-0.23 -3.55,0.05 -3.55,0.05l0.17 3.13 0 0z"/>
   <path class="fil3" d="M43.74 78.65c0,0 0.63,-0.72 3.03,-0.68 2.41,0.04 5.03,0.39 4.95,-0.44 -0.08,-0.83 -3.65,-2.51 -5.19,-2.59 -0.95,-0.06 -3.09,0.24 -3.09,0.24l0.3 3.47z"/>
   <path class="fil11" d="M33.79 64.43c0,0 2.7,-2.8 4.17,-4 2.2,-1.81 5.66,-4.72 5.74,-9.2 0.08,-4.49 -2.05,-8.18 -2.44,-8.89 -0.39,-0.71 -1.58,-3.07 -0.24,-4.01 1.33,-0.95 3.05,-0.71 5.98,2.44 3.07,3.3 6.45,9.68 6.45,9.68 0,0 -1.81,5.03 -5.67,7.94 -1.41,1.07 -2.92,1.52 -3.96,2.36 -1.8,1.46 -2.51,3.47 -2.71,5.46 -0.63,5.98 1.34,5.94 2.1,7.46 0.54,1.1 0.66,4.11 0.53,4.22 -0.66,0.56 -2.94,-1.89 -3.33,-2.29 -0.39,-0.38 -1.66,-1.73 -1.66,-1.73 0,0 -0.08,1.42 -0.63,1.42 -0.74,0 -2.75,-2.05 -3.77,-4.17 -1.03,-2.12 -2.21,-4.09 -3.3,-5.66 -0.48,-0.68 -2.34,-2.32 -2.34,-2.32 0,0 0.69,-0.75 2.03,-0.51 1.32,0.23 3.05,1.8 3.05,1.8l0 0z"/>
   <path class="fil10" d="M45.23 45.33c-1.19,0.61 0.6,6.57 -0.28,8.81 -0.43,1.11 -1.88,3.89 -0.86,4.48 1.02,0.59 4.2,-2.52 4.64,-4.44 0.44,-1.93 -1.96,-9.64 -3.5,-8.85z"/>
   <path class="fil10" d="M44.44 67.62c0,1.74 5.7,1.54 5.7,1.54 0,0 3.59,3.18 4.37,2.63 0.95,-0.67 0.59,-1.62 -0.16,-2.79 -1.18,-1.86 -1.88,-2.91 -3.19,-3.46 -1.17,-0.5 -3.49,0.17 -4.71,0.47 -1.53,0.37 -2.01,1.05 -2.01,1.61l0 0z"/>
   <path class="fil10" d="M52.08 55.7c-0.71,0.87 0.24,1.65 1.13,3.03 0.85,1.31 2.7,3.78 2.7,3.78 0,0 -0.25,5.58 0.45,6.09 0.83,0.59 1.89,-1.1 2.4,-2.52 0.52,-1.42 0.55,-3.23 0.43,-4.33 -0.12,-1.09 -0.86,-2.87 -3.54,-4.78 -2.05,-1.46 -3.22,-1.7 -3.57,-1.27z"/>
   <path class="fil10" d="M55.81 46.07c0,0 1.61,2.49 2.48,4.84 0.86,2.36 1.71,4.92 2.03,6.8 0.16,1.01 0.69,3.19 1.47,3.3 0.78,0.12 1.33,-2.09 1.56,-4.57 0.24,-2.57 -0.07,-6.24 -0.5,-7.89 -0.43,-1.66 -0.94,-2.91 -0.94,-2.91 0,0 -1.44,-0.02 -3.19,0.08 -1.53,0.08 -2.91,0.35 -2.91,0.35l0 0z"/>
   <path class="fil10" d="M66.86 45.56c0,0 0.86,3.24 1.03,7.87 0.12,3.03 0.5,8.28 1.42,8.28 1.17,0 2.24,-4 2.71,-8.52 0.47,-4.52 0.36,-7.43 0.36,-7.43 0,0 -1.43,-0.16 -2.69,-0.21 -1.56,-0.05 -2.83,0.01 -2.83,0.01l0 0z"/>
   <path class="fil10" d="M77.3 61.78c1.59,0.2 3.09,-4.46 3.8,-7.37 0.71,-2.91 1.17,-6.96 1.17,-6.96 0,0 -1.26,-0.36 -2.55,-0.65 -1.5,-0.34 -2.83,-0.5 -2.83,-0.5 0,0 0.26,2.71 0.19,7.12 -0.04,2.36 -0.75,8.24 0.22,8.36z"/>
   <path class="fil10" d="M86.62 49.33c0,0 -0.54,5.9 -0.89,7.11 -0.35,1.22 -3.39,5.58 -2.77,6.28 0.81,0.93 4.81,-2.33 5.99,-4.92 1.17,-2.59 1.36,-5.18 1.36,-5.18 0,0 -0.45,-0.87 -1.78,-1.96 -1.03,-0.85 -1.91,-1.33 -1.91,-1.33l0 0z"/>
   <path class="fil10" d="M57.04 77.44c0,0 3.61,-5.14 4.48,-7.42 0.86,-2.28 2.4,-6.02 3.73,-6.37 1.38,-0.35 0.98,3.27 0.12,6.1 -0.83,2.71 -2.28,6.53 -2.28,6.53 0,0 -1.48,0.24 -2.74,0.43 -2.6,0.39 -3.31,0.73 -3.31,0.73l0 0z"/>
   <path class="fil10" d="M66.83 75.85c0,0 2.69,-5.13 3.42,-7.23 0.45,-1.3 1.4,-4.93 2.62,-4.89 1.22,0.04 1.14,3.06 0.79,4.91 -0.36,1.84 -1.74,6.77 -1.74,6.77 0,0 -1.08,0.08 -2.24,0.2 -0.95,0.1 -2.85,0.24 -2.85,0.24l0 0z"/>
   <path class="fil10" d="M75.83 72.98c0.2,0.66 5.59,0.33 7.37,-0.84 3.39,-2.25 5.13,-8.28 3.95,-8.2 -1.18,0.08 -4.75,4.09 -6.02,4.91 -1.26,0.82 -5.7,2.83 -5.3,4.13l0 0z"/>
   <path class="fil10" d="M72.88 78.06c0,0 5.04,0.86 8.02,0.15 2.66,-0.63 4.95,-3.57 5.78,-3.09 0.83,0.47 -0.24,4.48 -4.01,5.78 -3.65,1.26 -6.48,0.71 -6.48,0.71 0,0 -1.28,-0.92 -1.89,-1.66 -0.95,-1.13 -1.42,-1.89 -1.42,-1.89z"/>
  </g>
 </g>
</svg>
