<?xml version="1.0" encoding="UTF-8"?>
<!DOCTYPE svg PUBLIC "-//W3C//DTD SVG 1.1//EN" "http://www.w3.org/Graphics/SVG/1.1/DTD/svg11.dtd">
<!-- Creator: CorelDRAW Home & Student 2019 -->
<svg xmlns="http://www.w3.org/2000/svg" xml:space="preserve" width="400px" height="400px" version="1.1" style="shape-rendering:geometricPrecision; text-rendering:geometricPrecision; image-rendering:optimizeQuality; fill-rule:evenodd; clip-rule:evenodd"
viewBox="0 0 400 400"
 xmlns:xlink="http://www.w3.org/1999/xlink">
 <defs>
  <style type="text/css">
   <![CDATA[
    .fil0 {fill:#BBC274}
    .fil6 {fill:#000306}
    .fil3 {fill:#4D4D4D}
    .fil4 {fill:#845B52}
    .fil1 {fill:#858585}
    .fil7 {fill:#898484}
    .fil8 {fill:#A22911}
    .fil12 {fill:#B49075}
    .fil10 {fill:#B79277}
    .fil11 {fill:#FAEACB}
    .fil9 {fill:#FF2219}
    .fil2 {fill:#FFEAC9}
    .fil5 {fill:url(#id0)}
   ]]>
  </style>
  <radialGradient id="id0" gradientUnits="userSpaceOnUse" gradientTransform="matrix(1.04112 -0.805583 0.664799 0.921877 -66 89)" cx="101.23" cy="92.76" r="197.08" fx="101.23" fy="92.76">
   <stop offset="0" style="stop-opacity:1; stop-color:#5EA4CE"/>
   <stop offset="0.211765" style="stop-opacity:1; stop-color:#5EA4CE"/>
   <stop offset="0.509804" style="stop-opacity:1; stop-color:#988AA4"/>
   <stop offset="1" style="stop-opacity:1; stop-color:#FE5D5A"/>
  </radialGradient>
 </defs>
 <g id="Layer_x0020_1">
  <metadata id="CorelCorpID_0Corel-Layer"/>
  <rect class="fil0" width="400" height="400"/>
  <g id="_1057295456">
   <path class="fil1" d="M152.17 288.66c0,0 1.42,18.1 0,20.21 -1.41,2.12 -12.07,3.2 -20.21,10.99 -6.72,6.43 -5.31,13.84 2.5,13.13 7.81,-0.71 16.68,-7.81 26.26,-9.58 9.57,-1.76 24.11,-0.7 24.11,-6.72 0,-6.03 -12.77,-7.46 -12.77,-7.46l0 -17.39 16.33 1.41 -0.71 29.81c0,0 -17.74,6.38 -23.06,10.64 -5.31,4.25 -9.93,10.98 -6.02,14.89 3.91,3.9 12.78,-1.41 16.68,-2.5 3.91,-1.06 15.98,-6.73 24.47,-7.81 8.52,-1.06 24.12,1.06 25.9,-3.2 1.77,-4.26 -3.2,-8.87 -9.92,-10.99l-6.73 -2.11 0 -35.11 -56.83 1.79z"/>
   <path class="fil2" d="M157.14 149.59c0,0 -9.43,-4.58 -9.93,-20.59 -0.35,-11.34 7.46,-18.79 7.46,-18.79 0,0 -3.2,-10.29 3.55,-19.86 6.76,-9.58 12.78,-9.22 12.78,-9.22 0,0 0,-12.07 10.28,-18.45 10.28,-6.37 18.44,-0.35 18.44,-0.35 0,0 4.26,-10.28 15.6,-10.99 11.34,-0.7 14.9,6.02 14.9,6.02 0,0 7.45,-9.92 18.44,-6.72 10.99,3.2 12.78,12.07 12.78,12.07 0,0 9.57,-8.87 21.29,-1.06 11.72,7.81 8.87,18.09 8.87,18.09 0,0 11.69,-5.69 22.7,5.32 8.17,8.16 3.2,18.8 3.2,18.8 0,0 10.61,0.6 14.9,12.42 4.26,11.72 -4.61,20.21 -4.61,20.21 0,0 10.55,1.16 13.48,14.19 3.2,14.18 -7.81,22.35 -7.81,22.35 0,0 6.37,5.67 4.25,20.21 -1.86,12.67 -14.89,17.74 -14.89,17.74 0,0 4.97,8.74 -1.41,20.11 -6.38,11.34 -19.86,10.76 -19.86,10.76 0,0 -0.85,7.96 -6.72,13.83 -7.46,7.46 -17.74,4.26 -17.74,4.26l-122.42 -86.94 2.47 -23.41 0 0z"/>
   <path class="fil3" d="M242.99 209.89l36.21 30.32 9.55 8.01c0,0 10.28,-0.35 17.39,-10.63 5.04,-7.31 1.41,-17.39 1.41,-17.39 0,0 12.78,-1.77 16.68,-16.33 3.91,-14.54 -3.2,-21.29 -3.2,-21.29 0,0 10.46,-3.18 10.46,-17.74 0,-13.31 -11.89,-15.98 -11.89,-15.98 0,0 11.16,-4.08 7.45,-16.33 -3.3,-10.86 -14.53,-10.28 -14.53,-10.28 0,0 6.55,-11.34 -1.77,-20.94 -7.08,-8.14 -17.03,-3.55 -17.03,-3.55 0,0 1.76,-10.28 -5.67,-16.33 -7.44,-6.05 -16.68,-1.41 -16.68,-1.41 0,0 0.35,-10.64 -8.52,-13.13 -8.87,-2.5 -13.48,2.12 -13.48,2.12 0,0 -5.32,-8.17 -14.19,-7.46 -8.87,0.7 -12.42,7.1 -12.42,7.1 0,0 -5.32,-6.37 -14.9,-4.26 -10.18,2.27 -10.63,11.34 -10.63,11.34 0,0 -8.21,-4 -14.89,0 -8.87,5.32 -7.46,15.6 -7.46,15.6 0,0 -9.93,1.41 -13.84,8.52 -5.14,9.32 -0.35,18.44 -0.35,18.44l1.41 24.47 80.89 67.13 0 0z"/>
   <path class="fil4" d="M284.49 239.35c0,0 9.93,-1.06 12.78,-9.58 2.85,-8.51 -1.06,-14.18 -1.06,-14.18 0,0 12.78,-3.91 15.6,-15.6 2.82,-11.69 -4.61,-20.59 -4.61,-20.59 0,0 12.42,-12.77 7.46,-25.2 -4.97,-12.42 -15.98,-15.24 -15.98,-15.24 0,0 6.45,-12.63 2.5,-20.59 -5.67,-11.34 -20.59,-10.63 -20.59,-10.63 0,0 3.83,-11.9 -9.7,-19.21 -11.75,-6.35 -21.88,0.94 -21.88,0.94 0,0 -5.67,-11.9 -19.15,-11.9 -13.48,0 -18.09,12.43 -18.09,12.43 0,0 -11.34,-7.46 -22,-1.06 -10.66,6.4 -10.28,18.8 -10.28,18.8 0,0 -12.42,-0.71 -22,11.71 -7.36,9.55 -2.85,26.97 -2.85,26.97l-34.74 27.31c0,0 -0.48,-4.74 -3.21,-9.57 -2.72,-4.84 6.51,-33.24 6.51,-33.24 0,0 -41.99,18.67 -47.3,28.27 -5.32,9.58 -9.07,26.21 -8.17,42.56 1.24,22.18 13.48,54.99 37.25,72.37 26.36,19.28 50.22,28.93 87.61,28.38 48.26,-0.71 70.23,-13.48 76.28,-15.98 6.05,-2.49 15.63,-47.17 15.63,-47.17l-0.01 0z"/>
   <path class="fil5" d="M113.14 141.07c0,0 12.78,-11.34 16.68,-16.68 3.91,-5.31 12.93,-18.82 9.93,-41.5 -2.47,-18.8 -20.54,-29.18 -34.52,-26.01 -7.81,1.77 -17.62,19.63 -19.05,25.3 -1.44,5.67 7.46,28.73 7.46,28.73l19.5 30.16 0 0z"/>
   <ellipse class="fil6" cx="111.73" cy="87.53" rx="9.22" ry="9.58"/>
   <path class="fil7" d="M80.86 79.01c-2.85,3.9 -6.37,8.49 -9.93,12.07 -5.31,5.32 -10.98,11.34 -10.63,13.48 0.55,3.3 6.68,1.01 10.63,-1.06 7.46,-3.9 11.72,-5.67 14.19,-5.67 2.49,0 3.55,1.77 5.67,0.36 2.12,-1.42 5.32,-7.46 4.96,-9.58 -0.35,-2.12 -9.09,-5.32 -10.88,-6.38 -1.74,-1.1 -4.01,-3.22 -4.01,-3.22l0 0z"/>
   <path class="fil8" d="M107.12 56.18c2.19,0.53 -7.81,4.91 -10.28,15.52 -2.19,9.4 -4.61,18.45 -12.43,14.52 -10.4,-5.24 -2.67,-19.81 0.36,-23.16 4.26,-4.71 12.42,-9.22 22.35,-6.88l0 0z"/>
   <path class="fil8" d="M95.88 89.79c-0.35,-3.85 -4.79,-2.11 -5.49,1.74 -0.71,3.86 -1.24,5.4 -2.67,8.09 -1.42,2.7 -15.98,15.22 -18.45,18.7 -2.47,3.48 -7.69,11.72 -3.2,19.28 3.91,6.55 17.39,4.63 17.39,4.63l16.33 -23.13c0,0 -2.5,-8.87 -2.85,-12.72 -0.33,-3.86 -0.71,-12.73 -1.06,-16.59l0 0z"/>
   <path class="fil9" d="M109.41 116.88c6.48,7.89 7.06,16.76 5.92,23.84 -1.15,7.08 -4.73,22.78 -19.95,35.58 -7.89,6.66 -24.27,10.86 -33.72,1.01 -11.16,-11.67 7.61,-27.57 10.51,-31.45 2.9,-3.88 14.71,-13.48 18.54,-22.83 2.4,-5.82 5.9,-18.02 5.9,-18.02 0,0 7.61,5.55 12.8,11.87l0 0z"/>
   <path class="fil10" d="M275.98 229.07c0,0 8.34,-2.02 10.88,-7.81 3.3,-7.56 -0.48,-12.78 -0.48,-12.78 0,0 13.49,-1.89 14.67,-14.89 0.93,-10.26 -6.85,-15.37 -6.85,-15.37 0,0 9.45,-6.63 7.81,-17.04 -2.17,-13.65 -15.15,-14.18 -15.15,-14.18 0,0 10.64,-8.27 2.37,-21.04 -5.29,-8.14 -17.97,-5.93 -17.97,-5.93 0,0 4.74,-11.59 -6.37,-17.74 -10.63,-5.89 -19.86,3.56 -19.86,3.56 0,0 0.25,-11.9 -14.18,-13.26 -12.53,-1.18 -16.33,11.59 -16.33,11.59 0,0 -8.27,-7.56 -19.63,-2.11 -10.41,4.96 -9.45,17.03 -9.45,17.03 0,0 -11.01,-2.27 -18.22,4.26 -7.56,6.85 -4.84,20.81 -4.84,20.81 0,0 -51,27.9 -53.85,30.97 -2.85,3.08 -20.11,27.67 -9,56.52 11.12,28.86 42.06,43.3 70.51,27.19 19.63,-11.11 32.63,-37.11 38.3,-45.18 5.67,-8.04 13.26,-10.18 13.26,-10.18l54.38 25.58z"/>
   <path class="fil11" d="M199.83 208c0,0 15.85,-2.11 29.33,4.26 13.48,6.38 28.37,19.15 35.23,34.3 6.85,15.14 6.14,39.26 6.14,39.26 0,0 21.52,1.18 22.23,-20.59 0.5,-15.12 -6.85,-22 -6.85,-22 0,0 6.14,-7.81 -4.04,-20.11 -6.07,-7.33 -16.2,-10.93 -16.2,-10.93 0,0 -7.58,-9.43 -23.41,-12.6 -21.27,-4.24 -42.43,8.41 -42.43,8.41l0 0z"/>
   <path class="fil3" d="M169.31 142.96c0,0 1.08,-11.89 11.82,-15.59 13.71,-4.74 20.81,3.07 20.81,3.07 0,0 6.38,-13.03 22.23,-12.07 17.56,1.06 20.21,18.45 20.21,18.45 0,0 15.6,-4.21 24.82,9.75 9.22,13.96 -0.35,28.32 -0.35,28.32 0,0 13.02,3.91 12.77,19.51 -0.23,14.79 -8.87,21.16 -8.87,21.16 0,0 -3.9,-2.32 -6.73,-2.49 -2.72,-1.54 -18.21,-13.61 -32.63,-13.84 -14.44,-0.22 -26.74,5.19 -33.59,8.75 -6.85,3.55 -33.11,22.7 -37.12,25.07 -4,2.37 -30.74,19.15 -50.14,-5.44 -19.41,-24.6 -5.62,-55.49 5.67,-65.75 12.8,-11.56 30.31,-18.64 51.1,-18.9z"/>
   <path class="fil6" d="M147.79 183.41c0.86,3.22 8.09,11.06 27.79,17.97 7.69,2.69 24.3,6.55 24.3,6.55 0,0 9.75,-4.26 15.77,-6.33 1.99,-0.68 13.84,-2.72 13.84,-2.72 2.11,0.73 -26.19,-2.9 -44.53,-7.63 -15.75,-4.06 -38.46,-12.81 -37.17,-7.84l0 0z"/>
   <path class="fil12" d="M268.29 259.21c0,0 4.39,-1.26 12.12,-0.88 6.2,0.3 12.42,1.23 12.6,4.78 0.18,3.56 -5.67,2.12 -13.3,2.12 -7.51,0 -10.36,0.96 -10.36,0.96l-1.06 -6.98 0 0z"/>
   <path class="fil12" d="M262.04 242.3c0,0 6.86,-1.19 11.47,-1.54 4.61,-0.35 14.06,-0.05 14.06,-3.43 0,-3.37 -11.59,-3.9 -16.15,-3.55 -6.43,0.51 -13.54,2.02 -13.54,2.02l4.16 6.5 0 0z"/>
   <path class="fil12" d="M248.08 225.04c0,0 4.66,-5.04 11.59,-5.67 6.5,-0.58 16.08,0.3 14.32,-3.08 -1.77,-3.37 -10.94,-3.95 -15.02,-3.65 -13.61,0.96 -17.14,7.46 -17.14,7.46l6.25 4.94z"/>
  </g>
 </g>
</svg>
