<?xml version="1.0" encoding="UTF-8"?>
<!DOCTYPE svg PUBLIC "-//W3C//DTD SVG 1.1//EN" "http://www.w3.org/Graphics/SVG/1.1/DTD/svg11.dtd">
<!-- Creator: CorelDRAW Home & Student 2019 -->
<svg xmlns="http://www.w3.org/2000/svg" xml:space="preserve" width="400px" height="400px" version="1.1" style="shape-rendering:geometricPrecision; text-rendering:geometricPrecision; image-rendering:optimizeQuality; fill-rule:evenodd; clip-rule:evenodd"
viewBox="0 0 363.64 363.64"
 xmlns:xlink="http://www.w3.org/1999/xlink">
 <defs>
  <style type="text/css">
   <![CDATA[
    .fil0 {fill:#7688A1}
    .fil2 {fill:#2E302F}
    .fil1 {fill:#6BA4AE}
    .fil4 {fill:#A5D0D6}
    .fil5 {fill:#DBECF7}
    .fil3 {fill:#FEE9C6}
   ]]>
  </style>
 </defs>
 <g id="Layer_x0020_1">
  <metadata id="CorelCorpID_0Corel-Layer"/>
  <rect class="fil0" width="363.64" height="363.64"/>
  <g id="_1047348136">
   <path class="fil1" d="M60.83 150.97c23.39,-9.68 60.66,4.04 68.33,2.84 7.66,-1.21 8.87,-6.86 21.78,-6.86 12.91,0 22.99,8.48 22.99,8.48 0,0 3.65,-3.27 10.89,-3.62 8.48,-0.4 18.96,5.64 27.43,12.49 8.41,6.85 18.09,16.12 26.96,17.33 8.88,1.21 17.35,1.6 25.41,-11.68 8.06,-13.29 2.02,-33.47 -0.81,-39.93 -2.83,-6.45 -11.68,-17.74 -11.68,-17.74l0 -16.12 13.7 6.46c0,0 20.16,15.33 27.43,24.59 7.27,9.27 28.63,35.49 18.95,81.45 -9.68,45.96 -36.28,53.23 -36.28,53.23l31.05 1.21 10.9 5.25c0,0 -3.23,8.06 -10.48,12.1 -7.57,4.2 -20.16,10.47 -41.94,5.25 -21.79,-5.23 -144.76,-4.83 -144.76,-4.83 0,0 -9.26,11.68 -29.84,12.49 -20.56,0.81 -30.19,-2.76 -31.01,-5.99 -0.81,-3.23 7.2,-7.71 7.2,-7.71l22.18 -4.83 19.77 -12.92 -42.74 -55.22 -19.34 -17.75c0,0 -3.28,-11.21 0.86,-23.85 2.46,-7.68 6.64,-11.45 13.05,-14.12l0 0z"/>
   <path class="fil1" d="M261 110.26c0,0 15.14,-15.51 16.12,-31.86 0.9,-14.89 -3.72,-18.49 -5.74,-17.68 -2.02,0.82 -3.53,5.97 -7.15,9.2 -3.63,3.23 -12.5,10.08 -14.91,13.7 -2.42,3.63 -1.21,11.68 -1.21,11.68 0,0 -9.27,-2.83 -15.33,-0.81 -6.06,2.02 -11.68,8.48 -15.72,10.08 -4.04,1.6 -10.08,2.02 -10.08,4.44 0,2.41 11.68,9.26 25.41,9.26 13.68,0.05 28.61,-8.01 28.61,-8.01l0 0z"/>
   <path class="fil1" d="M272.29 160.66c0,0 -8.88,-2.42 -12.92,4.43 -4.04,6.85 0.82,14.12 0.82,14.12l12.1 -18.55 0 0z"/>
   <path class="fil2" d="M205.96 212.31c1.41,3.92 -0.88,8.36 -5.13,9.89 -4.26,1.53 -8.85,-0.39 -10.27,-4.34 -1.42,-3.93 1.05,-7.97 5.13,-9.9 5.07,-2.39 8.85,0.42 10.27,4.35z"/>
   <path class="fil3" d="M45.45 180.23c0,0 5.23,-3.11 12.1,-3.11 6.88,0 19.3,3.28 30.73,7.53 11.43,4.25 48.73,20.92 56.55,24.85 7.85,3.92 16.75,6.99 20.28,8.17 5.87,1.95 16.02,3.28 16.02,3.28 0,0 -29.75,-23.55 -58.52,-37.28 -28.78,-13.72 -45.13,-20.27 -64.08,-19.95 -12.15,0.21 -10.96,1.63 -10.96,1.63 0,0 -2.12,8.68 -2.12,14.88l0 0z"/>
   <path class="fil4" d="M51.66 185.32c8.49,0 28.93,4.79 37.92,8.18 14.72,5.55 38.9,17.32 51.33,21.9 12.42,4.57 47.07,15.37 67.67,27.47 20.6,12.1 30.4,26.15 36.95,31.38 6.55,5.22 14.38,10.8 14.38,10.8 0,0 -43.48,26.15 -97.1,15.05 -53.63,-11.11 -74.86,-53.98 -78.78,-59.53 -3.93,-5.55 -14.38,-23.87 -18.97,-28.77 -4.58,-4.9 -15.89,-18.26 -18.19,-22.9 -2.07,-4.25 4.79,-3.58 4.79,-3.58z"/>
   <path class="fil4" d="M238.15 242.2c-2.67,0.79 -2.4,6.76 12.21,13.96 14.61,7.19 34.93,8.29 47.36,8.29 12.42,0 18.53,6.45 20.13,3.87 1.6,-2.57 -2.39,-8.19 -17.37,-9.45 -13.07,-1.09 -25.29,0.54 -40.32,-5.13 -17.53,-6.6 -18.32,-12.63 -22.01,-11.54l0 0z"/>
   <path class="fil4" d="M101.91 262.03c0,0 -11.33,9.15 -19.62,10.89 -8.29,1.75 -16.79,2.63 -20.93,7.2 -4.13,4.58 -1.53,7.41 -1.53,7.41 0,0 3.93,-5.02 11.12,-5.87 7.2,-0.86 17.66,-3.05 22.88,-5.88 5.23,-2.83 17.21,-10.03 17.21,-10.03l-9.13 -3.72 0 0z"/>
   <path class="fil5" d="M176.23 234.14c0,0 0.65,7.62 14.82,19.62 14.17,11.99 33.51,16.84 40.92,21.62 7.41,4.79 17.49,15.22 17.49,15.22l4.36 -2.39c0,0 -10.56,-11.99 -21.36,-18.38 -8.41,-4.97 -23.11,-9.96 -32.47,-16.07 -9.38,-6.1 -13.89,-10.08 -16.07,-12.7 -2.19,-2.62 -8.55,-10.2 -7.69,-6.92l0 0z"/>
   <path class="fil5" d="M185.38 269.67c16.7,9.66 21.48,7.99 32.17,12.57 10.68,4.57 16.07,13.91 16.07,13.91l6.04 -2.14c0,0 -8.9,-13.14 -20.91,-17.51 -11.98,-4.37 -26.84,-7.27 -34.46,-13.82 -7.62,-6.55 -14.38,-17.56 -23.11,-28.01 -8.73,-10.45 -13.31,-12.1 -12.63,-10.36 0.65,1.75 7.2,10.25 11.77,17.65 4.58,7.44 12.64,20.51 25.06,27.71l0 0z"/>
   <path class="fil5" d="M85.35 226.29c10.9,14.68 18.3,13.72 28.34,27.03 10.03,13.31 15.47,25.94 19.39,30.52 3.93,4.57 8.62,8.87 15.37,11.49 6.72,2.61 12.1,4.25 12.1,4.25 0,0 -15.05,-0.27 -27.24,-8.54 -12.21,-8.29 -14.91,-22.07 -23.92,-33.79 -6.55,-8.5 -11.75,-12.36 -17.32,-16.84 -11.13,-8.94 -16.47,-20.21 -19.63,-27.13 -5.46,-11.98 -16.3,-20.76 -12.8,-19.67 3.49,1.09 8.06,6.2 12.31,11.82 5.97,7.9 8.39,14.1 13.4,20.86l0 0z"/>
   <path class="fil5" d="M84.68 200.35c0,0 1.09,14.6 12.22,25.71 11.12,11.1 21.36,8.29 27.89,16.56 6.53,8.26 10.03,31.16 23.32,41.64 13.3,10.45 16.56,5.87 28.54,10.24 11.98,4.37 11.68,8.52 11.68,8.52l7.36 -0.32c0,0 -3.37,-8.36 -15.35,-12.29 -11.98,-3.92 -19.37,-2 -28.73,-10.94 -9.38,-8.94 -14.6,-29.42 -22.01,-39.46 -7.41,-10.03 -22.46,-10.03 -29.64,-18.09 -10.24,-11.45 -13.96,-25.34 -15.28,-21.57l0 0z"/>
   <path class="fil5" d="M141.37 237.83c7.08,8.97 7.41,23.97 19.18,34.65 11.78,10.68 24.55,9.9 33.7,13.82 9.15,3.93 18.28,14.89 18.28,14.89l7.53 -1.63c0,0 -6.41,-8.43 -22.53,-17.35 -13.75,-7.59 -21.93,-3.2 -32.17,-12.56 -10.24,-9.38 -10.45,-23.3 -19.39,-34.88 -8.94,-11.55 -20.72,-12.87 -27.68,-16.56 -6,-3.19 -14.94,-17.56 -13.31,-11.99 1,3.37 4.36,11.78 11.33,16.79 6.97,5.02 17.63,5.46 25.06,14.82l0 0z"/>
  </g>
 </g>
</svg>
