<?xml version="1.0" encoding="UTF-8"?>
<!DOCTYPE svg PUBLIC "-//W3C//DTD SVG 1.1//EN" "http://www.w3.org/Graphics/SVG/1.1/DTD/svg11.dtd">
<!-- Creator: CorelDRAW Home & Student 2019 -->
<svg xmlns="http://www.w3.org/2000/svg" xml:space="preserve" width="400px" height="400px" version="1.1" style="shape-rendering:geometricPrecision; text-rendering:geometricPrecision; image-rendering:optimizeQuality; fill-rule:evenodd; clip-rule:evenodd"
viewBox="0 0 363.64 363.64"
 xmlns:xlink="http://www.w3.org/1999/xlink">
 <defs>
  <style type="text/css">
   <![CDATA[
    .fil0 {fill:#4E565A}
    .fil3 {fill:black}
    .fil1 {fill:#EC7FAC}
    .fil2 {fill:#FEA8A7}
   ]]>
  </style>
 </defs>
 <g id="Layer_x0020_1">
  <metadata id="CorelCorpID_0Corel-Layer"/>
  <rect class="fil0" width="363.64" height="363.64"/>
  <g id="_1039074776">
   <path class="fil1" d="M182.37 121.55c-5.34,18.84 4.96,34.37 36.8,47.27 15.44,6.25 34.31,13.32 42.78,28.46 6.84,12.27 -2.25,35.58 -33.61,30.68 -32.31,-5.04 -62.36,-43.66 -106.46,-61.3 -40.12,-16.03 -74.38,-7.66 -74.1,19.78 0.21,20.75 16.89,26.43 25.67,25.5 5.89,-0.62 11.67,-3.64 22.86,-5.08 13.95,-1.79 52.4,25.49 77.77,41.66 30.7,19.61 90.33,28.69 113.37,-5.2 20.92,-30.75 13.23,-60.8 -13.06,-80.74 -23.84,-18.06 -58.28,-22.75 -55.22,-33.19 3.76,-12.88 40.64,-1.14 66.98,-2.44 26.79,-1.3 32.01,-11.09 32.03,-15.69 0.03,-6.7 -13.55,0.33 -32.19,-2.13 -32.75,-4.32 -49.83,-14.53 -77.49,-10.65 -11.58,1.69 -22.4,9.86 -26.13,23.07l0 0z"/>
   <path class="fil2" d="M270.12 114.56c-0.26,3.9 -0.12,8.19 0.18,12 5.46,0.44 10.84,0.67 15.85,0.42 2.09,-0.1 4,-0.28 5.83,-0.47 -0.3,-2.64 -0.58,-5.71 -0.6,-7.91 -0.03,-3.11 0.14,-6.41 0.3,-8.96 -1.84,-0.07 -3.74,-0.21 -5.69,-0.46 -5.03,-0.67 -10.08,-1.56 -15.07,-2.56 -0.3,2.25 -0.58,4.92 -0.79,7.94l-0.01 0z"/>
   <path class="fil2" d="M200.86 108.16c16.25,1.94 21.12,10.88 21.49,17.33 3.51,-2.02 10.19,-2.34 16.11,-2.04 -0.74,-3.41 -1.46,-7.52 -1.74,-11.49 -0.21,-2.9 -0.16,-8.82 -0.09,-12.88 -8.8,-1.46 -17.71,-2 -28.13,-0.53 -6.87,0.97 -14.88,4.17 -20.73,12.11 3.07,-1.72 8.36,-3.08 13.09,-2.5l0 0z"/>
   <path class="fil2" d="M280.38 183.51c7.31,0 11.88,2 14.69,4.11 -4.18,-9.35 -11.21,-17.85 -20.68,-25.02 -2.49,-1.88 -5.11,-3.62 -7.75,-5.24 -3.21,0.69 -8.27,2.48 -12.28,7.19 -4.41,5.15 -5.18,14.18 -5.27,18.94 5.08,3.64 9.49,7.96 12.58,13.32 1.81,-4.11 7.12,-13.3 18.71,-13.3l0 0z"/>
   <path class="fil2" d="M210.08 164.76c-0.72,-4.36 -1.1,-12.14 3.2,-19.68 2.88,-5.08 7.77,-7.08 10.98,-7.87 -3.9,-2.41 -5.94,-4.87 -5.11,-7.77 0.14,-0.47 -0.21,0.39 0,0 -1.9,-5.36 -5.89,-13.07 -19.01,-14.9 -8.07,-1.14 -14.36,2.67 -17.94,7.54 -4.45,16.66 3.48,30.73 27.88,42.68l0 0z"/>
   <path class="fil2" d="M248.02 162.19c4.11,-5.3 8.75,-7.55 11.98,-8.52 -10.77,-5.64 -21.77,-9.61 -29.69,-13.28 -3.27,0.84 -8.37,3 -11.48,8.59 -3.9,7.01 -3,14.97 -2.21,18.77 0.84,0.35 1.65,0.72 2.53,1.1 7.68,3.11 16.2,6.42 23.88,10.83 0.19,-4.27 1.05,-12.41 4.99,-17.5l0 0.01z"/>
   <path class="fil2" d="M264.15 116c0.17,-3.44 0.68,-7.27 1.19,-10.54 -8.34,-1.85 -15.79,-3.8 -23.07,-5.31 -0.14,3.6 -0.17,8.49 0.3,12.95 0.37,3.5 1.37,7.54 2.32,10.81 6.06,0.56 12.67,1.42 19.36,2.09 -0.19,-3.06 -0.28,-6.52 -0.1,-10l0 0z"/>
   <path class="fil2" d="M297.11 109.69c-0.02,2.81 -0.02,6.36 0.05,8.82 0.04,2.09 0.27,4.8 0.51,7.19 16.82,-3.11 20.51,-10.56 20.51,-14.39 0,-5.27 -8.42,-2.06 -21.07,-1.62z"/>
   <path class="fil2" d="M280.96 189.5c-8.94,0.91 -14.58,8.96 -17.09,13.76 0.63,4.58 -0.37,9.66 -3.22,14.07 3.32,0.44 10.42,1.95 15.8,7.12 7.29,7.01 8.57,16.32 8.54,22.14 0.86,-1.04 1.68,-2.13 2.46,-3.27 11.05,-16.24 14.12,-32.3 10.66,-46.79 -3.23,-3.41 -9.03,-7.84 -17.15,-7.03l0 0z"/>
   <path class="fil2" d="M271 230.58c-3.9,-4.73 -11.49,-6.96 -15.27,-7.82 -4.16,3.27 -9.91,5.52 -17.45,5.82 1.41,2.67 3.41,8.06 3.41,17.25 0,9.12 -2.88,16.36 -4.83,20.19 15.04,-0.14 29.4,-3.62 40.29,-11.88 0.21,-5.22 -0.23,-16.36 -6.15,-23.56z"/>
   <path class="fil2" d="M127.45 192.57c2.39,-6.53 2.63,-17.11 2.58,-22.33 -2.67,-1.25 -5.39,-2.46 -8.17,-3.58 -40.1,-16.06 -76.71,-7.14 -76.4,20.29 0.21,20.75 19.21,25.92 27.99,24.99 5.89,-0.62 11.67,-3.64 22.86,-5.08 4.04,-0.51 10.16,1.42 17.4,4.81 3.58,-2.95 10.21,-9.47 13.74,-19.1z"/>
   <path class="fil2" d="M233.42 246.15c-0.44,-8.26 -2.06,-14.76 -3.2,-17.94 -0.62,-0.07 -1.28,-0.14 -1.92,-0.25 -27.95,-4.36 -54.22,-33.86 -89.36,-53.15 0.49,4.36 0.09,12.53 -5.29,25.6 -2.51,6.06 -8.54,12.6 -11.49,15.57 16.57,9.03 36.6,22.79 51.9,32.56 13.9,8.87 33.72,15.58 53.38,17.13 2.25,-3.8 6.4,-12.04 5.98,-19.52l0 0z"/>
   <ellipse class="fil3" transform="matrix(0.014339 -0.129922 0.129922 0.014339 77.7737 183.247)" rx="42.44" ry="38.35"/>
   <ellipse class="fil3" transform="matrix(0.130074 -0.0128891 0.0128891 0.130074 57.2049 183.233)" rx="38.35" ry="42.44"/>
   <path class="fil3" d="M67.85 195.33c4.04,0 6.29,-3.14 8.43,-0.72 2.64,3.01 -3.37,6.57 -8.5,6.57 -6.1,0 -10.72,-4.39 -7.96,-6.87 2.18,-1.95 3.46,1.02 8.03,1.02z"/>
   <path class="fil1" d="M152.52 207.16c-6.99,10.8 -15.2,14.07 -15.25,18.97 -0.05,3.92 6.24,8.16 24.95,19.58 19.91,12.16 25.62,12.75 29.22,10.77 2.44,-1.32 8.08,-4.85 13.46,-13.6 5.99,-9.7 8.17,-20.21 1.63,-24.95 -4.09,-2.94 -7.55,-5.36 -18.41,-12.86 -14.37,-9.93 -22.77,-17.38 -26.25,-17.31 -4.04,0.09 -2.9,9.45 -9.35,19.4z"/>
  </g>
 </g>
</svg>
