<?xml version="1.0" encoding="UTF-8"?>
<!DOCTYPE svg PUBLIC "-//W3C//DTD SVG 1.1//EN" "http://www.w3.org/Graphics/SVG/1.1/DTD/svg11.dtd">
<!-- Creator: CorelDRAW Home & Student 2019 -->
<svg xmlns="http://www.w3.org/2000/svg" xml:space="preserve" width="100px" height="100px" version="1.1" style="shape-rendering:geometricPrecision; text-rendering:geometricPrecision; image-rendering:optimizeQuality; fill-rule:evenodd; clip-rule:evenodd"
viewBox="0 0 2.68 2.68"
 xmlns:xlink="http://www.w3.org/1999/xlink">
 <defs>
  <style type="text/css">
   <![CDATA[
    .fil0 {fill:#E88300}
   ]]>
  </style>
 </defs>
 <g id="Layer_x0020_1">
  <metadata id="CorelCorpID_0Corel-Layer"/>
  <path class="fil0" d="M0.16 0l2.36 0c0.09,0 0.16,0.07 0.16,0.16l0 2.36c0,0.09 -0.07,0.16 -0.16,0.16l-2.36 0c-0.09,0 -0.16,-0.07 -0.16,-0.16l0 -2.36c0,-0.09 0.07,-0.16 0.16,-0.16zm1.7 0.68c-0.11,-0.2 -0.28,-0.3 -0.52,-0.3 -0.27,0 -0.46,0.14 -0.56,0.42 -0.06,0.16 -0.09,0.34 -0.09,0.55 0,0.28 0.05,0.5 0.14,0.66 0.11,0.19 0.28,0.29 0.5,0.29 0.25,0 0.43,-0.11 0.54,-0.36 0.08,-0.16 0.12,-0.37 0.12,-0.63 0,-0.27 -0.04,-0.48 -0.13,-0.63zm-0.24 1.25c-0.07,0.11 -0.16,0.16 -0.29,0.16 -0.15,0 -0.26,-0.09 -0.32,-0.27 -0.04,-0.11 -0.06,-0.27 -0.06,-0.46 0,-0.25 0.03,-0.45 0.1,-0.57 0.06,-0.14 0.16,-0.2 0.3,-0.2 0.15,0 0.25,0.07 0.31,0.21 0.05,0.13 0.07,0.31 0.07,0.52 0,0.3 -0.03,0.5 -0.11,0.61z"/>
 </g>
</svg>
