<?xml version="1.0" encoding="UTF-8"?>
<!DOCTYPE svg PUBLIC "-//W3C//DTD SVG 1.1//EN" "http://www.w3.org/Graphics/SVG/1.1/DTD/svg11.dtd">
<!-- Creator: CorelDRAW Home & Student 2019 -->
<svg xmlns="http://www.w3.org/2000/svg" xml:space="preserve" width="100px" height="100px" version="1.1" style="shape-rendering:geometricPrecision; text-rendering:geometricPrecision; image-rendering:optimizeQuality; fill-rule:evenodd; clip-rule:evenodd"
viewBox="0 0 2.68 2.68"
 xmlns:xlink="http://www.w3.org/1999/xlink">
 <defs>
  <style type="text/css">
   <![CDATA[
    .fil0 {fill:#333333}
   ]]>
  </style>
 </defs>
 <g id="Layer_x0020_1">
  <metadata id="CorelCorpID_0Corel-Layer"/>
  <path class="fil0" d="M0.16 0l2.36 0c0.09,0 0.16,0.07 0.16,0.16l0 2.36c0,0.09 -0.07,0.16 -0.16,0.16l-2.36 0c-0.09,0 -0.16,-0.07 -0.16,-0.16l0 -2.36c0,-0.09 0.07,-0.16 0.16,-0.16zm0.74 0.77l0 0.18 0.44 0 0 1.32 0.25 0 0 -1.86 -0.19 0c-0.03,0.14 -0.08,0.23 -0.15,0.27 -0.06,0.04 -0.18,0.07 -0.35,0.09z"/>
 </g>
</svg>
