<?xml version="1.0" encoding="UTF-8"?>
<!DOCTYPE svg PUBLIC "-//W3C//DTD SVG 1.1//EN" "http://www.w3.org/Graphics/SVG/1.1/DTD/svg11.dtd">
<!-- Creator: CorelDRAW Home & Student 2019 -->
<svg xmlns="http://www.w3.org/2000/svg" xml:space="preserve" width="100px" height="100px" version="1.1" style="shape-rendering:geometricPrecision; text-rendering:geometricPrecision; image-rendering:optimizeQuality; fill-rule:evenodd; clip-rule:evenodd"
viewBox="0 0 3.32 3.32"
 xmlns:xlink="http://www.w3.org/1999/xlink">
 <defs>
  <style type="text/css">
   <![CDATA[
    .fil0 {fill:#E88300}
   ]]>
  </style>
 </defs>
 <g id="Layer_x0020_1">
  <metadata id="CorelCorpID_0Corel-Layer"/>
  <path class="fil0" d="M0.2 0l2.93 0c0.1,0 0.19,0.09 0.19,0.2l0 2.93c0,0.1 -0.09,0.19 -0.19,0.19l-2.93 0c-0.11,0 -0.2,-0.09 -0.2,-0.19l0 -2.93c0,-0.11 0.09,-0.2 0.2,-0.2zm0.91 0.95l0 0.22 0.55 0 0 1.65 0.31 0 0 -2.31 -0.23 0c-0.04,0.17 -0.11,0.29 -0.19,0.33 -0.08,0.05 -0.23,0.09 -0.44,0.11z"/>
 </g>
</svg>
