<?xml version="1.0" encoding="UTF-8"?>
<!DOCTYPE svg PUBLIC "-//W3C//DTD SVG 1.1//EN" "http://www.w3.org/Graphics/SVG/1.1/DTD/svg11.dtd">
<!-- Creator: CorelDRAW Home & Student 2019 -->
<svg xmlns="http://www.w3.org/2000/svg" xml:space="preserve" width="300px" height="92px" version="1.1" style="shape-rendering:geometricPrecision; text-rendering:geometricPrecision; image-rendering:optimizeQuality; fill-rule:evenodd; clip-rule:evenodd"
viewBox="0 0 57.73 17.7"
 xmlns:xlink="http://www.w3.org/1999/xlink">
 <defs>
  <style type="text/css">
   <![CDATA[
    .fil1 {fill:none}
    .fil0 {fill:#990000;fill-rule:nonzero}
   ]]>
  </style>
 </defs>
 <g id="Layer_x0020_1">
  <metadata id="CorelCorpID_0Corel-Layer"/>
  <path class="fil0" d="M13.04 3.01c-0.44,-0.58 -1.12,-0.88 -2.03,-0.88 -0.87,0 -1.54,0.33 -1.99,0.96 -0.34,0.5 -0.52,1.1 -0.52,1.8 0,0.77 0.21,1.41 0.62,1.93 0.45,0.52 1.07,0.78 1.87,0.78 0.86,0 1.51,-0.3 1.97,-0.9 0.39,-0.51 0.59,-1.15 0.59,-1.93 0,-0.71 -0.17,-1.29 -0.51,-1.76zm-0.62 3.3c-0.28,0.44 -0.73,0.67 -1.34,0.67 -0.66,0 -1.13,-0.2 -1.41,-0.6 -0.29,-0.39 -0.44,-0.87 -0.44,-1.45 0,-0.71 0.17,-1.25 0.51,-1.62 0.34,-0.37 0.77,-0.55 1.31,-0.55 0.55,0 0.98,0.18 1.31,0.56 0.32,0.36 0.47,0.86 0.47,1.46 0,0.58 -0.13,1.09 -0.41,1.53z"/>
  <polygon id="1" class="fil0" points="17.75,2.28 16.28,6.69 14.8,2.28 14.02,2.28 15.91,7.45 16.65,7.45 18.53,2.28 "/>
  <polygon id="2" class="fil0" points="23.04,2.91 23.04,2.28 19.26,2.28 19.26,7.45 23.1,7.45 23.1,6.84 19.95,6.84 19.95,5.08 22.81,5.08 22.81,4.48 19.95,4.48 19.95,2.91 "/>
  <path id="3" class="fil0" d="M26.49 2.28l-2.39 0 0 5.17 0.7 0 0 -2.22 1.59 0c0.29,0 0.5,0.04 0.64,0.1 0.23,0.12 0.35,0.34 0.37,0.68l0.05 0.86c0,0.2 0.02,0.34 0.03,0.41 0.02,0.07 0.03,0.13 0.05,0.17l0.87 0 0 -0.11c-0.12,-0.05 -0.19,-0.16 -0.23,-0.32 -0.02,-0.1 -0.05,-0.25 -0.05,-0.44l-0.02 -0.69c-0.01,-0.31 -0.07,-0.52 -0.17,-0.66 -0.11,-0.13 -0.26,-0.24 -0.46,-0.33 0.23,-0.11 0.41,-0.27 0.54,-0.46 0.12,-0.21 0.19,-0.46 0.19,-0.77 0,-0.59 -0.24,-1 -0.73,-1.22 -0.25,-0.11 -0.58,-0.17 -0.98,-0.17zm-0.07 2.36l-1.62 0 0 -1.76 1.71 0c0.24,0 0.43,0.03 0.58,0.11 0.26,0.12 0.4,0.38 0.4,0.75 0,0.34 -0.1,0.58 -0.29,0.71 -0.19,0.13 -0.45,0.19 -0.78,0.19z"/>
  <polygon id="4" class="fil0" points="32.88,2.91 32.88,2.28 29.29,2.28 29.29,7.45 29.99,7.45 29.99,5.1 32.53,5.1 32.53,4.48 29.99,4.48 29.99,2.91 "/>
  <polygon id="5" class="fil0" points="34.33,6.84 34.33,2.28 33.63,2.28 33.63,7.45 36.96,7.45 36.96,6.84 "/>
  <path id="6" class="fil0" d="M41.91 3.01c-0.44,-0.58 -1.12,-0.88 -2.03,-0.88 -0.87,0 -1.54,0.33 -1.98,0.96 -0.35,0.5 -0.52,1.1 -0.52,1.8 0,0.77 0.2,1.41 0.61,1.93 0.45,0.52 1.07,0.78 1.88,0.78 0.85,0 1.5,-0.3 1.97,-0.9 0.39,-0.51 0.58,-1.15 0.58,-1.93 0,-0.71 -0.17,-1.29 -0.51,-1.76zm-0.62 3.3c-0.28,0.44 -0.72,0.67 -1.34,0.67 -0.65,0 -1.12,-0.2 -1.41,-0.6 -0.29,-0.39 -0.44,-0.87 -0.44,-1.45 0,-0.71 0.17,-1.25 0.51,-1.62 0.34,-0.37 0.77,-0.55 1.31,-0.55 0.55,0 0.98,0.18 1.31,0.56 0.32,0.36 0.48,0.86 0.48,1.46 0,0.58 -0.14,1.09 -0.42,1.53z"/>
  <polygon id="7" class="fil0" points="45.75,2.28 44.58,6.48 43.6,2.28 42.84,2.28 44.2,7.45 44.93,7.45 46.13,3.16 47.33,7.45 48.06,7.45 49.42,2.28 48.65,2.28 47.67,6.48 46.5,2.28 "/>
  <path id="8" class="fil0" d="M12.84 10.98c-0.44,-0.58 -1.12,-0.88 -2.03,-0.88 -0.87,0 -1.53,0.32 -1.98,0.96 -0.35,0.5 -0.52,1.1 -0.52,1.8 0,0.77 0.2,1.41 0.61,1.92 0.46,0.52 1.08,0.79 1.88,0.79 0.85,0 1.51,-0.3 1.97,-0.9 0.39,-0.51 0.58,-1.16 0.58,-1.93 0,-0.71 -0.17,-1.3 -0.51,-1.76zm-0.61 3.3c-0.28,0.44 -0.73,0.66 -1.34,0.66 -0.66,0 -1.13,-0.19 -1.42,-0.59 -0.29,-0.39 -0.43,-0.87 -0.43,-1.45 0,-0.71 0.16,-1.26 0.5,-1.62 0.34,-0.37 0.78,-0.55 1.32,-0.55 0.54,0 0.98,0.18 1.3,0.55 0.32,0.37 0.48,0.86 0.48,1.47 0,0.58 -0.14,1.09 -0.41,1.53z"/>
  <path id="9" class="fil0" d="M17.9 10.62c-0.36,-0.35 -0.87,-0.52 -1.53,-0.52 -0.77,0 -1.37,0.27 -1.8,0.8 -0.41,0.48 -0.61,1.11 -0.61,1.88 0,1 0.27,1.74 0.81,2.23 0.4,0.36 0.91,0.55 1.51,0.55 0.7,0 1.25,-0.23 1.66,-0.68 0.35,-0.36 0.55,-0.82 0.61,-1.37l-0.69 0c-0.06,0.35 -0.17,0.62 -0.31,0.83 -0.28,0.4 -0.67,0.59 -1.19,0.59 -0.55,0 -0.98,-0.18 -1.26,-0.57 -0.28,-0.37 -0.43,-0.86 -0.43,-1.47 0,-0.73 0.16,-1.28 0.47,-1.64 0.32,-0.36 0.73,-0.54 1.24,-0.54 0.42,0 0.74,0.1 0.98,0.29 0.22,0.2 0.38,0.46 0.46,0.8l0.68 0c-0.04,-0.44 -0.24,-0.83 -0.6,-1.18z"/>
  <path id="10" class="fil0" d="M23.11 10.62c-0.36,-0.35 -0.87,-0.52 -1.53,-0.52 -0.77,0 -1.37,0.27 -1.8,0.8 -0.41,0.48 -0.61,1.11 -0.61,1.88 0,1 0.27,1.74 0.81,2.23 0.4,0.36 0.91,0.55 1.51,0.55 0.7,0 1.25,-0.23 1.66,-0.68 0.35,-0.36 0.55,-0.82 0.61,-1.37l-0.69 0c-0.06,0.35 -0.17,0.62 -0.31,0.83 -0.28,0.4 -0.67,0.59 -1.19,0.59 -0.55,0 -0.98,-0.18 -1.26,-0.57 -0.28,-0.37 -0.43,-0.86 -0.43,-1.47 0,-0.73 0.16,-1.28 0.47,-1.64 0.32,-0.36 0.73,-0.54 1.24,-0.54 0.42,0 0.74,0.1 0.98,0.29 0.22,0.2 0.38,0.46 0.46,0.8l0.68 0c-0.04,-0.44 -0.24,-0.83 -0.6,-1.18z"/>
  <path id="11" class="fil0" d="M25.38 13.44l0 -3.2 -0.72 0 0 2.91c0,0.64 0.09,1.13 0.26,1.47 0.31,0.63 0.9,0.94 1.78,0.94 0.87,0 1.47,-0.31 1.78,-0.94 0.17,-0.34 0.26,-0.83 0.26,-1.47l0 -2.91 -0.72 0 0 3.2c0,0.38 -0.05,0.67 -0.17,0.9 -0.21,0.4 -0.61,0.6 -1.21,0.6 -0.49,0 -0.85,-0.19 -1.06,-0.56 -0.14,-0.25 -0.2,-0.56 -0.2,-0.94z"/>
  <path id="12" class="fil0" d="M32.3 10.24l-2.39 0 0 5.18 0.7 0 0 -2.22 1.59 0c0.29,0 0.5,0.03 0.64,0.1 0.23,0.11 0.35,0.34 0.37,0.68l0.05 0.85c0,0.21 0.02,0.34 0.03,0.42 0.02,0.07 0.03,0.12 0.05,0.17l0.87 0 0 -0.12c-0.12,-0.04 -0.19,-0.15 -0.23,-0.31 -0.02,-0.1 -0.05,-0.25 -0.05,-0.44l-0.02 -0.7c-0.01,-0.3 -0.07,-0.52 -0.17,-0.65 -0.11,-0.13 -0.26,-0.24 -0.46,-0.33 0.23,-0.11 0.41,-0.27 0.54,-0.47 0.12,-0.2 0.19,-0.45 0.19,-0.76 0,-0.59 -0.24,-1.01 -0.73,-1.22 -0.26,-0.12 -0.58,-0.18 -0.98,-0.18zm-0.07 2.37l-1.62 0 0 -1.77 1.71 0c0.24,0 0.43,0.04 0.57,0.11 0.27,0.13 0.41,0.38 0.41,0.75 0,0.35 -0.1,0.59 -0.29,0.72 -0.19,0.13 -0.45,0.19 -0.78,0.19z"/>
  <path id="13" class="fil0" d="M37.51 10.24l-2.39 0 0 5.18 0.7 0 0 -2.22 1.59 0c0.29,0 0.5,0.03 0.64,0.1 0.23,0.11 0.35,0.34 0.37,0.68l0.05 0.85c0,0.21 0.02,0.34 0.03,0.42 0.02,0.07 0.03,0.12 0.05,0.17l0.87 0 0 -0.12c-0.12,-0.04 -0.19,-0.15 -0.23,-0.31 -0.02,-0.1 -0.05,-0.25 -0.05,-0.44l-0.02 -0.7c-0.01,-0.3 -0.07,-0.52 -0.17,-0.65 -0.11,-0.13 -0.26,-0.24 -0.46,-0.33 0.23,-0.11 0.41,-0.27 0.54,-0.47 0.12,-0.2 0.19,-0.45 0.19,-0.76 0,-0.59 -0.24,-1.01 -0.73,-1.22 -0.26,-0.12 -0.58,-0.18 -0.98,-0.18zm-0.07 2.37l-1.62 0 0 -1.77 1.71 0c0.24,0 0.43,0.04 0.57,0.11 0.27,0.13 0.41,0.38 0.41,0.75 0,0.35 -0.1,0.59 -0.29,0.72 -0.19,0.13 -0.45,0.19 -0.78,0.19z"/>
  <polygon id="14" class="fil0" points="44.08,10.88 44.08,10.24 40.31,10.24 40.31,15.42 44.14,15.42 44.14,14.8 40.99,14.8 40.99,13.04 43.85,13.04 43.85,12.45 40.99,12.45 40.99,10.88 "/>
  <path id="15" class="fil0" d="M47.18 10.24l-2.09 0 0 5.18 2.09 0c0.88,0 1.51,-0.39 1.87,-1.18 0.21,-0.45 0.31,-0.94 0.31,-1.49 0,-0.71 -0.17,-1.29 -0.52,-1.75 -0.39,-0.5 -0.94,-0.76 -1.66,-0.76zm-0.13 4.58l-1.26 0 0 -3.98 1.25 0c0.56,0 0.97,0.18 1.23,0.54 0.26,0.35 0.38,0.85 0.38,1.49 0,0.17 -0.02,0.35 -0.05,0.54 -0.06,0.33 -0.17,0.6 -0.31,0.8 -0.17,0.27 -0.39,0.44 -0.66,0.54 -0.15,0.05 -0.35,0.07 -0.58,0.07z"/>
  <polygon class="fil1" points="57.73,0 57.73,17.7 0,17.7 0,0 "/>
 </g>
</svg>
