<?xml version="1.0" encoding="UTF-8"?>
<!DOCTYPE svg PUBLIC "-//W3C//DTD SVG 1.1//EN" "http://www.w3.org/Graphics/SVG/1.1/DTD/svg11.dtd">
<!-- Creator: CorelDRAW Home & Student 2019 -->
<svg xmlns="http://www.w3.org/2000/svg" xml:space="preserve" width="320px" height="110px" version="1.1" style="shape-rendering:geometricPrecision; text-rendering:geometricPrecision; image-rendering:optimizeQuality; fill-rule:evenodd; clip-rule:evenodd"
viewBox="0 0 56.64 19.47"
 xmlns:xlink="http://www.w3.org/1999/xlink">
 <defs>
  <style type="text/css">
   <![CDATA[
    .fil0 {fill:none}
    .fil1 {fill:#990000;fill-rule:nonzero}
   ]]>
  </style>
 </defs>
 <g id="Layer_x0020_1">
  <metadata id="CorelCorpID_0Corel-Layer"/>
  <rect class="fil0" width="56.64" height="19.47"/>
  <path class="fil1" d="M12.14 3.41c-0.45,-0.59 -1.14,-0.9 -2.07,-0.9 -0.89,0 -1.57,0.34 -2.03,0.99 -0.35,0.5 -0.53,1.12 -0.53,1.83 0,0.79 0.21,1.45 0.63,1.97 0.46,0.53 1.1,0.8 1.92,0.8 0.87,0 1.54,-0.31 2.01,-0.92 0.4,-0.52 0.6,-1.18 0.6,-1.97 0,-0.73 -0.18,-1.32 -0.53,-1.8zm-0.62 3.37c-0.29,0.45 -0.75,0.68 -1.38,0.68 -0.67,0 -1.15,-0.2 -1.44,-0.6 -0.3,-0.4 -0.44,-0.89 -0.44,-1.48 0,-0.73 0.17,-1.29 0.51,-1.66 0.35,-0.38 0.79,-0.56 1.34,-0.56 0.56,0 1.01,0.18 1.34,0.56 0.32,0.38 0.49,0.88 0.49,1.5 0,0.59 -0.14,1.11 -0.42,1.56z"/>
  <polygon id="1" class="fil1" points="16.96,2.66 15.46,7.17 13.94,2.66 13.15,2.66 15.08,7.95 15.84,7.95 17.76,2.66 "/>
  <polygon id="2" class="fil1" points="22.36,3.31 22.36,2.66 18.51,2.66 18.51,7.95 22.42,7.95 22.42,7.32 19.21,7.32 19.21,5.52 22.13,5.52 22.13,4.91 19.21,4.91 19.21,3.31 "/>
  <path id="3" class="fil1" d="M25.9 2.66l-2.45 0 0 5.29 0.71 0 0 -2.27 1.63 0c0.3,0 0.51,0.04 0.65,0.1 0.24,0.12 0.36,0.35 0.38,0.69l0.05 0.88c0.01,0.21 0.02,0.35 0.04,0.42 0.01,0.08 0.03,0.14 0.05,0.18l0.88 0 0 -0.12c-0.12,-0.04 -0.19,-0.15 -0.23,-0.32 -0.03,-0.1 -0.05,-0.25 -0.05,-0.45l-0.03 -0.71c0,-0.31 -0.06,-0.53 -0.17,-0.67 -0.11,-0.13 -0.26,-0.25 -0.47,-0.33 0.24,-0.12 0.42,-0.28 0.55,-0.48 0.13,-0.21 0.2,-0.47 0.2,-0.78 0,-0.61 -0.25,-1.03 -0.75,-1.25 -0.26,-0.12 -0.59,-0.18 -0.99,-0.18zm-0.08 2.42l-1.66 0 0 -1.81 1.75 0c0.25,0 0.44,0.04 0.59,0.11 0.27,0.14 0.41,0.4 0.41,0.77 0,0.36 -0.1,0.6 -0.29,0.73 -0.2,0.13 -0.47,0.2 -0.8,0.2z"/>
  <polygon id="4" class="fil1" points="32.42,3.31 32.42,2.66 28.75,2.66 28.75,7.95 29.47,7.95 29.47,5.55 32.07,5.55 32.07,4.91 29.47,4.91 29.47,3.31 "/>
  <polygon id="5" class="fil1" points="33.9,7.32 33.9,2.66 33.19,2.66 33.19,7.95 36.59,7.95 36.59,7.32 "/>
  <path id="6" class="fil1" d="M41.65 3.41c-0.45,-0.59 -1.14,-0.9 -2.07,-0.9 -0.9,0 -1.57,0.34 -2.03,0.99 -0.36,0.5 -0.53,1.12 -0.53,1.83 0,0.79 0.2,1.45 0.62,1.97 0.47,0.53 1.1,0.8 1.92,0.8 0.87,0 1.54,-0.31 2.01,-0.92 0.4,-0.52 0.6,-1.18 0.6,-1.97 0,-0.73 -0.18,-1.32 -0.52,-1.8zm-0.63 3.37c-0.29,0.45 -0.74,0.68 -1.37,0.68 -0.67,0 -1.15,-0.2 -1.45,-0.6 -0.29,-0.4 -0.44,-0.89 -0.44,-1.48 0,-0.73 0.17,-1.29 0.52,-1.66 0.34,-0.38 0.79,-0.56 1.34,-0.56 0.56,0 1,0.18 1.33,0.56 0.33,0.38 0.49,0.88 0.49,1.5 0,0.59 -0.14,1.11 -0.42,1.56z"/>
  <polygon id="7" class="fil1" points="45.57,2.66 44.38,6.96 43.38,2.66 42.6,2.66 43.99,7.95 44.74,7.95 45.96,3.56 47.19,7.95 47.94,7.95 49.33,2.66 48.54,2.66 47.54,6.96 46.35,2.66 "/>
  <path id="8" class="fil1" d="M11.94 12.26c-0.45,-0.59 -1.14,-0.9 -2.07,-0.9 -0.89,0 -1.57,0.34 -2.03,0.98 -0.35,0.51 -0.53,1.13 -0.53,1.84 0,0.79 0.21,1.45 0.63,1.97 0.46,0.53 1.1,0.8 1.92,0.8 0.87,0 1.54,-0.31 2.01,-0.92 0.4,-0.52 0.6,-1.18 0.6,-1.97 0,-0.73 -0.18,-1.32 -0.53,-1.8zm-0.62 3.37c-0.29,0.45 -0.75,0.68 -1.38,0.68 -0.67,0 -1.15,-0.2 -1.44,-0.6 -0.3,-0.4 -0.44,-0.89 -0.44,-1.48 0,-0.73 0.17,-1.29 0.51,-1.66 0.35,-0.38 0.79,-0.56 1.34,-0.56 0.57,0 1.01,0.18 1.34,0.56 0.32,0.38 0.49,0.88 0.49,1.5 0,0.59 -0.14,1.11 -0.42,1.56z"/>
  <path id="9" class="fil1" d="M17.11 11.9c-0.37,-0.36 -0.89,-0.54 -1.56,-0.54 -0.78,0 -1.4,0.28 -1.84,0.82 -0.42,0.5 -0.62,1.14 -0.62,1.92 0,1.03 0.27,1.78 0.82,2.28 0.41,0.37 0.93,0.56 1.55,0.56 0.71,0 1.28,-0.23 1.7,-0.69 0.35,-0.37 0.56,-0.84 0.62,-1.4l-0.7 0c-0.07,0.36 -0.18,0.64 -0.33,0.85 -0.28,0.41 -0.68,0.61 -1.21,0.61 -0.57,0 -1,-0.2 -1.29,-0.59 -0.29,-0.38 -0.43,-0.88 -0.43,-1.5 0,-0.75 0.16,-1.31 0.48,-1.68 0.32,-0.36 0.74,-0.55 1.26,-0.55 0.42,0 0.76,0.1 1,0.3 0.23,0.19 0.39,0.47 0.47,0.81l0.69 0c-0.03,-0.45 -0.24,-0.85 -0.61,-1.2z"/>
  <path id="10" class="fil1" d="M22.44 11.9c-0.37,-0.36 -0.9,-0.54 -1.57,-0.54 -0.78,0 -1.4,0.28 -1.84,0.82 -0.41,0.5 -0.62,1.14 -0.62,1.92 0,1.03 0.27,1.78 0.83,2.28 0.41,0.37 0.93,0.56 1.55,0.56 0.7,0 1.27,-0.23 1.69,-0.69 0.36,-0.37 0.56,-0.84 0.62,-1.4l-0.7 0c-0.07,0.36 -0.18,0.64 -0.32,0.85 -0.28,0.41 -0.68,0.61 -1.21,0.61 -0.57,0 -1.01,-0.2 -1.29,-0.59 -0.29,-0.38 -0.44,-0.88 -0.44,-1.5 0,-0.75 0.16,-1.31 0.48,-1.68 0.32,-0.36 0.74,-0.55 1.26,-0.55 0.43,0 0.76,0.1 1,0.3 0.23,0.19 0.39,0.47 0.48,0.81l0.69 0c-0.04,-0.45 -0.24,-0.85 -0.61,-1.2z"/>
  <path id="11" class="fil1" d="M24.75 14.78l0 -3.27 -0.73 0 0 2.97c0,0.65 0.09,1.15 0.27,1.5 0.32,0.64 0.92,0.96 1.81,0.96 0.89,0 1.51,-0.32 1.82,-0.96 0.18,-0.35 0.27,-0.85 0.27,-1.5l0 -2.97 -0.73 0 0 3.27c0,0.38 -0.05,0.68 -0.18,0.91 -0.21,0.42 -0.62,0.62 -1.24,0.62 -0.5,0 -0.86,-0.19 -1.07,-0.57 -0.15,-0.26 -0.22,-0.58 -0.22,-0.96z"/>
  <path id="12" class="fil1" d="M31.83 11.51l-2.45 0 0 5.29 0.72 0 0 -2.27 1.63 0c0.29,0 0.51,0.03 0.65,0.1 0.23,0.12 0.36,0.35 0.38,0.69l0.05 0.88c0,0.21 0.02,0.35 0.03,0.42 0.02,0.08 0.03,0.13 0.05,0.18l0.89 0 0 -0.12c-0.12,-0.04 -0.19,-0.15 -0.24,-0.32 -0.02,-0.1 -0.04,-0.25 -0.04,-0.45l-0.03 -0.71c-0.01,-0.31 -0.07,-0.53 -0.17,-0.67 -0.11,-0.14 -0.27,-0.25 -0.47,-0.33 0.23,-0.12 0.42,-0.28 0.55,-0.48 0.13,-0.21 0.19,-0.47 0.19,-0.79 0,-0.6 -0.24,-1.02 -0.74,-1.24 -0.26,-0.12 -0.59,-0.18 -1,-0.18zm-0.07 2.42l-1.66 0 0 -1.81 1.75 0c0.25,0 0.44,0.04 0.59,0.11 0.27,0.14 0.41,0.4 0.41,0.77 0,0.36 -0.1,0.6 -0.29,0.73 -0.2,0.13 -0.47,0.2 -0.8,0.2z"/>
  <path id="13" class="fil1" d="M37.16 11.51l-2.45 0 0 5.29 0.71 0 0 -2.27 1.63 0c0.3,0 0.51,0.03 0.65,0.1 0.24,0.12 0.36,0.35 0.39,0.69l0.04 0.88c0.01,0.21 0.02,0.35 0.04,0.42 0.01,0.08 0.03,0.13 0.05,0.18l0.88 0 0 -0.12c-0.11,-0.04 -0.19,-0.15 -0.23,-0.32 -0.02,-0.1 -0.05,-0.25 -0.05,-0.45l-0.03 -0.71c0,-0.31 -0.06,-0.53 -0.17,-0.67 -0.11,-0.14 -0.26,-0.25 -0.47,-0.33 0.24,-0.12 0.42,-0.28 0.56,-0.48 0.12,-0.21 0.19,-0.47 0.19,-0.79 0,-0.6 -0.25,-1.02 -0.75,-1.24 -0.26,-0.12 -0.59,-0.18 -0.99,-0.18zm-0.08 2.42l-1.66 0 0 -1.81 1.75 0c0.25,0 0.44,0.04 0.59,0.11 0.27,0.14 0.41,0.4 0.41,0.77 0,0.36 -0.1,0.6 -0.29,0.73 -0.2,0.13 -0.46,0.2 -0.8,0.2z"/>
  <polygon id="14" class="fil1" points="43.87,12.16 43.87,11.51 40.01,11.51 40.01,16.8 43.93,16.8 43.93,16.17 40.71,16.17 40.71,14.37 43.63,14.37 43.63,13.76 40.71,13.76 40.71,12.16 "/>
  <path id="15" class="fil1" d="M47.04 11.51l-2.14 0 0 5.29 2.13 0c0.91,0 1.55,-0.4 1.92,-1.2 0.21,-0.46 0.32,-0.96 0.32,-1.53 0,-0.72 -0.18,-1.32 -0.53,-1.78 -0.41,-0.52 -0.97,-0.78 -1.7,-0.78zm-0.14 4.68l-1.28 0 0 -4.07 1.27 0c0.58,0 1,0.19 1.26,0.55 0.26,0.36 0.39,0.87 0.39,1.53 0,0.17 -0.02,0.35 -0.06,0.55 -0.05,0.34 -0.17,0.61 -0.31,0.82 -0.17,0.27 -0.4,0.45 -0.67,0.54 -0.16,0.05 -0.36,0.08 -0.6,0.08z"/>
 </g>
</svg>
