<?xml version="1.0" encoding="UTF-8"?>
<!DOCTYPE svg PUBLIC "-//W3C//DTD SVG 1.1//EN" "http://www.w3.org/Graphics/SVG/1.1/DTD/svg11.dtd">
<!-- Creator: CorelDRAW Home & Student 2019 -->
<svg xmlns="http://www.w3.org/2000/svg" xml:space="preserve" width="940px" height="61px" version="1.1" style="shape-rendering:geometricPrecision; text-rendering:geometricPrecision; image-rendering:optimizeQuality; fill-rule:evenodd; clip-rule:evenodd"
viewBox="0 0 237.02 15.43"
 xmlns:xlink="http://www.w3.org/1999/xlink">
 <defs>
  <style type="text/css">
   <![CDATA[
    .str0 {stroke:#5A9496;stroke-width:0.6;stroke-miterlimit:22.9256}
    .fil0 {fill:none}
    .fil1 {fill:#5A9496;fill-rule:nonzero}
   ]]>
  </style>
 </defs>
 <g id="Layer_x0020_1">
  <metadata id="CorelCorpID_0Corel-Layer"/>
  <rect class="fil0" width="237.02" height="15.13"/>
  <path class="fil1" d="M2.97 4.78l0 0.84 2.07 0 0 6.24 1.18 0 0 -8.77 -0.87 0c-0.16,0.68 -0.4,1.11 -0.7,1.28 -0.32,0.19 -0.89,0.32 -1.68,0.41z"/>
  <path id="1" class="fil1" d="M9.64 9.88c-0.28,0.56 -0.43,1.23 -0.48,1.98l6.05 0 0 -1.04 -4.82 0c0.12,-0.44 0.37,-0.84 0.79,-1.19 0.22,-0.2 0.54,-0.41 0.94,-0.64l0.85 -0.47c0.74,-0.4 1.26,-0.77 1.55,-1.06 0.49,-0.49 0.74,-1.09 0.74,-1.8 0,-0.67 -0.24,-1.27 -0.7,-1.83 -0.47,-0.54 -1.2,-0.82 -2.21,-0.82 -1.22,0 -2.07,0.43 -2.55,1.29 -0.26,0.48 -0.41,1.11 -0.43,1.88l1.14 0c0.01,-0.56 0.1,-0.97 0.25,-1.29 0.29,-0.57 0.82,-0.86 1.58,-0.86 0.51,0 0.92,0.16 1.23,0.46 0.3,0.29 0.46,0.7 0.46,1.22 0,0.43 -0.17,0.83 -0.51,1.16 -0.21,0.23 -0.58,0.49 -1.11,0.8l-1.18 0.68c-0.8,0.46 -1.33,0.97 -1.59,1.53z"/>
  <path id="2" class="fil1" d="M16.98 6.71c0.17,0.17 0.41,0.32 0.71,0.45 -0.49,0.21 -0.87,0.51 -1.13,0.87 -0.25,0.39 -0.38,0.83 -0.38,1.36 0,0.88 0.3,1.57 0.9,2.02 0.59,0.47 1.32,0.71 2.17,0.71 0.95,0 1.68,-0.27 2.21,-0.81 0.52,-0.54 0.79,-1.2 0.79,-1.98 0,-0.66 -0.21,-1.19 -0.6,-1.6 -0.2,-0.22 -0.49,-0.41 -0.85,-0.58 0.32,-0.18 0.56,-0.37 0.73,-0.56 0.27,-0.34 0.41,-0.79 0.41,-1.33 0,-0.61 -0.24,-1.12 -0.72,-1.57 -0.47,-0.45 -1.14,-0.66 -1.99,-0.66 -0.87,0 -1.55,0.22 -2.03,0.7 -0.46,0.48 -0.7,1.04 -0.7,1.69 0,0.53 0.15,0.96 0.48,1.29zm3.37 -0.38c-0.27,0.28 -0.65,0.41 -1.14,0.41 -0.42,0 -0.78,-0.12 -1.09,-0.35 -0.31,-0.24 -0.46,-0.57 -0.46,-0.97 0,-0.38 0.11,-0.69 0.35,-0.97 0.24,-0.28 0.63,-0.42 1.16,-0.42 0.54,0 0.93,0.14 1.2,0.42 0.26,0.28 0.4,0.58 0.4,0.91 0,0.38 -0.14,0.7 -0.42,0.97zm0.21 4.36c-0.34,0.28 -0.77,0.42 -1.29,0.42 -0.63,0 -1.11,-0.17 -1.41,-0.51 -0.3,-0.33 -0.47,-0.73 -0.47,-1.18 0,-0.54 0.18,-0.96 0.51,-1.26 0.34,-0.31 0.76,-0.46 1.29,-0.46 0.55,0 1,0.15 1.34,0.46 0.35,0.29 0.53,0.72 0.53,1.3 0,0.54 -0.16,0.95 -0.5,1.23z"/>
  <path class="fil1" d="M41.27 3.77c-0.39,-0.5 -1.07,-0.76 -2.07,-0.76 -1.35,0 -2.29,0.73 -2.81,2.2 -0.26,0.75 -0.39,1.69 -0.39,2.78 0,1.49 0.3,2.54 0.9,3.15 0.59,0.64 1.31,0.95 2.13,0.95 0.97,0 1.71,-0.3 2.23,-0.93 0.53,-0.61 0.78,-1.33 0.78,-2.12 0,-0.93 -0.28,-1.64 -0.82,-2.12 -0.56,-0.47 -1.2,-0.7 -1.94,-0.7 -0.43,0 -0.83,0.08 -1.17,0.25 -0.4,0.17 -0.72,0.45 -0.98,0.83 0.06,-1.06 0.26,-1.89 0.62,-2.46 0.37,-0.58 0.86,-0.86 1.48,-0.86 0.54,0 0.94,0.19 1.21,0.56 0.14,0.2 0.25,0.46 0.31,0.82l1.1 0c0,-0.54 -0.19,-1.07 -0.58,-1.59zm-0.83 6.74c-0.29,0.4 -0.72,0.6 -1.31,0.6 -0.58,0 -1.02,-0.19 -1.35,-0.57 -0.33,-0.38 -0.49,-0.85 -0.49,-1.41 0,-0.63 0.17,-1.11 0.54,-1.43 0.35,-0.31 0.77,-0.48 1.25,-0.48 0.68,0 1.14,0.21 1.41,0.62 0.25,0.4 0.38,0.85 0.38,1.29 0,0.54 -0.14,0.99 -0.43,1.38z"/>
  <path id="1" class="fil1" d="M42.85 9.71l3.87 0 0 2.15 1.11 0 0 -2.15 1.29 0 0 -0.97 -1.29 0 0 -5.71 -0.94 0 -4.04 5.59 0 1.09zm1.02 -0.97l2.83 -3.99 0 3.99 -2.83 0z"/>
  <path class="fil1" d="M66.79 11.25c0.46,0.56 1.22,0.85 2.27,0.85 1,0 1.8,-0.26 2.35,-0.79 0.56,-0.53 0.84,-1.21 0.84,-2.06 0,-0.53 -0.14,-0.97 -0.4,-1.33 -0.26,-0.37 -0.63,-0.61 -1.08,-0.73 0.28,-0.12 0.52,-0.29 0.69,-0.5 0.29,-0.34 0.45,-0.78 0.45,-1.32 0,-0.76 -0.26,-1.34 -0.75,-1.74 -0.49,-0.4 -1.18,-0.59 -2.08,-0.59 -1.15,0 -1.94,0.41 -2.38,1.22 -0.27,0.47 -0.39,1.02 -0.39,1.68l1.08 0c0.03,-0.49 0.12,-0.88 0.27,-1.16 0.29,-0.49 0.79,-0.73 1.53,-0.73 0.42,0 0.79,0.11 1.09,0.35 0.31,0.24 0.48,0.58 0.48,1.02 0,0.59 -0.24,1 -0.71,1.22 -0.26,0.14 -0.6,0.21 -1.02,0.21l-0.25 0c-0.09,-0.02 -0.18,-0.02 -0.29,-0.03l0 0.97c0.07,0 0.15,0 0.23,-0.01l0.22 0c0.66,0 1.18,0.12 1.55,0.36 0.37,0.24 0.56,0.67 0.56,1.28 0,0.49 -0.18,0.89 -0.53,1.21 -0.35,0.31 -0.82,0.46 -1.4,0.46 -0.76,0 -1.27,-0.24 -1.56,-0.69 -0.17,-0.26 -0.27,-0.67 -0.32,-1.25l-1.16 0c0,0.82 0.23,1.52 0.71,2.1z"/>
  <path id="1" class="fil1" d="M73.66 9.88c-0.28,0.56 -0.43,1.23 -0.48,1.98l6.05 0 0 -1.04 -4.82 0c0.12,-0.44 0.37,-0.84 0.79,-1.19 0.22,-0.2 0.54,-0.41 0.94,-0.64l0.85 -0.47c0.74,-0.4 1.26,-0.77 1.55,-1.06 0.49,-0.49 0.74,-1.09 0.74,-1.8 0,-0.67 -0.24,-1.27 -0.71,-1.83 -0.46,-0.54 -1.19,-0.82 -2.2,-0.82 -1.22,0 -2.07,0.43 -2.55,1.29 -0.26,0.48 -0.41,1.11 -0.43,1.88l1.14 0c0.01,-0.56 0.1,-0.97 0.25,-1.29 0.29,-0.57 0.82,-0.86 1.58,-0.86 0.51,0 0.92,0.16 1.23,0.46 0.3,0.29 0.45,0.7 0.45,1.22 0,0.43 -0.16,0.83 -0.5,1.16 -0.21,0.23 -0.58,0.49 -1.11,0.8l-1.18 0.68c-0.8,0.46 -1.33,0.97 -1.59,1.53z"/>
  <path class="fil1" d="M97.25 4.78l0 0.84 2.06 0 0 6.24 1.19 0 0 -8.77 -0.87 0c-0.17,0.68 -0.41,1.11 -0.71,1.28 -0.31,0.19 -0.88,0.32 -1.67,0.41z"/>
  <path id="1" class="fil1" d="M108.79 3.77c-0.39,-0.5 -1.07,-0.76 -2.06,-0.76 -1.35,0 -2.3,0.73 -2.82,2.2 -0.26,0.75 -0.39,1.69 -0.39,2.78 0,1.49 0.31,2.54 0.9,3.15 0.59,0.64 1.31,0.95 2.13,0.95 0.97,0 1.71,-0.3 2.23,-0.93 0.53,-0.61 0.78,-1.33 0.78,-2.12 0,-0.93 -0.27,-1.64 -0.82,-2.12 -0.55,-0.47 -1.19,-0.7 -1.94,-0.7 -0.43,0 -0.83,0.08 -1.17,0.25 -0.39,0.17 -0.72,0.45 -0.97,0.83 0.05,-1.06 0.25,-1.89 0.62,-2.46 0.36,-0.58 0.85,-0.86 1.47,-0.86 0.54,0 0.95,0.19 1.21,0.56 0.14,0.2 0.25,0.46 0.32,0.82l1.09 0c0,-0.54 -0.19,-1.07 -0.58,-1.59zm-0.83 6.74c-0.29,0.4 -0.72,0.6 -1.31,0.6 -0.58,0 -1.02,-0.19 -1.35,-0.57 -0.33,-0.38 -0.49,-0.85 -0.49,-1.41 0,-0.63 0.18,-1.11 0.54,-1.43 0.35,-0.31 0.77,-0.48 1.25,-0.48 0.68,0 1.15,0.21 1.41,0.62 0.25,0.4 0.38,0.85 0.38,1.29 0,0.54 -0.14,0.99 -0.43,1.38z"/>
  <path class="fil1" d="M130.99 6.71c0.18,0.17 0.42,0.32 0.72,0.45 -0.49,0.21 -0.87,0.51 -1.13,0.87 -0.25,0.39 -0.38,0.83 -0.38,1.36 0,0.88 0.3,1.57 0.9,2.02 0.59,0.47 1.32,0.71 2.16,0.71 0.96,0 1.69,-0.27 2.22,-0.81 0.52,-0.54 0.78,-1.2 0.78,-1.98 0,-0.66 -0.2,-1.19 -0.59,-1.6 -0.2,-0.22 -0.49,-0.41 -0.86,-0.58 0.33,-0.18 0.57,-0.37 0.74,-0.56 0.27,-0.34 0.41,-0.79 0.41,-1.33 0,-0.61 -0.24,-1.12 -0.72,-1.57 -0.48,-0.45 -1.14,-0.66 -1.99,-0.66 -0.87,0 -1.55,0.22 -2.03,0.7 -0.46,0.48 -0.7,1.04 -0.7,1.69 0,0.53 0.15,0.96 0.47,1.29zm3.38 -0.38c-0.27,0.28 -0.65,0.41 -1.14,0.41 -0.42,0 -0.79,-0.12 -1.09,-0.35 -0.31,-0.24 -0.46,-0.57 -0.46,-0.97 0,-0.38 0.11,-0.69 0.35,-0.97 0.24,-0.28 0.63,-0.42 1.16,-0.42 0.54,0 0.93,0.14 1.2,0.42 0.26,0.28 0.4,0.58 0.4,0.91 0,0.38 -0.14,0.7 -0.42,0.97zm0.21 4.36c-0.35,0.28 -0.77,0.42 -1.29,0.42 -0.63,0 -1.11,-0.17 -1.41,-0.51 -0.31,-0.33 -0.47,-0.73 -0.47,-1.18 0,-0.54 0.18,-0.96 0.51,-1.26 0.34,-0.31 0.76,-0.46 1.29,-0.46 0.55,0 1,0.15 1.34,0.46 0.35,0.29 0.53,0.72 0.53,1.3 0,0.54 -0.16,0.95 -0.5,1.23z"/>
  <path class="fil1" d="M160.37 9.71l3.87 0 0 2.15 1.11 0 0 -2.15 1.3 0 0 -0.97 -1.3 0 0 -5.71 -0.93 0 -4.05 5.59 0 1.09zm1.02 -0.97l2.84 -3.99 0 3.99 -2.84 0z"/>
  <path class="fil1" d="M191.18 9.88c-0.28,0.56 -0.43,1.23 -0.48,1.98l6.05 0 0 -1.04 -4.81 0c0.11,-0.44 0.36,-0.84 0.78,-1.19 0.23,-0.2 0.54,-0.41 0.95,-0.64l0.84 -0.47c0.74,-0.4 1.26,-0.77 1.55,-1.06 0.49,-0.49 0.74,-1.09 0.74,-1.8 0,-0.67 -0.24,-1.27 -0.7,-1.83 -0.47,-0.54 -1.2,-0.82 -2.21,-0.82 -1.22,0 -2.07,0.43 -2.54,1.29 -0.27,0.48 -0.42,1.11 -0.43,1.88l1.13 0c0.01,-0.56 0.1,-0.97 0.25,-1.29 0.29,-0.57 0.82,-0.86 1.58,-0.86 0.52,0 0.92,0.16 1.23,0.46 0.31,0.29 0.46,0.7 0.46,1.22 0,0.43 -0.17,0.83 -0.51,1.16 -0.21,0.23 -0.58,0.49 -1.11,0.8l-1.18 0.68c-0.79,0.46 -1.32,0.97 -1.59,1.53z"/>
  <path class="fil1" d="M221.78 4.78l0 0.84 2.07 0 0 6.24 1.18 0 0 -8.77 -0.87 0c-0.16,0.68 -0.4,1.11 -0.7,1.28 -0.32,0.19 -0.89,0.32 -1.68,0.41z"/>
  <line class="fil0 str0" x1="25.21" y1="15.13" x2="0" y2= "15.13" />
  <line class="fil0 str0" x1="55.47" y1="15.13" x2="30.26" y2= "15.13" />
  <line class="fil0 str0" x1="85.73" y1="15.13" x2="60.51" y2= "15.13" />
  <line class="fil0 str0" x1="115.99" y1="15.13" x2="90.77" y2= "15.13" />
  <line class="fil0 str0" x1="146.24" y1="15.13" x2="121.03" y2= "15.13" />
  <line class="fil0 str0" x1="176.5" y1="15.13" x2="151.29" y2= "15.13" />
  <line class="fil0 str0" x1="206.76" y1="15.13" x2="181.54" y2= "15.13" />
  <line class="fil0 str0" x1="237.02" y1="15.13" x2="211.8" y2= "15.13" />
 </g>
</svg>
