<?xml version="1.0" encoding="UTF-8"?>
<!DOCTYPE svg PUBLIC "-//W3C//DTD SVG 1.1//EN" "http://www.w3.org/Graphics/SVG/1.1/DTD/svg11.dtd">
<!-- Creator: CorelDRAW Home & Student 2019 -->
<svg xmlns="http://www.w3.org/2000/svg" xml:space="preserve" width="100px" height="100px" version="1.1" style="shape-rendering:geometricPrecision; text-rendering:geometricPrecision; image-rendering:optimizeQuality; fill-rule:evenodd; clip-rule:evenodd"
viewBox="0 0 2.52 2.52"
 xmlns:xlink="http://www.w3.org/1999/xlink">
 <defs>
  <style type="text/css">
   <![CDATA[
    .fil0 {fill:#990000}
   ]]>
  </style>
 </defs>
 <g id="Layer_x0020_1">
  <metadata id="CorelCorpID_0Corel-Layer"/>
  <path class="fil0" d="M0.15 0l2.22 0c0.08,0 0.15,0.07 0.15,0.15l0 2.22c0,0.08 -0.07,0.15 -0.15,0.15l-2.22 0c-0.08,0 -0.15,-0.07 -0.15,-0.15l0 -2.22c0,-0.08 0.07,-0.15 0.15,-0.15zm0.96 1.24l-0.64 0.92 0.29 0 0.5 -0.74 0.49 0.74 0.3 0 -0.63 -0.92 0.6 -0.88 -0.29 0 -0.46 0.69 -0.46 -0.69 -0.3 0 0.6 0.88z"/>
 </g>
</svg>
