<?xml version="1.0" encoding="UTF-8"?>
<!DOCTYPE svg PUBLIC "-//W3C//DTD SVG 1.1//EN" "http://www.w3.org/Graphics/SVG/1.1/DTD/svg11.dtd">
<!-- Creator: CorelDRAW Home & Student 2019 -->
<svg xmlns="http://www.w3.org/2000/svg" xml:space="preserve" width="92px" height="92px" version="1.1" style="shape-rendering:geometricPrecision; text-rendering:geometricPrecision; image-rendering:optimizeQuality; fill-rule:evenodd; clip-rule:evenodd"
viewBox="0 0 2.63 2.63"
 xmlns:xlink="http://www.w3.org/1999/xlink">
 <defs>
  <style type="text/css">
   <![CDATA[
    .fil0 {fill:none}
    .fil1 {fill:#CEDAD3}
   ]]>
  </style>
 </defs>
 <g id="Layer_x0020_1">
  <metadata id="CorelCorpID_0Corel-Layer"/>
  <rect class="fil0" width="2.63" height="2.63"/>
  <path class="fil1" d="M1.82 0.66c-0.1,-0.19 -0.27,-0.29 -0.51,-0.29 -0.27,0 -0.45,0.14 -0.55,0.42 -0.05,0.15 -0.08,0.33 -0.08,0.54 0,0.26 0.04,0.48 0.14,0.64 0.1,0.19 0.27,0.29 0.49,0.29 0.24,0 0.42,-0.12 0.52,-0.36 0.08,-0.16 0.12,-0.36 0.12,-0.62 0,-0.26 -0.04,-0.47 -0.13,-0.62zm-0.23 1.23c-0.07,0.1 -0.17,0.16 -0.28,0.16 -0.15,0 -0.26,-0.09 -0.32,-0.26 -0.04,-0.12 -0.06,-0.27 -0.06,-0.46 0,-0.25 0.03,-0.43 0.1,-0.56 0.06,-0.13 0.16,-0.19 0.29,-0.19 0.15,0 0.25,0.06 0.3,0.2 0.05,0.13 0.08,0.3 0.08,0.51 0,0.29 -0.04,0.49 -0.11,0.6z"/>
 </g>
</svg>
